<svg width="825" height="103" viewBox="0 0 825 103" fill="none" xmlns="http://www.w3.org/2000/svg">
<g filter="url(#filter0_d_0_1)">
<path d="M6 51.5748C6 28.6962 24.5467 10.1495 47.4252 10.1495H776.743C799.621 10.1495 818.168 28.6962 818.168 51.5748V51.5748C818.168 74.4533 799.621 93 776.743 93H47.4252C24.5467 93 6 74.4533 6 51.5748V51.5748Z" fill="url(#paint0_linear_0_1)"/>
<path d="M6 51.5748C6 28.6962 24.5467 10.1495 47.4252 10.1495H776.743C799.621 10.1495 818.168 28.6962 818.168 51.5748V51.5748C818.168 74.4533 799.621 93 776.743 93H47.4252C24.5467 93 6 74.4533 6 51.5748V51.5748Z" fill="black"/>
<path d="M47.4252 11.6495H776.743C798.793 11.6495 816.668 29.5247 816.668 51.5748C816.668 73.6249 798.793 91.5 776.743 91.5H47.4252C25.3751 91.5 7.5 73.6249 7.5 51.5748C7.5 29.5247 25.3751 11.6495 47.4252 11.6495Z" stroke="black" stroke-width="3"/>
</g>
<g filter="url(#filter1_d_0_1)">
<path d="M6 12C6 6.47716 10.4772 2 16 2H808.168C813.691 2 818.168 6.47715 818.168 12V73.4923C818.168 79.0151 813.691 83.4923 808.168 83.4923H16C10.4771 83.4923 6 79.0151 6 73.4923V12Z" fill="white" fill-opacity="0.44" shape-rendering="crispEdges"/>
<path d="M16 3.5H808.168C812.863 3.5 816.668 7.30558 816.668 12V73.4923C816.668 78.1867 812.863 81.9923 808.168 81.9923H16C11.3056 81.9923 7.5 78.1867 7.5 73.4923V12C7.5 7.30559 11.3056 3.5 16 3.5Z" stroke="black" stroke-width="3" shape-rendering="crispEdges"/>
</g>
<defs>
<filter id="filter0_d_0_1" x="0" y="8.14954" width="824.168" height="94.8505" filterUnits="userSpaceOnUse" color-interpolation-filters="sRGB">
<feFlood flood-opacity="0" result="BackgroundImageFix"/>
<feColorMatrix in="SourceAlpha" type="matrix" values="0 0 0 0 0 0 0 0 0 0 0 0 0 0 0 0 0 0 127 0" result="hardAlpha"/>
<feOffset dy="4"/>
<feGaussianBlur stdDeviation="3"/>
<feComposite in2="hardAlpha" operator="out"/>
<feColorMatrix type="matrix" values="0 0 0 0 0 0 0 0 0 0 0 0 0 0 0 0 0 0 0.25 0"/>
<feBlend mode="normal" in2="BackgroundImageFix" result="effect1_dropShadow_0_1"/>
<feBlend mode="normal" in="SourceGraphic" in2="effect1_dropShadow_0_1" result="shape"/>
</filter>
<filter id="filter1_d_0_1" x="0" y="0" width="824.168" height="93.4922" filterUnits="userSpaceOnUse" color-interpolation-filters="sRGB">
<feFlood flood-opacity="0" result="BackgroundImageFix"/>
<feColorMatrix in="SourceAlpha" type="matrix" values="0 0 0 0 0 0 0 0 0 0 0 0 0 0 0 0 0 0 127 0" result="hardAlpha"/>
<feOffset dy="4"/>
<feGaussianBlur stdDeviation="3"/>
<feComposite in2="hardAlpha" operator="out"/>
<feColorMatrix type="matrix" values="0 0 0 0 0 0 0 0 0 0 0 0 0 0 0 0 0 0 0.25 0"/>
<feBlend mode="normal" in2="BackgroundImageFix" result="effect1_dropShadow_0_1"/>
<feBlend mode="normal" in="SourceGraphic" in2="effect1_dropShadow_0_1" result="shape"/>
</filter>
<linearGradient id="paint0_linear_0_1" x1="818.168" y1="51.43" x2="6.73059" y2="77.5091" gradientUnits="userSpaceOnUse">
<stop stop-color="#FFC700"/>
<stop offset="1" stop-color="#FF4D00"/>
</linearGradient>
</defs>
</svg>
