<svg width="824" height="128" viewBox="0 0 824 128" fill="none" xmlns="http://www.w3.org/2000/svg">
<g filter="url(#filter0_d_0_1)">
<path d="M6 62C6 34.938 27.938 13 55 13H769C796.062 13 818 34.938 818 62V69C818 96.062 796.062 118 769 118H55C27.938 118 6 96.062 6 69V62Z" fill="url(#paint0_linear_0_1)"/>
<path d="M6 62C6 34.938 27.938 13 55 13H769C796.062 13 818 34.938 818 62V69C818 96.062 796.062 118 769 118H55C27.938 118 6 96.062 6 69V62Z" fill="black"/>
<path d="M55 14.5H769C795.234 14.5 816.5 35.7665 816.5 62V69C816.5 95.2335 795.234 116.5 769 116.5H55C28.7665 116.5 7.5 95.2335 7.5 69V62C7.5 35.7665 28.7665 14.5 55 14.5Z" stroke="black" stroke-width="3"/>
</g>
<g filter="url(#filter1_d_0_1)">
<path d="M6 12C6 6.47715 10.4772 2 16 2H808C813.523 2 818 6.47715 818 12V96C818 101.523 813.523 106 808 106H16C10.4772 106 6 101.523 6 96V12Z" fill="white" fill-opacity="0.44" shape-rendering="crispEdges"/>
<path d="M16 3.5H808C812.694 3.5 816.5 7.30558 816.5 12V96C816.5 100.694 812.694 104.5 808 104.5H16C11.3056 104.5 7.5 100.694 7.5 96V12C7.5 7.30558 11.3056 3.5 16 3.5Z" stroke="black" stroke-width="3" shape-rendering="crispEdges"/>
</g>
<defs>
<filter id="filter0_d_0_1" x="0" y="11" width="824" height="117" filterUnits="userSpaceOnUse" color-interpolation-filters="sRGB">
<feFlood flood-opacity="0" result="BackgroundImageFix"/>
<feColorMatrix in="SourceAlpha" type="matrix" values="0 0 0 0 0 0 0 0 0 0 0 0 0 0 0 0 0 0 127 0" result="hardAlpha"/>
<feOffset dy="4"/>
<feGaussianBlur stdDeviation="3"/>
<feComposite in2="hardAlpha" operator="out"/>
<feColorMatrix type="matrix" values="0 0 0 0 0 0 0 0 0 0 0 0 0 0 0 0 0 0 0.25 0"/>
<feBlend mode="normal" in2="BackgroundImageFix" result="effect1_dropShadow_0_1"/>
<feBlend mode="normal" in="SourceGraphic" in2="effect1_dropShadow_0_1" result="shape"/>
</filter>
<filter id="filter1_d_0_1" x="0" y="0" width="824" height="116" filterUnits="userSpaceOnUse" color-interpolation-filters="sRGB">
<feFlood flood-opacity="0" result="BackgroundImageFix"/>
<feColorMatrix in="SourceAlpha" type="matrix" values="0 0 0 0 0 0 0 0 0 0 0 0 0 0 0 0 0 0 127 0" result="hardAlpha"/>
<feOffset dy="4"/>
<feGaussianBlur stdDeviation="3"/>
<feComposite in2="hardAlpha" operator="out"/>
<feColorMatrix type="matrix" values="0 0 0 0 0 0 0 0 0 0 0 0 0 0 0 0 0 0 0.25 0"/>
<feBlend mode="normal" in2="BackgroundImageFix" result="effect1_dropShadow_0_1"/>
<feBlend mode="normal" in="SourceGraphic" in2="effect1_dropShadow_0_1" result="shape"/>
</filter>
<linearGradient id="paint0_linear_0_1" x1="818" y1="65.3166" x2="6.41417" y2="85.8939" gradientUnits="userSpaceOnUse">
<stop stop-color="#FFC700"/>
<stop offset="1" stop-color="#FF4D00"/>
</linearGradient>
</defs>
</svg>
