<svg width="825" height="78" viewBox="0 0 825 78" fill="none" xmlns="http://www.w3.org/2000/svg">
<g filter="url(#filter0_d_0_1)">
<path d="M6 37.9553C6 21.3621 19.4514 7.91064 36.0446 7.91064H788.124C804.717 7.91064 818.168 21.3621 818.168 37.9553C818.168 54.5485 804.717 67.9999 788.124 67.9999H36.0446C19.4514 67.9999 6 54.5485 6 37.9553Z" fill="url(#paint0_linear_0_1)"/>
<path d="M6 37.9553C6 21.3621 19.4514 7.91064 36.0446 7.91064H788.124C804.717 7.91064 818.168 21.3621 818.168 37.9553C818.168 54.5485 804.717 67.9999 788.124 67.9999H36.0446C19.4514 67.9999 6 54.5485 6 37.9553Z" fill="black"/>
<path d="M7.5 37.9553C7.5 22.1905 20.2799 9.41064 36.0446 9.41064H788.124C803.888 9.41064 816.668 22.1905 816.668 37.9553C816.668 53.72 803.888 66.4999 788.124 66.4999H36.0446C20.2798 66.4999 7.5 53.72 7.5 37.9553Z" stroke="black" stroke-width="3"/>
</g>
<g filter="url(#filter1_d_0_1)">
<path d="M6 12C6 6.47714 10.4772 2 16 2H808.168C813.691 2 818.168 6.47715 818.168 12V51.1042C818.168 56.627 813.691 61.1042 808.168 61.1042H16C10.4771 61.1042 6 56.627 6 51.1042V12Z" fill="white" fill-opacity="0.44" shape-rendering="crispEdges"/>
<path d="M7.5 12C7.5 7.30557 11.3056 3.5 16 3.5H808.168C812.863 3.5 816.668 7.30558 816.668 12V51.1042C816.668 55.7986 812.863 59.6042 808.168 59.6042H16C11.3056 59.6042 7.5 55.7986 7.5 51.1042V12Z" stroke="black" stroke-width="3" shape-rendering="crispEdges"/>
</g>
<defs>
<filter id="filter0_d_0_1" x="0" y="5.91064" width="824.168" height="72.0892" filterUnits="userSpaceOnUse" color-interpolation-filters="sRGB">
<feFlood flood-opacity="0" result="BackgroundImageFix"/>
<feColorMatrix in="SourceAlpha" type="matrix" values="0 0 0 0 0 0 0 0 0 0 0 0 0 0 0 0 0 0 127 0" result="hardAlpha"/>
<feOffset dy="4"/>
<feGaussianBlur stdDeviation="3"/>
<feComposite in2="hardAlpha" operator="out"/>
<feColorMatrix type="matrix" values="0 0 0 0 0 0 0 0 0 0 0 0 0 0 0 0 0 0 0.25 0"/>
<feBlend mode="normal" in2="BackgroundImageFix" result="effect1_dropShadow_0_1"/>
<feBlend mode="normal" in="SourceGraphic" in2="effect1_dropShadow_0_1" result="shape"/>
</filter>
<filter id="filter1_d_0_1" x="0" y="0" width="824.168" height="71.1042" filterUnits="userSpaceOnUse" color-interpolation-filters="sRGB">
<feFlood flood-opacity="0" result="BackgroundImageFix"/>
<feColorMatrix in="SourceAlpha" type="matrix" values="0 0 0 0 0 0 0 0 0 0 0 0 0 0 0 0 0 0 127 0" result="hardAlpha"/>
<feOffset dy="4"/>
<feGaussianBlur stdDeviation="3"/>
<feComposite in2="hardAlpha" operator="out"/>
<feColorMatrix type="matrix" values="0 0 0 0 0 0 0 0 0 0 0 0 0 0 0 0 0 0 0.25 0"/>
<feBlend mode="normal" in2="BackgroundImageFix" result="effect1_dropShadow_0_1"/>
<feBlend mode="normal" in="SourceGraphic" in2="effect1_dropShadow_0_1" result="shape"/>
</filter>
<linearGradient id="paint0_linear_0_1" x1="818.168" y1="37.8503" x2="7.48435" y2="73.7745" gradientUnits="userSpaceOnUse">
<stop stop-color="#FFC700"/>
<stop offset="1" stop-color="#FF4D00"/>
</linearGradient>
</defs>
</svg>
