
<svg xmlns="http://www.w3.org/2000/svg" version="1.1" xmlns:xlink="http://www.w3.org/1999/xlink" preserveAspectRatio="none" x="0px" y="0px" width="200px" height="200px" viewBox="0 0 200 200">
<defs>
<g id="werwe_0_Layer3_0_FILL">
<path fill="#8BA0B0" fill-opacity="0.2" stroke="none" d="
M 85.9 283.55
Q 111.25 285.3 141.05 285.3 162 285.3 182 283.75 219.1 280.9 219.1 273.95 219.1 271.3 213.7 264.75 208.75 258.7 208.2 258.7 145.5 261.9 133.95 262 129.25 261.9 98.25 260.05 67.95 258.25 66.4 258.25 66.35 258.25 58.75 264.15 51.2 270.85 51.2 274.9 51.2 278.4 54.45 279.9 57.05 281.15 63.4 281.6 65.45 281.75 85.9 283.55 Z"/>
</g>
</defs>

<g transform="matrix( 0.49468994140625, 0, 0, 0.49468994140625, 32.25,34.35) ">
<g transform="matrix( 1, 0, 0, 1, 0,0) ">
<use xlink:href="#werwe_0_Layer3_0_FILL"/>
</g>
</g>
</svg>
