
<svg xmlns="http://www.w3.org/2000/svg" version="1.1" xmlns:xlink="http://www.w3.org/1999/xlink" preserveAspectRatio="none" x="0px" y="0px" width="200px" height="200px" viewBox="0 0 200 200">
<defs>
<g id="werwe_30_Layer3_0_FILL">
<path fill="#52656A" stroke="none" d="
M 81.7 284.3
Q 82.7126953125 284.4447265625 84.45 284.55 78.6072265625 283.4123046875 73.6 281.15 69.95 279.5 64.45 265.3 64.1244140625 264.4626953125 61.55 257.05 62.2306640625 259.210546875 62.9 261.25 66.45 272.15 67.15 273.8 71 282.75 81.7 284.3 Z"/>

<path fill="#7C8E9C" stroke="none" d="
M 62.35 120.05
Q 53.3 129.8 44.2 137.7 41.6 140.3 40.65 142.55 39.65 144.95 39.65 148.95 39.65 149.1708984375 39.65 149.4 39.65078125 149.475390625 39.65 149.55 39.6509765625 149.625 39.65 149.7 39.651171875 149.775 39.65 149.85
L 40.55 162.9
Q 41.3625 171.38125 42.95 183.6 47.15 215.8 52.6 231.45 58.563671875 248.5919921875 61.55 257.05 64.1244140625 264.4626953125 64.45 265.3 69.95 279.5 73.6 281.15 78.6072265625 283.4123046875 84.45 284.55 88.294921875 285.3525390625 92.5 285.65 98.2 286.05 106.45 286.2 94.65 269.4 89.45 259.4 80.4 241.9 76.95 222.25 67.25 167.85 64.65 145.7 63.45 129.5 62.35 120.05 Z"/>

<path fill="#8BA0B0" stroke="none" d="
M 226.7 130.85
Q 219.1 120.6 217.35 120.6 213.1 120.6 182.7 122.4 152.35 124.15 137.1 124.15 122.2 124.15 96.25 122.75 70.05 121.3 62.35 120.05 63.45 129.5 64.65 145.7 67.25 167.85 76.95 222.25 80.4 241.9 89.45 259.4 94.65 269.4 106.45 286.2
L 148.6 286.9
Q 167.7 286.9 176.25 286.1 193.05 284.55 199.55 279.45 206.8 273.75 211.1 262.8 211.6 261.5 218.95 237.7 224.25 220.6 229 194.9 234.6 164.5 234.6 145.35 234.6 141.5 226.7 130.85 Z"/>
</g>
</defs>

<g transform="matrix( 0.49468994140625, 0, 0, 0.49468994140625, 32.25,34.35) ">
<g transform="matrix( 1, 0, 0, 1, 0,0) ">
<use xlink:href="#werwe_30_Layer3_0_FILL"/>
</g>
</g>
</svg>
