
<svg xmlns="http://www.w3.org/2000/svg" version="1.1" xmlns:xlink="http://www.w3.org/1999/xlink" preserveAspectRatio="none" x="0px" y="0px" width="200px" height="200px" viewBox="0 0 200 200">
<defs>
<g id="werwe_31_Layer3_0_FILL">
<path fill="#8BA0B0" fill-opacity="0.6" stroke="none" d="
M 136.65 223.7
Q 136.5287109375 223.7 136.4 223.7 125.7775390625 223.608203125 94.35 221.65 63.25 219.6 62.35 219.6 60.3 219.6 49.9 230.9 39.75 242 39.75 243.3 39.75 269.75 42.75 275.85 44.1 278.7 46.95 279.8 48.75 280.55 53.5 281.6 92.45 285.95 94.4 286 98.1 286.2 123.05 286.25 139.5294921875 286.329296875 142.95 286.7 142.351171875 286.89375 142.1 286.9 142.9626953125 286.9 143.85 286.9 167.1998046875 286.709765625 218.05 281.75 224.65 281.15 227.75 278.7 231.1 276.05 232.3 269.9 233.4 264.55 233.55 263.1 234.6 255.15 234.6 243.3 234.6 240.7 226.7 230.3 218.9 220.05 217.35 220.05 210.9 220.05 197 221.1 179.8 222.35 174.2 222.6 141.834765625 223.5845703125 137.15 223.7 136.9236328125 223.7 136.65 223.7 Z"/>
</g>
</defs>

<g transform="matrix( 0.49468994140625, 0, 0, 0.49468994140625, 32.25,34.35) ">
<g transform="matrix( 1, 0, 0, 1, 0,0) ">
<use xlink:href="#werwe_31_Layer3_0_FILL"/>
</g>
</g>
</svg>
