
<svg xmlns="http://www.w3.org/2000/svg" version="1.1" xmlns:xlink="http://www.w3.org/1999/xlink" preserveAspectRatio="none" x="0px" y="0px" width="200px" height="200px" viewBox="0 0 200 200">
<defs>
<g id="werwe_9_Layer3_0_FILL">
<path fill="#52656A" stroke="none" d="
M 27.5 54.2
Q 27.5 56.4 27.25 57.15 26.8 58.6 26.75 59.15 25.95 63.95 25.95 85.7 25.95 104 29.7 125.4 31.95 138.35 38.15 167.7 39.55 174.85 44.8 187.5 54.75 207.35 58.95 213.6 61.55 217.45 66.05 222.65 68.25390625 225.644140625 75.35 232.55 73.6017578125 230.5138671875 72.1 228.5 71.3 227.8 70.1 226.25 72.05 227.55 75.3 228.6 78.25 229.5 79.65 229.5 88.45 229.5 91.6 225.15 93.35 222.75 93.35 218.3 93.35 205.2224609375 89.05 192.8 79.3802734375 179.949609375 73.15 166.1 71.3388671875 162.06953125 69.7 157.65 69.4376953125 157.0193359375 69.25 156.55 66.05 148.55 63.95 139.15 63.269140625 136.08984375 62.6 132.5 56.6884765625 104.2 56.3 65.8
L 55.9 65.8
Q 55.25 31.5 55.3 30.55 47.55 35.95 35.6 43.8 27.5 49.75 27.5 54.2 Z"/>

<path fill="#8BA0B0" stroke="none" d="
M 192.35 32.4
Q 188.24140625 32.7068359375 185.2 32.85 164.3376953125 32.8556640625 154.45 32.9 152.47734375 32.91015625 150.7 32.95
L 136.3 33.4
Q 136.2583984375 33.39609375 136.2 33.4 136.1826171875 33.39609375 136.15 33.4 136.10703125 33.39609375 136.05 33.4 136.031640625 33.39609375 136 33.4 135.9564453125 33.3958984375 135.9 33.4 135.882421875 33.395703125 135.85 33.4
L 135.75 33.4
Q 135.7125 33.39453125 135.65 33.4 135.05 33.49140625 135.05 33.6 135.05 33.7302734375 135.05 33.8 128.9701171875 33.6841796875 96.2 32.4 58.25 30.9 55.3 30.55 55.25 31.5 55.9 65.8
L 56.3 65.8
Q 56.6884765625 104.2 62.6 132.5 63.269140625 136.08984375 63.95 139.15 66.05 148.55 69.25 156.55 69.4376953125 157.0193359375 69.7 157.65 71.3388671875 162.06953125 73.15 166.1 79.3802734375 179.949609375 89.05 192.8 88.9259765625 192.453125 88.8 192.1 107.55 182.25 119.15 175.3 134.65 166 140.2 160.25 148.5 151.7 155 142.6 159.45 136.4 160.7 133.65 170.3 112.65 174.8 100.75 182.15 81.45 185.7 64 186.6 60.3 186.95 58.65 187.2 57.2 189 46.75 189.5 45.95 189.85 42.25 190.15 38.35 190.25 37.4 190.75 34.95 190.75 32.85 191.45546875 32.6271484375 192.35 32.4
M 220.85 36.7
Q 221.35 45.9 221.6 47.95 221.55 52.45 221.7 56.1
L 221.8 65.85
Q 221.8 101.3 214.8 127.95 209.35 148.65 199.8 163.5 196.85 168.15 194.45 173.1 192 177.4 185.35 184.6 174.25 196.6 149.15 212.65 130.45 220.95 124.5 224.05 121.35 225.75 120.8 226.4
L 121.35 230.1 121.8 231.5
Q 122.3 234.65 122.35 235.85 122.4 236.1 123.7 239.95
L 124.85 243.65
Q 125.85 247.7 128.4 255.65 131.669921875 265.8392578125 133.25 271.2 142.11484375 270.8595703125 156.8 261.7 159.0015625 260.336328125 161.2 258.85 187.2076171875 243.6236328125 204.9 218.1 208.583203125 213.516015625 211.75 208.85 223.2 191.9 225.55 178.1 226.625 175.182421875 227.6 171.9
L 232 156.65
Q 234.360546875 147.806640625 236.05 138.3
L 242.15 68.8
Q 242.15 68.0490234375 242.15 67.3 241.55 55 241.05 50.7 241.0138671875 50.356640625 240.85 49.9 240.7890625 49.4802734375 240.75 49.35 240.3 48.05 237.4 45.3 236.995703125 44.9201171875 236.6 44.55 234.4376953125 42.427734375 232.8 41.05 224.7435546875 33.7828125 221.05 31.75 219.884765625 30.95 219.65 30.95 219.3205078125 30.95 218.95 30.95 220.7 33.8 220.85 36.7 Z"/>

<path fill="#D6F6F9" stroke="none" d="
M 221.6 47.95
Q 221.35 45.9 220.85 36.7 220.7 33.8 218.95 30.95 215.9482421875 30.9712890625 211.7 31.15 208.809765625 31.2470703125 204.75 31.35 196.44375 31.5943359375 192.35 32.4 191.45546875 32.6271484375 190.75 32.85 190.75 34.95 190.25 37.4 190.15 38.35 189.85 42.25 189.5 45.95 189 46.75 187.2 57.2 186.95 58.65 186.6 60.3 185.7 64 182.15 81.45 174.8 100.75 170.3 112.65 160.7 133.65 159.45 136.4 155 142.6 148.5 151.7 140.2 160.25 134.65 166 119.15 175.3 107.55 182.25 88.8 192.1 88.9259765625 192.453125 89.05 192.8 93.35 205.2224609375 93.35 218.3 93.35 222.75 91.6 225.15 88.45 229.5 79.65 229.5 78.25 229.5 75.3 228.6 72.05 227.55 70.1 226.25 71.3 227.8 72.1 228.5 73.6017578125 230.5138671875 75.35 232.55 83.7794921875 242.4177734375 98.2 253.45 118.8 269.2 133.45 271.8 133.3666015625 271.518359375 133.25 271.2 131.669921875 265.8392578125 128.4 255.65 125.85 247.7 124.85 243.65
L 123.7 239.95
Q 122.4 236.1 122.35 235.85 122.3 234.65 121.8 231.5
L 121.35 230.1 120.8 226.4
Q 121.35 225.75 124.5 224.05 130.45 220.95 149.15 212.65 174.25 196.6 185.35 184.6 192 177.4 194.45 173.1 196.85 168.15 199.8 163.5 209.35 148.65 214.8 127.95 221.8 101.3 221.8 65.85
L 221.7 56.1
Q 221.55 52.45 221.6 47.95 Z"/>
</g>
</defs>

<g transform="matrix( 0.49468994140625, 0, 0, 0.49468994140625, 32.25,34.35) ">
<g transform="matrix( 1, 0, 0, 1, 0,0) ">
<use xlink:href="#werwe_9_Layer3_0_FILL"/>
</g>
</g>
</svg>
