
<svg xmlns="http://www.w3.org/2000/svg" version="1.1" xmlns:xlink="http://www.w3.org/1999/xlink" preserveAspectRatio="none" x="0px" y="0px" width="200px" height="200px" viewBox="0 0 200 200">
<defs>
<g id="werwe_1_Layer3_0_FILL">
<path fill="#8BA0B0" fill-opacity="0.6" stroke="none" d="
M 134.3 228
Q 133.95 228.35 133.95 227.6 133.95 228.15 100.25 226.05 66.5 223.85 66.4 223.85 65.15 223.85 61.7 226.8 58.05 229.9 54.8 234 51.6 238.05 47.85 241.85 45.7 244.65 45.7 250.2 45.7 250.9 46.7 267.7 46.95 272 48.55 274.6 50.15 277.2 53.95 279.4 57.95 281.7 83.7 283.5 109.75 285.3 139.95 285.3 148.75 285.3 171.95 283.4 197.25 281.35 204.75 281.1 216.55 280.7 219.9 274.05 221 271.9 221.5 268.3 222.15 263.75 222.35 263.05 223.55 263.25 223.55 245.95 223.55 242.4 217.7 234.85 212.65 228.35 207.85 224.3 179.8 225.6 147.15 227.15 137.859765625 227.5970703125 133.95 227.6 134.6390625 227.6125 134.3 228 Z"/>
</g>
</defs>

<g transform="matrix( 0.49468994140625, 0, 0, 0.49468994140625, 32.25,34.35) ">
<g transform="matrix( 1, 0, 0, 1, 0,0) ">
<use xlink:href="#werwe_1_Layer3_0_FILL"/>
</g>
</g>
</svg>
