
<svg xmlns="http://www.w3.org/2000/svg" version="1.1" xmlns:xlink="http://www.w3.org/1999/xlink" preserveAspectRatio="none" x="0px" y="0px" width="200px" height="200px" viewBox="0 0 200 200">
<defs>
<g id="werwe_2_Layer3_0_FILL">
<path fill="#52656A" stroke="none" d="
M 76.2 279.6
Q 77.16875 280.5666015625 78.15 281.15 80.588671875 282.6130859375 85.8 283.1 80.7986328125 282.1162109375 76.2 279.6
M 106.6 284.6
L 106.65 284.6
Q 106.1521484375 284.1111328125 105.65 283.55 106.13359375 284.1162109375 106.6 284.6
M 98.65 283.85
Q 98.2890625 283.853515625 97.95 283.85 103.2353515625 284.2171875 106.3 284.55 103.035546875 283.9453125 98.65 283.85
M 45.7 155.55
L 45.7 159.4
Q 45.7 167.197265625 47.9 183.4 47.6484375 180.920703125 47.35 178 46 164.85 45.95 163.25 45.75234375 159.3470703125 45.95 154.45 45.771484375 155.02109375 45.7 155.55 Z"/>

<path fill="#7C8E9C" stroke="none" d="
M 66.4 133.05
Q 61.3396484375 137.5236328125 57.6 140.95 51.3375 146.59375 48.9 149.25 46.45 152 45.95 154.35 45.94765625 154.408984375 45.95 154.45 45.75234375 159.3470703125 45.95 163.25 46 164.85 47.35 178 47.6484375 180.920703125 47.9 183.4 48.8033203125 192.6380859375 49 196.1
L 48.95 196.35 48.7 196.3
Q 48.4 202.6 54.7 227 60.8 250.65 65.4 262.2 67.45 267.35 69.7 271.2 69.8 271.4 71.05 274.35 72.5 277.4 73.85 278.25 75.0078125 278.9900390625 76.2 279.6 80.7986328125 282.1162109375 85.8 283.1 88.3626953125 283.6216796875 91 283.75 93.4142578125 283.8892578125 97.95 283.85 98.2890625 283.853515625 98.65 283.85 103.035546875 283.9453125 106.3 284.55 106.4916015625 284.6173828125 106.65 284.65
L 106.6 284.6
Q 106.13359375 284.1162109375 105.65 283.55 95.764453125 272.86484375 88 254.3 87.8541015625 253.948828125 87.7 253.55 87.2712890625 252.536328125 86.85 251.45 86.5830078125 250.8150390625 86.3 250.15 86.2177734375 249.85703125 86.1 249.55 78.2 228.75 74.8 205.25 70.8 177.35 68.75 156.95 67.25 139.85 66.4 133.05 Z"/>

<path fill="#8BA0B0" stroke="none" d="
M 219.15 145.75
Q 212.45 139.65 207.85 133.5 179.8 134.8 147.15 136.35 137.859765625 136.7970703125 133.95 136.8 134.6390625 136.8125 134.3 137.2 133.95 137.55 133.95 136.8 121.9 136.45 107.4 135.85 78.2 134.7 66.4 133.05 67.25 139.85 68.75 156.95 70.8 177.35 74.8 205.25 78.2 228.75 86.1 249.55 86.2177734375 249.85703125 86.3 250.15 86.5830078125 250.8150390625 86.85 251.45 87.2712890625 252.536328125 87.7 253.55 87.8541015625 253.948828125 88 254.3 95.764453125 272.86484375 105.65 283.55 106.1521484375 284.1111328125 106.65 284.6
L 147.8 285.3
Q 172.9 285.3 184.5 281.95 192.75 279.6 195.5 274.75 198.15 270.2 201.25 262.9 204.7 254.75 206.9 247.3 215.3 218.45 217.35 208 218.45 199.6 219.35 193.65 221.05 182.75 223.25 173.65 223.55 172.35 223.55 160.05 223.55 150.85 219.15 145.75 Z"/>
</g>
</defs>

<g transform="matrix( 0.49468994140625, 0, 0, 0.49468994140625, 32.25,34.35) ">
<g transform="matrix( 1, 0, 0, 1, 0,0) ">
<use xlink:href="#werwe_2_Layer3_0_FILL"/>
</g>
</g>
</svg>
