
<svg xmlns="http://www.w3.org/2000/svg" version="1.1" xmlns:xlink="http://www.w3.org/1999/xlink" preserveAspectRatio="none" x="0px" y="0px" width="200px" height="200px" viewBox="0 0 200 200">
<defs>
<g id="werwe_3_Layer3_0_FILL">
<path fill="#52656A" stroke="none" d="
M 69.45 228.15
Q 66.840625 222.2669921875 64.7 215.95 60.55234375 203.75 57.25 191.5 62.020703125 211.1076171875 67.25 223.6 68.0552734375 225.5408203125 69.45 228.15
M 45.7 116.5
Q 45.775390625 112.95546875 46.9 110 45.89921875 111.676171875 45.7 113.15
L 45.7 116.5 Z"/>

<path fill="#677681" stroke="none" d="
M 70.65 136.75
Q 68.85 121.85 67.5 105.4 66.5 91.55 66.4 90.65 52.9 101 49 106.15 47.683203125 107.9255859375 46.9 110 45.775390625 112.95546875 45.7 116.5
L 46.5 131.85
Q 47.2 140.225 48.7 150.35 51.769140625 170.9880859375 57.25 191.5 60.55234375 203.75 64.7 215.95 66.840625 222.2669921875 69.45 228.15 79.3912109375 250.4466796875 96.3 267 105.2 275.7 114.05 280.65 122.5 285.35 128.5 285.35 130.1 285.35 131.6 285.1 127.75 274.5 125.85 266.9 124.8 262.75 124.55 260.5 120.2 255.6 113.55 249.1 107.55 243.2 104.8 239.9 95.9 229.2 84.9 203.85 76.35 184.1 70.65 136.75 Z"/>

<path fill="#8BA0B0" stroke="none" d="
M 210.1 93.15
Q 208.45 91.5 207.85 91.1 179.8 92.4 147.15 93.95 137.859765625 94.3970703125 133.95 94.4 134.6390625 94.4125 134.3 94.8 133.95 95.15 133.95 94.4 121.85 94.15 107.3 93.6 78.1 92.55 66.4 90.65 66.5 91.55 67.5 105.4 68.85 121.85 70.65 136.75 76.35 184.1 84.9 203.85 95.9 229.2 104.8 239.9 107.55 243.2 113.55 249.1 120.2 255.6 124.55 260.5 124.8 262.75 125.85 266.9 127.75 274.5 131.6 285.1 156.5 285.55 176.25 262.95 192.6 244.25 204.5 210.95 213.85 184.95 219.3 153.8 223.55 129.45 223.55 116.05 223.55 109.2 222.6 107.65 219.45 104.2 215.05 98.75 212.4 95.5 210.1 93.15 Z"/>
</g>
</defs>

<g transform="matrix( 0.49468994140625, 0, 0, 0.49468994140625, 32.25,34.35) ">
<g transform="matrix( 1, 0, 0, 1, 0,0) ">
<use xlink:href="#werwe_3_Layer3_0_FILL"/>
</g>
</g>
</svg>
