
<svg xmlns="http://www.w3.org/2000/svg" version="1.1" xmlns:xlink="http://www.w3.org/1999/xlink" preserveAspectRatio="none" x="0px" y="0px" width="200px" height="200px" viewBox="0 0 200 200">
<defs>
<g id="werwe_32_Layer3_0_FILL">
<path fill="#8BA0B0" fill-opacity="0.2" stroke="none" d="
M 120.4 260.75
Q 90.6 259.3 88.55 259.2 86.15 259.1 74.65 258.15 64.05 257.25 62.35 257.25 60.1 257.25 52.85 265.3 45.7 273.3 45.7 275.55 45.7 279.55 48.95 281.05 51 282 57.55 282.7 59.3 282.9 64.6 283.45 71.35 284.15 82.8 284.95 118.15 286.6 118.8 286.6 121.3 286.65 136 286.4 144.2228515625 286.3390625 147.45 286.55 145.221875 286.8890625 144.65 286.9 146.2458984375 286.8986328125 149.35 286.75 149.4986328125 286.83515625 149.5 286.9 149.4998046875 286.82734375 149.45 286.75 156.55390625 286.477734375 171.5 285.55 194.05 284.15 204.85 283.05 229.7 280.55 229.7 274.45 229.7 270.3 223.3 263.15 220.25546875 259.7646484375 217.55 257.9 216.8857421875 257.71328125 216.15 257.5 215.6921875 257.5259765625 215.25 257.5 214.3859375 257.457421875 213.5 257.4 213.0376953125 257.461328125 212.55 257.55 208.7 258.3 204.85 258.9 204.4392578125 258.831640625 204.05 258.8 203.494921875 258.9072265625 202.9 259 201.4 259.2 198.7 259.3 195.2 259.35 192.9 259.4 144.15 261.55 135.7 261.35 134.1 261.4 120.4 260.75 Z"/>
</g>
</defs>

<g transform="matrix( 0.49468994140625, 0, 0, 0.49468994140625, 32.25,34.35) ">
<g transform="matrix( 1, 0, 0, 1, 0,0) ">
<use xlink:href="#werwe_32_Layer3_0_FILL"/>
</g>
</g>
</svg>
