
<svg xmlns="http://www.w3.org/2000/svg" version="1.1" xmlns:xlink="http://www.w3.org/1999/xlink" preserveAspectRatio="none" x="0px" y="0px" width="200px" height="200px" viewBox="0 0 200 200">
<defs>
<g id="werwe_6_Layer3_0_FILL">
<path fill="#52656A" stroke="none" d="
M 62.05 93.35
L 61.65 93.4 61.6 93.05 61.95 92.8
Q 61.530859375 90.4083984375 61.1 87.95 59.62734375 89.1375 57.1 91.3 51.7 95.9 45.15 101.85 42.4 104.7 39.45 107.1 37.053515625 109.0326171875 36.3 109.65 36.0794921875 109.8705078125 36 109.95
L 37.2 115 37.4 114.7
Q 37.704296875 116.0466796875 38 117.35
L 37.7 117.35 37.85 117.75 38 117.4
Q 46.4443359375 154.434765625 55.8 175.45 56.6 177.2 60.6 188.65 65.2 200.55 69.55 206.5 88.55 232.45 105.15 245.1 118.35 255.2 135.45 260.3 134.6 258.5 130 244.8 125.45 231.15 125.3 230.05 106.45 212.8 96.25 198.45 83.6 180.65 75.6 156.35 70.7 141.5 63.4 101 62.7240234375 97.245703125 62.05 93.35
M 28.6 59.05
Q 28.875 70.64375 32.4 90.2 31.895703125 86.7771484375 31.35 82.85 28.9625 65.6603515625 28.6 59.05 Z"/>

<path fill="#D6F6F9" stroke="none" d="
M 138.2 34.3
Q 139.0408203125 34.590625 139.3 34.6 139.09453125 34.6 138.85 34.6 138.26484375 34.6 137.6 34.6
L 133.4 34.55
Q 126.3275390625 34.296484375 114.2 33.7 85.15 32.2 77.65 31.9 74.5 31.8 64.6 30.7 55.4 29.65 51.8 29.65 44.95 35.5 38.35 43.8 37.1 45.4 32.55 49.95 28.6078125 54.39140625 28.6 57.3 28.6 57.3451171875 28.6 57.4
L 28.6 59.05
Q 28.9625 65.6603515625 31.35 82.85 31.895703125 86.7771484375 32.4 90.2 34.510546875 104.3544921875 36 109.95 36.0794921875 109.8705078125 36.3 109.65 37.053515625 109.0326171875 39.45 107.1 42.4 104.7 45.15 101.85 51.7 95.9 57.1 91.3 59.62734375 89.1375 61.1 87.95 62.47109375 86.889453125 62.95 86.65 63 86.65 63.6 87.4 67.95 84.4 98.05 66.3 109.7 59.3 131.8 46.15 146.85 37.2 150.35 35
L 151.1 34.45 150.45 34.4 143.2 34.2
Q 139.45078125 34.066015625 138.2 34.3 Z"/>

<path fill="#8BA0B0" stroke="none" d="
M 234.35 43.05
Q 226.65 30.35 223.75 30.35 208.7 31.4 191.4 32.5 166.6900390625 34.001953125 150.45 34.4
L 151.1 34.45 150.35 35
Q 146.85 37.2 131.8 46.15 109.7 59.3 98.05 66.3 67.95 84.4 63.6 87.4 63 86.65 62.95 86.65 62.47109375 86.889453125 61.1 87.95 61.530859375 90.4083984375 61.95 92.8
L 61.6 93.05 61.65 93.4 62.05 93.35
Q 62.7240234375 97.245703125 63.4 101 70.7 141.5 75.6 156.35 83.6 180.65 96.25 198.45 106.45 212.8 125.3 230.05 125.45 231.15 130 244.8 134.6 258.5 135.45 260.3 155 252 165.35 245.5 178.25 237.45 187.35 226.25 196.85 214.55 205.8 195.2 214.3 176.9 225.3 145.05 228.85 134.75 232.6 115.35 236.1 95.6 236.9 91 238.65 81.4 240.15 69.35 241.5 58.6 241.5 55.85 238.25 49.4 234.35 43.05 Z"/>
</g>
</defs>

<g transform="matrix( 0.49468994140625, 0, 0, 0.49468994140625, 32.25,34.35) ">
<g transform="matrix( 1, 0, 0, 1, 0,0) ">
<use xlink:href="#werwe_6_Layer3_0_FILL"/>
</g>
</g>
</svg>
