
<svg xmlns="http://www.w3.org/2000/svg" version="1.1" xmlns:xlink="http://www.w3.org/1999/xlink" preserveAspectRatio="none" x="0px" y="0px" width="200px" height="200px" viewBox="0 0 200 200">
<defs>
<g id="werwe_7_Layer3_0_FILL">
<path fill="#52656A" stroke="none" d="
M 55.8 167.45
Q 57.0671875 170.4259765625 58.4 173.55 69.2 198.8 71.3 202.1 78.95 214.1 95.65 228.9 117.65 248.35 135.45 251.5 132.3 247.1 131.2 244.6 129.3 240.45 128.15 233.4 127.2 227.65 123.15 222.6 120.65 219.45 106.75 205.3 103.45 201.95 96.35 192.85 92.8623046875 188.3505859375 90.95 185.75 90.1033203125 186.05 89.6 186.05 88.15 186.05 87.2 185.55 84.95 184.35 81.25 183.1 70.826953125 177.911328125 55.8 167.45
M 61.6 97.3
Q 53.0234375 55.91953125 51.85 49.85 50.3 41 47.05 23.35 24.2 50 24.2 53.9 24.2 68.45 32.8 101.4 38.75 124.35 42.05 133.45 43.1228515625 136.3244140625 44.4 139.65 42.24453125 132.7916015625 39.8 124.55 33.45 103.05 31.05 93.15 42.18125 95.920703125 61.6 97.3 Z"/>

<path fill="#8BA0B0" stroke="none" d="
M 170.95 29.3
Q 172.05 27.85 173.75 27.5 150.112890625 28.8 140 28.8 120.3 28.8 87.05 26.75 55.6 24.8 47.05 23.35 50.3 41 51.85 49.85 53.0234375 55.91953125 61.6 97.3 62.186328125 97.3611328125 62.75 97.4 68.7 97.4 93.8 86 110.45 78.45 116.85 74.6 117.8 74 140.3 58.95 143 57.15 167.25 33.75 168.75 32.25 170.95 29.3
M 202.95 26.15
Q 209.6857421875 25.8625 221.95 24.5 206.793359375 25.47265625 191.4 26.45 190.1671875 26.5265625 188.95 26.6 194.845703125 26.38203125 202.95 26.15
M 228.85 24.05
Q 228.61171875 24.0654296875 228.35 24.05 227.5318359375 37.38046875 211.75 64.05 203.6 77.85 193.1 93.2 182.3 111.45 171.95 123.65 150.2193359375 149.2734375 118 170.1 117.481640625 170.40703125 117.05 170.7 110.25 175.4 102.05 180.15 94.1134765625 184.7861328125 90.95 185.75 92.8623046875 188.3505859375 96.35 192.85 103.45 201.95 106.75 205.3 120.65 219.45 123.15 222.6 127.2 227.65 128.15 233.4 129.3 240.45 131.2 244.6 132.3 247.1 135.45 251.5 160.05 247.3 192.7 210.05 201.5 200.05 211.9 175.1 216.35 164.55 225.2 139.7 230.4 125.2 237.75 95.85 246 62.9 246 52.4 246 47.35 237.5 35.2 229.7 24.05 228.85 24.05 Z"/>

<path fill="#D6F6F9" stroke="none" d="
M 228.35 24.05
L 228.35 24.05
Q 228.55 23.85 227.55 23.85 224.6216796875 24.1982421875 221.95 24.5 209.6857421875 25.8625 202.95 26.15 194.845703125 26.38203125 188.95 26.6 180.7947265625 27.1029296875 173.8 27.5
L 173.75 27.5
Q 172.05 27.85 170.95 29.3 168.75 32.25 167.25 33.75 143 57.15 140.3 58.95 117.8 74 116.85 74.6 110.45 78.45 93.8 86 68.7 97.4 62.75 97.4 62.186328125 97.3611328125 61.6 97.3 42.18125 95.920703125 31.05 93.15 33.45 103.05 39.8 124.55 42.24453125 132.7916015625 44.4 139.65 50.07265625 157.4443359375 54 166.2 54.9169921875 166.8453125 55.8 167.45 70.826953125 177.911328125 81.25 183.1 84.95 184.35 87.2 185.55 88.15 186.05 89.6 186.05 90.1033203125 186.05 90.95 185.75 94.1134765625 184.7861328125 102.05 180.15 110.25 175.4 117.05 170.7 117.481640625 170.40703125 118 170.1 150.2193359375 149.2734375 171.95 123.65 182.3 111.45 193.1 93.2 203.6 77.85 211.75 64.05 227.5318359375 37.38046875 228.35 24.05 Z"/>
</g>
</defs>

<g transform="matrix( 0.49468994140625, 0, 0, 0.49468994140625, 32.25,34.35) ">
<g transform="matrix( 1, 0, 0, 1, 0,0) ">
<use xlink:href="#werwe_7_Layer3_0_FILL"/>
</g>
</g>
</svg>
