
<svg xmlns="http://www.w3.org/2000/svg" version="1.1" xmlns:xlink="http://www.w3.org/1999/xlink" preserveAspectRatio="none" x="0px" y="0px" width="200px" height="200px" viewBox="0 0 200 200">
<defs>
<filter id="Filter_1" x="-20%" y="-20%" width="140%" height="140%" color-interpolation-filters="sRGB">
<feColorMatrix in="SourceGraphic" type="matrix" values="1 0 0 0 0 0 1 0 0 0 0 0 1 0 0 0 0 0 0.2 0" result="result1"/>
</filter>

<g id="Symbol_1_0_Layer0_0_FILL">
<path fill="#52656A" stroke="none" d="
M 20.7 0.6
Q 20.7 0.45 20.75 0.3 20.75 0.25 20.75 0.2 20.75 0.15 20.7 0.1 20.7 0.05 20.7 0 19.85 0.25 18.9 1.05 16.3 3.75 14.6 5.15 13.65 5.95 10.35 9.2 6.7 12.8 5.4 14.3 4.8 15 2 18.1 0.7 19.7 0.1 21
L 0.1 21.05
Q 0.1 21.1 0.1 21.15 0.1 21.25 0.1 21.3 0.1 21.35 0.1 21.4 0.1 21.45 0.1 21.55 0.1 21.6 0.1 21.65 0.1 21.75 0.1 21.8 0.1 21.85 0.1 21.9 0.1 21.95 0.1 22 0.1 22.1 0.1 22.15 0.1 22.2 0.1 22.3 0.1 22.35 0.1 22.4 0.1 22.45 0.1 22.5 0.1 22.6 0.1 22.65 0.1 22.7 0.1 22.8 0.1 22.85 0.1 22.9 0.1 22.95 0.1 23 0.1 23.1 0.1 23.15 0.1 23.2 0.1 23.3 0.1 23.35 0.1 23.4 0.1 23.45 0.1 23.5 0.1 23.6 0.1 23.65 0.1 23.7 0.1 23.75
L 0.1 23.85
Q 0.1 23.95 0.1 24 0.1 24.05 0.1 24.15 0.1 24.2 0.1 24.25
L 0.1 24.35
Q 0.1 24.45 0.1 24.5 0.1 24.55 0.1 24.65 0.1 24.7 0.1 24.75 0.05 24.85 0 24.85 0 24.95 0 25 0 25.05 0 25.15 0 25.2 0 25.25
L 0 25.35
Q 0 25.45 0 25.5 0 25.55 0 25.65
L 0 25.8
Q 0 25.85 0 25.9
L 0 26
Q 0 26.1 0 26.15 0 26.2 0 26.3 0 26.35 0 26.4
L 0 26.5
Q 0 26.6 0 26.65 0 26.7 0 26.8 0 26.85 0 26.9
L 0 27
Q 0 27.1 0 27.15 0 27.2 0 27.3 0 27.35 0 27.4
L 0 27.5
Q 0 27.6 0 27.65 0 27.7 0 27.75 0 27.85 0 27.9 0.05 27.95 0.1 28 0.1 28.05 0.1 28.15 0.1 28.2 0.1 28.25 0.1 28.35 0.1 28.4 0.1 28.45 0.15 28.5 0.15 28.55 0.15 28.65 0.15 28.7 0.15 28.75 0.15 28.85 0.15 28.9 0.2 28.95 0.2 29 0.2 29.05 0.2 29.15 0.2 29.2 0.2 29.25 0.2 29.35 0.2 29.4 0.2 29.45 0.2 29.5 0.2 29.55 0.25 29.6 0.25 29.7 0.25 29.75 0.25 29.8 0.25 29.9 0.25 29.95 0.25 30 0.25 30.05 0.25 30.1 0.25 30.2 0.25 30.25 0.25 30.3 0.25 30.4 0.25 30.45 0.25 30.5 0.25 30.55 0.25 30.6 0.25 30.7 0.25 30.75 0.25 30.8 0.25 30.9 0.25 30.95 0.25 31 0.25 31.05 0.25 31.1 0.25 31.2 0.3 31.25 0.3 31.3 0.3 31.4 0.3 31.45 0.3 31.5 0.3 31.55 0.3 31.6 0.3 31.65 0.3 31.75 0.3 31.8 0.3 31.85
L 0.3 31.95
Q 0.3 32.05 0.3 32.1 0.3 32.15 0.3 32.25 0.35 32.3 0.35 32.35
L 0.35 32.45
Q 0.35 32.55 0.35 32.6 0.35 32.65 0.35 32.75 0.35 32.8 0.35 32.85
L 0.35 32.95
Q 0.35 33.05 0.35 33.1 0.35 33.15 0.35 33.25 0.35 33.3 0.35 33.35
L 0.35 33.45
Q 0.35 33.55 0.35 33.6 0.35 33.65 0.35 33.7 0.35 33.8 0.35 33.85 0.35 33.9 0.35 33.95 0.4 34 0.4 34.1 0.4 34.15 0.4 34.2 0.4 34.3 0.4 34.35 0.4 34.4 0.45 34.45 0.45 34.5 0.45 34.6 0.45 34.65 0.45 34.7 0.45 34.8 0.45 34.85 0.45 34.9 0.45 34.95 0.45 35 0.45 35.1 0.45 35.15 0.45 35.2 0.45 35.3 0.45 35.35 0.4 35.4 0.4 35.45 0.4 35.5 0.4 35.55 0.4 35.65 0.4 35.7
L 0.4 35.75
Q 0.4 35.8 0.4 35.85
L 0.4 35.9
Q 0.4 35.95 0.45 36.05 0.45 36.1 0.45 36.15
L 0.45 36.25
Q 0.45 36.35 0.5 36.4 0.5 36.45 0.5 36.55 0.5 36.6 0.5 36.65
L 0.5 36.75
Q 0.5 36.85 0.5 36.9 0.5 36.95 0.5 37.05 0.55 37.1 0.6 37.15
L 0.6 37.25
Q 0.6 37.35 0.6 37.4 0.6 37.45 0.6 37.5 0.6 37.55 0.6 37.6 0.6 37.65 0.6 37.7 0.6 37.8 0.6 37.85 0.6 37.9 0.6 38 0.6 38.05 0.6 38.1 0.6 38.15 0.6 38.2 0.6 38.3 0.6 38.35 0.6 38.4 0.65 38.5 0.65 38.6 0.65 38.65 0.65 38.7 0.65 38.75 0.65 38.8 0.65 38.9 0.7 38.95 0.7 39 0.7 39.1 0.75 39.1 0.7 39.25 0.7 39.35 0.7 39.65 0.7 39.95 0.75 40.15 0.75 40.35 0.75 40.4 0.8 40.45
L 0.8 40.55
Q 0.85 40.65 0.85 40.7 0.85 41.05 0.9 41.45 0.9 41.9 0.95 42.3 0.95 42.55 0.95 42.8 1.1 43.2 1.1 43.55 1.1 43.7 1.15 43.85 1.1 44.3 1.15 44.75 1.15 45.2 1.25 45.6 1.25 45.7 1.25 45.75 1.25 45.8 1.3 45.85
L 1.35 45.9
Q 1.35 46.2 1.4 46.6 1.35 46.8 1.35 47 1.35 47.3 1.45 47.6 1.45 47.75 1.45 47.85 1.5 47.9 1.55 47.95 1.55 48.05 1.55 48.1 1.6 48.15 1.6 48.25 1.6 48.3 1.6 48.35 1.6 48.65 1.6 48.95 1.6 49.25 1.65 49.45 1.65 49.6 1.65 49.7 1.75 49.8 1.75 49.85 1.75 49.9 1.8 49.95 1.8 50.2 1.8 50.45 1.8 50.65 1.8 50.8 1.85 50.95 1.85 51.1 1.85 51.15 1.85 51.2 1.85 51.25 1.9 51.3 1.9 51.35 1.95 51.45 1.95 51.5 1.95 51.55 1.95 51.7 1.95 51.8 1.95 52.15 1.95 52.45 1.95 52.7 2.05 52.95 2.05 53.05 2.1 53.2 2.1 53.25 2.1 53.3 2.1 53.6 2.1 53.9 2.1 54.2 2.15 54.4 2.25 54.55 2.25 54.7 2.25 54.75 2.25 54.8 2.25 55.1 2.25 55.4 2.25 55.65 2.35 55.9 2.4 56.05 2.45 56.15
L 2.45 56.25
Q 2.45 56.45 2.45 56.65 2.45 56.75 2.45 56.9 2.45 56.95 2.45 57.05 2.45 57.1 2.45 57.15 2.5 57.2 2.5 57.25 2.55 57.3 2.55 57.4 2.55 57.45 2.6 57.5 2.6 57.65 2.6 57.75 2.6 57.95 2.65 58.15 2.65 58.25 2.75 58.4 2.75 58.45 2.75 58.5 2.75 58.6 2.75 58.65 2.75 59 2.75 59.35 2.8 59.65 2.85 60 2.9 60.15 2.95 60.25 2.95 60.3 2.95 60.35 2.95 60.65 2.95 60.85 3 61.1 3.05 61.35 3.1 61.5 3.1 61.6 3.1 61.8 3.15 62 3.15 62.15 3.2 62.35 3.25 62.45 3.3 62.55 3.25 62.6 3.25 62.65 3.25 62.7 3.3 62.8 3.3 62.85 3.3 62.9 3.3 62.95 3.3 63 3.3 63.1 3.3 63.15 3.3 63.2 3.3 63.25
L 3.3 63.35
Q 3.3 63.45 3.3 63.5 3.3 63.55 3.3 63.65 3.3 63.7 3.3 63.75
L 3.3 63.85
Q 3.35 63.95 3.4 64 3.4 64.05 3.4 64.15 3.4 64.2 3.45 64.25
L 3.5 64.35
Q 3.5 64.5 3.5 64.65 3.5 64.9 3.6 65.1 3.6 65.25 3.65 65.35 3.7 65.5 3.75 65.6 3.7 66 3.85 66.35 3.95 66.65 4 66.95 4.05 67.15 4.1 67.45 4.1 68 4.2 68.55 4.25 68.7 4.3 68.85 5.45 76.3 7.3 84.25 8.6 89.75 12 102.75 13.95 110.6 17.3 119.95 21.15 130.6 22.3 134 22.35 134.1 22.45 134.25 22.5 134.35 22.55 134.5 22.55 134.55 22.55 134.6 22.55 134.65 22.6 134.75 22.65 134.8 22.65 134.85 22.7 134.95 22.75 135 22.75 135.1 22.8 135.25 22.8 135.3 22.8 135.35 23.4 136.2 23.65 137.2 23.7 137.5 23.8 137.75 23.9 137.95 24 138.15 24.1 138.35 24.15 138.55 24.2 138.6 24.25 138.65 24.3 138.75 24.3 138.8 24.4 138.85 24.4 138.9 24.45 139.05 24.5 139.15 24.6 139.4 24.75 139.65 24.8 139.85 24.85 140 24.9 140.1 24.95 140.15 24.95 140.2 25 140.3 25.05 140.4 25.15 140.5 25.2 140.6 25.25 140.65 25.35 140.95 25.4 141.3 25.5 141.6 25.6 141.85 25.65 142.15 25.75 142.35 26.05 143.05 26.45 143.75 28.85 148.45 31.75 153.05 32.75 154.6 34.4 157.3 35.9 159.55 37.65 161.55 37.9 161.85 38.5 162.7 38.55 162.75 38.6 162.85 39 163.15 39.3 163.55 39.5 163.8 39.65 164.1 39.7 164.1 39.7 164.2 39.7 164.25 39.75 164.3
L 39.75 164.35
Q 39.9 164.5 40.05 164.65 40.1 164.65 40.1 164.7 40.2 164.75 40.3 164.8 40.35 164.9 40.45 165 41.05 165.65 41.65 166.3 42.95 167.7 44.3 169.1 44.6 169.4 44.85 169.75 45.25 170.15 45.75 170.65 45.9 170.8 46.05 171 46.9 171.6 48.85 173.65 49.05 173.85 52.45 177.55 54 179.25 57.75 182.15 62.1 185.55 63.05 186.45 63.65 187.05 67.9 189.6 70.35 191.1 76 194.45 79.75 196.75 82.35 197.65 83.85 198.2 87.75 199.55 87.9 199.5 88.05 199.45 87.95 199.35 87.9 199.3 87.6 198.45 87.25 197.65 87.15 197.4 87.1 197.15 86.75 196.75 86.5 196.35 86.5 196.3 86.5 196.25 86.5 196.2 86.45 196.15 86.45 196.1 86.4 196 86.4 195.95 86.35 195.9 86.35 195.8 86.35 195.75 86.35 195.7 86.35 195.65 86.3 195.5 86.25 195.4 86.2 195.25 86.2 195.15 86.2 195.1 86.2 195 86.1 194.9 86.05 194.75 86 194.65 85.95 194.55 85.9 194.45 85.9 194.4 85.8 194.25 85.7 194.15 85.65 194.1 85.6 194.05 85.6 193.95 85.55 193.95
L 85.55 193.9
Q 84.65 190.85 83.95 188.8 80.75 179.15 80.35 176.8 80.25 176.1 79.7 174.05 79.5 173.4 79.35 172.9 79.4 172.9 79.5 173 79.45 172.9 79.4 172.85 79.3 172.3 79.2 171.7 79.2 171.4 79.1 171.15 79.1 171.1 79.1 171.05 79.1 170.95 79.05 170.9 79.05 170.85 79.05 170.8 79 170.65 79 170.45 78.9 170.15 78.85 169.85 78.9 169.8 78.9 169.75 78 169.05 77.15 168.35 76.75 167.95 76.25 167.55 73.75 165.65 72.7 164.6 66.5 158.15 61.4 152.1 59.4 149.75 56.7 145.8 56.3 145.15 55.45 143.65
L 55.4 143.65
Q 55.2 143.25 54.95 142.95 54.7 142.65 54.45 142.35 54.25 142.15 54.05 141.85
L 54.05 141.8
Q 54 141.7 54 141.65 53.95 141.6 53.9 141.5 53.85 141.45 53.85 141.4 53.75 141.3 53.7 141.3 53.55 141 53.45 140.8 53.35 140.5 53.15 140.3 53 140.05 52.85 139.8 52.8 139.75 52.8 139.65
L 52.75 139.65
Q 52.2 139.15 51.75 138.55 51.65 138.4 51.6 138.3 51.5 138.15 51.35 138.05 51.25 137.9 51.2 137.8 51.1 137.7 51 137.55 50.9 137.4 50.8 137.3 50.7 137.15 50.6 136.95 50.6 136.8 50.5 136.7 50.5 136.6 50.4 136.55 50.15 136.2 49.85 135.85 49.6 135.4 49.4 134.95 49.25 134.65 49.05 134.35 48.55 133.35 48.1 132.35 48.1 132.25 48.05 132.2 47.95 132.05 47.85 131.95 47.7 131.85 47.6 131.6 47.45 131.45 47.3 131.25 47.2 130.95 47 130.75 46.9 130.6 46.85 130.45 46.75 130.25 46.7 130.05 46.5 129.9 46.4 129.65 46.35 129.6 46.3 129.55 46.3 129.5 46.25 129.4 46.2 129.3 46.15 129.15 46.05 129.05 46.05 128.9 45.95 128.85 45.9 128.8 45.85 128.7 45.8 128.7 45.75 128.6 45.7 128.55 45.65 128.5 45.65 128.4 45.55 128.3 45.55 128.15 45.45 128.05 45.4 127.95 45.35 127.85 45.35 127.8 45.35 127.75 45.35 127.65
L 45.35 127.55
Q 45.3 127.5 45.25 127.45 45.2 127.35 45.15 127.3 45.05 127.15 44.95 127.05 44.95 127 44.95 126.95 44.9 126.85 44.9 126.8 44.85 126.65 44.8 126.55 44.8 126.5 44.75 126.45 44.7 126.3 44.6 126.15 44.5 126 44.4 125.8 44.3 125.7 44.25 125.6 44.2 125.5 44.2 125.45 44.2 125.4 44.2 125.3 44.15 125.25 44.15 125.2 44 124.9 43.9 124.6 43.75 124.25 43.7 123.95 41.65 120.3 39.8 115.3 38.1 110.55 36.2 103.15 33.65 93.15 30.9 79.55 27.9 64.8 27.05 57.35 25.75 46 24.85 37.6
L 24.8 37.55
Q 24.8 37.5 24.8 37.45 24.7 37 24.65 36.55 24.55 36 24.45 35.5 24.4 35.2 24.3 35 24.2 34.1 24.1 33.3 24 32.3 23.95 31.3 23.95 31.2 23.95 31.1 23.9 31.1 23.9 31
L 23.9 30.8 23.8 30.6
Q 23.8 30.3 23.75 30 23.7 29.65 23.7 29.25 23.7 29.15 23.65 29.05 23.6 28.95 23.65 28.75 23.65 28.65 23.65 28.45
L 23.65 28.35
Q 23.5 27.95 23.4 27.5 23.3 26.85 23.2 26.2 23.2 26 23.2 25.9 23.2 25.85 23.2 25.8 23.2 25.75 23.2 25.7 23.15 25.65 23.15 25.6 23.15 25.45 23.15 25.3 23.2 25.05 23.15 24.8 23.15 24.65 23.1 24.5 23.1 24.45 23.05 24.4 23 24.35 23 24.3 23 24.25 23 24.2 23 23.95 23 23.7 23 23.5 22.9 23.3 22.9 23.2 22.85 23.1 22.85 22.9 22.85 22.6 22.9 22.25 22.8 21.9 22.8 21.65 22.7 21.45 22.7 21.35 22.7 21.25
L 22.7 21.2
Q 22.7 21.05 22.7 20.95 22.65 20.7 22.65 20.45 22.65 20.3 22.6 20.15 22.6 20.1 22.55 20.05 22.55 20 22.5 19.95 22.5 19.9 22.5 19.85 22.55 19.65 22.55 19.45 22.55 19.3 22.5 19.15 22.45 19.05 22.45 18.95 22.45 18.9 22.45 18.85 22.4 18.8 22.35 18.75 22.35 18.7 22.35 18.65 22.35 18.4 22.35 18.15 22.4 17.95 22.35 17.75 22.35 17.65 22.35 17.55
L 22.3 17.45
Q 22.25 17.45 22.25 17.35
L 22.25 17.25
Q 22.25 17.05 22.25 16.75 22.25 16.55 22.25 16.35 22.2 16.25 22.2 16.15
L 22.1 15.95 22.1 15.9
Q 22.15 15.75 22.15 15.55 22.15 15.5 22.1 15.45
L 22.1 15.4
Q 22.15 15.2 22.05 15 22.05 14.9 22.05 14.8 22.05 14.65 22 14.45 21.95 13.85 21.9 13.25 21.9 12.95 21.95 12.75 21.95 12.65 21.95 12.6 21.95 12.55 21.95 12.45
L 21.9 12.35
Q 21.9 12.3 21.9 12.25 21.9 12.15 21.9 12.1 21.9 12.05 21.9 11.95 21.95 11.95 21.95 11.9 21.95 11.85 21.95 11.8 21.9 11.6 21.85 11.4 21.85 11.05 21.8 10.75 21.8 10.4 21.75 10 21.75 9.85 21.65 9.65 21.65 9.4 21.65 9.2 21.6 9.15 21.6 9.05 21.55 8.85 21.55 8.65 21.55 8.55 21.55 8.45 21.45 8.25 21.45 7.95 21.4 7.75 21.4 7.5 21.4 7.4 21.4 7.3 21.4 7.25 21.35 7.2 21.35 7.15 21.35 7.1 21.25 6.7 21.3 6.3 21.35 5.9 21.25 5.5 21.25 5.35 21.25 5.25 21.2 5.15 21.2 5.05 21.15 4.9 21.15 4.75 21.15 4.6 21.15 4.45 21.15 4.4 21.1 4.35 21.1 4.3 21.05 4.25 21.05 4.2 21.05 4.15 21 3.9 21.05 3.6 21 3.5 21 3.4 20.95 3.25 21 3.1 21 3.05 20.95 3 20.95 2.95 20.95 2.9 20.95 2.8 20.9 2.7 20.9 2.65 20.85 2.6 20.85 2.4 20.85 2.2 20.85 1.95 20.85 1.7 20.8 1.5 20.8 1.3 20.8 1.25 20.8 1.2 20.8 1.15 20.75 1.1 20.75 1 20.7 0.9 20.7 0.75 20.7 0.6 Z"/>

<path fill="#8BA0B0" stroke="none" d="
M 177.85 19.8
Q 177.85 17.75 162.5 0.45 162.15 0.45 161.8 0.45 161.6 0.5 161.5 0.5 156.95 0.95 152.4 1.35 150 1.6 147.6 1.6
L 147.55 1.6
Q 147.15 1.6 146.8 1.55 146.1 1.7 145.4 1.7 145.05 1.7 144.7 1.75 144.45 1.75 144.15 1.8 142.2 2.1 140.25 1.95 135.8 2.35 131.35 2.5 130.8 2.55 130.3 2.6 128.45 2.7 126.65 2.7 126.55 2.7 126.45 2.7 110.9064453125 3.699609375 87.95 3.7 88.109375 3.703125 88.25 3.75 78.1 3.5 52.75 2.45 47.6 2.5 42.45 1.95 41.35 1.95 40.2 1.85 38.45 1.65 36.7 1.45 33.85 1.3 31 1.1 30.45 1.25 29.85 1.2 28.7 1.05 27.55 0.95 27.4 0.95 27.3 0.9 26.7 0.95 26.1 0.85 23.65 0.75 21.25 0.15 20.95 0.1 20.7 0 20.7 0.05 20.7 0.1 20.75 0.15 20.75 0.2 20.75 0.25 20.75 0.3 20.7 0.45 20.7 0.6 20.7 0.75 20.7 0.9 20.75 1 20.75 1.1 20.8 1.15 20.8 1.2 20.8 1.25 20.8 1.3 20.8 1.5 20.85 1.7 20.85 1.95 20.85 2.2 20.85 2.4 20.85 2.6 20.9 2.65 20.9 2.7 20.95 2.8 20.95 2.9 20.95 2.95 20.95 3 21 3.05 21 3.1 20.95 3.25 21 3.4 21 3.5 21.05 3.6 21 3.9 21.05 4.15 21.05 4.2 21.05 4.25 21.1 4.3 21.1 4.35 21.15 4.4 21.15 4.45 21.15 4.6 21.15 4.75 21.15 4.9 21.2 5.05 21.2 5.15 21.25 5.25 21.25 5.35 21.25 5.5 21.35 5.9 21.3 6.3 21.25 6.7 21.35 7.1 21.35 7.15 21.35 7.2 21.4 7.25 21.4 7.3 21.4 7.4 21.4 7.5 21.4 7.75 21.45 7.95 21.45 8.25 21.55 8.45 21.55 8.55 21.55 8.65 21.55 8.85 21.6 9.05 21.6 9.15 21.65 9.2 21.65 9.4 21.65 9.65 21.75 9.85 21.75 10 21.8 10.4 21.8 10.75 21.85 11.05 21.85 11.4 21.9 11.6 21.95 11.8 21.95 11.85 21.95 11.9 21.95 11.95 21.9 11.95 21.9 12.05 21.9 12.1 21.9 12.15 21.9 12.25 21.9 12.3 21.9 12.35
L 21.95 12.45
Q 21.95 12.55 21.95 12.6 21.95 12.65 21.95 12.75 21.9 12.95 21.9 13.25 21.95 13.85 22 14.45 22.05 14.65 22.05 14.8 22.05 14.9 22.05 15 22.15 15.2 22.1 15.4
L 22.1 15.45
Q 22.15 15.5 22.15 15.55 22.15 15.75 22.1 15.9
L 22.1 15.95 22.2 16.15
Q 22.2 16.25 22.25 16.35 22.25 16.55 22.25 16.75 22.25 17.05 22.25 17.25
L 22.25 17.35
Q 22.25 17.45 22.3 17.45
L 22.35 17.55
Q 22.35 17.65 22.35 17.75 22.4 17.95 22.35 18.15 22.35 18.4 22.35 18.65 22.35 18.7 22.35 18.75 22.4 18.8 22.45 18.85 22.45 18.9 22.45 18.95 22.45 19.05 22.5 19.15 22.55 19.3 22.55 19.45 22.55 19.65 22.5 19.85 22.5 19.9 22.5 19.95 22.55 20 22.55 20.05 22.6 20.1 22.6 20.15 22.65 20.3 22.65 20.45 22.65 20.7 22.7 20.95 22.7 21.05 22.7 21.2
L 22.7 21.25
Q 22.7 21.35 22.7 21.45 22.8 21.65 22.8 21.9 22.9 22.25 22.85 22.6 22.85 22.9 22.85 23.1 22.9 23.2 22.9 23.3 23 23.5 23 23.7 23 23.95 23 24.2 23 24.25 23 24.3 23 24.35 23.05 24.4 23.1 24.45 23.1 24.5 23.15 24.65 23.15 24.8 23.2 25.05 23.15 25.3 23.15 25.45 23.15 25.6 23.15 25.65 23.2 25.7 23.2 25.75 23.2 25.8 23.2 25.85 23.2 25.9 23.2 26 23.2 26.2 23.3 26.85 23.4 27.5 23.5 27.95 23.65 28.35
L 23.65 28.45
Q 23.65 28.65 23.65 28.75 23.6 28.95 23.65 29.05 23.7 29.15 23.7 29.25 23.7 29.65 23.75 30 23.8 30.3 23.8 30.6
L 23.9 30.8 23.9 31
Q 23.9 31.1 23.95 31.1 23.95 31.2 23.95 31.3 24 32.3 24.1 33.3 24.2 34.1 24.3 35 24.4 35.2 24.45 35.5 24.55 36 24.65 36.55 24.7 37 24.8 37.45 24.8 37.5 24.8 37.55
L 24.85 37.6
Q 25.75 46 27.05 57.35 27.9 64.8 30.9 79.55 33.65 93.15 36.2 103.15 38.1 110.55 39.8 115.3 41.65 120.3 43.7 123.95 43.75 124.25 43.9 124.6 44 124.9 44.15 125.2 44.15 125.25 44.2 125.3 44.2 125.4 44.2 125.45 44.2 125.5 44.25 125.6 44.3 125.7 44.4 125.8 44.5 126 44.6 126.15 44.7 126.3 44.75 126.45 44.8 126.5 44.8 126.55 44.85 126.65 44.9 126.8 44.9 126.85 44.95 126.95 44.95 127 44.95 127.05 45.05 127.15 45.15 127.3 45.2 127.35 45.25 127.45 45.3 127.5 45.35 127.55
L 45.35 127.65
Q 45.35 127.75 45.35 127.8 45.35 127.85 45.4 127.95 45.45 128.05 45.55 128.15 45.55 128.3 45.65 128.4 45.65 128.5 45.7 128.55 45.75 128.6 45.8 128.7 45.85 128.7 45.9 128.8 45.95 128.85 46.05 128.9 46.05 129.05 46.15 129.15 46.2 129.3 46.25 129.4 46.3 129.5 46.3 129.55 46.35 129.6 46.4 129.65 46.5 129.9 46.7 130.05 46.75 130.25 46.85 130.45 46.9 130.6 47 130.75 47.2 130.95 47.3 131.25 47.45 131.45 47.6 131.6 47.7 131.85 47.85 131.95 47.95 132.05 48.05 132.2 48.1 132.25 48.1 132.35 48.55 133.35 49.05 134.35 49.25 134.65 49.4 134.95 49.6 135.4 49.85 135.85 50.15 136.2 50.4 136.55 50.5 136.6 50.5 136.7 50.6 136.8 50.6 136.95 50.7 137.15 50.8 137.3 50.9 137.4 51 137.55 51.1 137.7 51.2 137.8 51.25 137.9 51.35 138.05 51.5 138.15 51.6 138.3 51.65 138.4 51.75 138.55 52.2 139.15 52.75 139.65
L 52.8 139.65
Q 52.8 139.75 52.85 139.8 53 140.05 53.15 140.3 53.35 140.5 53.45 140.8 53.55 141 53.7 141.3 53.75 141.3 53.85 141.4 53.85 141.45 53.9 141.5 53.95 141.6 54 141.65 54 141.7 54.05 141.8
L 54.05 141.85
Q 54.25 142.15 54.45 142.35 54.7 142.65 54.95 142.95 55.2 143.25 55.4 143.65
L 55.45 143.65
Q 56.3 145.15 56.7 145.8 59.4 149.75 61.4 152.1 66.5 158.15 72.7 164.6 73.75 165.65 76.25 167.55 76.75 167.95 77.15 168.35 78 169.05 78.9 169.75 78.9 169.8 78.85 169.85 78.9 170.15 79 170.45 79 170.65 79.05 170.8 79.05 170.85 79.05 170.9 79.1 170.95 79.1 171.05 79.1 171.1 79.1 171.15 79.2 171.4 79.2 171.7 79.3 172.3 79.4 172.85 79.45 172.9 79.5 173 79.4 172.9 79.35 172.9 79.5 173.4 79.7 174.05 80.25 176.1 80.35 176.8 80.75 179.15 83.95 188.8 84.65 190.85 85.55 193.9
L 85.55 193.95
Q 85.6 193.95 85.6 194.05 85.65 194.1 85.7 194.15 85.8 194.25 85.9 194.4 85.9 194.45 85.95 194.55 86 194.65 86.05 194.75 86.1 194.9 86.2 195 86.2 195.1 86.2 195.15 86.2 195.25 86.25 195.4 86.3 195.5 86.35 195.65 86.35 195.7 86.35 195.75 86.35 195.8 86.35 195.9 86.4 195.95 86.4 196 86.45 196.1 86.45 196.15 86.5 196.2 86.5 196.25 86.5 196.3 86.5 196.35 86.75 196.75 87.1 197.15 87.15 197.4 87.25 197.65 87.6 198.45 87.9 199.3 87.95 199.35 88.05 199.45 88.25 199.4 88.4 199.35 89.45 199 90.45 198.85 91.05 198.65 91.7 198.55 92.85 198.15 94 197.8 95.3 197.35 96.9 196.6 97.9 196.3 98.9 195.8 99.75 195.35 100.65 194.9 101.25 194.55 101.9 194.25 102.05 194.15 102.2 194.05 102.65 193.8 103.05 193.55 103.95 193.15 104.8 192.65 106 191.9 107.3 191.2 108.4 190.55 109.4 189.7
L 109.45 189.65 109.5 189.65
Q 109.5 189.6 109.6 189.55 109.6 189.5 109.7 189.45 109.8 189.45 109.9 189.45 110 189.4 110.1 189.35 110.3 189.25 110.5 189.1 110.85 188.9 111.2 188.6 112.3 188 113.35 187.2 114.3 186.55 115.25 185.85 116.25 185.1 117.25 184.3 117.55 184.1 117.9 183.85 119.55 182.65 121.1 181.3 121.25 181.05 121.4 180.9 121.85 180.5 122.3 180.15 122.5 180 122.7 179.8 124.6 178.15 126.4 176.35 126.45 176.3 126.5 176.2 126.5 176.15 126.55 176.1
L 126.6 176
Q 126.7 175.9 126.75 175.85 126.8 175.8 126.8 175.75 126.85 175.7 126.9 175.7 127.1 175.25 127.45 175 128.05 174.55 128.5 173.95 128.9 173.7 129.2 173.35 129.7 172.95 130.2 172.55 131.1 171.4 132.05 170.35 133 169.35 134 168.4 134.45 167.75 134.95 167.15 135.45 166.5 136.05 165.85 139.15 161.2 139.5 160.8 142.4 157.65 145.85 150.95 149.3 144.6 150.8 141.6 153 137.15 154.3 133.2 154.35 133.05 154.4 132.9 154.5 132.65 154.65 132.4 154.75 132.3 154.8 132.2 154.8 132.1 154.8 132.05 154.8 132 154.85 131.95 154.95 131.65 155.15 131.35 155.55 130.55 155.95 129.7 156.15 129.2 156.25 128.6 156.3 128.5 156.35 128.45 156.35 128.4 156.35 128.35 156.4 128.3 156.45 128.2 156.45 128.15 156.45 128.1 156.45 128.05 156.5 127.95 156.55 127.9 156.55 127.85 156.55 127.8 156.65 127.75 156.65 127.65 156.65 127.6
L 156.65 127.55
Q 157.45 125.6 157.9 124.3 157.95 124.2 158 124.15 158 124.1 158.05 124.05 158.2 123.65 158.3 123.3 158.5 122.8 158.6 122.3 158.7 122 158.7 121.7 158.75 121.55 158.85 121.45 158.9 121.3 158.95 121.2 159 121.1 159 121.05 159.05 121 159.05 120.95 159.05 120.9 159.05 120.8 159.05 120.75 159.05 120.7 159.1 120.6 159.15 120.55 159.15 120.5 159.15 120.45 159.15 120.4 159.2 120.3 159.2 120.25 159.25 120.2 159.25 120.15 159.3 120.05 159.35 119.9 159.35 119.7 159.35 119.5 159.45 119.35 159.5 119.2 159.55 119.05
L 159.55 118.95
Q 159.75 118.6 159.95 118.2 160.35 117.2 160.7 116.1 161 115.3 161.2 114.5 161.2 114.45 161.2 114.35 161.2 114.3 161.2 114.25 161.3 113.95 161.4 113.65
L 161.4 113.6
Q 162.55 110.45 163.95 104.9 166.2 96.05 166.3 95.7 167.75 90.95 169 85.85 170.5 79.75 171.05 75.95 171.1 75.45 171.15 75.05
L 171.15 75
Q 171.15 74.8 171.25 74.6 171.3 74.45 171.35 74.25 171.4 74.1 171.4 74 171.4 73.95 171.4 73.9 171.45 73.8 171.45 73.75 171.5 73.7 171.55 73.6 171.55 73.55 171.55 73.5 171.6 73.3 171.65 73.1 171.65 73 171.7 72.9 171.75 72.85 171.75 72.75 171.75 72.7 171.75 72.65 171.75 72.4 171.8 72.15 171.85 71.95 171.85 71.75 171.85 71.65 171.85 71.55 171.85 71.45 171.85 71.4 171.9 71.35 171.9 71.25 171.95 71.2 171.95 71.15
L 171.95 71.05
Q 171.95 70.9 172 70.8 172 70.7 172 70.65 172 70.6 172 70.55 172 70.5 172 70.4 172 70.35 172.05 70.3 172.05 70.2 172.05 70.15 172.1 70.1 172.1 70.05 172.1 70 172.1 69.9 172.1 69.85 172.15 69.8 172.15 69.7 172.15 69.65 172.15 69.6 172.15 69.55 172.15 69.5 172.15 69.4 172.15 69.35 172.2 69.3 172.25 69.2 172.25 69.15 172.25 69.1 172.25 69.05 172.25 69 172.3 68.95 172.3 68.75 172.3 68.55 172.35 68.45 172.35 68.3 172.35 68.25 172.35 68.15
L 172.35 68.05
Q 172.35 68 172.35 67.95 172.4 67.85 172.4 67.8 172.45 67.75 172.45 67.65
L 172.45 67.55
Q 172.45 67.45 172.5 67.3 172.5 67.25 172.5 67.15
L 172.5 67.05
Q 172.5 67 172.5 66.95 172.5 66.9 172.5 66.8 172.55 66.75 172.55 66.7 172.55 66.65 172.55 66.6 172.55 66.5 172.6 66.45 172.6 66.4 172.6 66.3 172.6 66.25 172.6 66.2 172.6 66.15 172.6 66.1 172.6 66 172.65 65.95 172.65 65.9 172.7 65.8 172.7 65.75 172.7 65.7 172.7 65.65 172.7 65.6 172.7 65.5 172.75 65.45 172.75 65.4 172.75 65.3 172.75 65.25 172.75 65.2 172.75 65.1 172.75 65.05
L 172.75 65
Q 172.8 64.95 172.8 64.85 172.8 64.75 172.8 64.65 172.85 64.45 172.9 64.25 172.9 64.15 173 64 173 63.95 173 63.85 173 63.75 173.05 63.65 173.1 63.45 173.05 63.25 173.05 63.15 173.05 63 173.05 62.95 173.05 62.9 173.1 62.8 173.1 62.65 173.15 62.5 173.2 62.4 173.2 62.35 173.2 62.3 173.2 62.2 173.2 62.15 173.25 62.1 173.3 62 173.3 61.95 173.35 61.9 173.35 61.8 173.4 61.65 173.4 61.45 173.4 61.3 173.4 61.15 173.4 61.05 173.4 60.95 173.4 60.9 173.4 60.8 173.45 60.65
L 173.5 60.6 173.5 60.55
Q 173.5 60.45 173.5 60.4 173.55 60.35 173.55 60.3 173.55 60.25 173.55 60.15 173.55 60.05 173.55 60 173.55 59.9 173.6 59.85 173.65 59.7 173.7 59.55 173.7 59.35 173.75 59.1 173.8 58.7 173.85 58.35 173.85 58.1 173.85 57.85 173.9 57.8 173.9 57.7 173.9 57.65 173.9 57.6 173.95 57.55 174 57.5 174 57.15 174 56.85 174 56.6 174 56.35 174 56.05 174.1 55.8 174.15 55.45 174.3 55.2 174.35 55 174.4 54.8 174.4 54.75 174.4 54.7 174.4 54.6 174.4 54.55 174.4 54.5 174.45 54.4 174.45 54.35 174.5 54.3 174.55 54.25 174.55 54.2 174.55 54 174.55 53.8 174.6 53.7 174.65 53.55 174.65 53.5 174.65 53.4 174.7 53.2 174.75 52.95 174.8 52.75 174.85 52.55 174.85 52.45 174.9 52.3 174.9 52.05 174.95 51.8 174.95 51.5 174.95 51.2 175 51 175.05 50.8 175.05 50.7 175.1 50.6 175.15 50.4 175.15 50.2 175.15 50.1 175.15 49.95 175.15 49.9 175.15 49.8
L 175.15 49.7
Q 175.2 49.65 175.2 49.6 175.25 49.5 175.25 49.45 175.25 49.4 175.25 49.3 175.25 49.15 175.25 48.95 175.3 48.85 175.3 48.75 175.35 48.65 175.35 48.5 175.4 48.45 175.4 48.4 175.4 48.35 175.45 48.25 175.45 48.15 175.45 48 175.45 47.9 175.5 47.75 175.55 47.7 175.55 47.65 175.55 47.55 175.55 47.5 175.55 47.45 175.55 47.4 175.55 47.35 175.6 47.3 175.6 47.2 175.6 47.15 175.65 47.1 175.65 47 175.6 47 175.6 46.9 175.55 46.85 175.55 46.8
L 175.55 46.75
Q 175.6 46.7 175.65 46.6 175.7 46.35 175.75 46.1 175.75 45.85 175.85 45.6 175.85 45.5 175.9 45.35
L 175.95 45.25
Q 175.95 45.05 175.95 44.85 175.95 44.75 175.95 44.65 175.95 44.55 175.95 44.5 176.05 44.25 176.05 44 176.1 43.8 176.1 43.65 176.15 43.5 176.15 43.4 176.25 43.1 176.25 42.8 176.3 42.6 176.3 42.5 176.35 42.3 176.35 42.1 176.35 41.85 176.4 41.6 176.55 41.25 176.5 40.85 176.55 40.8 176.55 40.75 176.65 40.45 176.7 40.15 176.7 39.8 176.7 39.5 176.7 39.45 176.7 39.4 176.7 39.3 176.65 39.25
L 176.65 39.2
Q 176.7 39.15 176.7 39.1 176.7 39.05 176.7 39 176.7 38.85 176.7 38.75
L 176.7 38.7
Q 176.75 38.65 176.8 38.6 176.8 38.55 176.8 38.5 176.8 38.4 176.8 38.35 176.8 38.3 176.8 38.2 176.8 38.1 176.85 38 176.9 37.8 176.9 37.6 176.9 37.5 176.9 37.35 176.9 37.3 176.9 37.25 177.05 36.85 177.05 36.5 177.05 36 177.05 35.5 177.05 35.45 177.05 35.4 177.1 35.3 177.1 35.2 177.85 30.8 177.85 19.8 Z"/>
</g>

<g id="Symbol_3_0_Layer0_0_FILL">
<path fill="#D6F6F9" fill-opacity="0.6" stroke="none" d="
M 106.55 25.75
Q 106.55 19.95 99.05 10.4 91.15 1.4 90.3 0
L 89.95 0.2 90.1 0.25
Q 84.7 27.85 80.55 47.8 72.6 85.8 66.6 101.4 59.3 120.35 56.4 126.25 54.7 129.65 49.5 137.5 39.55 152.4 29.1 163.1 15.9 176.55 0.9 184.35 0.6 183.15 0.3 183.9 0 184.65 0 186.9 0 188.75 0.8 193.2 1.2 195.55 1.8 197.85 3.55 204.15 4.6 207.3 4.7 207.75 6.3 212 7.9 216.2 8.45 217.45
L 9.8 218.9
Q 16.35 215.7 23.5 211.85 37.75 204.2 45.25 197 52.5 190 54.35 188 62.25 179.6 68.65 170.1 72.75 164.1 77.65 152.65 82.85 140.65 83 140.4 88.5 131.35 97.45 88.55 106.55 45 106.55 25.75
M 81.1 58.85
Q 81.2 59.1 81.15 59.15
L 80.9 59.35 80.9 58.1
Q 80.95 58.5 81.1 58.85
M 53.3 138.7
L 53.15 138.85 53.9 137.95 53.3 138.7 Z"/>

<path fill="#8BA0B0" stroke="none" d="
M 53.15 138.85
L 53.3 138.7 53.9 137.95 53.15 138.85
M 81.15 59.15
Q 81.2 59.1 81.1 58.85 80.95 58.5 80.9 58.1
L 80.9 59.35 81.15 59.15 Z"/>
</g>

<g id="Symbol_2_0_Layer0_0_FILL">
<path fill="#D6F6F9" stroke="none" d="
M 9.2 0.05
Q 7.45 11.25 6.8 22.05 6.25 25.3 4.9 27.05 3.45 28.85 0 30.4 4.4 31.15 4.4 38.7 4.4 42.05 3.4 56.5
L 3.8 55.7
Q 4.25 54 4.7 48.8 5.15 43.25 5.75 40.55 7.75 31 15.05 31.85
L 14.2 31.7
Q 9.85 30.55 8.7 28.1 7.85 26.35 7.85 20.85 8.45 13.25 9.35 0.2
L 9.3 0 9.2 0.05
M 4.35 31.85
L 4.2 32.05 4.1 31.85 4.35 31.85 Z"/>
</g>
</defs>

<g transform="matrix( 0.49468994140625, 0, 0, 0.49468994140625, 32.25,34.35) ">
<g transform="matrix( 1.0935516357421875, 0, 0, 1.0935516357421875, 40,40.9) ">
<g transform="matrix( 1, 0, 0, 1, 0,0) ">
<use xlink:href="#Symbol_1_0_Layer0_0_FILL"/>
</g>
</g>

<g transform="matrix( 1, 0, 0, 1, 128.1,41.2) ">
<g transform="matrix( 1, 0, 0, 1, 0,0) ">
<use filter="url(#Filter_1)" xlink:href="#Symbol_3_0_Layer0_0_FILL"/>
</g>
</g>

<g transform="matrix( 0.887176513671875, 2.11138916015625, -2.11138916015625, 0.887176513671875, 284.2,80.9) ">
<g transform="matrix( 1, 0, 0, 1, 0,0) ">
<use xlink:href="#Symbol_2_0_Layer0_0_FILL"/>
</g>
</g>
</g>
</svg>
