
<svg xmlns="http://www.w3.org/2000/svg" version="1.1" xmlns:xlink="http://www.w3.org/1999/xlink" preserveAspectRatio="none" x="0px" y="0px" width="200px" height="200px" viewBox="0 0 200 200">
<defs>
<g id="Symbol_29_12_Layer0_0_FILL">
<path fill="#662266" stroke="none" d="
M 61.1 -101.2
Q 59 -101.2 57.35 -99.3 55.75 -97.45 55.75 -95.2 56 -92.95 56 -92.85
L 59.6 -92.7
Q 63.35 -92.7 63.7 -96.95 64.05 -101.2 61.1 -101.2
M 64.75 -116.85
Q 64.55 -117.1 64.2 -117.95
L 63.4 -116.75 64.75 -116.85
M 37.1 -103
Q 35.85 -103 35.05 -101.95 34.25 -100.85 34.25 -99.1 34.25 -95.65 36.65 -93.6 38.65 -91.95 41 -91.95 41.85 -91.95 42.45 -93.7 43.05 -95.45 42.9 -97.45 42.35 -103 37.1 -103
M 83.25 -101.7
Q 83.25 -103 81.95 -103.65 80.75 -104.25 79.15 -103.95 75 -103.2 75 -98.7 75 -97.6 75.9 -97.15 76.8 -96.7 79 -96.7 80.6 -96.7 82 -98.7 83.25 -100.45 83.25 -101.7
M 101.2 -135.35
Q 100.55 -138.75 99.2 -141.4 94.6 -150.1 91.25 -154.55 84.85 -162.95 79.25 -162.95 75.2 -162.95 64.25 -156.05 54.1 -149.2 54 -149.2 53.35 -149.2 53.15 -149.5 53.05 -149.7 53 -150.45 53.6 -151.4 54.25 -152.85 55.75 -154.8 61.85 -160.3 61.85 -160.75 62.55 -162.65 63.25 -164.55 63.25 -165.2 63.25 -167.55 57.6 -168.05 53.85 -168.4 40.55 -168.05 30.3 -167.75 20.25 -159.8 11.45 -152.8 7.1 -143.95 13.7 -143.25 20.05 -135.65 25.5 -129.2 25.5 -126.1 25.5 -124.25 25.05 -123.5 24.6 -122.7 23.35 -122.7 22.05 -122.7 20.4 -123.05 18.6 -123.5 17.85 -124.05 17.4 -124.4 16.25 -126.8 15.05 -129.3 14.8 -129.55 13.15 -131.15 4.1 -134.4 3.1 -134.4 3 -134.05 2.95 -131.95 2.7 -128.65 2.45 -125.6 2.45 -125.25 2.45 -119.6 5.5 -115.3 8.9 -110.45 14.5 -110.45 17.2 -110.45 23.7 -112.4 27.35 -113.5 34.55 -115.7 32.5 -116.85 31.45 -120.3 30.7 -122.75 30.7 -124.75 30.7 -128.35 34.1 -131.15 37.55 -134 42.1 -134 47.25 -134 50.4 -129.9 52.9 -126.7 52.9 -123.4 52.9 -122.4 52.35 -120.65 51.75 -119.1 51.75 -119.05 51.75 -118.05 53.5 -117.2 55.15 -116.45 56.65 -116.45 60.95 -116.45 62.5 -119.1 63.25 -120.4 63.95 -124.85 64.6 -128.9 66.15 -130.65 68.55 -133.3 74.2 -133.3 80.8 -133.3 83.7 -127.5 85.35 -124.25 85.35 -121.25 85.35 -120.15 84.55 -118.5 83.55 -116.4 81.8 -115.05 85.9 -111.9 87.4 -111 89.5 -109.75 91.35 -109.75 94.45 -109.75 98.35 -114.45 102.15 -119.05 102.15 -122.3 102.15 -130.45 101.2 -135.35 Z"/>
</g>

<g id="Symbol_29_11_Layer0_0_FILL">
<path fill="#993399" stroke="none" d="
M -68.2 -22.1
Q -68.2 -22.9 -68.6 -23.45 -69 -24 -69.6 -24 -70.2 -24 -70.6 -23.45 -71 -22.9 -71 -22.1 -71 -21.3 -70.6 -20.75 -70.2 -20.2 -69.6 -20.2 -69 -20.2 -68.6 -20.75 -68.2 -21.3 -68.2 -22.1
M 30.35 -52.7
Q 32.75 -52.7 33.8 -54.8 34.75 -56.75 34.2 -59.5 33.65 -62.25 31.9 -64.15 30 -66.3 27.35 -66.3 26.05 -66.3 25.25 -64.75 24.5 -63.15 24.5 -60.35 24.5 -55.5 25.35 -54.2 26.4 -52.7 30.35 -52.7
M 53.5 -56.5
Q 53.5 -57.5 53.25 -59.25 50 -59.45 49 -59.45 47 -59.45 45.55 -57.6 43.75 -55.35 43.75 -50.95 43.75 -48.85 45.25 -47.75 46.75 -46.65 48.65 -47.15 53.5 -48.4 53.5 -56.5
M 97.05 -101.25
Q 97.05 -101.5 95.85 -106.2 94.6 -111.15 94.15 -112.2 93.15 -114.5 90.6 -120.45 89.7 -121.8 86.2 -125.1 81.95 -129.05 80.3 -129.05 80.2 -129.05 78.05 -127.75 75.45 -126.2 73 -125.25 72.65 -125.15 70.25 -122.95
L 67.75 -120.7 67.25 -122.2
Q 67.85 -122.7 68.1 -124.15 68.25 -124.95 69.65 -126.2 70.85 -128.75 70.5 -136.35 68.8 -134.25 60.6 -137.1 52.25 -140.5 51.25 -140.75 44.15 -140.95 39.7 -140.85 31.4 -140.75 28.1 -139.35 14.7 -133.6 6.5 -123.25 -2.65 -111.7 -2.65 -97.4 -2.65 -92.15 4.95 -87.65 13.25 -83.8 14.5 -83.2 18.9 -81.1 24.55 -75.1 28.95 -70.45 32.8 -70.45
L 44 -71.2
Q 50.35 -71.2 56.55 -69.15 62.7 -67.1 66.4 -63.75 63.15 -62.7 61.4 -59.25 60.25 -56 60.25 -55.95 60.25 -53 60.75 -51.6 61.3 -50.5 61.5 -49.9
L 61.5 -49.95
Q 61.5 -50.55 61.4 -51.05 62.15 -50.45 63.05 -49.95 63.85 -49.45 64 -49.45 67.95 -49.45 69.9 -53.05 72.3 -57.5 74.3 -58.45 75.55 -59.05 81 -59.85 84.55 -60.35 86.35 -63.45 93.3 -75.5 95.3 -83 97.05 -89.5 97.05 -101.25
M 29.2 -105.5
Q 32.25 -109 36.85 -108.85 41.25 -108.7 44.45 -105.4 47.9 -101.8 47.9 -96.3 47.9 -93 42.85 -88.65 38 -84.45 35 -84.45 30.7 -84.45 28.35 -86.7 25.75 -89.2 25.75 -94.15 25.75 -101.55 29.2 -105.5
M 13.9 -107.15
Q 15.25 -108.3 19 -107.95 19.25 -106.35 19.25 -105.25 19.25 -104.9 18.25 -101.45 17.25 -98 17.25 -97.45 17.25 -96.95 17.75 -96.3 18.25 -95.7 18.25 -95.2 18.25 -94.6 17.65 -93.95 16.8 -93.05 15.25 -92.95 15.05 -94 13.8 -98.5 12.75 -102.15 12.75 -103.1 12.75 -106.1 13.9 -107.15
M 75.45 -97.05
Q 78.85 -93.15 78.85 -85.55 78.85 -84.45 74.6 -81 69.95 -77.2 66.95 -77.2 62.2 -77.2 59.95 -78.25 57.6 -79.35 57.6 -81.85 57.6 -82.85 57.35 -86.35 57.05 -89.8 57.05 -90.85 57.05 -94.65 60.45 -97.5 63.75 -100.2 67.95 -100.3 72.55 -100.4 75.45 -97.05
M 80.3 -71.8
Q 80.8 -72.15 80.7 -71.9 80.5 -71.75 80.4 -71.75
L 80.3 -71.8
M 31.45 -89.35
Q 31.65 -89.45 31.65 -89.65 31.65 -89.85 31.45 -90 31.3 -90.1 31.05 -90.1 30.8 -90.1 30.6 -90 30.45 -89.85 30.45 -89.65 30.45 -89.45 30.6 -89.35 30.8 -89.2 31.05 -89.2 31.3 -89.2 31.45 -89.35 Z"/>
</g>

<g id="Symbol_29_8_Layer0_0_FILL">
<path fill="#993399" stroke="none" d="
M -46.95 -22.2
Q -46.95 -23.45 -47.6 -24.35 -48.2 -25.2 -49.1 -25.2 -50 -25.2 -50.65 -24.35 -51.25 -23.45 -51.25 -22.2 -51.25 -20.95 -50.65 -20.1 -50 -19.2 -49.1 -19.2 -48.2 -19.2 -47.6 -20.1 -46.95 -20.95 -46.95 -22.2
M 15.1 -29.65
Q 11.5 -29.65 11.5 -25.2 11.5 -22.55 12.2 -21.55 13.5 -19.7 17.85 -19.7 18.85 -19.7 20.1 -19.95 21.3 -23.3 20.3 -26.2 19.1 -29.65 15.1 -29.65
M 25.5 -118.2
Q 24.75 -118.2 20.45 -116.6 14 -114.2 13.75 -114.1 11.45 -114.05 8.65 -112.75 3.15 -110.2 -2.05 -102.95 -8.25 -94.3 -11.15 -84.7 -13.05 -78.4 -13.05 -74.1 -13.05 -69.35 -11.75 -66.1 -11.1 -64.5 -8.5 -60.4
L -7.1 -58.2
Q -6.85 -57.95 -4.3 -56.45 -3.5 -56 1.75 -54.05 6.65 -52.2 6.95 -51.9 8.35 -50.45 9.25 -46.65 10.15 -42 10.8 -39.7 13.3 -31 21.35 -30.65 21.65 -31.55 21.85 -31.85 22.3 -29.6 24.25 -29.2 24.85 -29.1 28.55 -29.2
L 28.45 -28.95
Q 25.75 -20.5 25.75 -20.35 26.2 -19.3 27 -18.35 28.6 -16.45 30.45 -16.45 33.55 -16.45 34.65 -18.6 38.25 -25.7 38.8 -26.55
L 38.55 -25.7
Q 38.7 -25.45 40.05 -19.55 40.75 -16.45 44.05 -16.45 45 -16.45 46 -17.1 48 -18.5 50.85 -19.9 53.8 -21.3 56.15 -23.6 58.1 -25.4 58.65 -26.7 58.9 -27.2 58.95 -30 58.95 -31.6 61.95 -33.9 62.2 -34.05 67.85 -36.65 73.65 -39.35 74.9 -40.4 80 -44.75 83.6 -56.15 86.7 -65.95 86.7 -73.1 86.7 -76.55 84.45 -84.2 82.65 -90.05 80.95 -94.25 78.1 -101.2 62.5 -107.75 54.4 -110.9 45.8 -115.35 38.6 -118.2 25.5 -118.2
M 44.25 -56.6
Q 44.25 -65.8 47.9 -70.5 51 -74.45 55.9 -74.35 60.35 -74.3 63.9 -71.2 67.55 -68.05 67.55 -64 67.55 -59.6 62.5 -53.85 57.55 -48.2 54 -48.2 48.55 -48.2 46.35 -50.15 44.25 -52.05 44.25 -56.6
M 31.45 -84.05
Q 37.4 -81.2 37.4 -74.7 37.4 -72 33.55 -65.7 28.45 -57.45 22 -57.45 12.5 -57.45 12.5 -65.45 12.5 -71.25 15.4 -77.5 18.1 -83.35 20.55 -84.25 25.95 -86.7 31.45 -84.05
M 3.85 -72.1
Q 6 -70.6 6 -65.75
L 5.95 -64.4
Q 6 -63.95 5 -63.95 2.1 -63.95 1.25 -66.8 0.85 -68.25 1 -69.85
L 1.1 -72.7
Q 2.75 -72.9 3.85 -72.1
M 67.95 -45.1
Q 67.75 -44.95 67.6 -45
L 67.5 -45.05
Q 68.05 -45.35 67.95 -45.1
M 15.5 -64.45
L 16 -63.7
Q 15.973828125 -63.7478515625 15.95 -63.8 15.7 -64.35 15.5 -64.5
L 15.5 -64.45 Z"/>
</g>

<g id="Symbol_30_14_Layer0_0_FILL">
<path fill="#A2358C" stroke="none" d="
M 184.85 -211.1
Q 184.25 -211.1 183.95 -211
L 183.8 -210.9 183.8 -209.5
Q 184.9 -208.4 188.75 -207.4 191.8 -206.6 192.8 -206.6 193.25 -206.6 193.85 -206.7 194.45 -206.85 195.1 -206.85
L 194.35 -208.5
Q 193.35 -208.7 189.55 -210 186.4 -211.1 184.85 -211.1
M 181.45 -263.1
Q 181.3 -264.2 182.55 -268.7 183.65 -272.75 182.9 -274.3
L 181.9 -274
Q 181.45 -272.35 179.85 -269.25
L 178.35 -266.35
Q 178.35 -263.95 178.75 -263.5 179.5 -263.2 180.1 -262.5 180.95 -263.1 181.45 -263.1 Z"/>
</g>

<g id="Symbol_32_14_Layer0_0_FILL">
<path fill="#742774" stroke="none" d="
M -35.8 111.95
Q -34 109.95 -33.35 107.6 -33.05 105.7 -33.05 105.6
L -33.3 103.2 -34.55 103.2
Q -35.8 107.8 -41.7 111.85 -48.1 116.3 -55.35 116.3 -55.65 116.3 -60.35 115.65 -65.5 114.9 -67.05 114.5 -68.85 114.05 -71.7 112.35 -73.9 111 -76.8 110.95 -75.6 113.9 -72.25 116.55 -70.4 117.95 -67.55 119.7
L -57.05 119.95
Q -41.65 118.4 -35.8 111.95 Z"/>

<path fill="#531C53" stroke="none" d="
M 0.2 93.5
Q 0.2 92.85 0 92.55
L -0.55 92
Q -5.5 94.4 -11.05 97.85 -17.05 101.55 -17.05 102.45 -17.05 103.55 -15.55 104.7 -13.9 105.95 -11.9 105.95 -11.25 105.95 -5.8 101.15 0.2 95.9 0.2 93.5
M 41.2 44.15
Q 43.3 45.25 43.95 45.5 44.35 44.95 44.45 44.25 42.9 42.15 41.6 41.25 39.35 39.75 35.95 39.75 35.2 39.75 32.7 42.5 26.6 49.3 25.1 50.85 24.85 48 23.95 44 23.05 40.2 22.5 39.15
L 21.95 39.8
Q 20.55 47.05 20.3 53.55 20.15 57.65 19.95 68.75 23.1 69 24.85 68.15 26.7 67.3 26.7 65.45 26.55 61.15 26.55 60.15 26.55 58.8 27.2 57.75 30.85 53.2 37.2 42.75 40.2 43.65 41.2 44.15 Z"/>
</g>
</defs>

<g transform="matrix( 0.414031982421875, 0, 0, 0.414031982421875, 82.35,112.2) ">
<g transform="matrix( 1, 0, 0, 1, 0,0.2) ">
<g transform="matrix( 1, 0, 0, 1, 0,0) ">
<use xlink:href="#Symbol_29_12_Layer0_0_FILL"/>
</g>
</g>

<g transform="matrix( 0.394073486328125, 0.004852294921875, -0.004852294921875, 0.394073486328125, 68.55,32.25) ">
<g transform="matrix( 1, 0, 0, 1, 0,0) ">
<use xlink:href="#Symbol_29_11_Layer0_0_FILL"/>
</g>
</g>

<g transform="matrix( -0.579925537109375, 0.11358642578125, 0.1155242919921875, 0.5898895263671875, -14,23.8) ">
<g transform="matrix( 1, 0, 0, 1, 0,0) ">
<use xlink:href="#Symbol_29_8_Layer0_0_FILL"/>
</g>
</g>

<g transform="matrix( 1, 0, 0, 1, -3.05,12.95) ">
<g transform="matrix( 1, 0, 0, 1, 0,0) ">
<use xlink:href="#Symbol_30_14_Layer0_0_FILL"/>
</g>
</g>

<g transform="matrix( 1, 0, 0, 1, -0.95,0) ">
<g transform="matrix( 1, 0, 0, 1, 0,0) ">
<use xlink:href="#Symbol_32_14_Layer0_0_FILL"/>
</g>
</g>

<g transform="matrix( 1, 0, 0, 1, -0.25,0.15) "/>

<g transform="matrix( 0.6586761474609375, 0, 0, 0.6586761474609375, -222.6,10.9) "/>

<g transform="matrix( 0.488861083984375, 0, 0, 0.488861083984375, 30.8,-104.7) "/>

<g transform="matrix( 0.9941253662109375, -0.10821533203125, 0.10821533203125, 0.9941253662109375, -10.25,17.4) "/>

<g transform="matrix( -0.96832275390625, -0.2494354248046875, 0.2494354248046875, -0.96832275390625, 94.05,272.55) "/>

<g transform="matrix( 0.981719970703125, -0.189697265625, 0.189697265625, 0.981719970703125, -43.05,-103.7) "/>
</g>
</svg>
