
<svg xmlns="http://www.w3.org/2000/svg" version="1.1" xmlns:xlink="http://www.w3.org/1999/xlink" preserveAspectRatio="none" x="0px" y="0px" width="200px" height="200px" viewBox="0 0 200 200">
<defs>
<g id="Symbol_29_2_Layer0_0_FILL">
<path fill="#993399" stroke="none" d="
M 12.55 -9.7
Q 4.05 -10.85 -10.45 -6.3 -26.75 -1.2 -33.6 6.85 -40.9 15.35 -43.85 27.15 -45.4 33.5 -45.4 38.8 -45.4 42.6 -43 49 -41.7 52.3 -39.9 56.9 -37.65 64.95 -27.2 71.25 -18.65 76.4 -13.8 76.4 -4.75 75.55 -3.75 75.55 -3.25 75.55 0.3 81.2 4.3 86.7 7 86.15 13.05 83.3 14.4 82.25 16.15 80.95 16.15 78.95 16.15 78.35 15.95 77.7 15.7 77.15 15.65 77 19.6 80.95 19.65 81 21.9 82.8 24.65 82.8 27.05 82.8 29.6 80.4 32.6 77.6 32.6 73.75
L 32.55 71.6 32.8 72.45
Q 34.85 75.1 36.45 76.25 38.3 77.55 40.45 77.55 43 77.55 45.4 76.3 49.5 74.2 49.5 69.35 49.5 67.1 48.7 62.95 47.9 58.8 47.9 58.15 47.9 57.9 50.5 54.7 53.3 51.15 54.05 46.85 54.55 44.2 54.85 39.1 55.05 35.4 55.05 33.7 55.05 28.5 52.3 21.1 49.3 12.85 44.25 6.05 31 -11.8 12.55 -9.7
M 3.9 33
Q 6.75 37.15 6.75 45.8 6.75 48.15 5.15 50.3 3.5 52.55 1.65 52.55 -6.45 52.55 -11.35 48.85 -15.65 45.6 -16.3 40.7 -16.9 36 -13.9 32.55 -10.7 28.85 -5 28.85 1 28.85 3.9 33
M 31.25 45.55
Q 27.85 45.55 22.15 41.8 15.25 37.25 15.25 31.8 15.25 26.3 16.5 24.3 18.85 20.5 26.7 20.5 32.05 20.5 35 25.4 37.75 30 37.75 37.65 37.75 42.35 35.75 44.2 34.3 45.55 31.25 45.55 Z"/>
</g>

<g id="Symbol_29_1_Layer0_0_FILL">
<path fill="#993399" stroke="none" d="
M 85.9 94.85
Q 85.9 93 84.15 89.1 82.75 85.9 80.8 82.7 81.7 81.7 82.4 79.6 83.4 76.75 83.4 73.3 83.4 58.45 71.7 43.4 61.05 29.6 51.4 27.6 38.8 22.8 23.25 29.45 15.2 32.9 6.4 38.7 -3.85 43.1 -10.9 56.65 -16.45 67.35 -16.45 73.95 -16.45 82.85 -13.65 91.4 -10.05 102.35 -2.7 108.75 0.05 111.1 9.6 115.35 18.45 119.25 19.75 119.25 20.8 119.25 23.2 119.05 26.05 118.8 27.45 118.45 35.75 116.4 36.25 115.35 36.35 115.1 36.05 114.85 35.95 114.75 36.7 114.75 37.3 114.75 41.35 118.25 45.4 121.75 47.3 121.75 51.25 121.75 53.6 120.2 56.7 118.2 56.7 113.7 56.7 113.45 56.3 112.3 55.95 111.05 55.6 110.35 61.75 113.75 62.75 113.75 66.15 113.75 68.6 111.5 71.35 109 71.35 104.75 71.35 104.15 70.75 102.1
L 70.15 100.15
Q 71.9 101.9 77.3 103.6 82.2 103.6 84.4 100.25 85.9 98 85.9 94.85
M 20 90.7
Q 15.15 87.2 13.95 82.15 12.8 77.1 16 73.65 19.6 69.75 27.25 69.75 32.65 69.75 35.2 78.2 36.75 83.35 36.75 88.2 36.75 91.15 36.3 92.35 35.5 94.55 32.9 94.55 25.35 94.55 20 90.7
M 58.2 75.3
Q 50.1 75.3 45.2 71.75 40.95 68.6 40.4 63.9 39.9 59.35 42.95 56 46.3 52.45 52.05 52.45 59.05 52.45 61.5 58.35 62.75 61.35 62.75 66.85 62.75 70.5 62.35 71.9 61.4 75.3 58.2 75.3
M 32.7 86.9
L 33.1 86.15 33.1 86.05 32.7 86.9 Z"/>
</g>

<g id="Symbol_30_4_Layer0_0_FILL">
<path fill="#A2358C" stroke="none" d="
M 175.3 14.6
Q 169.7 12.8 167.8 12.8 161.8 12.8 155.95 19.05 149.5 25.95 150.15 34.35
L 154.05 40.8
Q 156.9 41.8 159.2 41.8 161.55 41.8 163.65 41.25 165.9 40.65 168.3 40.55 170.6 40.55 171.55 41.15 172.05 41.45 172.05 41.75 172 41.9 171.35 43.45 170.7 44.9 170.7 45.2 170.7 45.7 171.1 46.4 171.45 47.1 171.45 47.6 171.45 48.1 171.05 48.9 170.65 49.7 170.65 50.2 170.65 53.65 173.5 54.9 174.95 55.55 176.35 55.45 176.95 55.45 179.6 54.45 183.05 53.2 184.9 51.65 185.9 50.85 189.4 48.9 192.4 46.8 192.4 44.2 192.4 40.4 191 35.55 188.5 26.7 182.25 18.3 181.65 16.65 175.3 14.6 Z"/>
</g>

<g id="Symbol_32_4_Layer0_0_FILL">
<path fill="#993399" stroke="none" d="
M 109.2 77.75
L 108.95 75 108.2 74.05 109.2 77.75 Z"/>

<path fill="#A2358C" stroke="none" d="
M 107.85 14.4
Q 104.65 14.4 88.35 18.85 86.45 19.4 83.85 20.45 81.8 21.3 81.35 21.3 80.45 21.3 77.55 18.7 74 15.5 72.1 14.4 67.25 11.85 61.55 9.3 50.25 4.2 44.65 3.4
L 44.65 3.45
Q 39.2 2.5 38.2 2.5 27.05 2.5 13.9 15.65 7.3 22.25 2.9 28.95 2.9 29.5 3.8 31.25 6.05 35.5 8.25 40.1 8.95 41.55 12.9 49.75 16.0619140625 56.4744140625 16.3 57.2 17.4025390625 59.2568359375 19.75 67.7 22.6 77.95 22.95 80.65 12.4 64.4 -0.5 53.9 -11.75 44.7 -18.05 44.7 -20.15 44.7 -25.35 47.25 -28 48.55 -31.05 50.1 -47.3 56.45 -55.8 71.45 -62.75 83.7 -62.75 97.45 -62.75 102.3 -59.25 109.35 -55.45 117.05 -49.1 123.7 -32.85 140.85 -11 140.85 -2.65 140.85 10.8 134.75 26.6 127.55 30.85 118.5 35.75 120.85 46.65 126.3 55.5 130.6 57.2 130.8
L 57.25 129.85
Q 61.85 130.8 62.9 130.8 65.85 130.8 77.3 127.35 88.3 124 91.9 122.25 100.2 118.2 101.55 117.45 105.25 115.4 106.8 113.4 109.4 110.1 109.4 97.8 109.4 81.8 105.6 72.1 104.2 68.6 101.45 63.8 98.1474609375 57.9630859375 97 55.9 101.55 63.05 102.85 64.5 101.05 61.45 97.55 54.9 92.65 45.8 90.25 41.45 96.25 44.5 106.75 67.1 117.5 90.2 115.5 98 115.75 97.95 116.8 97.3 118.05 96.7 119.6 96.7 120.6 96.7 134.35 97.95 140.25 97.95 144.8 87.35 148.9 77.9 148.9 68.85 148.9 49.2 140.55 34.2 129.5 14.4 107.85 14.4 Z"/>
</g>

<g id="Symbol_28_5_Layer1_0_FILL">
<path fill="#000000" stroke="none" d="
M 163.5 124.95
Q 163.5 123.75 162.6 122.9 161.75 122.05 160.55 122.05 159.35 122.05 158.45 122.9 157.6 123.75 157.6 124.95 157.6 126.15 158.45 127 159.35 127.85 160.55 127.85 161.75 127.85 162.6 127 163.5 126.15 163.5 124.95 Z"/>
</g>

<g id="Symbol_28_3_Layer1_0_FILL">
<path fill="#000000" stroke="none" d="
M 178.5 141.8
Q 185.25 135.55 185.25 125.95 185.25 116.35 177.6 109.15 170.05 102.05 160.2 102.05 149.45 102.05 143.1 107.95 136.3 114.25 136.3 125.9 136.3 136.4 144.15 142.35 151.4 147.85 162.7 147.85 172 147.85 178.5 141.8
M 165.35 120.05
Q 167.25 121.95 167.25 124.6 167.25 127.25 165.35 129.15 163.5 131.05 160.85 131.05 158.2 131.05 156.3 129.15 154.45 127.25 154.45 124.6 154.45 121.95 156.3 120.05 158.2 118.15 160.85 118.15 163.5 118.15 165.35 120.05 Z"/>
</g>

<g id="Symbol_28_3_Layer0_0_FILL">
<path fill="#000000" stroke="none" d="
M 173.4 134.8
L 173.4 134.2 173.35 134.3
Q 172.45 135.4 168.9 137.15 165.5 138.85 164.45 138.85
L 164.25 138.85
Q 165.2255859375 138.790625 166.95 137.8 168.65 136.85 169.5 136.1 169.45 136 168.3 135.8
L 168.35 135.55
Q 168.75 135.4 169.75 135.2 170.65 134.9 170.85 133.95
L 170.7 133.9
Q 169.45 134.65 166.9 135.5
L 167.25 135.35
Q 168.3 134.85 168.7 133.95
L 168.3 134.05
Q 164.2 134.85 163.6 134.85 163.85 134.8 165 134.1 166.45 133.25 167.7 132.35 167.5 132.25 163.6 133.1
L 165.45 131.85 163.45 132.3 164.55 131.8
Q 165.4 131.45 165.95 130.9 166.25 130.6 166.6 130.1 165.4 130.3 164.55 130.4
L 164.35 130.1
Q 164.2396484375 129.9896484375 164.35 129.95 163.7810546875 130.0419921875 162.6 130.4 160.95 130.9 160.45 130.9 159.25 131.05 158.7 131.1 157.65 131.1 157.65 130.5
L 154.65 129.35 154.15 129.45
Q 154.25 129.7 154.2 129.75 156.6 132.55 158.55 133.6 157.6 133.5 155.85 132.75 154.3 132 154.2 132 153.6 132 153.55 132.1
L 153.6 132.15
Q 153.75 132.35 154.95 133.35 156.15 134.3 156.3 134.4
L 154.15 134.25 155.55 135.55
Q 153.9 135.2 152.5 134.65 152.45 134.45 152.4 134.35 152.3 134.2 152.3 134.8 152.3 135.05 155 136.65 157.4603515625 138.03125 158.5 138.15
L 157.95 138.15
Q 155.1 137.75 153 136.9 150.95 136.05 150.3 135.95
L 149.8 136.05 150 136.25
Q 150.45 137 152.9 138.55 155.1955078125 139.9529296875 156.55 140.3
L 150.95 139.15
Q 151.4 139.7 151.95 140.05 152.35 140.3 152.35 140.35 152.35 140.5 154.15 141.2 155.0998046875 141.55 155.75 141.75 152.8150390625 141.1359375 152.3 141.05
L 151.75 141.15 151.9 141.15
Q 152.8 142.15 153.65 142.6
L 150.9 142.3
Q 150.9 142.55 151.7 143.05 153.7 144 154.65 144.75
L 152.7 144.25
Q 150.25 143.3 148.45 142.75 148.9 144.05 151.15 145.15 152.35 145.75 154.3 146.6 150.35 146 149.6 144.55 149 143.3 146.8 143.3 146.2 143.3 146.3 143.35 146.35 143.4 146.5 143.4
L 146.5 143.55
Q 147.8 144.55 150.4 146.6 153.35 148.1 159.35 148.1 167.4 148.1 173.35 145.55 179.1 143.15 180.55 139.45 180.3 139.5 179.2 140.15 176.85 141.55 175.8 142.15 176.4 141.5 176.7 140.65 176.5 140.45 175.75 141.1
L 175 141.8
Q 174.95 141.75 174.8 141 174.7 140.4 174.35 140.35 174 140.95 172.65 141.65 171.25 142.35 170.95 142.5
L 171.2 142.35
Q 172.65 140.4 172.95 139.7
L 172.9 139.45
Q 171.15 140.15 171.1 140.15
L 172.45 138.65 172.15 138.5
Q 171.15 138.75 170.4 138.75 170.7 138.35 172.15 136.85 173.4 135.45 173.4 134.8
M 163.7 138.75
Q 163.7998046875 138.7943359375 163.9 138.8
L 163.7 138.8 163.7 138.75 Z"/>
</g>
</defs>

<g transform="matrix( 0.414031982421875, 0, 0, 0.414031982421875, 82.35,112.2) ">
<g transform="matrix( 1, 0, 0, 1, 0,0.2) ">
<g transform="matrix( 1, 0, 0, 1, 0,0) ">
<use xlink:href="#Symbol_29_2_Layer0_0_FILL"/>
</g>
</g>

<g transform="matrix( 0.394073486328125, 0.004852294921875, -0.004852294921875, 0.394073486328125, 68.55,32.25) ">
<g transform="matrix( 1, 0, 0, 1, 0,0) ">
<use xlink:href="#Symbol_29_1_Layer0_0_FILL"/>
</g>
</g>

<g transform="matrix( 1, 0, 0, 1, -3.05,12.95) ">
<g transform="matrix( 1, 0, 0, 1, 0,0) ">
<use xlink:href="#Symbol_30_4_Layer0_0_FILL"/>
</g>
</g>

<g transform="matrix( 1, 0, 0, 1, -0.95,0) ">
<g transform="matrix( 1, 0, 0, 1, 0,0) ">
<use xlink:href="#Symbol_32_4_Layer0_0_FILL"/>
</g>
</g>

<g transform="matrix( 1, 0, 0, 1, -0.25,0.15) "/>

<g transform="matrix( 0.6586761474609375, 0, 0, 0.6586761474609375, -222.6,10.9) ">
<g transform="matrix( 1, 0, 0, 1, 0,0) ">
<use xlink:href="#Symbol_28_5_Layer1_0_FILL"/>
</g>
</g>

<g transform="matrix( 0.488861083984375, 0, 0, 0.488861083984375, 30.8,-104.7) ">
<g transform="matrix( 1, 0, 0, 1, 0,0) ">
<use xlink:href="#Symbol_28_3_Layer1_0_FILL"/>
</g>

<g transform="matrix( 1, 0, 0, 1, 0,0) ">
<use xlink:href="#Symbol_28_3_Layer0_0_FILL"/>
</g>
</g>

<g transform="matrix( 0.9941253662109375, -0.10821533203125, 0.10821533203125, 0.9941253662109375, -10.25,17.4) "/>

<g transform="matrix( -0.96832275390625, -0.2494354248046875, 0.2494354248046875, -0.96832275390625, 94.05,272.55) "/>

<g transform="matrix( 0.981719970703125, -0.189697265625, 0.189697265625, 0.981719970703125, -43.05,-103.7) "/>
</g>
</svg>
