
<svg xmlns="http://www.w3.org/2000/svg" version="1.1" xmlns:xlink="http://www.w3.org/1999/xlink" preserveAspectRatio="none" x="0px" y="0px" width="200px" height="200px" viewBox="0 0 200 200">
<defs>
<g id="Symbol_24_2_Layer0_0_FILL">
<path fill="#993399" stroke="none" d="
M -111.75 48.3
Q -112.1 48.4 -112.5 48.55 -112.85 48.8 -113.25 49.05 -114.5 49.3 -115.75 49.55 -116 49.8 -116.25 50.05 -116.6 50.4 -117 50.8 -117.6 51.15 -118.25 51.55 -118.6 51.9 -119 52.3 -119.35 52.65 -119.75 53.05 -119.85 53.4 -120 53.8 -120.25 54.15 -120.5 54.55 -120.75 54.9 -121 55.3 -121.35 55.65 -121.75 56.05 -121.75 56.4 -121.75 56.8 -121.75 57.03046875 -121.75 57.25 -121.7912109375 57.3412109375 -121.85 57.4 -121.85 57.5 -121.9 57.55 -121.95 57.65 -121.95 57.75 -122 57.85 -122 57.95 -122.05 58.05 -122.1 58.15 -122.1 58.25 -122.15 58.3 -122.2 58.4 -122.2 58.5 -122.25 58.6 -122.25 58.7 -122.25 58.8 -122.25 58.9 -122.3 59 -122.35 59.05 -122.35 59.1 -122.35 59.15 -122.6564453125 59.4564453125 -123 59.8 -123 60.15 -123 60.55 -123 60.9 -123 61.3 -123 61.65 -123 62.05
L -123 62.05
Q -122.970703125 62.1087890625 -122.95 62.15 -122.95 62.218359375 -122.95 62.25 -122.95 62.331640625 -122.95 62.4 -122.95 62.5 -122.95 62.55 -122.95 62.65 -122.95 62.75 -123 62.85 -123 62.95 -123 63.05 -123 63.15 -123 63.2 -123 63.3 -123 63.4 -123 63.5 -123 63.6 -123 63.7 -123 63.8 -123 63.9 -123 63.95 -123 64.05 -123 64.15 -123 64.25 -123 64.35 -123 64.45 -123 64.55 -123 64.65 -123 64.7 -123 64.8 -123 64.9 -123 65 -123 65.1 -123 65.2 -123.05 65.3 -123.1 65.4 -123.1 65.45 -123.1 65.55 -123.1 65.65 -123.1 65.75 -123.1 65.85 -123.1 65.95 -123.05 66.05 -123 66.15 -123 66.2 -123 66.3 -123 66.4 -122.95 66.5 -122.95 66.6 -122.9 66.7 -122.85 66.8 -122.85 66.9 -122.85 66.95 -122.85 67.05 -122.85 67.15 -122.85 67.25 -122.85 67.35 -122.85 67.45 -122.8 67.55 -122.75 67.65 -122.75 67.7 -122.75 67.8 -122.75 67.9 -122.7 68 -122.7 68.1 -122.65 68.2 -122.6 68.3 -122.6 68.4 -122.55 68.45 -122.5 68.55 -122.5 68.65 -122.5 68.75 -122.5 68.85 -122.5 68.95 -122.5 69.05 -122.45 69.15 -122.4 69.2 -122.35 69.3 -122.3 69.4 -122.25 69.5 -122.2 69.6 -122.15 69.7 -122.1 69.8 -122.1 69.9 -122 69.95 -121.95 70.05 -121.925 70.1 -121.9 70.15
L -121.9 70.2
Q -121.85 70.3 -121.85 70.4 -121.85 70.45 -121.85 70.55 -121.8 70.65 -121.75 70.75 -121.75 70.85 -121.75 70.95 -121.7 71.05 -121.65 71.15 -121.6 71.2 -121.5 71.3 -121.5 71.4 -121.45 71.5 -121.45 71.6 -121.45 71.7 -121.4 71.8 -121.35 71.9 -121.3 71.95 -121.25 72.05 -121.2 72.15 -121.15 72.25 -121.1 72.35 -121 72.45 -121 72.55 -120.95 72.65 -120.95 72.7 -120.9 72.8 -120.85 72.9 -120.75 73 -120.7 73.1 -120.6 73.2 -120.55 73.3 -120.5 73.4 -119.983203125 73.5986328125 -119.5 73.8 -119.25 74.15 -119 74.55 -118.6 74.9 -118.25 75.3 -117.85 75.65 -117.5 76.05 -116.85 76.4 -116.25 76.8 -115.6 77.15 -115 77.55 -114.55 77.675 -114.1 77.8 -114.1 77.85 -114.1 77.9 -114 77.95 -113.9 78.05 -113.8 78.15 -113.7 78.25 -113.6 78.35 -113.5 78.45 -113.35 78.55 -113.2 78.65 -113 78.7 -112.75 78.75 -112.7 78.8 -112.6 78.9 -112.45 78.95 -112.25 79.05 -112 79.15 -111.7 79.2 -111.5 79.2 -111.25 79.25 -111.15 79.3 -111 79.4 -110.75 79.45 -110.45 79.5 -110.1 79.55 -109.75 79.55 -109.7 79.6 -109.6 79.65 -109.45 79.65 -109.35 79.7 -109.15 79.7 -108.95 79.75 -108.2 79.8 -107.45 79.8 -106.8 79.8 -106.15 79.8 -106 79.8 -105.9 79.8 -104.95 79.85 -103.95 79.9 -103.65 79.9 -103.35 79.9 -103.1 79.85 -102.9 79.8 -102.8 79.8 -102.7 79.75 -102.6 79.7 -102.45 79.65 -102.1 79.65 -101.7 79.65 -101.5 79.6 -101.25 79.55 -101.1 79.5 -100.95 79.45 -100.6 79.35 -100.25 79.25 -99.95 79.15 -99.65 79.05 -99.45 78.95 -99.25 78.9 -99.1 78.8 -98.95 78.7 -98.86875 78.659375 -98.8 78.6 -98.3978515625 78.5818359375 -98 78.55 -97.75 78.4 -97.5 78.3 -97.319921875 78.119921875 -97.15 77.95 -97 77.875 -96.85 77.8 -96.742578125 77.8 -96.7 77.8 -96.5 77.8 -96.25 77.75 -96.2 77.7 -96.1 77.7 -95.95 77.65 -95.85 77.55 -95.7 77.45 -95.5 77.4 -95.35 77.3 -95.2 77.2 -95.1 77.1 -94.95 77 -94.8 76.9 -94.65 76.8 -94.55 76.7 -94.45 76.65 -94.35 76.55 -94.25 76.45 -94.15 76.35 -94 76.25 -93.9640625 76.1779296875 -93.9 76.1 -93.8337890625 76.0779296875 -93.75 76.05 -93.6 76 -93.45 75.95 -93.25 75.85 -93 75.75 -92.85 75.65 -92.7 75.55 -92.6 75.45 -92.45 75.4 -92.35 75.3 -92.25 75.2 -92.2 75.1 -92.15 75 -92.1 74.9 -92 74.8 -91.95 74.7 -91.9 74.65 -91.8 74.55 -91.7 74.45 -91.6 74.35 -91.5 74.25 -91.45 74.15 -91.4 74.05 -91.3 73.95 -91.2 73.9 -91.1 73.8 -91 73.7 -90.95 73.6 -90.9 73.5 -90.85 73.4 -90.75 73.3 -90.75 73.2 -90.7 73.15 -90.6 73.05 -90.5 72.95 -90.45 72.85 -90.4 72.75 -90.35 72.65 -90.25 72.55 -90.25 72.45 -90.2 72.4 -90.15 72.3 -90.1 72.2 -90.05 72.1 -90 72 -90 71.9 -89.95 71.8 -89.95 71.7 -89.9 71.65 -89.85 71.55 -89.75 71.45 -89.75 71.35 -89.7 71.25 -89.65 71.15 -89.6 71.05 -89.55 70.95 -89.5 70.9 -89.5 70.8 -89.45 70.7 -89.4 70.6 -89.35 70.5 -89.3 70.4 -89.25 70.3 -89.25 70.2 -89.2 70.15 -89.15 70.05 -89.1 69.95 -89.05 69.85 -89 69.75 -89 69.65 -88.95 69.55 -88.95 69.45 -88.9 69.4 -88.85 69.3 -88.85 69.2 -88.85 69.1 -88.85 69 -88.8 68.9 -88.75 68.8 -88.8 68.7 -88.85 68.65 -88.8 68.55 -88.75 68.45 -88.75 68.35 -88.7 68.25 -88.7 68.15 -88.65 68.05 -88.65 67.95 -88.65 67.9 -88.6 67.8 -88.6 67.7 -88.6 67.6 -88.6 67.5 -88.6 67.4 -88.6 67.3 -88.6 67.2 -88.6 67.15 -88.6 67.05 -88.6 66.95 -88.6 66.85 -88.6 66.75 -88.6 66.65 -88.6 66.55 -88.55 66.45 -88.5 66.4 -88.5 66.3 -88.45 66.2 -88.45 66.1 -88.4 66 -88.4 65.9 -88.4 65.8 -88.35 65.7 -88.35 65.65 -88.35 65.55 -88.35 65.45 -88.35 65.35 -88.35 65.25 -88.3 65.15 -88.25 65.05 -88.25 64.95 -88.25 64.9 -88.25 64.8 -88.25 64.7 -88.25 64.6 -88.25 64.5 -88.25 64.4 -88.25 64.3 -88.25 64.2 -88.25 64.15 -88.25 64.05 -88.25 63.95 -88.25 63.85 -88.25 63.75 -88.3 63.65 -88.35 63.55 -88.35 63.45 -88.35 63.4 -88.35 63.3 -88.4 63.2 -88.45 63.1 -88.45 63 -88.49765625 62.9046875 -88.5 62.8 -88.5 62.75 -88.5 62.65 -88.5 62.5994140625 -88.5 62.55 -88.5 62.15 -88.5 61.8 -88.6 61.4 -88.75 61.05 -88.85 60.65 -89 60.3 -89.25 59.9 -89.5 59.55 -89.5 59.15 -89.5 58.8 -89.6 58.4 -89.75 58.05 -89.85 57.65 -90 57.3 -90.25 56.9 -90.5 56.55 -90.6 56.15 -90.75 55.8 -91 55.4 -91.25 55.05 -91.6 54.65 -92 54.3 -92.3103515625 53.9453125 -92.65 53.6 -92.6798828125 53.5900390625 -92.7 53.55 -92.7693359375 53.5154296875 -92.85 53.45 -92.8685546875 53.4275390625 -92.9 53.4
L -92.95 53.35
Q -92.958984375 53.2822265625 -93 53.2 -93.1 53.1 -93.2 53 -93.25 52.9 -93.25 52.8 -93.35 52.75 -93.45 52.65 -93.55 52.55 -93.65 52.45 -93.7 52.35 -93.75 52.25 -93.85 52.15 -93.95 52.05 -94 52 -94.1 51.9 -94.15 51.8 -94.2 51.7 -94.25 51.6 -94.35 51.5 -94.45 51.4 -94.5 51.3 -94.7 51.25 -94.85 51.15 -95 51.05 -95.15 50.95 -95.25 50.85 -95.35 50.75 -95.45 50.65 -95.5 50.55 -95.6 50.5 -95.7 50.4 -95.85 50.3 -95.95 50.2 -96.15 50.1 -96.35 50 -96.5 49.9 -96.7 49.8 -96.85 49.75 -96.95 49.65 -97.1 49.55 -97.2 49.45 -97.4 49.35 -97.6 49.25 -97.75 49.15 -97.95 49.05 -98.2 49 -98.4 48.9 -98.6 48.8 -98.85 48.7 -99 48.6 -99.2 48.5 -99.4 48.4 -99.6 48.3 -99.8 48.25 -100 48.2 -100.2 48.15 -100.35 48.05 -100.6 48 -100.9 47.95 -101.15 47.9 -101.4 47.8 -101.7 47.75 -101.95 47.7 -102.2 47.65 -102.4 47.55 -102.7 47.5 -102.95 47.45 -104.35 47.4 -105.7 47.4 -106.05 47.4 -106.4 47.4
L -106.4 47.45
Q -106.6 47.45 -106.85 47.45 -107 47.5 -107.2 47.55 -108.1 47.65 -108.95 47.7 -109.25 47.75 -109.6 47.8 -109.75 47.9 -109.95 47.95 -110.25 48 -110.6 48.05 -110.75 48.15 -110.95 48.25 -111 48.275 -111.05 48.3 -111.4 48.3 -111.75 48.3
M -101.25 62.5
Q -101.2 62.6 -101.15 62.7 -101.15 62.8 -101.1 62.9 -101.1 63 -101.1 63.1 -101.05 63.15 -101.05 63.25 -101.05 63.35 -101.05 63.45 -101.05 63.55 -101.05 63.65 -101 63.75 -101 63.85 -101 63.9 -101 64 -101 64.1 -101.05 64.2 -101.05 64.3 -101.05 64.4 -101.05 64.5 -101.1 64.6 -101.1 64.65 -101.1 64.75 -101.15 64.85 -101.25 64.95 -101.25 65.05 -101.3 65.15 -101.35 65.25 -101.4 65.35 -101.5 65.4 -101.55 65.5 -101.6 65.6 -101.65 65.7 -101.75 65.8 -101.8 65.9 -101.9 66 -102 66.1 -102.05 66.15 -102.15 66.25 -102.25 66.35 -102.35 66.45 -102.45 66.55 -102.55 66.65 -102.65 66.75 -102.75 66.85 -102.9 66.9 -103.05 67 -103.25 67.1 -103.4 67.2 -103.65 67.3 -103.9 67.4 -104.05 67.45 -104.15 67.5 -104.25 67.55 -104.35 67.6 -104.55 67.65 -104.75 67.7 -104.9 67.75 -105.05 67.85 -105.3 67.85 -105.55 67.9
L -105.6 67.9
Q -105.85 67.85 -106.1 67.85 -106.3 67.8 -106.55 67.75 -106.75 67.7 -107 67.65 -107.2 67.55 -107.4 67.45 -107.6 67.35 -107.8 67.25 -107.95 67.15 -108.1 67.1 -108.25 67 -108.4 66.9 -108.55 66.8 -108.75 66.7 -108.9 66.6 -109.05 66.5 -109.15 66.4 -109.25 66.35 -109.3 66.25 -109.4 66.15 -109.5 66.05 -109.55 65.95 -109.6 65.85 -109.65 65.75 -109.75 65.65 -109.8 65.6 -109.85 65.5 -109.85 65.4 -109.9 65.3 -110 65.2 -110 65.1 -110.05 65 -110.1 64.9 -110.1 64.85 -110.15 64.75 -110.15 64.65 -110.15 64.55 -110.15 64.45 -110.15 64.35 -110.15 64.25 -110.2 64.15 -110.25 64.1 -110.2 64 -110.15 63.9 -110.15 63.8 -110.15 63.7 -110.15 63.6 -110.15 63.5 -110.15 63.4 -110.15 63.35 -110.15 63.25 -110.1 63.15 -110.1 63.05 -110.1 62.95 -110.1 62.85 -110.1 62.75 -110.1 62.65 -110.05 62.6 -110 62.5 -110 62.4 -109.9 62.3 -109.85 62.2 -109.85 62.1 -109.8 62 -109.75 61.9 -109.65 61.85 -109.65 61.75 -109.6 61.65 -109.55 61.55 -109.5 61.45 -109.4 61.35 -109.3 61.25 -109.25 61.15 -109.15 61.1 -109.15 61 -109.1 60.9 -109.05 60.8 -109 60.7 -108.9 60.6 -108.8 60.5 -108.7 60.4 -108.6 60.35 -108.5 60.25 -108.4 60.15 -108.3 60.05 -108.25 59.95 -108.05 59.85 -107.9 59.75 -107.75 59.65 -107.6 59.6 -107.4 59.5 -107.25 59.4 -107.05 59.3 -106.85 59.2 -106.7 59.15 -106.55 59.1 -106.3 59.1 -106.05 59.1 -106.05 59.05 -106.05 59 -105.25 59 -104.5 59 -104.15 59.1 -103.85 59.15 -103.65 59.25 -103.5 59.35 -103.3 59.4 -103.15 59.5 -103.05 59.6 -103 59.7 -102.9 59.8 -102.8 59.9 -102.65 60 -102.55 60.1 -102.45 60.15 -102.35 60.25 -102.25 60.35 -102.15 60.45 -102.1 60.55 -102.05 60.65 -102 60.75 -101.9 60.85 -101.9 60.9 -101.85 61 -101.8 61.1 -101.8 61.2 -101.75 61.3 -101.65 61.4 -101.6 61.5 -101.55 61.6 -101.5 61.65 -101.5 61.75 -101.45 61.85 -101.4 61.95 -101.4 62.05 -101.35 62.15 -101.3 62.25 -101.3 62.35 -101.25 62.4 -101.25 62.5 Z"/>
</g>

<g id="Symbol_28_2_Layer1_0_FILL">
<path fill="#000000" stroke="none" d="
M 178.5 141.8
Q 185.25 135.55 185.25 125.95 185.25 116.35 177.6 109.15 170.05 102.05 160.2 102.05 149.45 102.05 143.1 107.95 136.3 114.25 136.3 125.9 136.3 136.4 144.15 142.35 151.4 147.85 162.7 147.85 172 147.85 178.5 141.8
M 165.35 120.05
Q 167.25 121.95 167.25 124.6 167.25 127.25 165.35 129.15 163.5 131.05 160.85 131.05 158.2 131.05 156.3 129.15 154.45 127.25 154.45 124.6 154.45 121.95 156.3 120.05 158.2 118.15 160.85 118.15 163.5 118.15 165.35 120.05 Z"/>
</g>

<g id="Symbol_28_2_Layer0_0_FILL">
<path fill="#000000" stroke="none" d="
M 146.25 118.2
L 145.75 118.2
Q 145.3 119.8 144.9 121.45 144.55 122.75 143.65 124.95
L 144 116.2
Q 143.4 117.45 143.05 120.5 142.65 123.85 142.4 124.6 142.15 120.2 142 119.15 141.85 119.2 141.65 119.6
L 141.05 121.2 140.75 118.4
Q 140.6 118.45 140.4 118.85
L 140.2 119.3
Q 139.65 121.95 139.2 122.6
L 139.15 121.3
Q 139.35 121.3 139.45 119.25 139.55 117.3 139.45 116.6 138.5 117.1 137.95 120.05 137.7 121.6 137.3 123.8
L 137.1 121.75
Q 137.95 117.65 137.95 117.1 137.95 116.5 137.9 116.5
L 137.85 116.6
Q 137.15 117.45 136.35 120.1 135.55 122.7 135.55 124.05 135.55 129.5 137.95 135.65 141.4 144.55 147.75 144.55 148.75 144.55 148.25 144.45
L 148.3 144.25 143.85 140.8 143.95 140.75
Q 144.3 141.1 145.8 142.05 147.5 143.1 148 143.15
L 148.6 143.05 148.5 143.05
Q 148 142.45 146.75 141.75 146.8 141.55 147.2 141.5 147.4 141.5 147.95 141.5
L 148 141.6 148 141.3
Q 148 140.85 147.6 140.4 147.1 139.8 145.15 138
L 145.45 138.15
Q 145.7 138.3 146.5 138.85 147.35 139.35 147.95 139.35 148.95 139.35 148.35 139.25
L 148.3 139.1
Q 148.15 138.5 147.45 137.55 148.65 138.35 149.25 138.55
L 149.3 138.4
Q 149.2 137.7 148.65 136.6
L 149.4 137.2
Q 150.7 138.05 151.3 137.85 151.15 137.55 149.7 135.3 148.25 133.1 147.35 130.8
L 147.95 132.05
Q 148.7 133.05 149 133.3 149.75 134.05 151.2 134.8 151.2 134.7 150.15 132.65 149.15 130.65 149.05 130.15
L 149.15 129.6 149.25 129.65
Q 149.5 129.95 150.8 131.6 152.2 133.25 153.2 133.7 151.1 130.15 151 129.2
L 151.15 129.35
Q 151.25 129.9 152.1 130.5 152.7 130.9 153.25 131.1
L 153.65 131.05
Q 152.5 128.3 152.55 128.25 152.75 128.3 152.95 128.1 153.15 127.9 153.15 127.7 153.55 128.5 154.15 128.9 154.6 129.2 155.55 129.45 155.4 129.25 156.2 128.85 155.55 127.85 155.1 127.15 154.3 125.8 154.3 124.75 154.3 124.25 154.75 123.05 155.15 121.85 155.15 121.35 155.15 120.75 155.1 120.85
L 155.05 121.05 154.75 121.1
Q 154.6 121.15 154.15 121.75
L 153.7 122.35 153.85 121.4
Q 153.9 121.4 153.7 118.7
L 152.95 119.9
Q 152.95 119.95 151.85 121.55 151.05 122.8 151 123.85
L 150.9 122.6
Q 151.1 121.15 151.3 118.9 150.8 119.35 150.1 120.55 149.4 121.9 149.2 122.2 149.2 121.3 148.55 120.95
L 148.3 121.8
Q 147.8 121.35 147.75 121.35 147.85 119.3 147.75 119.1 146.9 119.45 146.6 122.25 146.5099609375 123.5095703125 146.5 124.85
L 146.25 118.2 Z"/>
</g>

<g id="Symbol_28_0_Layer1_0_FILL">
<path fill="#000000" stroke="none" d="
M 182.2 123.65
Q 182.2 110.9 170.65 105.9 166.1 103.95 161 103.9 156.2 103.85 153.05 105.45 146.5 108.8 143.65 112.2 139.35 117.4 139.35 125.95 139.35 134.65 144.3 140 150.15 146.35 161.8 146.35 170.1 146.35 175.45 141.7 182.2 135.8 182.2 123.65
M 174.25 124.85
Q 174.3 129.7 170.7 133 166.55 136.7 159.1 136.7 153 136.7 150.1 133.2 147.7 130.3 147.7 125.4 147.7 120.7 150.95 117.1 154.7 112.95 160.95 112.95 166.9 112.95 170.7 116.65 174.15 120.05 174.25 124.85 Z"/>
</g>

<g id="Symbol_31_2_Layer0_0_FILL">
<path fill="#000000" stroke="none" d="
M 167.05 145.1
Q 175.05 144.15 175.05 144.2
L 182.35 143.3
Q 185.8 142.3 186.9 142.25 188.6 142.1 190.5 141.7 190.45 141.55 189.7 141.5
L 188.95 141.45 189.6 141.25
Q 189.6 141.2 187.05 141.5 184.5 141.75 184.5 141.15 184.5 140.98984375 184.5 140.85 179.74921875 141.0423828125 172.6 142.1 162.6 143.75 157.45 144.5 158.3 144.75 158.3 144.8 158.25 144.8 158.05 145 158.05 145.6 158.1 145.5 158.2 145.35 158.25 145.35 166.7 144.9 167.05 145.1 Z"/>
</g>

<g id="Symbol_31_0_Layer0_0_FILL">
<path fill="#000000" stroke="none" d="
M 1.8 164.25
Q 33.7 160.2 38.4 159.5 45.35 158.5 62.25 155.45 58.7 155.4 51.4 155.65 44.7 155.95 44.2 155.95 43.7 155.95 38.2 156.35 32.65 156.7 32.15 156.7
L 20.8 157.45
Q 10.15 158.2 9.15 158.2 -44.05 163.65 -56.4 166.1 -58.15 166.45 -67.3 168.1 -75.9 169.7 -77.6 170.15 -77.55 170.4 -77 170.55 -76.5 170.7 -76.55 170.75
L -76.35 170.9
Q -75.7 170.65 -72 170.5 -67.1 170.35 -64.4 170.25 -61.25 170.05 -54.65 169.65 -48.05 169.25 -47.3 169.25 -46.9 169.25 -40.5 168.6 -34.3 168 -33.9 168.05
L -32.5 168.1
Q -28.25 168.1 -21.75 167.45 -16 166.75 -15.6 166.75
L -15.6 166.85
Q 1.6 164.9 1.8 164.25
M -58.75 168.65
L -59.1 168.8
Q -59.7 168.95 -60.9 169.05
L -61.85 169 -58.75 168.65 Z"/>
</g>
</defs>

<g transform="matrix( 0.414031982421875, 0, 0, 0.414031982421875, 82.35,112.2) ">
<g transform="matrix( 1.4168701171875, 0, 0, 1.4168701171875, 310.45,34.7) ">
<g transform="matrix( 1, 0, 0, 1, 0,0) ">
<use xlink:href="#Symbol_24_2_Layer0_0_FILL"/>
</g>
</g>

<g transform="matrix( 1, 0, 0, 1, -0.25,0.15) ">
<g transform="matrix( 1, 0, 0, 1, 0,0) ">
<use xlink:href="#Symbol_28_2_Layer1_0_FILL"/>
</g>

<g transform="matrix( 1, 0, 0, 1, 0,0) ">
<use xlink:href="#Symbol_28_2_Layer0_0_FILL"/>
</g>
</g>

<g transform="matrix( 0.6586761474609375, 0, 0, 0.6586761474609375, -222.6,10.9) ">
<g transform="matrix( 1, 0, 0, 1, 0,0) ">
<use xlink:href="#Symbol_28_0_Layer1_0_FILL"/>
</g>
</g>

<g transform="matrix( 0.9941253662109375, -0.10821533203125, 0.10821533203125, 0.9941253662109375, -10.25,17.4) ">
<g transform="matrix( 1, 0, 0, 1, 0,0) ">
<use xlink:href="#Symbol_31_2_Layer0_0_FILL"/>
</g>
</g>

<g transform="matrix( -0.96832275390625, -0.2494354248046875, 0.2494354248046875, -0.96832275390625, 94.05,272.55) ">
<g transform="matrix( 1, 0, 0, 1, 0,0) ">
<use xlink:href="#Symbol_31_0_Layer0_0_FILL"/>
</g>
</g>
</g>
</svg>
