
<svg xmlns="http://www.w3.org/2000/svg" version="1.1" xmlns:xlink="http://www.w3.org/1999/xlink" preserveAspectRatio="none" x="0px" y="0px" width="200px" height="200px" viewBox="0 0 200 200">
<defs>
<g id="Symbol_29_1_Layer0_0_FILL">
<path fill="#993399" stroke="none" d="
M 85.9 94.85
Q 85.9 93 84.15 89.1 82.75 85.9 80.8 82.7 81.7 81.7 82.4 79.6 83.4 76.75 83.4 73.3 83.4 58.45 71.7 43.4 61.05 29.6 51.4 27.6 38.8 22.8 23.25 29.45 15.2 32.9 6.4 38.7 -3.85 43.1 -10.9 56.65 -16.45 67.35 -16.45 73.95 -16.45 82.85 -13.65 91.4 -10.05 102.35 -2.7 108.75 0.05 111.1 9.6 115.35 18.45 119.25 19.75 119.25 20.8 119.25 23.2 119.05 26.05 118.8 27.45 118.45 35.75 116.4 36.25 115.35 36.35 115.1 36.05 114.85 35.95 114.75 36.7 114.75 37.3 114.75 41.35 118.25 45.4 121.75 47.3 121.75 51.25 121.75 53.6 120.2 56.7 118.2 56.7 113.7 56.7 113.45 56.3 112.3 55.95 111.05 55.6 110.35 61.75 113.75 62.75 113.75 66.15 113.75 68.6 111.5 71.35 109 71.35 104.75 71.35 104.15 70.75 102.1
L 70.15 100.15
Q 71.9 101.9 77.3 103.6 82.2 103.6 84.4 100.25 85.9 98 85.9 94.85
M 20 90.7
Q 15.15 87.2 13.95 82.15 12.8 77.1 16 73.65 19.6 69.75 27.25 69.75 32.65 69.75 35.2 78.2 36.75 83.35 36.75 88.2 36.75 91.15 36.3 92.35 35.5 94.55 32.9 94.55 25.35 94.55 20 90.7
M 58.2 75.3
Q 50.1 75.3 45.2 71.75 40.95 68.6 40.4 63.9 39.9 59.35 42.95 56 46.3 52.45 52.05 52.45 59.05 52.45 61.5 58.35 62.75 61.35 62.75 66.85 62.75 70.5 62.35 71.9 61.4 75.3 58.2 75.3
M 32.7 86.9
L 33.1 86.15 33.1 86.05 32.7 86.9 Z"/>
</g>

<g id="Symbol_29_0_Layer0_0_FILL">
<path fill="#993399" stroke="none" d="
M 85.9 94.85
Q 85.9 93 84.15 89.1 82.75 85.9 80.8 82.7 81.7 81.7 82.4 79.6 83.4 76.75 83.4 73.3 83.4 58.45 71.7 43.4 61.05 29.6 51.4 27.6 38.8 22.8 23.25 29.45 15.2 32.9 6.4 38.7 -3.85 43.1 -10.9 56.65 -16.45 67.35 -16.45 73.95 -16.45 82.85 -13.65 91.4 -10.05 102.35 -2.7 108.75 0.05 111.1 9.6 115.35 18.45 119.25 19.75 119.25 20.8 119.25 23.2 119.05 26.05 118.8 27.45 118.45 35.75 116.4 36.25 115.35 36.35 115.1 36.05 114.85 35.95 114.75 36.7 114.75 37.3 114.75 41.35 118.25 45.4 121.75 47.3 121.75 51.25 121.75 53.6 120.2 56.7 118.2 56.7 113.7 56.7 113.45 56.3 112.3 55.95 111.05 55.6 110.35 61.75 113.75 62.75 113.75 66.15 113.75 68.6 111.5 71.35 109 71.35 104.75 71.35 104.15 70.75 102.1
L 70.15 100.15
Q 71.9 101.9 77.3 103.6 82.2 103.6 84.4 100.25 85.9 98 85.9 94.85
M 20 90.7
Q 15.15 87.2 13.95 82.15 12.8 77.1 16 73.65 19.6 69.75 27.25 69.75 32.65 69.75 35.2 78.2 36.75 83.35 36.75 88.2 36.75 91.15 36.3 92.35 35.5 94.55 32.9 94.55 25.35 94.55 20 90.7
M 58.2 75.3
Q 50.1 75.3 45.2 71.75 40.95 68.6 40.4 63.9 39.9 59.35 42.95 56 46.3 52.45 52.05 52.45 59.05 52.45 61.5 58.35 62.75 61.35 62.75 66.85 62.75 70.5 62.35 71.9 61.4 75.3 58.2 75.3
M 32.7 86.9
L 33.1 86.15 33.1 86.05 32.7 86.9 Z"/>
</g>

<g id="Symbol_30_3_Layer0_0_FILL">
<path fill="#A2358C" stroke="none" d="
M 164.15 44.2
L 164.25 42.55 160.55 36.35
Q 160.45 36.3 160.45 36.15 160.45 36.05 159.85 36.05 157.75 36.05 155.2 39.25 152.7 42.45 152.2 42.45 150.3 42.45 147.55 46.35 145.55 49.3 144.55 51.8 143.2 55.25 140.5 61.35 138.45 66.5 138.45 70.4 138.45 71.15 139.8 72.35 141.1 73.55 141.85 73.55 143.35 73.55 147.05 72.1 150.7 70.6 151 70.6 152 70.6 152.3 71.8 151.85 72.95 151.35 75 150.75 77.4 150.75 78.6 150.75 80.8 151.3 82.25 151.85 83.7 151.85 84.05 151.85 84.8 152.7 86.85 153.7 89.25 154.55 89.25 161.25 89.25 168.2 82.85 176.1 75.6 176.1 65.95 176.1 62.3 175.35 59.45 174.8 57.3 174.5 57.3 173.45 55.8 172.2 54.3 169.8 51.25 168.55 51.25 165.65 51.25 165 50.4 164.15 49.25 164.15 44.2 Z"/>
</g>

<g id="Symbol_32_3_Layer0_0_FILL">
<path fill="#822B82" stroke="none" d="
M 152.85 44.05
Q 151 36.5 141.05 28.6 129.65 19.45 116.95 19.25 116.3 19.5 105.3 22.3 94.7 24.95 93.85 25.45 90.55 27.4 87.2 29.65 85 31.15 84.8 31.15 83.5 31.15 77.55 26.4 71.1 21.25 66.2 20.05 62.5 19.15 52.1 18.2 42.2 17.3 33.2 17
L 33.2 17.75
Q 24.55 15.05 14.8 27.45 5.9 38.7 1.75 54.15 -2.55 53.6 -8.8 53.25 -22.65 54.5 -36.05 65.45 -51.55 78.05 -51.55 94.1 -51.55 107.25 -45.8 118.2 -42.65 124.25 -36.55 132.65 -27.5 147.95 4.5 147.95 18.85 147.95 31.2 137.95 34 135.65 38.55 131.05 41.7 127.9 42.55 127.9 42.65 127.9 56.3 131.45 71.7 134.95 80.3 134.95 82.7 134.95 86.45 133.95 91.75 132.5 96.6 129.7 106.55 123.95 118.75 111.45 124.65 105.35 126.05 104.1 129.35 101.15 131.15 101.15 132.15 101.15 144.85 101.95 151.7 101.95 155.8 91.65 159.45 82.5 159.45 69.85 159.45 66.3 156.9 57.8 152.95 44.55 152.85 44.05 Z"/>
</g>

<g id="Symbol_24_6_Layer0_0_FILL">
<path fill="#993399" stroke="none" d="
M -104.85 61.85
Q -105.05 61.8 -105.15 61.8 -105.3 61.75 -105.4 61.7
L -105.45 61.7
Q -105.6 61.7 -105.75 61.65 -105.9 61.65 -106.05 61.65
L -106.05 61.7
Q -106.2 61.7 -106.45 61.7 -106.55 61.8 -106.65 61.85 -106.7 61.9 -106.8 61.95 -106.85 62 -106.9 62.05
L -106.9 62.1
Q -106.95 62.1 -107 62.15 -107.05 62.2 -107.15 62.25 -107.2 62.3 -107.25 62.35 -107.3 62.4 -107.35 62.45 -107.35 62.5 -107.4 62.55
L -107.45 62.6
Q -107.5 62.65 -107.55 62.7 -107.55 62.75 -107.55 62.8 -107.6 62.85 -107.7 62.9 -107.7 62.95 -107.7 63.05
L -107.75 63.05 -107.75 63.15
Q -107.75 63.2 -107.8 63.25
L -107.85 63.35 -107.8 63.4
Q -107.85 63.4 -107.85 63.45 -107.85 63.55 -107.85 63.6 -107.85 63.65 -107.9 63.7 -107.9 63.75 -107.9 63.8 -107.85 63.85 -107.85 63.9 -107.85 63.95 -107.85 64
L -107.85 64.05
Q -107.85 64.1 -107.8 64.15
L -107.8 64.2
Q -107.8 64.25 -107.8 64.3 -107.8 64.4 -107.75 64.45 -107.75 64.5 -107.75 64.55
L -107.7 64.6 -107.7 64.65
Q -107.6 64.75 -107.5 64.8 -107.5 64.85 -107.45 64.85 -107.4 64.85 -107.4 64.9 -107.4 64.95 -107.35 64.95 -107.35 65 -107.3 65 -107.25 65.05 -107.25 65.1 -107.2 65.1 -107.2 65.15
L -107.15 65.15
Q -107 65.3 -106.8 65.5 -106.25 65.65 -105.7 65.75 -105.65 65.7 -105.6 65.7 -105.5 65.7 -105.4 65.65
L -105.35 65.65
Q -105.3 65.65 -105.3 65.6 -105.25 65.6 -105.15 65.65 -105.1 65.65 -105.05 65.65 -104.9 65.6 -104.75 65.55 -104.6 65.5 -104.55 65.45 -104.45 65.4 -104.35 65.35 -104.25 65.3 -104.2 65.2 -104.1 65.15 -104.05 65.15 -104 65.1 -104 65 -103.95 64.95 -103.95 64.9 -103.9 64.85 -103.85 64.8 -103.85 64.75 -103.85 64.7 -103.85 64.65 -103.85 64.6 -103.85 64.5 -103.85 64.45 -103.8 64.4 -103.75 64.35 -103.75 64.3 -103.7 64.25 -103.7 64.2 -103.7 64.15 -103.7 64.1 -103.7 64.05 -103.7 63.95 -103.7 63.9 -103.7 63.85 -103.7 63.8 -103.7 63.75 -103.7 63.7 -103.7 63.65 -103.7 63.6 -103.7 63.55 -103.7 63.45
L -103.7 63.4
Q -103.75 63.35 -103.75 63.25 -103.75 63.2 -103.8 63.15 -103.8 63.1 -103.8 63.05 -103.8 63 -103.85 62.95 -103.85 62.9 -103.85 62.85 -103.9 62.75 -103.9 62.7 -103.95 62.65 -104 62.6 -104.05 62.55 -104.1 62.5 -104.15 62.45 -104.2 62.4 -104.25 62.35 -104.3 62.3 -104.35 62.2 -104.4 62.15 -104.45 62.15 -104.45 62.05 -104.55 62 -104.6 61.95 -104.75 61.9 -104.85 61.85 Z"/>
</g>

<g id="Symbol_28_6_Layer1_0_FILL">
<path fill="#000000" stroke="none" d="
M 163.5 124.95
Q 163.5 123.75 162.6 122.9 161.75 122.05 160.55 122.05 159.35 122.05 158.45 122.9 157.6 123.75 157.6 124.95 157.6 126.15 158.45 127 159.35 127.85 160.55 127.85 161.75 127.85 162.6 127 163.5 126.15 163.5 124.95 Z"/>
</g>

<g id="Symbol_28_4_Layer1_0_FILL">
<path fill="#000000" stroke="none" d="
M 169.55 125.75
Q 169.55 121.8 166.75 119 164 116.25 160.1 116.25 156.2 116.25 153.4 119 150.65 121.8 150.65 125.75 150.65 129.7 153.4 132.45 156.2 135.25 160.1 135.25 164 135.25 166.75 132.45 169.55 129.7 169.55 125.75 Z"/>
</g>

<g id="Symbol_28_4_Layer0_0_FILL">
<path fill="#000000" stroke="none" d="
M 163.05 119
L 162.3 118.9
Q 162.3 118.85 161.7 118.8 161.15 118.8 160.85 118.85 163.2 121.2 163.7 122.35 161.6 120 160.55 119.9
L 160.05 120 160.15 120.05
Q 160.3 120.3 161.3 121.35 162.2 122.35 162.35 122.75 162.3 123.45 161.8 122.75 160.75 121.4 160.7 121.35 160.4 121.4 160.9 122.55 160.85 122.5 160.5 122.8 160.35390625 122.8974609375 160.25 122.8 160.377734375 123.0333984375 160.6 123.2 161 123.5 161 124 161 125.65 160.55 126.4 160.15 127 159.05 127.5
L 159.45 127.75
Q 160.1 127.5 160.55 127 160.7 127.3 160.35 128 159.9 128.75 159.8 128.85 160.25 129.15 161.75 128.2
L 161.25 128.7
Q 161.1 128.7 161.05 128.75 161 128.9 161 129.55 161 130.55 161.05 130.05
L 161.2 129.9
Q 161.4 129.75 161.85 129.5 162.35 129.15 162.7 128.35
L 162.95 128.55
Q 162.55 128.95 162.3 129.55 162.1 130.1 162.05 130.1 162.15 130.1 162.2 130.2 162.35 130.05 163.8 129.15 163.65 129.65 163.25 130.25 163 130.65 163 131.2 163 132.2 163.5 131.65
L 165.65 129.7 165.5 130.45
Q 165.3 131.15 165.4 131.45 165.65 131.3 166.45 130.1 167 129.3 167.05 130.05 165.95 131.7 165.65 132.1 165.8 132.35 166.1 132.55 168.1 131.15 169.2 128.7 170 126.95 170 125.6 170 122.75 168.3 120.15 165.85 116.4 161 116.4 160.4 116.4 160.35 116.45
L 160.4 116.45 160.5 116.65
Q 163.2 118.05 163.3 118.15
L 161.9 117.75 163.05 119 Z"/>
</g>

<g id="Symbol_28_2_Layer1_0_FILL">
<path fill="#000000" stroke="none" d="
M 178.5 141.8
Q 185.25 135.55 185.25 125.95 185.25 116.35 177.6 109.15 170.05 102.05 160.2 102.05 149.45 102.05 143.1 107.95 136.3 114.25 136.3 125.9 136.3 136.4 144.15 142.35 151.4 147.85 162.7 147.85 172 147.85 178.5 141.8
M 165.35 120.05
Q 167.25 121.95 167.25 124.6 167.25 127.25 165.35 129.15 163.5 131.05 160.85 131.05 158.2 131.05 156.3 129.15 154.45 127.25 154.45 124.6 154.45 121.95 156.3 120.05 158.2 118.15 160.85 118.15 163.5 118.15 165.35 120.05 Z"/>
</g>

<g id="Symbol_28_2_Layer0_0_FILL">
<path fill="#000000" stroke="none" d="
M 146.25 118.2
L 145.75 118.2
Q 145.3 119.8 144.9 121.45 144.55 122.75 143.65 124.95
L 144 116.2
Q 143.4 117.45 143.05 120.5 142.65 123.85 142.4 124.6 142.15 120.2 142 119.15 141.85 119.2 141.65 119.6
L 141.05 121.2 140.75 118.4
Q 140.6 118.45 140.4 118.85
L 140.2 119.3
Q 139.65 121.95 139.2 122.6
L 139.15 121.3
Q 139.35 121.3 139.45 119.25 139.55 117.3 139.45 116.6 138.5 117.1 137.95 120.05 137.7 121.6 137.3 123.8
L 137.1 121.75
Q 137.95 117.65 137.95 117.1 137.95 116.5 137.9 116.5
L 137.85 116.6
Q 137.15 117.45 136.35 120.1 135.55 122.7 135.55 124.05 135.55 129.5 137.95 135.65 141.4 144.55 147.75 144.55 148.75 144.55 148.25 144.45
L 148.3 144.25 143.85 140.8 143.95 140.75
Q 144.3 141.1 145.8 142.05 147.5 143.1 148 143.15
L 148.6 143.05 148.5 143.05
Q 148 142.45 146.75 141.75 146.8 141.55 147.2 141.5 147.4 141.5 147.95 141.5
L 148 141.6 148 141.3
Q 148 140.85 147.6 140.4 147.1 139.8 145.15 138
L 145.45 138.15
Q 145.7 138.3 146.5 138.85 147.35 139.35 147.95 139.35 148.95 139.35 148.35 139.25
L 148.3 139.1
Q 148.15 138.5 147.45 137.55 148.65 138.35 149.25 138.55
L 149.3 138.4
Q 149.2 137.7 148.65 136.6
L 149.4 137.2
Q 150.7 138.05 151.3 137.85 151.15 137.55 149.7 135.3 148.25 133.1 147.35 130.8
L 147.95 132.05
Q 148.7 133.05 149 133.3 149.75 134.05 151.2 134.8 151.2 134.7 150.15 132.65 149.15 130.65 149.05 130.15
L 149.15 129.6 149.25 129.65
Q 149.5 129.95 150.8 131.6 152.2 133.25 153.2 133.7 151.1 130.15 151 129.2
L 151.15 129.35
Q 151.25 129.9 152.1 130.5 152.7 130.9 153.25 131.1
L 153.65 131.05
Q 152.5 128.3 152.55 128.25 152.75 128.3 152.95 128.1 153.15 127.9 153.15 127.7 153.55 128.5 154.15 128.9 154.6 129.2 155.55 129.45 155.4 129.25 156.2 128.85 155.55 127.85 155.1 127.15 154.3 125.8 154.3 124.75 154.3 124.25 154.75 123.05 155.15 121.85 155.15 121.35 155.15 120.75 155.1 120.85
L 155.05 121.05 154.75 121.1
Q 154.6 121.15 154.15 121.75
L 153.7 122.35 153.85 121.4
Q 153.9 121.4 153.7 118.7
L 152.95 119.9
Q 152.95 119.95 151.85 121.55 151.05 122.8 151 123.85
L 150.9 122.6
Q 151.1 121.15 151.3 118.9 150.8 119.35 150.1 120.55 149.4 121.9 149.2 122.2 149.2 121.3 148.55 120.95
L 148.3 121.8
Q 147.8 121.35 147.75 121.35 147.85 119.3 147.75 119.1 146.9 119.45 146.6 122.25 146.5099609375 123.5095703125 146.5 124.85
L 146.25 118.2 Z"/>
</g>

<g id="Symbol_31_2_Layer0_0_FILL">
<path fill="#000000" stroke="none" d="
M 167.05 145.1
Q 175.05 144.15 175.05 144.2
L 182.35 143.3
Q 185.8 142.3 186.9 142.25 188.6 142.1 190.5 141.7 190.45 141.55 189.7 141.5
L 188.95 141.45 189.6 141.25
Q 189.6 141.2 187.05 141.5 184.5 141.75 184.5 141.15 184.5 140.98984375 184.5 140.85 179.74921875 141.0423828125 172.6 142.1 162.6 143.75 157.45 144.5 158.3 144.75 158.3 144.8 158.25 144.8 158.05 145 158.05 145.6 158.1 145.5 158.2 145.35 158.25 145.35 166.7 144.9 167.05 145.1 Z"/>
</g>
</defs>

<g transform="matrix( 0.414031982421875, 0, 0, 0.414031982421875, 82.35,112.2) ">
<g transform="matrix( 1, 0, 0, 1, 0,0.2) ">
<g transform="matrix( 1, 0, 0, 1, 0,0) ">
<use xlink:href="#Symbol_29_1_Layer0_0_FILL"/>
</g>
</g>

<g transform="matrix( 0.394073486328125, 0.004852294921875, -0.004852294921875, 0.394073486328125, 68.55,32.25) ">
<g transform="matrix( 1, 0, 0, 1, 0,0) ">
<use xlink:href="#Symbol_29_0_Layer0_0_FILL"/>
</g>
</g>

<g transform="matrix( 1, 0, 0, 1, -3.05,12.95) ">
<g transform="matrix( 1, 0, 0, 1, 0,0) ">
<use xlink:href="#Symbol_30_3_Layer0_0_FILL"/>
</g>
</g>

<g transform="matrix( 1, 0, 0, 1, -0.95,0) ">
<g transform="matrix( 1, 0, 0, 1, 0,0) ">
<use xlink:href="#Symbol_32_3_Layer0_0_FILL"/>
</g>
</g>

<g transform="matrix( 1.4168701171875, 0, 0, 1.4168701171875, 310.45,34.7) ">
<g transform="matrix( 1, 0, 0, 1, 0,0) ">
<use xlink:href="#Symbol_24_6_Layer0_0_FILL"/>
</g>
</g>

<g transform="matrix( 1, 0, 0, 1, -0.25,0.15) ">
<g transform="matrix( 1, 0, 0, 1, 0,0) ">
<use xlink:href="#Symbol_28_6_Layer1_0_FILL"/>
</g>
</g>

<g transform="matrix( 0.6586761474609375, 0, 0, 0.6586761474609375, -222.6,10.9) ">
<g transform="matrix( 1, 0, 0, 1, 0,0) ">
<use xlink:href="#Symbol_28_4_Layer1_0_FILL"/>
</g>

<g transform="matrix( 1, 0, 0, 1, 0,0) ">
<use xlink:href="#Symbol_28_4_Layer0_0_FILL"/>
</g>
</g>

<g transform="matrix( 0.488861083984375, 0, 0, 0.488861083984375, 30.8,-104.7) ">
<g transform="matrix( 1, 0, 0, 1, 0,0) ">
<use xlink:href="#Symbol_28_2_Layer1_0_FILL"/>
</g>

<g transform="matrix( 1, 0, 0, 1, 0,0) ">
<use xlink:href="#Symbol_28_2_Layer0_0_FILL"/>
</g>
</g>

<g transform="matrix( 0.9941253662109375, -0.10821533203125, 0.10821533203125, 0.9941253662109375, -10.25,17.4) "/>

<g transform="matrix( -0.96832275390625, -0.2494354248046875, 0.2494354248046875, -0.96832275390625, 94.05,272.55) "/>

<g transform="matrix( 0.981719970703125, -0.189697265625, 0.189697265625, 0.981719970703125, -43.05,-103.7) ">
<g transform="matrix( 1, 0, 0, 1, 0,0) ">
<use xlink:href="#Symbol_31_2_Layer0_0_FILL"/>
</g>
</g>
</g>
</svg>
