
<svg xmlns="http://www.w3.org/2000/svg" version="1.1" xmlns:xlink="http://www.w3.org/1999/xlink" preserveAspectRatio="none" x="0px" y="0px" width="200px" height="200px" viewBox="0 0 200 200">
<defs>
<g id="Symbol_29_21_Layer0_0_FILL">
<path fill="#000000" fill-opacity="0.4" stroke="none" d="
M -44.9 -182.55
Q -44.9 -185.65 -47.95 -184.3 -51.05 -183 -51.05 -180.85 -51.05 -179.25 -49.3 -179.55 -46.8 -179.4 -45.6 -180.8 -44.9 -181.7 -44.9 -182.55
M -18.95 -198.65
L -19 -198.55
Q -13.2 -199.55 -8.45 -205.75 -4.65 -210.7 -4.65 -212.8 -4.65 -213.8 -4.75 -214.05 -13.1 -207.9 -15.95 -204.15 -17.85 -200.5 -18.95 -198.65
M 74.75 -195.45
Q 71.65 -195.95 70.7 -194.65 70.25 -194 70.25 -192.1 70.25 -191.45 70.5 -189.45 73.4 -190.8 75 -193.2 75 -194.2 74.75 -195.45
M 133.25 -160.15
Q 133.25 -160.75 132.8 -161.2 132.35 -161.65 131.75 -161.65 131.15 -161.65 130.7 -161.2 130.25 -160.75 130.25 -160.15 130.25 -159.55 130.7 -159.1 131.15 -158.65 131.75 -158.65 132.35 -158.65 132.8 -159.1 133.25 -159.55 133.25 -160.15
M 58 -215.2
Q 58.7 -218.95 56.05 -220.5 54.35 -221.5 51.5 -221.5 49 -221.5 47.05 -220.35 45.4 -219.4 44.8 -218.1 45.6 -216.95 50.8 -215.8 53.4 -215.2 55.95 -214.85 56.95 -214.85 58 -215.2 Z"/>
</g>
</defs>

<g transform="matrix( 0.414031982421875, 0, 0, 0.414031982421875, 82.35,112.2) ">
<g transform="matrix( 1, 0, 0, 1, 0,0.2) "/>

<g transform="matrix( 0.394073486328125, 0.004852294921875, -0.004852294921875, 0.394073486328125, 68.55,32.25) "/>

<g transform="matrix( -0.579925537109375, 0.11358642578125, 0.1155242919921875, 0.5898895263671875, -14,23.8) ">
<g transform="matrix( 1, 0, 0, 1, 0,0) ">
<use xlink:href="#Symbol_29_21_Layer0_0_FILL"/>
</g>
</g>

<g transform="matrix( 1, 0, 0, 1, -3.05,12.95) "/>

<g transform="matrix( 1, 0, 0, 1, -0.95,0) "/>

<g transform="matrix( 1, 0, 0, 1, -0.25,0.15) "/>

<g transform="matrix( 0.6586761474609375, 0, 0, 0.6586761474609375, -222.6,10.9) "/>

<g transform="matrix( 0.488861083984375, 0, 0, 0.488861083984375, 30.8,-104.7) "/>

<g transform="matrix( 0.9941253662109375, -0.10821533203125, 0.10821533203125, 0.9941253662109375, -10.25,17.4) "/>

<g transform="matrix( -0.96832275390625, -0.2494354248046875, 0.2494354248046875, -0.96832275390625, 94.05,272.55) "/>

<g transform="matrix( 0.981719970703125, -0.189697265625, 0.189697265625, 0.981719970703125, -43.05,-103.7) "/>
</g>
</svg>
