
<svg xmlns="http://www.w3.org/2000/svg" version="1.1" xmlns:xlink="http://www.w3.org/1999/xlink" preserveAspectRatio="none" x="0px" y="0px" width="200px" height="200px" viewBox="0 0 200 200">
<defs>
<g id="Symbol_29_5_Layer0_0_FILL">
<path fill="#993399" stroke="none" d="
M -21 31.6
Q -24 30.2 -25 30.05
L -25.25 32.8
Q -25.25 34.8 -23.45 36.45 -21.5 38.3 -18.5 38.3 -17.45 38.3 -16.8 37.5 -16.15 36.6 -15.75 34.55 -17.7 33.15 -21 31.6
M 20.3 -57.25
Q 11.75 -58.5 8.05 -58.85 0.7 -59.6 -8.25 -59.6 -23.15 -59.6 -36.15 -48.55 -51.4 -35.55 -51.4 -15.15 -51.4 1.45 -39.65 13.15 -34.8 18 -29.45 20.2 -24.1 22.4 -20.25 21.2 -20.3 26.85 -14.05 29.15 -10.5 30.2 -8.8 30.7 -5.8 31.65 -4.45 32.85 -4.25 32.5 -3.25 30.45 -2.25 28.35 -1.95 27.6 -0.4 32 1.65 34 3.6 35.85 6.4 35.85 11.85 35.85 15.75 26.75
L 15.8 27.7
Q 16.95 29 18.4 32.35 20.15 35.05 24.15 35.05 28.3 35.05 30.65 32.4 33.9 28.7 34.6 19.3
L 34.35 17.8
Q 48.3 7.65 48.3 -13.05 48.3 -29.1 39.8 -42.4 31.4 -55.65 20.3 -57.25
M 10.5 -7.4
Q 7.75 -16.05 11.2 -21.05 14 -25.2 19.25 -25.2 23.6 -25.2 27.2 -22.25 31.5 -18.75 31.5 -13.05 31.5 -12.7 30.8 -11.85 30.1 -11 30.1 -10.6 30.1 -10.1 30.55 -7.55 31 -5.05 31 -4.55 31 0.45 29.75 2.55 28.45 4.8 25.15 4.8 17.1 4.8 13.9 1 12.3 -0.9 10.5 -7.4
M -22.5 -11.05
Q -24.2 -16.1 -21.85 -20.1 -19.2 -24.75 -12.35 -24.75 -4.5 -24.75 -1.7 -18.35 0 -14.45 0 -6.5 0 -2.15 -1.5 0.9 -3.55 5.05 -8 5.05 -15.75 5.05 -19.45 0.05 -22.55 -4.1 -22.5 -11.05 Z"/>
</g>

<g id="Symbol_29_4_Layer0_0_FILL">
<path fill="#993399" stroke="none" d="
M -21 31.6
Q -24 30.2 -25 30.05
L -25.25 32.8
Q -25.25 34.8 -23.45 36.45 -21.5 38.3 -18.5 38.3 -17.45 38.3 -16.8 37.5 -16.15 36.6 -15.75 34.55 -17.7 33.15 -21 31.6
M 20.3 -57.25
Q 11.75 -58.5 8.05 -58.85 0.7 -59.6 -8.25 -59.6 -23.15 -59.6 -36.15 -48.55 -51.4 -35.55 -51.4 -15.15 -51.4 1.45 -39.65 13.15 -34.8 18 -29.45 20.2 -24.1 22.4 -20.25 21.2 -20.3 26.85 -14.05 29.15 -10.5 30.2 -8.8 30.7 -5.8 31.65 -4.45 32.85 -4.25 32.5 -3.25 30.45 -2.25 28.35 -1.95 27.6 -0.4 32 1.65 34 3.6 35.85 6.4 35.85 11.85 35.85 15.75 26.75
L 15.8 27.7
Q 16.95 29 18.4 32.35 20.15 35.05 24.15 35.05 28.3 35.05 30.65 32.4 33.9 28.7 34.6 19.3
L 34.35 17.8
Q 48.3 7.65 48.3 -13.05 48.3 -29.1 39.8 -42.4 31.4 -55.65 20.3 -57.25
M 10.5 -7.4
Q 7.75 -16.05 11.2 -21.05 14 -25.2 19.25 -25.2 23.6 -25.2 27.2 -22.25 31.5 -18.75 31.5 -13.05 31.5 -12.7 30.8 -11.85 30.1 -11 30.1 -10.6 30.1 -10.1 30.55 -7.55 31 -5.05 31 -4.55 31 0.45 29.75 2.55 28.45 4.8 25.15 4.8 17.1 4.8 13.9 1 12.3 -0.9 10.5 -7.4
M -22.5 -11.05
Q -24.2 -16.1 -21.85 -20.1 -19.2 -24.75 -12.35 -24.75 -4.5 -24.75 -1.7 -18.35 0 -14.45 0 -6.5 0 -2.15 -1.5 0.9 -3.55 5.05 -8 5.05 -15.75 5.05 -19.45 0.05 -22.55 -4.1 -22.5 -11.05 Z"/>
</g>

<g id="Symbol_29_1_Layer0_0_FILL">
<path fill="#993399" stroke="none" d="
M 85.9 94.85
Q 85.9 93 84.15 89.1 82.75 85.9 80.8 82.7 81.7 81.7 82.4 79.6 83.4 76.75 83.4 73.3 83.4 58.45 71.7 43.4 61.05 29.6 51.4 27.6 38.8 22.8 23.25 29.45 15.2 32.9 6.4 38.7 -3.85 43.1 -10.9 56.65 -16.45 67.35 -16.45 73.95 -16.45 82.85 -13.65 91.4 -10.05 102.35 -2.7 108.75 0.05 111.1 9.6 115.35 18.45 119.25 19.75 119.25 20.8 119.25 23.2 119.05 26.05 118.8 27.45 118.45 35.75 116.4 36.25 115.35 36.35 115.1 36.05 114.85 35.95 114.75 36.7 114.75 37.3 114.75 41.35 118.25 45.4 121.75 47.3 121.75 51.25 121.75 53.6 120.2 56.7 118.2 56.7 113.7 56.7 113.45 56.3 112.3 55.95 111.05 55.6 110.35 61.75 113.75 62.75 113.75 66.15 113.75 68.6 111.5 71.35 109 71.35 104.75 71.35 104.15 70.75 102.1
L 70.15 100.15
Q 71.9 101.9 77.3 103.6 82.2 103.6 84.4 100.25 85.9 98 85.9 94.85
M 20 90.7
Q 15.15 87.2 13.95 82.15 12.8 77.1 16 73.65 19.6 69.75 27.25 69.75 32.65 69.75 35.2 78.2 36.75 83.35 36.75 88.2 36.75 91.15 36.3 92.35 35.5 94.55 32.9 94.55 25.35 94.55 20 90.7
M 58.2 75.3
Q 50.1 75.3 45.2 71.75 40.95 68.6 40.4 63.9 39.9 59.35 42.95 56 46.3 52.45 52.05 52.45 59.05 52.45 61.5 58.35 62.75 61.35 62.75 66.85 62.75 70.5 62.35 71.9 61.4 75.3 58.2 75.3
M 32.7 86.9
L 33.1 86.15 33.1 86.05 32.7 86.9 Z"/>
</g>

<g id="Symbol_30_7_Layer0_0_FILL">
<path fill="#A2358C" stroke="none" d="
M 156.7 -96.15
Q 144.4 -90.25 144.4 -81.3 144.4 -78.4 145.3 -74.85 146.6 -69.65 149.25 -67.35 172.5 -50.95 172.5 -50.75 171.8 -48.3 170.55 -48.3 169.25 -48.3 165.7 -49.65 160.35 -51.7 154.15 -53.35 156.7 -49.3 160.6 -46.35 165.05 -42.95 168.95 -42.95 169.95 -42.95 170.05 -43.1 170.55 -43.35 172.2 -43.85 173.75 -44.35 174.15 -44.6 178.5 -43.65 179.65 -44.45 182.8 -40.85 187.9 -36.8 194.1 -31.85 196.8 -31.85 197.8 -31.85 198.4 -32.25 197.45 -33.2 192.8 -38.7 188.35 -44 188.1 -44.4 188.55 -45 189.9 -44.4 191.05 -43.9 192.4 -42.8
L 191.75 -43.55
Q 191.3 -44 191.1 -44.85 191 -45.25 191 -45.6
L 192 -45.9
Q 193.05 -45.3 195.3 -43.85 197.2 -42.7 197.8 -42.7 211.35 -38 211.75 -38
L 213 -39.1
Q 214.45 -40.45 215.85 -41.4 216.45 -41.8 220.15 -43.65 221.35 -44.5 224.7 -47 226.05 -47.9 228.5 -54.15 228.5 -57.45 224.8 -63.7 221.5 -69.3 221 -69.3 217.8 -69.3 210 -65.85 202.28046875 -62.4814453125 195.65 -61.9 195.9572265625 -65.7462890625 196.75 -70.8 197.4 -75.25 197.4 -75.5 197.4 -76.25 197.2 -77.75 197 -79.25 196.9 -79.3 196.5 -75.85 195.05 -70 194.2 -78.2 191 -84.65 189.05 -88.55 183.35 -96.55
L 182.85 -96.05
Q 181.9 -96.7 180.45 -97.3 178.25 -98.2 178.05 -98.3 173.6 -100.45 171.4 -100.45 165.7 -100.45 156.7 -96.15 Z"/>
</g>

<g id="Symbol_32_7_Layer0_0_FILL">
<path fill="#9A337C" stroke="none" d="
M 4.65 63.15
L 4.45 62.25 3.7 61.1 4.45 62.95 4.65 63.15 Z"/>

<path fill="#A2358C" stroke="none" d="
M 111.9 27.55
Q 107.95 23.3 100 19.15 92.3 15.1 88.55 15.1 84.15 15.1 74.65 17.75 66.05 20.4 65.95 20.4 63.3 20.4 61.65 17.4 61.25 16.2 60.95 15.7 60.5 14.85 58.55 13.9 50.7 8.9 45.4 5.85 35.4 0.1 28.3 0.1 26.95 0.1 23.6 1.55 20.3 3 17.9 4.6 14.45 6.95 8 11.65 0.95 16.75 -2.05 18.85 -1.55 21.3 -0.35 26.2 -0.2 26.8 2.65 40 3.794921875 45.385546875 4.7 46.2 4.694140625 46.1234375 4.8 46 4.840625 46.1400390625 4.85 46.3 5.5060546875 48.9873046875 6.8 61.3 7.65 68.85 7.65 70.15 7.65 70.25 7.5 72.05 7.35 73.6 7.45 75.05
L 7.35 74.9
Q 7.35 74.8 7.05 74.8 6.8 74.8 6.55 74.9 6.65 75.15 7.1 75.9 7.45 76.7 7.45 77.3 7.45 78.3 6.95 82.45 2.35 80.55 0.15 77.35 -1.3 75.25 -1.3 73.55 -0.25 69.25 -0.25 67.05 -0.25 62.4 -4.5 59.45 -10.25 56.4 -13.35 54.35 -17.9 51.35 -23.1 48.9 -30.05 45.7 -34.05 45.7 -36.95 45.7 -43.5 49.6 -51.45 54.3 -52.55 54.7 -55.3 55.7 -60.05 63.15 -62.5 66.95 -65 71.55 -67.5 75.75 -68.35 80.5 -69 84.4 -69 92.25 -69 94.25 -68.3 96.5 -67.5 99.1 -67.45 99.7 -66.6 106.1 -65.7 107.95 -64.15 111.1 -58.25 116.35 -49.95 123.75 -38.65 127.25 -31.8 129.35 -27.85 129.35 -11.6 129.35 1.6 119.35 5.75 116.15 9.55 112 12.7 108.25 13.2 107.7 13.85 109.3 15.65 110.7 15.95 110.9 18.95 112.75 19.95 113.35 23.25 116.6 26.7 119.55 29.05 119.55 29.55 119.55 29.3 119.15 29.05 118.7 29.55 118.7 31.15 118.7 31.65 119.6 32.15 120.5 33.7 120.5
L 43.55 121.15
Q 47 121.15 60.35 117.8 71.4 115.05 75.45 113.7 78.4 112.75 80.8 104.95 83.8 95.1 83.8 79 83.8 78.65 81.75 71.8 79.55 64.4 79.05 61.7 78.85 60.65 77.35 57.4 75.9 54.35 75.9 54.25
L 76 48.75
Q 81.6 53.35 89 68.1 96.45 82.8 97.55 91.5 98.9 90.65 102.75 89.9 107.2 89.05 110.4 89.45 115.1 90.05 116.2 89.2 116.95 88.6 118.3 86.55 122.7 82.8 124.45 75.4 125.45 71 125.45 66 125.45 57.1 121.9 46.15 117.95 34.05 111.9 27.55 Z"/>
</g>

<g id="Symbol_28_6_Layer1_0_FILL">
<path fill="#000000" stroke="none" d="
M 163.5 124.95
Q 163.5 123.75 162.6 122.9 161.75 122.05 160.55 122.05 159.35 122.05 158.45 122.9 157.6 123.75 157.6 124.95 157.6 126.15 158.45 127 159.35 127.85 160.55 127.85 161.75 127.85 162.6 127 163.5 126.15 163.5 124.95 Z"/>
</g>
</defs>

<g transform="matrix( 0.414031982421875, 0, 0, 0.414031982421875, 82.35,112.2) ">
<g transform="matrix( 1, 0, 0, 1, 0,0.2) ">
<g transform="matrix( 1, 0, 0, 1, 0,0) ">
<use xlink:href="#Symbol_29_5_Layer0_0_FILL"/>
</g>
</g>

<g transform="matrix( 0.394073486328125, 0.004852294921875, -0.004852294921875, 0.394073486328125, 68.55,32.25) ">
<g transform="matrix( 1, 0, 0, 1, 0,0) ">
<use xlink:href="#Symbol_29_4_Layer0_0_FILL"/>
</g>
</g>

<g transform="matrix( -0.579925537109375, 0.11358642578125, 0.1155242919921875, 0.5898895263671875, -14,23.8) ">
<g transform="matrix( 1, 0, 0, 1, 0,0) ">
<use xlink:href="#Symbol_29_1_Layer0_0_FILL"/>
</g>
</g>

<g transform="matrix( 1, 0, 0, 1, -3.05,12.95) ">
<g transform="matrix( 1, 0, 0, 1, 0,0) ">
<use xlink:href="#Symbol_30_7_Layer0_0_FILL"/>
</g>
</g>

<g transform="matrix( 1, 0, 0, 1, -0.95,0) ">
<g transform="matrix( 1, 0, 0, 1, 0,0) ">
<use xlink:href="#Symbol_32_7_Layer0_0_FILL"/>
</g>
</g>

<g transform="matrix( 1, 0, 0, 1, -0.25,0.15) "/>

<g transform="matrix( 0.6586761474609375, 0, 0, 0.6586761474609375, -222.6,10.9) "/>

<g transform="matrix( 0.488861083984375, 0, 0, 0.488861083984375, 30.8,-104.7) ">
<g transform="matrix( 1, 0, 0, 1, 0,0) ">
<use xlink:href="#Symbol_28_6_Layer1_0_FILL"/>
</g>
</g>

<g transform="matrix( 0.9941253662109375, -0.10821533203125, 0.10821533203125, 0.9941253662109375, -10.25,17.4) "/>

<g transform="matrix( -0.96832275390625, -0.2494354248046875, 0.2494354248046875, -0.96832275390625, 94.05,272.55) "/>

<g transform="matrix( 0.981719970703125, -0.189697265625, 0.189697265625, 0.981719970703125, -43.05,-103.7) "/>
</g>
</svg>
