
<svg xmlns="http://www.w3.org/2000/svg" version="1.1" xmlns:xlink="http://www.w3.org/1999/xlink" preserveAspectRatio="none" x="0px" y="0px" width="200px" height="200px" viewBox="0 0 200 200">
<defs>
<g id="Symbol_29_0_Layer0_0_FILL">
<path fill="#993399" stroke="none" d="
M 85.9 94.85
Q 85.9 93 84.15 89.1 82.75 85.9 80.8 82.7 81.7 81.7 82.4 79.6 83.4 76.75 83.4 73.3 83.4 58.45 71.7 43.4 61.05 29.6 51.4 27.6 38.8 22.8 23.25 29.45 15.2 32.9 6.4 38.7 -3.85 43.1 -10.9 56.65 -16.45 67.35 -16.45 73.95 -16.45 82.85 -13.65 91.4 -10.05 102.35 -2.7 108.75 0.05 111.1 9.6 115.35 18.45 119.25 19.75 119.25 20.8 119.25 23.2 119.05 26.05 118.8 27.45 118.45 35.75 116.4 36.25 115.35 36.35 115.1 36.05 114.85 35.95 114.75 36.7 114.75 37.3 114.75 41.35 118.25 45.4 121.75 47.3 121.75 51.25 121.75 53.6 120.2 56.7 118.2 56.7 113.7 56.7 113.45 56.3 112.3 55.95 111.05 55.6 110.35 61.75 113.75 62.75 113.75 66.15 113.75 68.6 111.5 71.35 109 71.35 104.75 71.35 104.15 70.75 102.1
L 70.15 100.15
Q 71.9 101.9 77.3 103.6 82.2 103.6 84.4 100.25 85.9 98 85.9 94.85
M 20 90.7
Q 15.15 87.2 13.95 82.15 12.8 77.1 16 73.65 19.6 69.75 27.25 69.75 32.65 69.75 35.2 78.2 36.75 83.35 36.75 88.2 36.75 91.15 36.3 92.35 35.5 94.55 32.9 94.55 25.35 94.55 20 90.7
M 58.2 75.3
Q 50.1 75.3 45.2 71.75 40.95 68.6 40.4 63.9 39.9 59.35 42.95 56 46.3 52.45 52.05 52.45 59.05 52.45 61.5 58.35 62.75 61.35 62.75 66.85 62.75 70.5 62.35 71.9 61.4 75.3 58.2 75.3
M 32.7 86.9
L 33.1 86.15 33.1 86.05 32.7 86.9 Z"/>
</g>

<g id="Symbol_30_2_Layer0_0_FILL">
<path fill="#A2358C" stroke="none" d="
M 164.15 44.2
L 164.25 42.55 160.55 36.35
Q 160.45 36.3 160.45 36.15 160.45 36.05 159.85 36.05 157.75 36.05 155.2 39.25 152.7 42.45 152.2 42.45 150.3 42.45 147.55 46.35 145.55 49.3 144.55 51.8 143.2 55.25 140.5 61.35 138.45 66.5 138.45 70.4 138.45 71.15 139.8 72.35 141.1 73.55 141.85 73.55 143.35 73.55 147.05 72.1 150.7 70.6 151 70.6 152 70.6 152.3 71.8 151.85 72.95 151.35 75 150.75 77.4 150.75 78.6 150.75 80.8 151.3 82.25 151.85 83.7 151.85 84.05 151.85 84.8 152.7 86.85 153.7 89.25 154.55 89.25 161.25 89.25 168.2 82.85 176.1 75.6 176.1 65.95 176.1 62.3 175.35 59.45 174.8 57.3 174.5 57.3 173.45 55.8 172.2 54.3 169.8 51.25 168.55 51.25 165.65 51.25 165 50.4 164.15 49.25 164.15 44.2 Z"/>
</g>

<g id="Symbol_32_2_Layer0_0_FILL">
<path fill="#732673" stroke="none" d="
M 118.8 34.5
Q 117.5 34.9 108.25 37 100.5 38.75 98.35 39.7 95.15 41.1 91.95 43.6 89.35 45.6 88.8 45.6 87.5 45.6 81.95 41.2 75.9 36.4 71.4 35.25 67.9 34.35 58.2 33.45 49.05 32.65 40.6 32.35 28.05 34.45 22.05 43.2 19.55 46.85 16.75 53.4 15.05 57.4 11.25 67.05 5.15 64.85 -3.45 66.85 -11.9 68.85 -19.8 74.15 -28.15 79.7 -33.1 87.2 -38.55 95.5 -38.55 104.4 -38.55 104.55 -36.75 115.3 -34.3 126.9 -31.05 131.8 -22.45 144.6 -15.4 148.75 -5.35 154.65 15.05 154.65 27.1 154.65 38.65 145.3 41.35 143.1 45.7 138.85 48.65 135.9 49.35 135.9 49.7 135.9 54.6 137.2 61.05 138.85 67.2 140.15 71.25 141 84.15 142.5 97.1 142.5 113.55 126.75 117.65 122.8 124.45 115.9 129.65 110.95 132.05 110.95 133.05 110.95 144.4 111.7 149.2 111.7 152.95 106.5 158.5 98.8 158.5 82.05 158.5 78.35 156.05 70.5 152.75 59.95 152.15 57.1 150.65 50.35 139.75 42.25 128.05 33.5 118.8 34.5 Z"/>
</g>

<g id="Symbol_24_5_Layer0_0_FILL">
<path fill="#993399" stroke="none" d="
M -104.85 61.85
Q -105.05 61.8 -105.15 61.8 -105.3 61.75 -105.4 61.7
L -105.45 61.7
Q -105.6 61.7 -105.75 61.65 -105.9 61.65 -106.05 61.65
L -106.05 61.7
Q -106.2 61.7 -106.45 61.7 -106.55 61.8 -106.65 61.85 -106.7 61.9 -106.8 61.95 -106.85 62 -106.9 62.05
L -106.9 62.1
Q -106.95 62.1 -107 62.15 -107.05 62.2 -107.15 62.25 -107.2 62.3 -107.25 62.35 -107.3 62.4 -107.35 62.45 -107.35 62.5 -107.4 62.55
L -107.45 62.6
Q -107.5 62.65 -107.55 62.7 -107.55 62.75 -107.55 62.8 -107.6 62.85 -107.7 62.9 -107.7 62.95 -107.7 63.05
L -107.75 63.05 -107.75 63.15
Q -107.75 63.2 -107.8 63.25
L -107.85 63.35 -107.8 63.4
Q -107.85 63.4 -107.85 63.45 -107.85 63.55 -107.85 63.6 -107.85 63.65 -107.9 63.7 -107.9 63.75 -107.9 63.8 -107.85 63.85 -107.85 63.9 -107.85 63.95 -107.85 64
L -107.85 64.05
Q -107.85 64.1 -107.8 64.15
L -107.8 64.2
Q -107.8 64.25 -107.8 64.3 -107.8 64.4 -107.75 64.45 -107.75 64.5 -107.75 64.55
L -107.7 64.6 -107.7 64.65
Q -107.6 64.75 -107.5 64.8 -107.5 64.85 -107.45 64.85 -107.4 64.85 -107.4 64.9 -107.4 64.95 -107.35 64.95 -107.35 65 -107.3 65 -107.25 65.05 -107.25 65.1 -107.2 65.1 -107.2 65.15
L -107.15 65.15
Q -107 65.3 -106.8 65.5 -106.25 65.65 -105.7 65.75 -105.65 65.7 -105.6 65.7 -105.5 65.7 -105.4 65.65
L -105.35 65.65
Q -105.3 65.65 -105.3 65.6 -105.25 65.6 -105.15 65.65 -105.1 65.65 -105.05 65.65 -104.9 65.6 -104.75 65.55 -104.6 65.5 -104.55 65.45 -104.45 65.4 -104.35 65.35 -104.25 65.3 -104.2 65.2 -104.1 65.15 -104.05 65.15 -104 65.1 -104 65 -103.95 64.95 -103.95 64.9 -103.9 64.85 -103.85 64.8 -103.85 64.75 -103.85 64.7 -103.85 64.65 -103.85 64.6 -103.85 64.5 -103.85 64.45 -103.8 64.4 -103.75 64.35 -103.75 64.3 -103.7 64.25 -103.7 64.2 -103.7 64.15 -103.7 64.1 -103.7 64.05 -103.7 63.95 -103.7 63.9 -103.7 63.85 -103.7 63.8 -103.7 63.75 -103.7 63.7 -103.7 63.65 -103.7 63.6 -103.7 63.55 -103.7 63.45
L -103.7 63.4
Q -103.75 63.35 -103.75 63.25 -103.75 63.2 -103.8 63.15 -103.8 63.1 -103.8 63.05 -103.8 63 -103.85 62.95 -103.85 62.9 -103.85 62.85 -103.9 62.75 -103.9 62.7 -103.95 62.65 -104 62.6 -104.05 62.55 -104.1 62.5 -104.15 62.45 -104.2 62.4 -104.25 62.35 -104.3 62.3 -104.35 62.2 -104.4 62.15 -104.45 62.15 -104.45 62.05 -104.55 62 -104.6 61.95 -104.75 61.9 -104.85 61.85 Z"/>
</g>

<g id="Symbol_28_5_Layer1_0_FILL">
<path fill="#000000" stroke="none" d="
M 163.5 124.95
Q 163.5 123.75 162.6 122.9 161.75 122.05 160.55 122.05 159.35 122.05 158.45 122.9 157.6 123.75 157.6 124.95 157.6 126.15 158.45 127 159.35 127.85 160.55 127.85 161.75 127.85 162.6 127 163.5 126.15 163.5 124.95 Z"/>
</g>

<g id="Symbol_28_3_Layer1_0_FILL">
<path fill="#000000" stroke="none" d="
M 178.5 141.8
Q 185.25 135.55 185.25 125.95 185.25 116.35 177.6 109.15 170.05 102.05 160.2 102.05 149.45 102.05 143.1 107.95 136.3 114.25 136.3 125.9 136.3 136.4 144.15 142.35 151.4 147.85 162.7 147.85 172 147.85 178.5 141.8
M 165.35 120.05
Q 167.25 121.95 167.25 124.6 167.25 127.25 165.35 129.15 163.5 131.05 160.85 131.05 158.2 131.05 156.3 129.15 154.45 127.25 154.45 124.6 154.45 121.95 156.3 120.05 158.2 118.15 160.85 118.15 163.5 118.15 165.35 120.05 Z"/>
</g>

<g id="Symbol_28_3_Layer0_0_FILL">
<path fill="#000000" stroke="none" d="
M 173.4 134.8
L 173.4 134.2 173.35 134.3
Q 172.45 135.4 168.9 137.15 165.5 138.85 164.45 138.85
L 164.25 138.85
Q 165.2255859375 138.790625 166.95 137.8 168.65 136.85 169.5 136.1 169.45 136 168.3 135.8
L 168.35 135.55
Q 168.75 135.4 169.75 135.2 170.65 134.9 170.85 133.95
L 170.7 133.9
Q 169.45 134.65 166.9 135.5
L 167.25 135.35
Q 168.3 134.85 168.7 133.95
L 168.3 134.05
Q 164.2 134.85 163.6 134.85 163.85 134.8 165 134.1 166.45 133.25 167.7 132.35 167.5 132.25 163.6 133.1
L 165.45 131.85 163.45 132.3 164.55 131.8
Q 165.4 131.45 165.95 130.9 166.25 130.6 166.6 130.1 165.4 130.3 164.55 130.4
L 164.35 130.1
Q 164.2396484375 129.9896484375 164.35 129.95 163.7810546875 130.0419921875 162.6 130.4 160.95 130.9 160.45 130.9 159.25 131.05 158.7 131.1 157.65 131.1 157.65 130.5
L 154.65 129.35 154.15 129.45
Q 154.25 129.7 154.2 129.75 156.6 132.55 158.55 133.6 157.6 133.5 155.85 132.75 154.3 132 154.2 132 153.6 132 153.55 132.1
L 153.6 132.15
Q 153.75 132.35 154.95 133.35 156.15 134.3 156.3 134.4
L 154.15 134.25 155.55 135.55
Q 153.9 135.2 152.5 134.65 152.45 134.45 152.4 134.35 152.3 134.2 152.3 134.8 152.3 135.05 155 136.65 157.4603515625 138.03125 158.5 138.15
L 157.95 138.15
Q 155.1 137.75 153 136.9 150.95 136.05 150.3 135.95
L 149.8 136.05 150 136.25
Q 150.45 137 152.9 138.55 155.1955078125 139.9529296875 156.55 140.3
L 150.95 139.15
Q 151.4 139.7 151.95 140.05 152.35 140.3 152.35 140.35 152.35 140.5 154.15 141.2 155.0998046875 141.55 155.75 141.75 152.8150390625 141.1359375 152.3 141.05
L 151.75 141.15 151.9 141.15
Q 152.8 142.15 153.65 142.6
L 150.9 142.3
Q 150.9 142.55 151.7 143.05 153.7 144 154.65 144.75
L 152.7 144.25
Q 150.25 143.3 148.45 142.75 148.9 144.05 151.15 145.15 152.35 145.75 154.3 146.6 150.35 146 149.6 144.55 149 143.3 146.8 143.3 146.2 143.3 146.3 143.35 146.35 143.4 146.5 143.4
L 146.5 143.55
Q 147.8 144.55 150.4 146.6 153.35 148.1 159.35 148.1 167.4 148.1 173.35 145.55 179.1 143.15 180.55 139.45 180.3 139.5 179.2 140.15 176.85 141.55 175.8 142.15 176.4 141.5 176.7 140.65 176.5 140.45 175.75 141.1
L 175 141.8
Q 174.95 141.75 174.8 141 174.7 140.4 174.35 140.35 174 140.95 172.65 141.65 171.25 142.35 170.95 142.5
L 171.2 142.35
Q 172.65 140.4 172.95 139.7
L 172.9 139.45
Q 171.15 140.15 171.1 140.15
L 172.45 138.65 172.15 138.5
Q 171.15 138.75 170.4 138.75 170.7 138.35 172.15 136.85 173.4 135.45 173.4 134.8
M 163.7 138.75
Q 163.7998046875 138.7943359375 163.9 138.8
L 163.7 138.8 163.7 138.75 Z"/>
</g>

<g id="Symbol_28_1_Layer1_0_FILL">
<path fill="#000000" stroke="none" d="
M 168.95 132
Q 171.25 129.35 170.55 125.35 169.95 121.55 167.1 118.7 164.1 115.7 160.4 115.7 156.5 115.7 153.55 118.4 150.4 121.3 150.4 125.4 150.4 129.9 153.6 132.6 156.45 135 160.3 135 166.25 135 168.95 132 Z"/>
</g>

<g id="Symbol_28_1_Layer0_0_FILL">
<path fill="#000000" stroke="none" d="
M 159.45 122.25
Q 159.5 122.45 161.75 122.15 162.85 122 163.95 121.8 162.3 120.3 159.45 122.25
M 162.45 120.75
Q 164.55 119.75 165.7 120.35
L 165.8 120.05 164.2 118.95 164.95 119.25
Q 166 119.7 167.2 120.35 167.9 120.35 168.15 120.2 168.3 120.05 168.45 119.7 167.3 115.55 158.95 115.55 157.5 115.55 155.55 116.95 153.35 118.5 151.55 121.25
L 151.75 121.85 152.15 121.85
Q 152.6 121.85 153.05 121.05 153.3 120.65 153.55 120
L 153.45 120.55
Q 153.5 120.75 153.6 121.45 153.6 122.15 153.15 122.7 153.35 123.1 156.8 120.3
L 154.7 122.25
Q 155.15 122.2 156.35 121.45 157.5 120.75 158.75 120.65 158.05 121 157.45 122 159.75 122.05 162.45 120.75 Z"/>
</g>

<g id="Symbol_31_1_Layer0_0_FILL">
<path fill="#000000" stroke="none" d="
M 131.75 148.1
L 130.65 148.1
Q 128.7 148.1 112.55 150.1 92.75 152.5 85.2 153.25 85.3 153.7 86.35 153.7 87.25 153.7 90.7 153.2 96 152.7 106.05 152.6
L 106.05 152.75
Q 123 151.05 132.9 148.9 138.15 147.75 140.5 146.7 133.05 145.75 132.3 145.75 129.55 145.75 118.45 146.9 109.95 147.75 106.65 148.15 106.1 149.25 103.9 149.35
L 101.85 149.45
Q 101.85 149.8 94.7 150.7 96 150.6 107.75 149.25 121.15 147.85 131.9 147.2 131.9 147.35 132.75 147.55
L 132.8 147.8
Q 132.2 148.05 131.75 148.1 Z"/>
</g>
</defs>

<g transform="matrix( 0.414031982421875, 0, 0, 0.414031982421875, 82.35,112.2) ">
<g transform="matrix( 1, 0, 0, 1, 0,0.2) ">
<g transform="matrix( 1, 0, 0, 1, 0,0) ">
<use xlink:href="#Symbol_29_0_Layer0_0_FILL"/>
</g>
</g>

<g transform="matrix( 1, 0, 0, 1, -3.05,12.95) ">
<g transform="matrix( 1, 0, 0, 1, 0,0) ">
<use xlink:href="#Symbol_30_2_Layer0_0_FILL"/>
</g>
</g>

<g transform="matrix( 1, 0, 0, 1, -0.95,0) ">
<g transform="matrix( 1, 0, 0, 1, 0,0) ">
<use xlink:href="#Symbol_32_2_Layer0_0_FILL"/>
</g>
</g>

<g transform="matrix( 1.4168701171875, 0, 0, 1.4168701171875, 310.45,34.7) ">
<g transform="matrix( 1, 0, 0, 1, 0,0) ">
<use xlink:href="#Symbol_24_5_Layer0_0_FILL"/>
</g>
</g>

<g transform="matrix( 1, 0, 0, 1, -0.25,0.15) ">
<g transform="matrix( 1, 0, 0, 1, 0,0) ">
<use xlink:href="#Symbol_28_5_Layer1_0_FILL"/>
</g>
</g>

<g transform="matrix( 0.6586761474609375, 0, 0, 0.6586761474609375, -222.6,10.9) ">
<g transform="matrix( 1, 0, 0, 1, 0,0) ">
<use xlink:href="#Symbol_28_3_Layer1_0_FILL"/>
</g>

<g transform="matrix( 1, 0, 0, 1, 0,0) ">
<use xlink:href="#Symbol_28_3_Layer0_0_FILL"/>
</g>
</g>

<g transform="matrix( 0.488861083984375, 0, 0, 0.488861083984375, 30.8,-104.7) ">
<g transform="matrix( 1, 0, 0, 1, 0,0) ">
<use xlink:href="#Symbol_28_1_Layer1_0_FILL"/>
</g>

<g transform="matrix( 1, 0, 0, 1, 0,0) ">
<use xlink:href="#Symbol_28_1_Layer0_0_FILL"/>
</g>
</g>

<g transform="matrix( 0.9941253662109375, -0.10821533203125, 0.10821533203125, 0.9941253662109375, -10.25,17.4) "/>

<g transform="matrix( -0.96832275390625, -0.2494354248046875, 0.2494354248046875, -0.96832275390625, 94.05,272.55) "/>

<g transform="matrix( 0.981719970703125, -0.189697265625, 0.189697265625, 0.981719970703125, -43.05,-103.7) ">
<g transform="matrix( 1, 0, 0, 1, 0,0) ">
<use xlink:href="#Symbol_31_1_Layer0_0_FILL"/>
</g>
</g>
</g>
</svg>
