
<svg xmlns="http://www.w3.org/2000/svg" version="1.1" xmlns:xlink="http://www.w3.org/1999/xlink" preserveAspectRatio="none" x="0px" y="0px" width="200px" height="200px" viewBox="0 0 200 200">
<defs>
<g id="Symbol_29_7_Layer0_0_FILL">
<path fill="#993399" stroke="none" d="
M -26.55 -2.6
Q -27.15 -2.6 -28.8 -1.95 -31.1 -1.05 -32.25 0.3
L -32.25 4.15
Q -29.5 4.3 -28.5 4.3 -26.45 4.3 -25.1 0.85 -23.75 -2.6 -26.55 -2.6
M 63 -54.8
Q 62.15 -69.35 43.8 -78.8 26.7 -87.6 3.95 -87.6 -5.85 -87.6 -18.55 -77.05 -23.2 -73.15 -26.95 -68.9 -30.25 -65.05 -30.85 -63.35 -31.75 -60.65 -33.3 -51.7 -34.85 -43.05 -34.85 -41.35 -34.85 -38.15 -32.85 -32.9 -30.75 -27.4 -27.45 -22.5 -19.2 -10.05 -10.95 -11.15 -10.8 -8.6 -9.3 -7.1 -7.35 -5.05 -0.35 -1.1
L -0.8 -1.1 -7.5 -0.45
Q -8 3.05 -8 4.05 -8 5 -7 6.3 -5.65 8.05 -3.5 8.05 -0.1 8.05 0.85 5.95 1.4 4.65 1.25 0.8
L 1.5 1.55 3.15 3.5
Q 3.85 3.15 5.55 -0.4 5.6 4.15 7.15 6.4 9.3 9.65 15 9.65 18 9.65 20.6 6.55 21.75 5.2 23.05 2.65
L 22.9 3.55
Q 23.4 7.9 25.3 10.35 27.15 12.65 29.9 12.65 35.3 12.65 38.25 9.6 40.75 6.95 42.25 0.9 43 -2.05 45.75 -4.15 47.3 -5.3 50.85 -7.25 56.15 -10.6 60.25 -21.2 63.15 -28.75 63.5 -32.45 64.6 -42.15 64.25 -44.5 63.15 -51.85 63 -54.8
M 0.25 -53.45
Q 1.95 -54.15 6.2 -53.4 10.1 -52.75 11.15 -52 13.25 -50.5 14.55 -47.35 15.7 -44.5 15.7 -41.8 15.7 -39.7 9.5 -32.7 2.6 -24.95 -2 -24.95 -6.85 -24.95 -9 -26.75 -11 -28.45 -11 -31.95 -11 -36.6 -7.25 -43.4 -3.8 -49.7 0.25 -53.45
M 28.5 -45.15
Q 28.75 -45.4 31.6 -47.1 38.45 -48 42.45 -44.85 47.05 -41.3 47.05 -33.05 47.05 -32.2 41 -26.55 34.2 -20.2 30.2 -20.2 20.25 -20.2 20.25 -24.95 20.25 -28.1 21.6 -31.65 22.2 -33.2 24.5 -37.95 27.5 -44 28.5 -45.15
M 49.15 -19.4
Q 49.65 -19.75 49.55 -19.45 49.35 -19.3 49.25 -19.35
L 49.15 -19.4
M 24.85 -24.35
L 25 -24.2 26.25 -24.2 24.85 -24.35
M -0.65 -35.25
Q -1.05 -34.35 -1 -34.2
L 0.2 -34.85 -0.65 -35.25 Z"/>
</g>

<g id="Symbol_29_6_Layer0_0_FILL">
<path fill="#993399" stroke="none" d="
M -26.55 -2.6
Q -27.15 -2.6 -28.8 -1.95 -31.1 -1.05 -32.25 0.3
L -32.25 4.15
Q -29.5 4.3 -28.5 4.3 -26.45 4.3 -25.1 0.85 -23.75 -2.6 -26.55 -2.6
M 63 -54.8
Q 62.15 -69.35 43.8 -78.8 26.7 -87.6 3.95 -87.6 -5.85 -87.6 -18.55 -77.05 -23.2 -73.15 -26.95 -68.9 -30.25 -65.05 -30.85 -63.35 -31.75 -60.65 -33.3 -51.7 -34.85 -43.05 -34.85 -41.35 -34.85 -38.15 -32.85 -32.9 -30.75 -27.4 -27.45 -22.5 -19.2 -10.05 -10.95 -11.15 -10.8 -8.6 -9.3 -7.1 -7.35 -5.05 -0.35 -1.1
L -0.8 -1.1 -7.5 -0.45
Q -8 3.05 -8 4.05 -8 5 -7 6.3 -5.65 8.05 -3.5 8.05 -0.1 8.05 0.85 5.95 1.4 4.65 1.25 0.8
L 1.5 1.55 3.15 3.5
Q 3.85 3.15 5.55 -0.4 5.6 4.15 7.15 6.4 9.3 9.65 15 9.65 18 9.65 20.6 6.55 21.75 5.2 23.05 2.65
L 22.9 3.55
Q 23.4 7.9 25.3 10.35 27.15 12.65 29.9 12.65 35.3 12.65 38.25 9.6 40.75 6.95 42.25 0.9 43 -2.05 45.75 -4.15 47.3 -5.3 50.85 -7.25 56.15 -10.6 60.25 -21.2 63.15 -28.75 63.5 -32.45 64.6 -42.15 64.25 -44.5 63.15 -51.85 63 -54.8
M 0.25 -53.45
Q 1.95 -54.15 6.2 -53.4 10.1 -52.75 11.15 -52 13.25 -50.5 14.55 -47.35 15.7 -44.5 15.7 -41.8 15.7 -39.7 9.5 -32.7 2.6 -24.95 -2 -24.95 -6.85 -24.95 -9 -26.75 -11 -28.45 -11 -31.95 -11 -36.6 -7.25 -43.4 -3.8 -49.7 0.25 -53.45
M 28.5 -45.15
Q 28.75 -45.4 31.6 -47.1 38.45 -48 42.45 -44.85 47.05 -41.3 47.05 -33.05 47.05 -32.2 41 -26.55 34.2 -20.2 30.2 -20.2 20.25 -20.2 20.25 -24.95 20.25 -28.1 21.6 -31.65 22.2 -33.2 24.5 -37.95 27.5 -44 28.5 -45.15
M 49.15 -19.4
Q 49.65 -19.75 49.55 -19.45 49.35 -19.3 49.25 -19.35
L 49.15 -19.4
M 24.85 -24.35
L 25 -24.2 26.25 -24.2 24.85 -24.35
M -0.65 -35.25
Q -1.05 -34.35 -1 -34.2
L 0.2 -34.85 -0.65 -35.25 Z"/>
</g>

<g id="Symbol_29_3_Layer0_0_FILL">
<path fill="#993399" stroke="none" d="
M 12.55 -9.7
Q 4.05 -10.85 -10.45 -6.3 -26.75 -1.2 -33.6 6.85 -40.9 15.35 -43.85 27.15 -45.4 33.5 -45.4 38.8 -45.4 42.6 -43 49 -41.7 52.3 -39.9 56.9 -37.65 64.95 -27.2 71.25 -18.65 76.4 -13.8 76.4 -4.75 75.55 -3.75 75.55 -3.25 75.55 0.3 81.2 4.3 86.7 7 86.15 13.05 83.3 14.4 82.25 16.15 80.95 16.15 78.95 16.15 78.35 15.95 77.7 15.7 77.15 15.65 77 19.6 80.95 19.65 81 21.9 82.8 24.65 82.8 27.05 82.8 29.6 80.4 32.6 77.6 32.6 73.75
L 32.55 71.6 32.8 72.45
Q 34.85 75.1 36.45 76.25 38.3 77.55 40.45 77.55 43 77.55 45.4 76.3 49.5 74.2 49.5 69.35 49.5 67.1 48.7 62.95 47.9 58.8 47.9 58.15 47.9 57.9 50.5 54.7 53.3 51.15 54.05 46.85 54.55 44.2 54.85 39.1 55.05 35.4 55.05 33.7 55.05 28.5 52.3 21.1 49.3 12.85 44.25 6.05 31 -11.8 12.55 -9.7
M 3.9 33
Q 6.75 37.15 6.75 45.8 6.75 48.15 5.15 50.3 3.5 52.55 1.65 52.55 -6.45 52.55 -11.35 48.85 -15.65 45.6 -16.3 40.7 -16.9 36 -13.9 32.55 -10.7 28.85 -5 28.85 1 28.85 3.9 33
M 31.25 45.55
Q 27.85 45.55 22.15 41.8 15.25 37.25 15.25 31.8 15.25 26.3 16.5 24.3 18.85 20.5 26.7 20.5 32.05 20.5 35 25.4 37.75 30 37.75 37.65 37.75 42.35 35.75 44.2 34.3 45.55 31.25 45.55 Z"/>
</g>

<g id="Symbol_30_9_Layer0_0_FILL">
<path fill="#A2358C" stroke="none" d="
M 150.9 -114.8
Q 150.9 -112.5 153.55 -109.45 154.65 -108.15 156.45 -106.55 158.35 -105.25 162.95 -109.05 168.05 -113.3 169.4 -113.3 171.6 -113.3 174.1 -111.95 175.05 -111.95 176.45 -108.9 177.7 -106.15 177.85 -104.6 178.5 -100.85 178.55 -99.15 178.9 -90.55 178.85 -88.4 182.5 -90.15 185.6 -91.5 186.9 -92.2 196.55 -95.35 198.3 -95.35 199 -94.8 199.3 -94.55 199.35 -94.3 199.4 -94.3 199.65 -94.45 199.95 -94.5 200.35 -94.05 201.6 -92.6 203.5 -86.35 203.1 -86.25 204.9 -85.5 206.65 -84.8 207.2 -84.8 211.35 -84.8 214.4 -91.1 216.8 -96 216.8 -98.6 216.8 -98.75 209.1 -102.5 202.6 -105.95 194.9 -106.3
L 200.05 -108.2 192.75 -109.85 193.6 -112.25
Q 194.45 -114.75 194.45 -115.4 194.45 -116.4 193.95 -116.3 192 -120.35 192.15 -120.85 192.15 -122.25 190.05 -125.35
L 188.55 -127.5
Q 188.5671875 -127.43046875 188.55 -127.35 188.44375 -127.0048828125 188.5 -126.85 187.8751953125 -127.2609375 186.05 -128.9 183.05 -131.55 180.6 -132.9 178.35 -134.1 173.95 -135.65 169.95 -137.1 169.35 -137.1 164.25 -135.1 162.4 -134.75 160.4 -134.35 159.7 -133.65 158.9 -132.4 158.15 -131.35 153.9 -125.1 153.55 -124.5 151.6 -121.55 151.6 -120.95 150.9 -116.25 150.9 -114.8 Z"/>
</g>

<g id="Symbol_32_9_Layer0_0_FILL">
<path fill="#A2358C" stroke="none" d="
M -41.3 60.25
Q -42.55 56.65 -43.8 56.4 -47.9 55.5 -61.75 55.5 -67.75 55.5 -72.85 68.3 -77.35 79.55 -77.35 88.35 -77.35 94.6 -76.5 98.65 -75.3 104.3 -72.35 106.9 -60.9 116.95 -53.5 120.55 -46.5 123.95 -37.9 123.95 -25.85 123.95 -16.15 116.7 -9.65 111.8 -7.9 109.65 -3.5 104.25 -4.2 96.75
L -3.65 90.4 -3.55 88.95
Q -3.334375 86.66328125 -3.3 85
L -12.9 85
Q -20.5 85.55 -27.65 78.75 -29.95 76.55 -32.9 72.9 -36.55 68.35 -37 67.85 -39.6 64.95 -41.3 60.25 Z"/>

<path fill="#993399" stroke="none" d="
M 63.3 52.15
Q 63.319921875 52.1203125 63.4 52 63.5 51.85 63.45 51.75 63.35390625 51.8939453125 63.3 52.15
M 105.3 47.8
Q 103.55 44.4 102.85 42.5 99.15 32.35 90.55 25.65 80.65 17.9 67.55 17.9 63.55 17.9 62.2 19.6 60.85 21.3 58.25 21.3 57.65 21.3 57.15 21.15 56.65 20.95 56.6 20.95 56.85 17.8 54.3 15.9 47 10.4 44.35 7.85 41.45 5.1 36 2.45 30.05 -0.45 26.2 -0.45 20 -0.45 6.65 7.25 2.85 9.45 -0.1 11.05 -1.15 11.85 -1.1 13.8 6.45 11 12.45 23.5 15.45 29.8 16.95 36.7 16.95 41.35 13.85 44.8 10.7 48.25 10.7 51
L 12.7 68.45
Q 12.7 71.5 11.3 74.3 11.3 74.4 6.6 82.55 5.55 84.4 1.35 88.55 -2.8 92.65 -3.95 94.85
L -3.65 90.4 -4.2 96.75
Q -3.6 95.65 -3.15 95.25 -2.45 94.85 -1.95 94.45 -1.4 95.1 3.85 101.45 9.25 107.5 11.3 107.5 11.6 107.5 18.9 109.7 26.7 111.85 29.35 111.85 42.2 111.85 47.75 110.2 48.2 110.1 51.05 110.35 54.05 110.35 55.95 108.9 58.75 106.7 62.7 97.15 66.95 86.85 66.95 80.4 66.95 74.75 64.6 63.35 62.2 53.15 62.2 53.05 62.2 52.45 62.35 52.3 62.45 52.3 62.45 52.25
L 63.3 52.2 63.3 52.15
Q 63.2458984375 51.5775390625 63.05 50.5 62.8 49.4 62.65 49 69.7 50.95 88.6 81.9 90.1 80.65 94.05 79.95 99.2 79 100.85 78.4 109.15 75.35 109.15 62.65 108.45 59.8 107 51.75 106.8 50.6 105.3 47.8 Z"/>
</g>
</defs>

<g transform="matrix( 0.414031982421875, 0, 0, 0.414031982421875, 82.35,112.2) ">
<g transform="matrix( 1, 0, 0, 1, 0,0.2) ">
<g transform="matrix( 1, 0, 0, 1, 0,0) ">
<use xlink:href="#Symbol_29_7_Layer0_0_FILL"/>
</g>
</g>

<g transform="matrix( 0.394073486328125, 0.004852294921875, -0.004852294921875, 0.394073486328125, 68.55,32.25) ">
<g transform="matrix( 1, 0, 0, 1, 0,0) ">
<use xlink:href="#Symbol_29_6_Layer0_0_FILL"/>
</g>
</g>

<g transform="matrix( -0.579925537109375, 0.11358642578125, 0.1155242919921875, 0.5898895263671875, -14,23.8) ">
<g transform="matrix( 1, 0, 0, 1, 0,0) ">
<use xlink:href="#Symbol_29_3_Layer0_0_FILL"/>
</g>
</g>

<g transform="matrix( 1, 0, 0, 1, -3.05,12.95) ">
<g transform="matrix( 1, 0, 0, 1, 0,0) ">
<use xlink:href="#Symbol_30_9_Layer0_0_FILL"/>
</g>
</g>

<g transform="matrix( 1, 0, 0, 1, -0.95,0) ">
<g transform="matrix( 1, 0, 0, 1, 0,0) ">
<use xlink:href="#Symbol_32_9_Layer0_0_FILL"/>
</g>
</g>

<g transform="matrix( 1, 0, 0, 1, -0.25,0.15) "/>

<g transform="matrix( 0.6586761474609375, 0, 0, 0.6586761474609375, -222.6,10.9) "/>

<g transform="matrix( 0.488861083984375, 0, 0, 0.488861083984375, 30.8,-104.7) "/>

<g transform="matrix( 0.9941253662109375, -0.10821533203125, 0.10821533203125, 0.9941253662109375, -10.25,17.4) "/>

<g transform="matrix( -0.96832275390625, -0.2494354248046875, 0.2494354248046875, -0.96832275390625, 94.05,272.55) "/>

<g transform="matrix( 0.981719970703125, -0.189697265625, 0.189697265625, 0.981719970703125, -43.05,-103.7) "/>
</g>
</svg>
