
<svg xmlns="http://www.w3.org/2000/svg" version="1.1" xmlns:xlink="http://www.w3.org/1999/xlink" preserveAspectRatio="none" x="0px" y="0px" width="200px" height="200px" viewBox="0 0 200 200">
<defs>
<g id="Symbol_24_0_Layer0_0_FILL">
<path fill="#993399" stroke="none" d="
M -108.05 48.6
Q -108.05 48.7 -108.05 48.9 -108.45 48.9 -108.9 48.9 -109.05 49 -109.2 49.2 -109.3 49.25 -109.45 49.3 -109.85 49.4 -110.3 49.45 -111 49.7 -111.7 50.05 -111.85 50.05 -112.05 50.05 -112.3 50.25 -112.65 50.45 -112.75 50.45 -112.85 50.5 -112.95 50.65 -113.15 50.8 -113.35 50.85 -113.55 50.95 -113.7 51.1 -113.95 51.15 -114.15 51.25 -114.35 51.35 -114.5 51.5 -114.7 51.55 -114.75 51.7 -114.85 51.85 -114.95 51.9 -115.05 51.95 -115.1 52.1 -115.25 52.25 -115.45 52.3 -115.55 52.45 -115.7 52.55 -115.85 52.7 -115.9 52.75 -115.95 52.85 -116.1 52.95 -116.25 53.05 -116.25 53.15 -116.35 53.3 -116.5 53.45 -116.55 53.5 -116.65 53.65 -116.75 53.7 -116.85 53.85 -116.95 53.9 -116.95 54.05 -117.05 54.15 -117.1 54.25 -117.1 54.35
L -117.1 54.45
Q -117.25 54.5 -117.35 54.55 -117.45 54.65 -117.55 54.75 -117.65 54.9 -117.7 54.95 -117.75 55.1 -117.85 55.25 -117.95 55.3 -118.1 55.35 -118.15 55.5 -118.25 55.65 -118.35 55.7 -118.45 55.85 -118.5 55.95 -118.65 56.1 -118.75 56.15 -118.85 56.25 -118.9 56.35 -118.95 56.45 -119.05 56.55 -119.1 56.7 -119.25 56.85 -119.3 56.9 -119.35 57.05 -119.5 57.1 -119.55 57.25 -119.65 57.3 -119.65 57.45 -119.65 57.55 -119.7 57.65 -119.75 57.75 -119.85 57.9 -119.9 57.95 -119.95 58.05 -120 58.15 -120.1 58.3 -120.15 58.35 -120.2 58.5 -120.2 58.6 -120.2 58.7 -120.2 58.75 -120.2 58.9 -120.2 59 -120.3 59.1 -120.35 59.2 -120.35 59.35 -120.35 59.5 -120.35 59.55 -120.35 59.6 -120.4 59.75 -120.4 59.8 -120.5 59.95 -120.5 60.1 -120.5 60.15 -120.5 60.2 -120.55 60.3 -120.55 60.4
L -120.6 60.5
Q -120.6 60.55 -120.6 60.6 -120.7 60.8 -120.75 61 -120.75 61.4 -120.75 61.9 -120.75 62.3 -120.75 62.75 -120.75 63.15 -120.75 63.6 -120.75 64 -120.75 64.4 -120.75 64.8 -120.75 65.3 -120.75 65.7 -120.75 66.15 -120.75 66.55 -120.75 67 -120.75 67.4 -120.75 67.8 -120.6 68.2 -120.5 68.65 -120.2 68.95 -119.95 69.25 -119.7 69.55 -119.55 69.85 -119.45 70.05 -119.35 70.4 -119.35 70.8 -119.35 71.2 -119.1 71.6 -118.85 72.05 -118.5 72.45 -118.25 72.95 -117.75 73.35 -117.35 73.8 -116.95 74.2 -116.55 74.6 -116.25 75 -115.95 75.45 -115.45 75.85 -114.85 76.3 -114.7 76.3 -114.65 76.4
L -114.55 76.45
Q -114.45 76.45 -114.3 76.6 -114.1 76.7 -113.9 76.85 -113.7 76.9 -113.55 77.05 -113.35 77.2 -113.15 77.25 -112.95 77.3 -112.75 77.45 -112.5 77.6 -112.25 77.6
L -112.2 77.65
Q -112.05 77.7 -111.9 77.85 -111.6 77.9 -111.3 78 -110.7 78 -110.2 78.1
L -110.1 78.2 -110.05 78.2
Q -109.8 78.25 -109.45 78.3 -109.25 78.3 -109.05 78.3 -109 78.3 -108.8 78.4 -108.45 78.45 -108.2 78.5 -108.1 78.5 -108 78.6 -107.65 78.7 -107.3 78.7 -106.45 78.7 -105.5 78.8 -105.3 78.7 -105.1 78.7 -104.9 78.7 -104.6 78.7 -104.4 78.65 -104.2 78.6 -103.8 78.6 -103.45 78.5
L -103.4 78.5
Q -102.85 78.5 -102.4 78.45 -102.25 78.4 -102.15 78.3 -101.95 78.3 -101.75 78.25 -101.25 78.2 -100.85 78.1 -100.55 78 -100.15 77.9 -100 77.85 -99.85 77.7 -99.6 77.65 -99.25 77.6 -99.2 77.6 -99 77.45 -98.95 77.45 -98.85 77.45
L -98.85 77.4
Q -98.55 77.25 -98.35 77.2 -98.05 77.05 -97.75 77.05 -97.75 76.9 -97.6 76.85 -97.4 76.7 -97.2 76.6 -97 76.45 -96.95 76.45
L -96.9 76.4
Q -96.8 76.3 -96.75 76.3 -96.7 76.25 -96.6 76.25 -96.15 75.8 -95.6 75.45 -95.35 75 -95.1 74.6 -94.95 74.45 -94.8 74.3 -94.75 74.2 -94.5 74.2 -94.35 74.05 -94.2 73.9 -94.15 73.8 -94 73.7 -93.95 73.65 -93.95 73.6 -93.8 73.45 -93.75 73.45 -93.7 73.4 -93.6 73.35 -93.6 73.25 -93.55 73.2 -93.5 73.05 -93.35 73.05 -93.3 72.95 -93.2 72.8 -93.1 72.65 -93 72.6 -92.9 72.45 -92.8 72.35 -92.8 72.25 -92.75 72.2 -92.7 72.05 -92.6 71.95 -92.55 71.85 -92.5 71.75 -92.5 71.6 -92.4 71.55 -92.35 71.4 -92.35 71.35 -92.2 71.2 -92.15 71.15 -92.15 71 -92.1 70.85 -92.1 70.8 -91.95 70.65 -91.95 70.55 -91.9 70.45 -91.8 70.4 -91.75 70.25 -91.7 70.15 -91.7 70.05 -91.7 69.95 -91.7 69.8 -91.6 69.65 -91.55 69.65 -91.5 69.55 -91.5 69.4 -91.5 69.25 -91.5 69.2 -91.4 69.05 -91.35 68.95 -91.35 68.85 -91.3 68.8 -91.2 68.65 -91.2 68.55 -91.2 68.45 -91.2 68.35 -91.15 68.2 -91.1 68.15 -91 68 -90.95 67.95 -90.95 67.8 -90.95 67.75 -90.95 67.6 -90.95 67.45 -90.9 67.4 -90.8 67.25 -90.8 67.15 -90.8 67.05 -90.8 67 -90.8 66.85 -90.8 66.75 -90.75 66.65 -90.7 66.55 -90.6 66.4
L -90.6 66.25
Q -90.55 66.15 -90.55 66 -90.55 65.9 -90.55 65.8 -90.55 65.7 -90.55 65.55 -90.55 65.5 -90.55 65.4 -90.55 65.3 -90.55 65.15 -90.55 65.1 -90.55 64.95 -90.55 64.8 -90.55 64.75 -90.55 64.6 -90.55 64.55 -90.55 64.4 -90.55 64.35 -90.55 64.2 -90.55 64.1 -90.55 64 -90.55 63.9 -90.55 63.75 -90.55 63.7 -90.55 63.6 -90.55 63.5 -90.55 63.35 -90.55 63.2 -90.55 63.15 -90.55 63
L -90.55 62.9
Q -90.55 62.75 -90.55 62.6 -90.55 62.5 -90.55 62.4 -90.55 62.3 -90.5 62.15 -90.5 62.1 -90.5 62 -90.55 61.9 -90.55 61.75 -90.55 61.7 -90.55 61.55 -90.55 61.4 -90.6 61.35 -90.7 61.3 -90.75 61.15 -90.75 61 -90.75 60.95 -90.75 60.8 -90.75 60.7 -90.75 60.6 -90.75 60.5 -90.75 60.4 -90.75 60.3 -90.8 60.2 -90.8 60.1 -90.8 59.95 -90.8 59.8 -90.9 59.75 -90.95 59.6 -90.95 59.55 -91 59.5 -91.1 59.35 -91.1 59.2 -91.2 59.1 -91.3 59 -91.35 58.9 -91.35 58.75 -91.35 58.7 -91.5 58.6 -91.55 58.5 -91.6 58.35 -91.7 58.3 -91.7 58.15 -91.75 58.05 -91.8 57.95 -91.8 57.9 -91.9 57.85
L -91.9 57.75
Q -91.9 57.65 -91.9 57.55 -91.9 57.45 -91.9 57.3 -91.95 57.25 -91.95 57.1 -92 57.05 -92.1 56.9 -92.1 56.85 -92.1 56.7 -92.1 56.55 -92.1 56.45 -92.15 56.35 -92.15 56.25 -92.2 56.15 -92.35 56.1 -92.35 55.95 -92.4 55.85 -92.5 55.7 -92.5 55.65 -92.5 55.5 -92.6 55.35 -92.7 55.3 -92.75 55.25 -92.8 55.1 -92.8 54.95 -92.9 54.9 -92.95 54.75 -93.1 54.65 -93.2 54.55 -93.2 54.5 -93.3 54.35 -93.35 54.25 -93.35 54.15 -93.5 54.05 -93.55 53.9 -93.6 53.85 -93.75 53.7 -93.8 53.65 -93.9 53.5 -93.95 53.45 -93.95 53.3 -94 53.15 -94.1 53.05 -94.2 52.95 -94.35 52.85 -94.4 52.75 -94.5 52.7 -94.6 52.55 -94.7 52.45 -94.75 52.3 -94.75 52.25 -94.9 52.1 -95 51.95 -95.15 51.9 -95.3 51.85 -95.5 51.7 -95.55 51.55 -95.7 51.5 -95.8 51.35 -95.9 51.25 -96.1 51.15 -96.2 51.1 -96.4 50.95 -96.6 50.85 -96.9 50.8 -97 50.65 -97.2 50.5 -97.4 50.4 -97.6 50.3 -97.85 50.25 -98.15 50.1 -98.45 50.05 -98.65 50 -98.8 50 -98.85 50 -99.25 49.85 -99.6 49.7
L -99.75 49.65
Q -100 49.6 -100.35 49.5
L -100.4 49.45
Q -100.8 49.2 -101.25 48.9 -103.85 48.8 -106.45 48.65 -106.7 48.6 -106.9 48.6
L -106.9 48.65
Q -107.5 48.6 -108.05 48.6
M -97.4 58.5
Q -97.35 58.6 -97.35 58.7 -97.3 58.8 -97.15 58.95 -97.1 59.1 -97 59.15 -97 59.3 -96.95 59.35 -96.9 59.5 -96.9 59.55 -96.8 59.7 -96.75 59.8 -96.75 59.9 -96.7 60 -96.7 60.15 -96.7 60.2 -96.7 60.3 -96.7 60.4 -96.7 60.55 -96.6 60.6 -96.6 60.75 -96.6 60.9 -96.6 60.95 -96.5 61 -96.5 61.15 -96.5 61.3
L -96.5 61.35
Q -96.3 61.75 -96.2 62.15 -96.2 62.55 -96.2 63 -96.2 63.4 -96.2 63.9 -96.2 64.3 -96.2 64.75 -96.2 65.15 -96.2 65.55 -96.3 65.95 -96.5 66.4 -96.6 66.8 -96.75 67.25 -97 67.65 -97.35 68.15 -97.75 68.55 -98.15 68.95 -98.55 69.35 -99 69.8 -99.65 70.2 -100.4 70.65 -101.25 71.05 -102.15 71.55 -103 71.55 -103.85 71.55 -104 71.55 -104.15 71.6 -104.55 71.65 -104.85 71.8 -105 71.95 -105.2 71.95 -105.45 71.95 -105.7 72 -105.9 72 -106.05 72 -106.2 72 -106.3 72 -106.6 72 -106.85 72 -107.7 71.95 -108.6 71.95 -109 71.95 -109.4 71.8 -109.5 71.75 -109.7 71.65 -110.1 71.6 -110.5 71.55 -110.7 71.4 -111 71.35 -111.2 71.2 -111.3 71.15 -111.45 71 -111.65 70.85 -111.7 70.8 -111.9 70.65 -112.1 70.55 -112.25 70.45 -112.4 70.4 -112.45 70.25 -112.55 70.15 -112.7 70.05 -112.85 69.95 -112.85 69.8 -112.95 69.65 -113.05 69.65 -113.1 69.55 -113.15 69.4 -113.25 69.25 -113.35 69.2 -113.45 69.05 -113.55 68.95 -113.55 68.85 -113.65 68.8 -113.7 68.65 -113.7 68.55 -113.75 68.45 -113.85 68.35 -113.85 68.2 -113.9 68.15 -113.95 68 -113.95 67.95
L -113.95 67.8
Q -114.3 67.4 -114.55 67 -114.7 66.55 -114.85 66.15 -114.85 65.7 -114.85 65.3 -114.85 64.8 -114.85 64.4 -114.85 64 -114.85 63.6 -114.85 63.15 -114.85 62.75 -114.85 62.3 -114.85 61.9 -114.55 61.4 -114.3 61
L -114.25 60.95 -114.25 60.9
Q -114.25 60.75 -114.25 60.6 -114.25 60.55 -114.15 60.4 -114.1 60.3 -113.95 60.2 -113.95 60.15 -113.95 60 -113.95 59.9 -113.9 59.8 -113.85 59.7 -113.7 59.55 -113.7 59.5 -113.65 59.35 -113.55 59.3 -113.55 59.15 -113.5 59.1 -113.45 58.95 -113.35 58.8 -113.3 58.7 -113.25 58.6 -113.15 58.5 -113.1 58.4 -112.95 58.35 -112.85 58.25 -112.75 58.1 -112.7 57.95 -112.55 57.9 -112.5 57.75 -112.45 57.65 -112.3 57.55 -112.2 57.5 -112.05 57.35 -111.9 57.25 -111.7 57.15 -111.65 57.05 -111.4 56.9 -111.2 56.85 -111 56.75 -110.7 56.65 -110.5 56.5 -110.25 56.45 -110.2 56.35 -110 56.25 -109.85 56.25 -109.7 56.15 -109.45 56.1 -109.05 56.1 -109.05 56.05 -108.9 55.95 -108.45 55.7 -108.05 55.35 -107.6 55.35 -107.2 55.35 -107.2 55.25 -107.2 55.1 -104.8 55.25 -102.4 55.35 -101.75 55.75 -101.05 56.15 -101 56.15 -100.95 56.15 -100.75 56.25 -100.4 56.25 -100.25 56.35 -100 56.45 -99.85 56.5 -99.65 56.65 -99.4 56.75 -99.2 56.85 -99 56.9 -98.85 57.05 -98.65 57.15 -98.55 57.25 -98.45 57.35 -98.35 57.5 -98.2 57.55 -98.15 57.65 -98 57.75 -97.85 57.9 -97.8 57.95 -97.75 58.1 -97.65 58.25 -97.55 58.35 -97.45 58.4 -97.4 58.5 Z"/>
</g>

<g id="Symbol_28_0_Layer1_0_FILL">
<path fill="#000000" stroke="none" d="
M 182.2 123.65
Q 182.2 110.9 170.65 105.9 166.1 103.95 161 103.9 156.2 103.85 153.05 105.45 146.5 108.8 143.65 112.2 139.35 117.4 139.35 125.95 139.35 134.65 144.3 140 150.15 146.35 161.8 146.35 170.1 146.35 175.45 141.7 182.2 135.8 182.2 123.65
M 174.25 124.85
Q 174.3 129.7 170.7 133 166.55 136.7 159.1 136.7 153 136.7 150.1 133.2 147.7 130.3 147.7 125.4 147.7 120.7 150.95 117.1 154.7 112.95 160.95 112.95 166.9 112.95 170.7 116.65 174.15 120.05 174.25 124.85 Z"/>
</g>

<g id="Symbol_31_0_Layer0_0_FILL">
<path fill="#000000" stroke="none" d="
M 1.8 164.25
Q 33.7 160.2 38.4 159.5 45.35 158.5 62.25 155.45 58.7 155.4 51.4 155.65 44.7 155.95 44.2 155.95 43.7 155.95 38.2 156.35 32.65 156.7 32.15 156.7
L 20.8 157.45
Q 10.15 158.2 9.15 158.2 -44.05 163.65 -56.4 166.1 -58.15 166.45 -67.3 168.1 -75.9 169.7 -77.6 170.15 -77.55 170.4 -77 170.55 -76.5 170.7 -76.55 170.75
L -76.35 170.9
Q -75.7 170.65 -72 170.5 -67.1 170.35 -64.4 170.25 -61.25 170.05 -54.65 169.65 -48.05 169.25 -47.3 169.25 -46.9 169.25 -40.5 168.6 -34.3 168 -33.9 168.05
L -32.5 168.1
Q -28.25 168.1 -21.75 167.45 -16 166.75 -15.6 166.75
L -15.6 166.85
Q 1.6 164.9 1.8 164.25
M -58.75 168.65
L -59.1 168.8
Q -59.7 168.95 -60.9 169.05
L -61.85 169 -58.75 168.65 Z"/>
</g>
</defs>

<g transform="matrix( 0.414031982421875, 0, 0, 0.414031982421875, 82.35,112.2) ">
<g transform="matrix( 1.4168701171875, 0, 0, 1.4168701171875, 310.45,34.7) ">
<g transform="matrix( 1, 0, 0, 1, 0,0) ">
<use xlink:href="#Symbol_24_0_Layer0_0_FILL"/>
</g>
</g>

<g transform="matrix( 1, 0, 0, 1, -0.25,0.15) ">
<g transform="matrix( 1, 0, 0, 1, 0,0) ">
<use xlink:href="#Symbol_28_0_Layer1_0_FILL"/>
</g>
</g>

<g transform="matrix( 0.9941253662109375, -0.10821533203125, 0.10821533203125, 0.9941253662109375, -10.25,17.4) ">
<g transform="matrix( 1, 0, 0, 1, 0,0) ">
<use xlink:href="#Symbol_31_0_Layer0_0_FILL"/>
</g>
</g>
</g>
</svg>
