
<svg xmlns="http://www.w3.org/2000/svg" version="1.1" xmlns:xlink="http://www.w3.org/1999/xlink" preserveAspectRatio="none" x="0px" y="0px" width="200px" height="200px" viewBox="0 0 200 200">
<defs>
<g id="Symbol_29_22_Layer0_0_FILL">
<path fill="#000000" fill-opacity="0.2" stroke="none" d="
M -55.85 -184.4
Q -55.85 -184.9 -56.35 -185.3 -56.8 -185.65 -57.5 -185.65 -58.2 -185.65 -58.7 -185.3 -59.15 -184.9 -59.15 -184.4 -59.15 -183.9 -58.7 -183.55 -58.2 -183.15 -57.5 -183.15 -56.8 -183.15 -56.35 -183.55 -55.85 -183.9 -55.85 -184.4
M -26.55 -210.6
Q -29.1 -208.3 -29.1 -207 -29.1 -206.3 -28.5 -204.75 -27 -205.9 -25.3 -210.4
L -26.55 -210.6
M 147.05 -147.1
Q 147.05 -147.6 146.55 -147.95 146.1 -148.3 145.4 -148.3 144.7 -148.3 144.2 -147.95 143.75 -147.6 143.75 -147.1 143.75 -146.6 144.2 -146.25 144.7 -145.9 145.4 -145.9 146.1 -145.9 146.55 -146.25 147.05 -146.6 147.05 -147.1
M 82.25 -185.2
L 81 -185.7
Q 80.8 -185.6 78.85 -185.05 77.35 -184.6 78.1 -184.65 78.2 -184.6 78.85 -184.7 79.25 -184.8 79.25 -184.2 79.25 -183.55 78.75 -183.05
L 78.25 -182.7 79.5 -182.45
Q 79.9 -182.75 80.95 -183.8 82.15 -184.95 82.25 -185.2
M 78.75 -211.7
Q 79.2 -214.55 77.6 -215.95 76.5 -216.9 74.75 -216.95 77 -211.65 77.75 -211.2 78.5 -211.7 78.75 -211.7 Z"/>
</g>
</defs>

<g transform="matrix( 0.414031982421875, 0, 0, 0.414031982421875, 82.35,112.2) ">
<g transform="matrix( 1, 0, 0, 1, 0,0.2) "/>

<g transform="matrix( 0.394073486328125, 0.004852294921875, -0.004852294921875, 0.394073486328125, 68.55,32.25) "/>

<g transform="matrix( -0.579925537109375, 0.11358642578125, 0.1155242919921875, 0.5898895263671875, -14,23.8) ">
<g transform="matrix( 1, 0, 0, 1, 0,0) ">
<use xlink:href="#Symbol_29_22_Layer0_0_FILL"/>
</g>
</g>

<g transform="matrix( 1, 0, 0, 1, -3.05,12.95) "/>

<g transform="matrix( 1, 0, 0, 1, -0.95,0) "/>

<g transform="matrix( 1, 0, 0, 1, -0.25,0.15) "/>

<g transform="matrix( 0.6586761474609375, 0, 0, 0.6586761474609375, -222.6,10.9) "/>

<g transform="matrix( 0.488861083984375, 0, 0, 0.488861083984375, 30.8,-104.7) "/>

<g transform="matrix( 0.9941253662109375, -0.10821533203125, 0.10821533203125, 0.9941253662109375, -10.25,17.4) "/>

<g transform="matrix( -0.96832275390625, -0.2494354248046875, 0.2494354248046875, -0.96832275390625, 94.05,272.55) "/>

<g transform="matrix( 0.981719970703125, -0.189697265625, 0.189697265625, 0.981719970703125, -43.05,-103.7) "/>
</g>
</svg>
