
<svg xmlns="http://www.w3.org/2000/svg" version="1.1" xmlns:xlink="http://www.w3.org/1999/xlink" preserveAspectRatio="none" x="0px" y="0px" width="200px" height="200px" viewBox="0 0 200 200">
<defs>
<g id="Symbol_29_11_Layer0_0_FILL">
<path fill="#993399" stroke="none" d="
M -68.2 -22.1
Q -68.2 -22.9 -68.6 -23.45 -69 -24 -69.6 -24 -70.2 -24 -70.6 -23.45 -71 -22.9 -71 -22.1 -71 -21.3 -70.6 -20.75 -70.2 -20.2 -69.6 -20.2 -69 -20.2 -68.6 -20.75 -68.2 -21.3 -68.2 -22.1
M 30.35 -52.7
Q 32.75 -52.7 33.8 -54.8 34.75 -56.75 34.2 -59.5 33.65 -62.25 31.9 -64.15 30 -66.3 27.35 -66.3 26.05 -66.3 25.25 -64.75 24.5 -63.15 24.5 -60.35 24.5 -55.5 25.35 -54.2 26.4 -52.7 30.35 -52.7
M 53.5 -56.5
Q 53.5 -57.5 53.25 -59.25 50 -59.45 49 -59.45 47 -59.45 45.55 -57.6 43.75 -55.35 43.75 -50.95 43.75 -48.85 45.25 -47.75 46.75 -46.65 48.65 -47.15 53.5 -48.4 53.5 -56.5
M 97.05 -101.25
Q 97.05 -101.5 95.85 -106.2 94.6 -111.15 94.15 -112.2 93.15 -114.5 90.6 -120.45 89.7 -121.8 86.2 -125.1 81.95 -129.05 80.3 -129.05 80.2 -129.05 78.05 -127.75 75.45 -126.2 73 -125.25 72.65 -125.15 70.25 -122.95
L 67.75 -120.7 67.25 -122.2
Q 67.85 -122.7 68.1 -124.15 68.25 -124.95 69.65 -126.2 70.85 -128.75 70.5 -136.35 68.8 -134.25 60.6 -137.1 52.25 -140.5 51.25 -140.75 44.15 -140.95 39.7 -140.85 31.4 -140.75 28.1 -139.35 14.7 -133.6 6.5 -123.25 -2.65 -111.7 -2.65 -97.4 -2.65 -92.15 4.95 -87.65 13.25 -83.8 14.5 -83.2 18.9 -81.1 24.55 -75.1 28.95 -70.45 32.8 -70.45
L 44 -71.2
Q 50.35 -71.2 56.55 -69.15 62.7 -67.1 66.4 -63.75 63.15 -62.7 61.4 -59.25 60.25 -56 60.25 -55.95 60.25 -53 60.75 -51.6 61.3 -50.5 61.5 -49.9
L 61.5 -49.95
Q 61.5 -50.55 61.4 -51.05 62.15 -50.45 63.05 -49.95 63.85 -49.45 64 -49.45 67.95 -49.45 69.9 -53.05 72.3 -57.5 74.3 -58.45 75.55 -59.05 81 -59.85 84.55 -60.35 86.35 -63.45 93.3 -75.5 95.3 -83 97.05 -89.5 97.05 -101.25
M 29.2 -105.5
Q 32.25 -109 36.85 -108.85 41.25 -108.7 44.45 -105.4 47.9 -101.8 47.9 -96.3 47.9 -93 42.85 -88.65 38 -84.45 35 -84.45 30.7 -84.45 28.35 -86.7 25.75 -89.2 25.75 -94.15 25.75 -101.55 29.2 -105.5
M 13.9 -107.15
Q 15.25 -108.3 19 -107.95 19.25 -106.35 19.25 -105.25 19.25 -104.9 18.25 -101.45 17.25 -98 17.25 -97.45 17.25 -96.95 17.75 -96.3 18.25 -95.7 18.25 -95.2 18.25 -94.6 17.65 -93.95 16.8 -93.05 15.25 -92.95 15.05 -94 13.8 -98.5 12.75 -102.15 12.75 -103.1 12.75 -106.1 13.9 -107.15
M 75.45 -97.05
Q 78.85 -93.15 78.85 -85.55 78.85 -84.45 74.6 -81 69.95 -77.2 66.95 -77.2 62.2 -77.2 59.95 -78.25 57.6 -79.35 57.6 -81.85 57.6 -82.85 57.35 -86.35 57.05 -89.8 57.05 -90.85 57.05 -94.65 60.45 -97.5 63.75 -100.2 67.95 -100.3 72.55 -100.4 75.45 -97.05
M 80.3 -71.8
Q 80.8 -72.15 80.7 -71.9 80.5 -71.75 80.4 -71.75
L 80.3 -71.8
M 31.45 -89.35
Q 31.65 -89.45 31.65 -89.65 31.65 -89.85 31.45 -90 31.3 -90.1 31.05 -90.1 30.8 -90.1 30.6 -90 30.45 -89.85 30.45 -89.65 30.45 -89.45 30.6 -89.35 30.8 -89.2 31.05 -89.2 31.3 -89.2 31.45 -89.35 Z"/>
</g>

<g id="Symbol_29_10_Layer0_0_FILL">
<path fill="#993399" stroke="none" d="
M -68.2 -22.1
Q -68.2 -22.9 -68.6 -23.45 -69 -24 -69.6 -24 -70.2 -24 -70.6 -23.45 -71 -22.9 -71 -22.1 -71 -21.3 -70.6 -20.75 -70.2 -20.2 -69.6 -20.2 -69 -20.2 -68.6 -20.75 -68.2 -21.3 -68.2 -22.1
M 30.35 -52.7
Q 32.75 -52.7 33.8 -54.8 34.75 -56.75 34.2 -59.5 33.65 -62.25 31.9 -64.15 30 -66.3 27.35 -66.3 26.05 -66.3 25.25 -64.75 24.5 -63.15 24.5 -60.35 24.5 -55.5 25.35 -54.2 26.4 -52.7 30.35 -52.7
M 53.5 -56.5
Q 53.5 -57.5 53.25 -59.25 50 -59.45 49 -59.45 47 -59.45 45.55 -57.6 43.75 -55.35 43.75 -50.95 43.75 -48.85 45.25 -47.75 46.75 -46.65 48.65 -47.15 53.5 -48.4 53.5 -56.5
M 97.05 -101.25
Q 97.05 -101.5 95.85 -106.2 94.6 -111.15 94.15 -112.2 93.15 -114.5 90.6 -120.45 89.7 -121.8 86.2 -125.1 81.95 -129.05 80.3 -129.05 80.2 -129.05 78.05 -127.75 75.45 -126.2 73 -125.25 72.65 -125.15 70.25 -122.95
L 67.75 -120.7 67.25 -122.2
Q 67.85 -122.7 68.1 -124.15 68.25 -124.95 69.65 -126.2 70.85 -128.75 70.5 -136.35 68.8 -134.25 60.6 -137.1 52.25 -140.5 51.25 -140.75 44.15 -140.95 39.7 -140.85 31.4 -140.75 28.1 -139.35 14.7 -133.6 6.5 -123.25 -2.65 -111.7 -2.65 -97.4 -2.65 -92.15 4.95 -87.65 13.25 -83.8 14.5 -83.2 18.9 -81.1 24.55 -75.1 28.95 -70.45 32.8 -70.45
L 44 -71.2
Q 50.35 -71.2 56.55 -69.15 62.7 -67.1 66.4 -63.75 63.15 -62.7 61.4 -59.25 60.25 -56 60.25 -55.95 60.25 -53 60.75 -51.6 61.3 -50.5 61.5 -49.9
L 61.5 -49.95
Q 61.5 -50.55 61.4 -51.05 62.15 -50.45 63.05 -49.95 63.85 -49.45 64 -49.45 67.95 -49.45 69.9 -53.05 72.3 -57.5 74.3 -58.45 75.55 -59.05 81 -59.85 84.55 -60.35 86.35 -63.45 93.3 -75.5 95.3 -83 97.05 -89.5 97.05 -101.25
M 29.2 -105.5
Q 32.25 -109 36.85 -108.85 41.25 -108.7 44.45 -105.4 47.9 -101.8 47.9 -96.3 47.9 -93 42.85 -88.65 38 -84.45 35 -84.45 30.7 -84.45 28.35 -86.7 25.75 -89.2 25.75 -94.15 25.75 -101.55 29.2 -105.5
M 13.9 -107.15
Q 15.25 -108.3 19 -107.95 19.25 -106.35 19.25 -105.25 19.25 -104.9 18.25 -101.45 17.25 -98 17.25 -97.45 17.25 -96.95 17.75 -96.3 18.25 -95.7 18.25 -95.2 18.25 -94.6 17.65 -93.95 16.8 -93.05 15.25 -92.95 15.05 -94 13.8 -98.5 12.75 -102.15 12.75 -103.1 12.75 -106.1 13.9 -107.15
M 75.45 -97.05
Q 78.85 -93.15 78.85 -85.55 78.85 -84.45 74.6 -81 69.95 -77.2 66.95 -77.2 62.2 -77.2 59.95 -78.25 57.6 -79.35 57.6 -81.85 57.6 -82.85 57.35 -86.35 57.05 -89.8 57.05 -90.85 57.05 -94.65 60.45 -97.5 63.75 -100.2 67.95 -100.3 72.55 -100.4 75.45 -97.05
M 80.3 -71.8
Q 80.8 -72.15 80.7 -71.9 80.5 -71.75 80.4 -71.75
L 80.3 -71.8
M 31.45 -89.35
Q 31.65 -89.45 31.65 -89.65 31.65 -89.85 31.45 -90 31.3 -90.1 31.05 -90.1 30.8 -90.1 30.6 -90 30.45 -89.85 30.45 -89.65 30.45 -89.45 30.6 -89.35 30.8 -89.2 31.05 -89.2 31.3 -89.2 31.45 -89.35 Z"/>
</g>

<g id="Symbol_29_7_Layer0_0_FILL">
<path fill="#993399" stroke="none" d="
M -26.55 -2.6
Q -27.15 -2.6 -28.8 -1.95 -31.1 -1.05 -32.25 0.3
L -32.25 4.15
Q -29.5 4.3 -28.5 4.3 -26.45 4.3 -25.1 0.85 -23.75 -2.6 -26.55 -2.6
M 63 -54.8
Q 62.15 -69.35 43.8 -78.8 26.7 -87.6 3.95 -87.6 -5.85 -87.6 -18.55 -77.05 -23.2 -73.15 -26.95 -68.9 -30.25 -65.05 -30.85 -63.35 -31.75 -60.65 -33.3 -51.7 -34.85 -43.05 -34.85 -41.35 -34.85 -38.15 -32.85 -32.9 -30.75 -27.4 -27.45 -22.5 -19.2 -10.05 -10.95 -11.15 -10.8 -8.6 -9.3 -7.1 -7.35 -5.05 -0.35 -1.1
L -0.8 -1.1 -7.5 -0.45
Q -8 3.05 -8 4.05 -8 5 -7 6.3 -5.65 8.05 -3.5 8.05 -0.1 8.05 0.85 5.95 1.4 4.65 1.25 0.8
L 1.5 1.55 3.15 3.5
Q 3.85 3.15 5.55 -0.4 5.6 4.15 7.15 6.4 9.3 9.65 15 9.65 18 9.65 20.6 6.55 21.75 5.2 23.05 2.65
L 22.9 3.55
Q 23.4 7.9 25.3 10.35 27.15 12.65 29.9 12.65 35.3 12.65 38.25 9.6 40.75 6.95 42.25 0.9 43 -2.05 45.75 -4.15 47.3 -5.3 50.85 -7.25 56.15 -10.6 60.25 -21.2 63.15 -28.75 63.5 -32.45 64.6 -42.15 64.25 -44.5 63.15 -51.85 63 -54.8
M 0.25 -53.45
Q 1.95 -54.15 6.2 -53.4 10.1 -52.75 11.15 -52 13.25 -50.5 14.55 -47.35 15.7 -44.5 15.7 -41.8 15.7 -39.7 9.5 -32.7 2.6 -24.95 -2 -24.95 -6.85 -24.95 -9 -26.75 -11 -28.45 -11 -31.95 -11 -36.6 -7.25 -43.4 -3.8 -49.7 0.25 -53.45
M 28.5 -45.15
Q 28.75 -45.4 31.6 -47.1 38.45 -48 42.45 -44.85 47.05 -41.3 47.05 -33.05 47.05 -32.2 41 -26.55 34.2 -20.2 30.2 -20.2 20.25 -20.2 20.25 -24.95 20.25 -28.1 21.6 -31.65 22.2 -33.2 24.5 -37.95 27.5 -44 28.5 -45.15
M 49.15 -19.4
Q 49.65 -19.75 49.55 -19.45 49.35 -19.3 49.25 -19.35
L 49.15 -19.4
M 24.85 -24.35
L 25 -24.2 26.25 -24.2 24.85 -24.35
M -0.65 -35.25
Q -1.05 -34.35 -1 -34.2
L 0.2 -34.85 -0.65 -35.25 Z"/>
</g>

<g id="Symbol_30_13_Layer0_0_FILL">
<path fill="#A2358C" stroke="none" d="
M 189.1 -174.65
Q 188.95 -174.9 188.05 -175.55 187.45 -175.15 185.35 -172.9 183.2 -170.65 182.05 -169.85 177.75 -174.8 173.45 -178.45 171.65 -179.95 171.75 -181.55
L 170.2 -181.75
Q 169.85 -181.2 169.65 -180.85 169.3 -180.15 169.3 -179.5 169.3 -178.85 170.85 -177.25 171.6 -176.45 172.35 -175.75 175.15 -172.6 176.15 -172.5
L 180.2 -167.8
Q 180.4 -167.65 180.45 -167.5 180.6 -167.4 181.2 -167.4 182.55 -167.4 185.7 -170.25 188.9 -173.15 189.1 -174.65
M 179.3 -231.35
Q 179 -231.15 178.2 -231.8
L 177.55 -231 186 -217.25
Q 185.8 -216.9 186.05 -215.9 186.4 -214.65 186.4 -214.25 186.4 -212.4 183 -210.1 179.15 -207.6 178.85 -207
L 179.45 -206.1 180.6 -206.2
Q 182.05 -207.3 185.7 -209.65 188.65 -211.95 188.65 -214.5 188.65 -218.25 179.3 -231.35 Z"/>
</g>

<g id="Symbol_32_13_Layer0_0_FILL">
<path fill="#993399" stroke="none" d="
M -23.1 95.35
L -23.65 93.6
Q -24.55 97.65 -37 103.75 -49.75 110 -57.95 110 -63.2 110 -72.25 103.95 -77.15 100.7 -84.15 95.15 -82.35 109.6 -69.7 115.55 -62.7 118.85 -54.95 118.85 -42.8 118.85 -34.35 112 -26.9 106 -23.1 95.35 Z"/>

<path fill="#742774" stroke="none" d="
M 61.65 74.85
L 61.95 74 61.35 74 61.65 74.85
M 44.95 46.25
Q 45.05 46.25 48.35 47.8 51.9 49.4 53.25 49.45 54.65 49.45 60.25 51.9 67.6 55.1 73.9 59.7 74.4 58 71.85 53.65 69.15 49 64.65 44.55 52.55 32.65 39.2 32.9
L 31.55 34.55
Q 30.75 34.35 28.05 31.3 22.8 25.45 22.4 25 14.1 16.3 9.7 17.2
L 10.35 17.85
Q 11.8 19.7 17.1 25.45 21.9 30.85 22.5 33.3 23.55 37.65 23.7 44.2 23.8 47.75 23.7 53.2 23.7 53.7 23.75 57.35 23.75 61.3 23.45 64.25 23.4 64.85 21.25 66.4 19.05 68.05 16.8 69.05 9.8 72.2 7.3 75.15 5.2 77.65 5.2 81.75 5.2 88 -16.3 98.25 -13.7 101.15 -4.8 104.7 11.65 89 16.75 81.95 17.95 80.8 21 80 28.55 78.05 33.7 76.4 32.45 60.3 32.45 55.75 32.45 53.4 37.45 49.75 42.3 46.25 44.95 46.25 Z"/>
</g>
</defs>

<g transform="matrix( 0.414031982421875, 0, 0, 0.414031982421875, 82.35,112.2) ">
<g transform="matrix( 1, 0, 0, 1, 0,0.2) ">
<g transform="matrix( 1, 0, 0, 1, 0,0) ">
<use xlink:href="#Symbol_29_11_Layer0_0_FILL"/>
</g>
</g>

<g transform="matrix( 0.394073486328125, 0.004852294921875, -0.004852294921875, 0.394073486328125, 68.55,32.25) ">
<g transform="matrix( 1, 0, 0, 1, 0,0) ">
<use xlink:href="#Symbol_29_10_Layer0_0_FILL"/>
</g>
</g>

<g transform="matrix( -0.579925537109375, 0.11358642578125, 0.1155242919921875, 0.5898895263671875, -14,23.8) ">
<g transform="matrix( 1, 0, 0, 1, 0,0) ">
<use xlink:href="#Symbol_29_7_Layer0_0_FILL"/>
</g>
</g>

<g transform="matrix( 1, 0, 0, 1, -3.05,12.95) ">
<g transform="matrix( 1, 0, 0, 1, 0,0) ">
<use xlink:href="#Symbol_30_13_Layer0_0_FILL"/>
</g>
</g>

<g transform="matrix( 1, 0, 0, 1, -0.95,0) ">
<g transform="matrix( 1, 0, 0, 1, 0,0) ">
<use xlink:href="#Symbol_32_13_Layer0_0_FILL"/>
</g>
</g>

<g transform="matrix( 1, 0, 0, 1, -0.25,0.15) "/>

<g transform="matrix( 0.6586761474609375, 0, 0, 0.6586761474609375, -222.6,10.9) "/>

<g transform="matrix( 0.488861083984375, 0, 0, 0.488861083984375, 30.8,-104.7) "/>

<g transform="matrix( 0.9941253662109375, -0.10821533203125, 0.10821533203125, 0.9941253662109375, -10.25,17.4) "/>

<g transform="matrix( -0.96832275390625, -0.2494354248046875, 0.2494354248046875, -0.96832275390625, 94.05,272.55) "/>

<g transform="matrix( 0.981719970703125, -0.189697265625, 0.189697265625, 0.981719970703125, -43.05,-103.7) "/>
</g>
</svg>
