
<svg xmlns="http://www.w3.org/2000/svg" version="1.1" xmlns:xlink="http://www.w3.org/1999/xlink" preserveAspectRatio="none" x="0px" y="0px" width="200px" height="200px" viewBox="0 0 200 200">
<defs>
<g id="Symbol_29_16_Layer0_0_FILL">
<path fill="#000000" fill-opacity="0.8" stroke="none" d="
M -0.35 -151.5
Q -1.85 -151.5 -2.95 -149.75 -4.05 -148.05 -4.05 -145.7 -4.05 -144.25 -3.15 -143.2 -2.15 -142.05 -0.5 -142.05 3.4 -142.05 3.45 -146.75 3.5 -151.5 -0.35 -151.5
M -9 -152.8
Q -12.15 -158 -15.75 -158 -17.45 -158 -19.4 -156.45 -22.25 -154.25 -22.25 -150.1 -22.25 -144.85 -18.75 -144.2
L -9 -143.7
Q -5.6 -147.25 -9 -152.8
M 15.8 -151.95
Q 15.8 -152.8 15.1 -153.4 14.4 -153.95 13.4 -153.95 12.4 -153.95 11.7 -153.4 11 -152.8 11 -151.95 11 -151.1 11.7 -150.55 12.4 -149.95 13.4 -149.95 14.4 -149.95 15.1 -150.55 15.8 -151.1 15.8 -151.95
M 3.05 -161.05
Q 1.95 -162.95 0.25 -166.15 -1.3 -168.45 -4 -168.45 -5.9 -168.45 -6.9 -166.55 -8 -164.5 -7.7 -160.7
L 1 -160.45
Q 1.6 -160.45 2.2 -160.7 2.55 -160.8 3.05 -161.05
M 58.25 -166.35
Q 52.65 -166.7 50.3 -163.95 48.65 -162.05 48.65 -158.85 48.65 -158 49.15 -157.6 49.95 -156.95 52.15 -156.95 53.95 -156.95 55.75 -158.3 58.5 -160.4 58.5 -164.7 58.5 -165.7 58.25 -166.35
M 80.9 -186.3
Q 78.65 -187.95 73.2 -194.7 67.1 -200.6 58.75 -200.6 54 -200.6 49.85 -195.85 45.95 -190.4 44.45 -189 37.7 -182.75 35.5 -180.3 32.25 -176.7 32.25 -174.7 32.25 -174.05 32.4 -173.6
L 32.5 -173.3
Q 32.8 -173.35 41.75 -174.15 50.7 -174.95 57.25 -176 78.55 -179.45 80.9 -186.3
M 101.05 -146.85
Q 101.05 -147.65 100.5 -148.2 99.95 -148.75 99.15 -148.75 98.35 -148.75 97.8 -148.2 97.25 -147.65 97.25 -146.85 97.25 -146.05 97.8 -145.5 98.35 -144.95 99.15 -144.95 99.95 -144.95 100.5 -145.5 101.05 -146.05 101.05 -146.85
M 121.25 -152.35
Q 121.25 -153.45 120.3 -154.25 119.35 -155 118 -155 116.65 -155 115.7 -154.25 114.75 -153.45 114.75 -152.35 114.75 -151.25 115.7 -150.5 116.65 -149.7 118 -149.7 119.35 -149.7 120.3 -150.5 121.25 -151.25 121.25 -152.35
M 34.75 -198.1
Q 31.2 -199 26.55 -198.1 20.3 -196.95 10.15 -189.6 -2.4 -180.6 -5.15 -171.05 0.6 -169.75 2.9 -167.35 3.45 -166.8 6.5 -161.45 8.45 -162.05 15.2 -165.15 21.3 -168 25.05 -169.95 24.8 -170.5 24.5 -171.85 24.25 -173.2 24.25 -173.95 24.25 -177.05 31.4 -184.85 38.55 -192.65 38.55 -194.65 38.55 -197.15 34.75 -198.1 Z"/>
</g>

<g id="Symbol_29_15_Layer0_0_FILL">
<path fill="#662266" stroke="none" d="
M -5.1 -152.05
Q -5.3 -151.45 -5.15 -151.15
L -5 -150.95
Q -4.75 -151.3 -5.1 -152.05
M 57.4 -137.3
Q 56.4 -138.2 53.6 -138.2 51.45 -138.2 49.25 -136.45 46.75 -134.45 46.75 -131.85 46.75 -130.1 48.55 -128.95 50.25 -127.9 52.5 -128.05 58.25 -128.4 58.25 -134.55 58.25 -136.55 57.4 -137.3
M 32.8 -116.6
Q 32.8 -117.2 32.4 -117.6 32 -118 31.4 -118 30.8 -118 30.4 -117.6 30 -117.2 30 -116.6 30 -116 30.4 -115.6 30.8 -115.2 31.4 -115.2 32 -115.2 32.4 -115.6 32.8 -116 32.8 -116.6
M 2.65 -130.6
Q 9.15 -130.6 14 -132.95 18.45 -135.1 18.45 -137.4 18.45 -139.65 14.25 -142.45 8.05 -146.6 -3.2 -146.6 -5.35 -146.6 -6.7 -144.1 -8.05 -141.65 -7.7 -138.6 -6.85 -130.6 2.65 -130.6
M 23.15 -125.9
Q 22.2 -125.9 21.55 -125.25 20.9 -124.55 20.9 -123.6 20.9 -122.65 21.55 -122 22.2 -121.3 23.15 -121.3 24.1 -121.3 24.75 -122 25.4 -122.65 25.4 -123.6 25.4 -124.55 24.75 -125.25 24.1 -125.9 23.15 -125.9
M 54.5 -183.95
L 54.85 -183.4 55.2 -183.95 54.5 -183.95
M 95.95 -136
Q 94.45 -137.2 91 -137.2 90.8 -137.2 90 -136.2 89.1 -135 88.65 -133.9 87.4 -130.65 91.55 -130.65 93.35 -130.65 97.15 -130.95
L 97.25 -132.9
Q 97.25 -134.95 95.95 -136
M 84.5 -124.65
Q 83.75 -125.2 82.65 -125.2 81.55 -125.2 80.75 -124.65 80 -124.05 80 -123.2 80 -122.35 80.75 -121.8 81.55 -121.2 82.65 -121.2 83.75 -121.2 84.5 -121.8 85.3 -122.35 85.3 -123.2 85.3 -124.05 84.5 -124.65
M 83.7 -152.1
Q 87.25 -155.25 87.25 -160.35 87.25 -164.85 79.35 -173.35 70.65 -182.75 63.25 -182.75 59.25 -182.75 53.85 -175.3 47.9 -167.15 47 -166.8 40.5 -164.2 38.5 -162.9 35.5 -160.95 31.2 -158.9 32 -160.2 40.15 -167.65 48.15 -176.1 49.2 -183.9 43.4 -184.75 34.3 -183.25 25.2 -181.8 16.8 -178.65 9.1 -175.8 2.4 -167.2 -3 -160.25 -3 -157.8 -3 -156 -1.45 -155 -0.4 -154.3 3.05 -153.1 12.4 -149.8 19.25 -144.7 19.55 -149.6 22.2 -151.8 24.85 -153.95 30.5 -153.95 35.4 -153.95 37.9 -152.25 39.55 -151.1 40.75 -148.5 42.05 -145.55 42.8 -144.8 44.45 -143.1 47.95 -143.1 49.1 -143.1 50.95 -144.05 53.15 -145.2 53.35 -146.55 53.5 -147.6 53.35 -150.15 53.2 -152.75 53.25 -153.2 53.5 -154.85 56.7 -158.3 60.3 -162.2 63 -162.2 70.15 -162.2 73.3 -155.8 74.6 -152.65 75.15 -151.45 76 -149.45 77 -149.45 80.7 -149.45 83.7 -152.1
M 26.5 -159.2
Q 26.45 -159 26.4 -158.9 26.25 -158.75 26.3 -159.2
L 26.5 -159.2 Z"/>
</g>

<g id="Symbol_29_12_Layer0_0_FILL">
<path fill="#662266" stroke="none" d="
M 61.1 -101.2
Q 59 -101.2 57.35 -99.3 55.75 -97.45 55.75 -95.2 56 -92.95 56 -92.85
L 59.6 -92.7
Q 63.35 -92.7 63.7 -96.95 64.05 -101.2 61.1 -101.2
M 64.75 -116.85
Q 64.55 -117.1 64.2 -117.95
L 63.4 -116.75 64.75 -116.85
M 37.1 -103
Q 35.85 -103 35.05 -101.95 34.25 -100.85 34.25 -99.1 34.25 -95.65 36.65 -93.6 38.65 -91.95 41 -91.95 41.85 -91.95 42.45 -93.7 43.05 -95.45 42.9 -97.45 42.35 -103 37.1 -103
M 83.25 -101.7
Q 83.25 -103 81.95 -103.65 80.75 -104.25 79.15 -103.95 75 -103.2 75 -98.7 75 -97.6 75.9 -97.15 76.8 -96.7 79 -96.7 80.6 -96.7 82 -98.7 83.25 -100.45 83.25 -101.7
M 101.2 -135.35
Q 100.55 -138.75 99.2 -141.4 94.6 -150.1 91.25 -154.55 84.85 -162.95 79.25 -162.95 75.2 -162.95 64.25 -156.05 54.1 -149.2 54 -149.2 53.35 -149.2 53.15 -149.5 53.05 -149.7 53 -150.45 53.6 -151.4 54.25 -152.85 55.75 -154.8 61.85 -160.3 61.85 -160.75 62.55 -162.65 63.25 -164.55 63.25 -165.2 63.25 -167.55 57.6 -168.05 53.85 -168.4 40.55 -168.05 30.3 -167.75 20.25 -159.8 11.45 -152.8 7.1 -143.95 13.7 -143.25 20.05 -135.65 25.5 -129.2 25.5 -126.1 25.5 -124.25 25.05 -123.5 24.6 -122.7 23.35 -122.7 22.05 -122.7 20.4 -123.05 18.6 -123.5 17.85 -124.05 17.4 -124.4 16.25 -126.8 15.05 -129.3 14.8 -129.55 13.15 -131.15 4.1 -134.4 3.1 -134.4 3 -134.05 2.95 -131.95 2.7 -128.65 2.45 -125.6 2.45 -125.25 2.45 -119.6 5.5 -115.3 8.9 -110.45 14.5 -110.45 17.2 -110.45 23.7 -112.4 27.35 -113.5 34.55 -115.7 32.5 -116.85 31.45 -120.3 30.7 -122.75 30.7 -124.75 30.7 -128.35 34.1 -131.15 37.55 -134 42.1 -134 47.25 -134 50.4 -129.9 52.9 -126.7 52.9 -123.4 52.9 -122.4 52.35 -120.65 51.75 -119.1 51.75 -119.05 51.75 -118.05 53.5 -117.2 55.15 -116.45 56.65 -116.45 60.95 -116.45 62.5 -119.1 63.25 -120.4 63.95 -124.85 64.6 -128.9 66.15 -130.65 68.55 -133.3 74.2 -133.3 80.8 -133.3 83.7 -127.5 85.35 -124.25 85.35 -121.25 85.35 -120.15 84.55 -118.5 83.55 -116.4 81.8 -115.05 85.9 -111.9 87.4 -111 89.5 -109.75 91.35 -109.75 94.45 -109.75 98.35 -114.45 102.15 -119.05 102.15 -122.3 102.15 -130.45 101.2 -135.35 Z"/>
</g>

<g id="Symbol_32_18_Layer0_0_FILL">
<path fill="#000000" stroke="none" d="
M -46.95 127.35
Q -41.8 126.55 -40.95 124.8
L -46.95 126.95 -46.95 127.35
M 6 81.95
Q 7.35 82.85 9.95 84.25 12.35 85.55 12.5 85.55 13.15 85.55 13.4 85.35 13.7 85 13.95 84.7 13.1 84.6 6 81.95 Z"/>
</g>
</defs>

<g transform="matrix( 0.414031982421875, 0, 0, 0.414031982421875, 82.35,112.2) ">
<g transform="matrix( 1, 0, 0, 1, 0,0.2) ">
<g transform="matrix( 1, 0, 0, 1, 0,0) ">
<use xlink:href="#Symbol_29_16_Layer0_0_FILL"/>
</g>
</g>

<g transform="matrix( 0.394073486328125, 0.004852294921875, -0.004852294921875, 0.394073486328125, 68.55,32.25) ">
<g transform="matrix( 1, 0, 0, 1, 0,0) ">
<use xlink:href="#Symbol_29_15_Layer0_0_FILL"/>
</g>
</g>

<g transform="matrix( -0.579925537109375, 0.11358642578125, 0.1155242919921875, 0.5898895263671875, -14,23.8) ">
<g transform="matrix( 1, 0, 0, 1, 0,0) ">
<use xlink:href="#Symbol_29_12_Layer0_0_FILL"/>
</g>
</g>

<g transform="matrix( 1, 0, 0, 1, -3.05,12.95) "/>

<g transform="matrix( 1, 0, 0, 1, -0.95,0) ">
<g transform="matrix( 1, 0, 0, 1, 0,0) ">
<use xlink:href="#Symbol_32_18_Layer0_0_FILL"/>
</g>
</g>

<g transform="matrix( 1, 0, 0, 1, -0.25,0.15) "/>

<g transform="matrix( 0.6586761474609375, 0, 0, 0.6586761474609375, -222.6,10.9) "/>

<g transform="matrix( 0.488861083984375, 0, 0, 0.488861083984375, 30.8,-104.7) "/>

<g transform="matrix( 0.9941253662109375, -0.10821533203125, 0.10821533203125, 0.9941253662109375, -10.25,17.4) "/>

<g transform="matrix( -0.96832275390625, -0.2494354248046875, 0.2494354248046875, -0.96832275390625, 94.05,272.55) "/>

<g transform="matrix( 0.981719970703125, -0.189697265625, 0.189697265625, 0.981719970703125, -43.05,-103.7) "/>
</g>
</svg>
