
<svg xmlns="http://www.w3.org/2000/svg" version="1.1" xmlns:xlink="http://www.w3.org/1999/xlink" preserveAspectRatio="none" x="0px" y="0px" width="200px" height="200px" viewBox="0 0 200 200">
<defs>
<g id="Symbol_24_1_Layer0_0_FILL">
<path fill="#993399" stroke="none" d="
M -100 60.3
Q -100.1171875 60.166015625 -100.25 60.05 -100.25 59.99375 -100.25 59.95 -100.35 59.85 -100.4 59.75 -100.45 59.65 -100.45 59.55 -100.5 59.5 -100.6 59.4 -100.65 59.3 -100.7 59.2 -100.8 59.1 -100.9 59 -101 58.9 -101.1 58.8 -101.2 58.75 -101.35 58.65 -101.45 58.55 -101.6 58.45 -101.8 58.35 -102 58.25 -102.167578125 58.21640625 -102.3 58.15 -102.40625 58.115625 -102.5 58.05 -103 57.65 -103.5 57.3 -105.25 57.15 -107 57.05 -107 57.15 -107 57.3 -107.35 57.3 -107.75 57.3 -108 57.4 -108.25 57.55 -108.578515625 57.7845703125 -108.95 58 -109.023046875 58.0345703125 -109.1 58.05 -109.25 58.15 -109.45 58.25 -109.6 58.35 -109.75 58.45 -109.95 58.55 -110.1 58.65 -110.2 58.75 -110.25 58.8 -110.35 58.9 -110.45 59 -110.6 59.1 -110.75 59.2 -110.95 59.3 -111.1 59.4 -111.2 59.5 -111.35 59.55 -111.45 59.65 -111.5 59.75 -111.6 59.85 -111.7 59.95 -111.75 60.05 -111.75 60.15 -111.85 60.25 -111.95 60.3 -112 60.4 -112 60.5 -112.1 60.6 -112.15 60.7 -112.2 60.8 -112.2 60.9 -112.25 61 -112.25 61.05 -112.3 61.15 -112.35 61.25 -112.35 61.35 -112.4 61.45 -112.4 61.55 -112.4 61.65 -112.45 61.75 -112.45 61.8 -112.45 61.9 -112.45 62 -112.45 62.1 -112.45 62.2
L -112.45 62.25
Q -112.5 62.35 -112.5 62.45 -112.6 62.55 -112.65 62.65 -112.7 62.75 -112.75 62.8 -112.8 62.9 -112.85 63 -112.85 63.1 -112.9 63.2 -112.9 63.3 -112.9 63.4 -112.95 63.45 -112.95 63.55 -112.95 63.65 -112.95 63.75 -112.95 63.85 -112.95 63.95 -112.95 64.05 -112.95 64.15 -112.95 64.2 -112.95 64.3 -112.95 64.4 -112.95 64.5 -112.95 64.6 -112.9 64.7 -112.9 64.8 -112.9 64.9 -112.9 64.95 -112.9 65.05 -112.9 65.15 -112.9 65.25 -112.85 65.35 -112.85 65.45 -112.85 65.55 -112.85 65.65 -112.8 65.7 -112.75 65.8 -112.75 65.9 -112.75 66 -112.75 66.1 -112.75 66.2 -112.75 66.3 -112.7 66.4 -112.65 66.45 -112.6 66.55 -112.5 66.65 -112.4 66.75 -112.325 66.825 -112.25 66.9 -112.25 66.9740234375 -112.25 67.05 -112.1 67.4 -112 67.8 -111.6 68.15 -111.25 68.55 -110.85 68.9 -110.5 69.3 -110.1 69.65 -109.75 70.05 -108.85 70.3 -108 70.55 -107 70.65 -106 70.8 -105.5 70.8 -105 70.8 -104 70.65 -103 70.55 -102.5 70.3 -102 70.05 -101.35 69.65 -100.75 69.3 -100.35 68.9 -100 68.55 -99.85 68.15 -99.75 67.8 -99.721875 67.725 -99.7 67.65 -99.65 67.55 -99.6 67.45 -99.5 67.35 -99.45 67.25 -99.4 67.15 -99.35 67.05 -99.25 66.95 -99.2 66.9 -99.15 66.8 -99.1 66.7 -99.05 66.6 -99 66.5 -98.95 66.4 -98.9 66.3 -98.85 66.2 -98.85 66.15 -98.85 66.1 -98.85 66.05 -98.85234375 65.94765625 -98.9 65.9 -98.9 65.8 -98.9 65.7 -98.95 65.6 -98.95 65.5 -98.95 65.4 -98.95 65.3 -98.95 65.2 -98.95 65.15 -98.95 65.05 -98.95 64.95 -98.95 64.85 -98.95 64.75 -98.95 64.65 -98.95 64.55 -98.95 64.45 -98.95 64.4 -99 64.3 -99 64.2 -99 64.1 -99 64 -99 63.9 -99 63.8 -99 63.7 -99 63.65 -99 63.55 -99 63.45 -99 63.35 -99 63.25 -99 63.15 -99 63.05 -99 62.95 -99 62.9 -99.05 62.8 -99.1 62.7 -99.1 62.6 -99.1 62.5 -99.1 62.4 -99.1 62.3 -99.1 62.25 -99.15 62.15 -99.15 62.05 -99.15 61.95 -99.2 61.85 -99.2 61.75 -99.25 61.65 -99.35 61.55 -99.4 61.5 -99.45 61.4 -99.5 61.3 -99.5 61.2 -99.6 61.1 -99.65 61 -99.7 60.9 -99.75 60.8 -99.8033203125 60.7734375 -99.85 60.7 -99.9103515625 60.508984375 -100 60.3 Z"/>
</g>

<g id="Symbol_28_1_Layer1_0_FILL">
<path fill="#000000" stroke="none" d="
M 168.95 132
Q 171.25 129.35 170.55 125.35 169.95 121.55 167.1 118.7 164.1 115.7 160.4 115.7 156.5 115.7 153.55 118.4 150.4 121.3 150.4 125.4 150.4 129.9 153.6 132.6 156.45 135 160.3 135 166.25 135 168.95 132 Z"/>
</g>

<g id="Symbol_28_1_Layer0_0_FILL">
<path fill="#000000" stroke="none" d="
M 159.45 122.25
Q 159.5 122.45 161.75 122.15 162.85 122 163.95 121.8 162.3 120.3 159.45 122.25
M 162.45 120.75
Q 164.55 119.75 165.7 120.35
L 165.8 120.05 164.2 118.95 164.95 119.25
Q 166 119.7 167.2 120.35 167.9 120.35 168.15 120.2 168.3 120.05 168.45 119.7 167.3 115.55 158.95 115.55 157.5 115.55 155.55 116.95 153.35 118.5 151.55 121.25
L 151.75 121.85 152.15 121.85
Q 152.6 121.85 153.05 121.05 153.3 120.65 153.55 120
L 153.45 120.55
Q 153.5 120.75 153.6 121.45 153.6 122.15 153.15 122.7 153.35 123.1 156.8 120.3
L 154.7 122.25
Q 155.15 122.2 156.35 121.45 157.5 120.75 158.75 120.65 158.05 121 157.45 122 159.75 122.05 162.45 120.75 Z"/>
</g>

<g id="Symbol_31_1_Layer0_0_FILL">
<path fill="#000000" stroke="none" d="
M 131.75 148.1
L 130.65 148.1
Q 128.7 148.1 112.55 150.1 92.75 152.5 85.2 153.25 85.3 153.7 86.35 153.7 87.25 153.7 90.7 153.2 96 152.7 106.05 152.6
L 106.05 152.75
Q 123 151.05 132.9 148.9 138.15 147.75 140.5 146.7 133.05 145.75 132.3 145.75 129.55 145.75 118.45 146.9 109.95 147.75 106.65 148.15 106.1 149.25 103.9 149.35
L 101.85 149.45
Q 101.85 149.8 94.7 150.7 96 150.6 107.75 149.25 121.15 147.85 131.9 147.2 131.9 147.35 132.75 147.55
L 132.8 147.8
Q 132.2 148.05 131.75 148.1 Z"/>
</g>
</defs>

<g transform="matrix( 0.414031982421875, 0, 0, 0.414031982421875, 82.35,112.2) ">
<g transform="matrix( 1.4168701171875, 0, 0, 1.4168701171875, 310.45,34.7) ">
<g transform="matrix( 1, 0, 0, 1, 0,0) ">
<use xlink:href="#Symbol_24_1_Layer0_0_FILL"/>
</g>
</g>

<g transform="matrix( 1, 0, 0, 1, -0.25,0.15) ">
<g transform="matrix( 1, 0, 0, 1, 0,0) ">
<use xlink:href="#Symbol_28_1_Layer1_0_FILL"/>
</g>

<g transform="matrix( 1, 0, 0, 1, 0,0) ">
<use xlink:href="#Symbol_28_1_Layer0_0_FILL"/>
</g>
</g>

<g transform="matrix( 0.9941253662109375, -0.10821533203125, 0.10821533203125, 0.9941253662109375, -10.25,17.4) ">
<g transform="matrix( 1, 0, 0, 1, 0,0) ">
<use xlink:href="#Symbol_31_1_Layer0_0_FILL"/>
</g>
</g>
</g>
</svg>
