
<svg xmlns="http://www.w3.org/2000/svg" version="1.1" xmlns:xlink="http://www.w3.org/1999/xlink" preserveAspectRatio="none" x="0px" y="0px" width="200px" height="200px" viewBox="0 0 200 200">
<defs>
<g id="Symbol_30_1_Layer0_0_FILL">
<path fill="#A2358C" stroke="none" d="
M 110.7 105.7
Q 110.15 106.15 109.9 106.55
L 110 106.7 110.7 105.7
M 124.75 86.15
Q 124.75 87.25 122.95 90.35 122.95 90.4 119.6 99.9 116.1 109.8 115.55 112.35 116.1 112.4 121.4 112.95 124.3 112.95 127 112.25 129.7 111.55 130 111.55 130.5 111.55 130.85 112.3 131.2 113 131.7 113 153.9 108.25 153.9 102.9 153.9 101.5 152.7 98.45 151.15 94.5 148.95 92.55 148.95 92.3 150.85 87.9 152.7 83.5 152.7 82.25 152.7 81.65 151.5 79.75
L 150.3 78
Q 151.25 77.05 148.2 76.15 144.95 75.5 144.85 75.5 144.15 75.5 141.5 74.45
L 138.8 73.4
Q 136.3 73.4 130.4 79.1 124.75 84.6 124.75 86.15 Z"/>
</g>

<g id="Symbol_32_1_Layer0_0_FILL">
<path fill="#501A50" stroke="none" d="
M 113.35 65.3
Q 106.9 65.3 97 67.25 87.15 69.15 86.65 69.15 82.3 69.15 77.7 67.35 73.3 65.3 71.95 64.75
L 65.2 64.75 65.2 65.45
Q 59.35 65.8 56.95 66.2 53.2 66.85 48.25 69.9 46.15 71.2 45.45 73.45 45 74.7 44.25 77.5 44.2 77.65 43 81.05 42.25 82.3 41.7 82.1 40.55 81.7 39.45 82.1
L 24.2 87.35
Q 8.35 92.85 2.45 106.7 -0.6 113.75 -0.6 122.2 -0.6 125.9 1.7 134.85 4.45 145.6 7.95 151.7 11.15 157.25 19.15 161.7 27.9 166.6 35.3 165.7 42.75 167.1 50.4 165 55 163.8 64.9 160.3 66.5 159.85 69.55 157.1 72.4 154.5 72.5 154.5 79.3 154.5 85.1 155.85 90.95 157.2 99.8 157.2 106.25 157.2 110.15 155.4 112.65 154.2 117.7 149.95 119.2 148.65 122.2 145.2 124.45 142.55 129.35 141.35 131.8 140.75 134.5 140.45 146.4 136.6 150.55 126.85 152.85 121.5 152.85 112.75 152.85 110.2 151 102.2 148.85 92.75 146.7 90.4 144.4 87.85 141.25 82.45 137.85 76.6 135.9 74.25 128.5 65.3 113.35 65.3 Z"/>
</g>

<g id="Symbol_24_4_Layer0_0_FILL">
<path fill="#993399" stroke="none" d="
M -100.45 60.3
Q -100.55 60.25 -100.65 60.15 -100.75 60.05 -100.85 59.95 -100.95 59.85 -101 59.75 -101.1 59.65 -101.2 59.55 -101.3 59.5 -101.4 59.4 -101.5 59.3 -101.65 59.2 -101.75 59.1 -101.85 59 -101.95 58.9 -102 58.8 -102.1 58.75 -102.2 58.65 -102.35 58.55 -102.45 58.45 -102.65 58.35 -102.85 58.25 -103.1 58.2 -103.35 58.15 -103.45 58.05 -103.6 58 -103.9 57.95 -104.2 57.9 -104.35 57.9 -104.45 57.9 -104.7 57.9 -104.95 57.9 -105.1 57.9 -105.2 57.9 -105.2720703125 57.9 -105.35 57.9 -105.419921875 57.85 -105.5 57.8 -106.25 57.65 -107 57.55 -107 57.65 -107 57.8 -107.35 57.8 -107.75 57.8 -108.1 58.05 -108.5 58.3 -109.25 58.65 -110 59.05 -110.35 59.4 -110.75 59.8 -111.1 60.15 -111.5 60.55 -111.85 60.9 -112.25 61.3 -112.35 61.65 -112.5 62.05 -112.5 62.091015625 -112.5 62.1 -112.5412109375 62.1912109375 -112.6 62.25 -112.6 62.35 -112.6 62.45 -112.6 62.55 -112.65 62.65 -112.65 62.75 -112.65 62.8 -112.7 62.9 -112.7 63 -112.7 63.1 -112.7 63.2 -112.7 63.3 -112.7 63.4 -112.7 63.45 -112.7 63.55 -112.7 63.65 -112.7 63.75 -112.7 63.85 -112.7 63.95 -112.7 64.05 -112.7 64.15 -112.7 64.2 -112.7 64.3 -112.7 64.4 -112.7 64.5 -112.75 64.6 -112.75 64.7 -112.75 64.8 -112.7 64.9 -112.7 64.95 -112.7 65.05 -112.7 65.15 -112.7 65.25 -112.7 65.35 -112.65 65.45 -112.6 65.55 -112.6 65.65 -112.5412109375 65.679296875 -112.5 65.7 -112.5 65.762890625 -112.5 65.8 -112.5 66.15 -112.5 66.55 -112.25 66.9 -112 67.3 -111.8724609375 67.4115234375 -111.75 67.5
L -111.75 67.55
Q -111.75 67.65 -111.7 67.75 -111.7 67.85 -111.7 67.95 -111.7 68.05 -111.65 68.15 -111.6 68.2 -111.5 68.3 -111.45 68.4 -111.4 68.5 -111.35 68.6 -111.25 68.7 -111.2 68.8 -111.1 68.9 -111 68.95 -110.95 69.05 -110.85 69.15 -110.75 69.25 -110.65 69.35 -110.5 69.45 -110.35 69.55 -110.2 69.65 -110.1 69.7 -109.95 69.8 -109.85 69.9 -109.7 70 -109.55 70.1 -109.4 70.2 -109.25 70.3 -109.15 70.4 -109 70.45 -108.85 70.55 -108.5 70.65 -108.2 70.7 -108.15 70.7 -108.1 70.75 -107.95 70.8 -107.75 70.9 -107.45 70.95 -107.15 71 -106.45 71 -105.7 71 -105.45 70.95 -105.15 70.9 -104.85 70.8 -104.5 70.75 -104.45 70.7 -104.35 70.7 -104.2 70.65 -104.1 70.55 -104.044140625 70.547265625 -104 70.55 -103.25 70.3 -102.5 70.05 -102.1 69.65 -101.75 69.3 -101.35 68.9 -101 68.55 -100.6 68.15 -100.25 67.8 -100.1 67.4 -100 67.05 -99.85 66.65 -99.75 66.3 -99.75 65.9 -99.75 65.55 -99.746875 65.446875 -99.7 65.4 -99.7 65.3 -99.7 65.2 -99.7 65.1 -99.7 65 -99.7 64.9 -99.65 64.8 -99.65 64.7 -99.65 64.65 -99.65 64.55 -99.65 64.45 -99.65 64.35 -99.65 64.25 -99.65 64.15 -99.65 64.05 -99.65 63.95 -99.65 63.9 -99.65 63.836328125 -99.65 63.75 -99.564453125 63.52578125 -99.5 63.3 -99.5 62.9 -99.5 62.55 -99.6 62.15 -99.75 61.8 -99.85 61.4 -100 61.05 -100.1171875 60.916015625 -100.25 60.8 -100.25 60.74375 -100.25 60.7 -100.3 60.6 -100.35 60.5 -100.4 60.4 -100.45 60.3 Z"/>
</g>

<g id="Symbol_28_4_Layer1_0_FILL">
<path fill="#000000" stroke="none" d="
M 169.55 125.75
Q 169.55 121.8 166.75 119 164 116.25 160.1 116.25 156.2 116.25 153.4 119 150.65 121.8 150.65 125.75 150.65 129.7 153.4 132.45 156.2 135.25 160.1 135.25 164 135.25 166.75 132.45 169.55 129.7 169.55 125.75 Z"/>
</g>

<g id="Symbol_28_4_Layer0_0_FILL">
<path fill="#000000" stroke="none" d="
M 163.05 119
L 162.3 118.9
Q 162.3 118.85 161.7 118.8 161.15 118.8 160.85 118.85 163.2 121.2 163.7 122.35 161.6 120 160.55 119.9
L 160.05 120 160.15 120.05
Q 160.3 120.3 161.3 121.35 162.2 122.35 162.35 122.75 162.3 123.45 161.8 122.75 160.75 121.4 160.7 121.35 160.4 121.4 160.9 122.55 160.85 122.5 160.5 122.8 160.35390625 122.8974609375 160.25 122.8 160.377734375 123.0333984375 160.6 123.2 161 123.5 161 124 161 125.65 160.55 126.4 160.15 127 159.05 127.5
L 159.45 127.75
Q 160.1 127.5 160.55 127 160.7 127.3 160.35 128 159.9 128.75 159.8 128.85 160.25 129.15 161.75 128.2
L 161.25 128.7
Q 161.1 128.7 161.05 128.75 161 128.9 161 129.55 161 130.55 161.05 130.05
L 161.2 129.9
Q 161.4 129.75 161.85 129.5 162.35 129.15 162.7 128.35
L 162.95 128.55
Q 162.55 128.95 162.3 129.55 162.1 130.1 162.05 130.1 162.15 130.1 162.2 130.2 162.35 130.05 163.8 129.15 163.65 129.65 163.25 130.25 163 130.65 163 131.2 163 132.2 163.5 131.65
L 165.65 129.7 165.5 130.45
Q 165.3 131.15 165.4 131.45 165.65 131.3 166.45 130.1 167 129.3 167.05 130.05 165.95 131.7 165.65 132.1 165.8 132.35 166.1 132.55 168.1 131.15 169.2 128.7 170 126.95 170 125.6 170 122.75 168.3 120.15 165.85 116.4 161 116.4 160.4 116.4 160.35 116.45
L 160.4 116.45 160.5 116.65
Q 163.2 118.05 163.3 118.15
L 161.9 117.75 163.05 119 Z"/>
</g>

<g id="Symbol_28_2_Layer1_0_FILL">
<path fill="#000000" stroke="none" d="
M 178.5 141.8
Q 185.25 135.55 185.25 125.95 185.25 116.35 177.6 109.15 170.05 102.05 160.2 102.05 149.45 102.05 143.1 107.95 136.3 114.25 136.3 125.9 136.3 136.4 144.15 142.35 151.4 147.85 162.7 147.85 172 147.85 178.5 141.8
M 165.35 120.05
Q 167.25 121.95 167.25 124.6 167.25 127.25 165.35 129.15 163.5 131.05 160.85 131.05 158.2 131.05 156.3 129.15 154.45 127.25 154.45 124.6 154.45 121.95 156.3 120.05 158.2 118.15 160.85 118.15 163.5 118.15 165.35 120.05 Z"/>
</g>

<g id="Symbol_28_2_Layer0_0_FILL">
<path fill="#000000" stroke="none" d="
M 146.25 118.2
L 145.75 118.2
Q 145.3 119.8 144.9 121.45 144.55 122.75 143.65 124.95
L 144 116.2
Q 143.4 117.45 143.05 120.5 142.65 123.85 142.4 124.6 142.15 120.2 142 119.15 141.85 119.2 141.65 119.6
L 141.05 121.2 140.75 118.4
Q 140.6 118.45 140.4 118.85
L 140.2 119.3
Q 139.65 121.95 139.2 122.6
L 139.15 121.3
Q 139.35 121.3 139.45 119.25 139.55 117.3 139.45 116.6 138.5 117.1 137.95 120.05 137.7 121.6 137.3 123.8
L 137.1 121.75
Q 137.95 117.65 137.95 117.1 137.95 116.5 137.9 116.5
L 137.85 116.6
Q 137.15 117.45 136.35 120.1 135.55 122.7 135.55 124.05 135.55 129.5 137.95 135.65 141.4 144.55 147.75 144.55 148.75 144.55 148.25 144.45
L 148.3 144.25 143.85 140.8 143.95 140.75
Q 144.3 141.1 145.8 142.05 147.5 143.1 148 143.15
L 148.6 143.05 148.5 143.05
Q 148 142.45 146.75 141.75 146.8 141.55 147.2 141.5 147.4 141.5 147.95 141.5
L 148 141.6 148 141.3
Q 148 140.85 147.6 140.4 147.1 139.8 145.15 138
L 145.45 138.15
Q 145.7 138.3 146.5 138.85 147.35 139.35 147.95 139.35 148.95 139.35 148.35 139.25
L 148.3 139.1
Q 148.15 138.5 147.45 137.55 148.65 138.35 149.25 138.55
L 149.3 138.4
Q 149.2 137.7 148.65 136.6
L 149.4 137.2
Q 150.7 138.05 151.3 137.85 151.15 137.55 149.7 135.3 148.25 133.1 147.35 130.8
L 147.95 132.05
Q 148.7 133.05 149 133.3 149.75 134.05 151.2 134.8 151.2 134.7 150.15 132.65 149.15 130.65 149.05 130.15
L 149.15 129.6 149.25 129.65
Q 149.5 129.95 150.8 131.6 152.2 133.25 153.2 133.7 151.1 130.15 151 129.2
L 151.15 129.35
Q 151.25 129.9 152.1 130.5 152.7 130.9 153.25 131.1
L 153.65 131.05
Q 152.5 128.3 152.55 128.25 152.75 128.3 152.95 128.1 153.15 127.9 153.15 127.7 153.55 128.5 154.15 128.9 154.6 129.2 155.55 129.45 155.4 129.25 156.2 128.85 155.55 127.85 155.1 127.15 154.3 125.8 154.3 124.75 154.3 124.25 154.75 123.05 155.15 121.85 155.15 121.35 155.15 120.75 155.1 120.85
L 155.05 121.05 154.75 121.1
Q 154.6 121.15 154.15 121.75
L 153.7 122.35 153.85 121.4
Q 153.9 121.4 153.7 118.7
L 152.95 119.9
Q 152.95 119.95 151.85 121.55 151.05 122.8 151 123.85
L 150.9 122.6
Q 151.1 121.15 151.3 118.9 150.8 119.35 150.1 120.55 149.4 121.9 149.2 122.2 149.2 121.3 148.55 120.95
L 148.3 121.8
Q 147.8 121.35 147.75 121.35 147.85 119.3 147.75 119.1 146.9 119.45 146.6 122.25 146.5099609375 123.5095703125 146.5 124.85
L 146.25 118.2 Z"/>
</g>

<g id="Symbol_28_0_Layer1_0_FILL">
<path fill="#000000" stroke="none" d="
M 182.2 123.65
Q 182.2 110.9 170.65 105.9 166.1 103.95 161 103.9 156.2 103.85 153.05 105.45 146.5 108.8 143.65 112.2 139.35 117.4 139.35 125.95 139.35 134.65 144.3 140 150.15 146.35 161.8 146.35 170.1 146.35 175.45 141.7 182.2 135.8 182.2 123.65
M 174.25 124.85
Q 174.3 129.7 170.7 133 166.55 136.7 159.1 136.7 153 136.7 150.1 133.2 147.7 130.3 147.7 125.4 147.7 120.7 150.95 117.1 154.7 112.95 160.95 112.95 166.9 112.95 170.7 116.65 174.15 120.05 174.25 124.85 Z"/>
</g>

<g id="Symbol_31_2_Layer0_0_FILL">
<path fill="#000000" stroke="none" d="
M 167.05 145.1
Q 175.05 144.15 175.05 144.2
L 182.35 143.3
Q 185.8 142.3 186.9 142.25 188.6 142.1 190.5 141.7 190.45 141.55 189.7 141.5
L 188.95 141.45 189.6 141.25
Q 189.6 141.2 187.05 141.5 184.5 141.75 184.5 141.15 184.5 140.98984375 184.5 140.85 179.74921875 141.0423828125 172.6 142.1 162.6 143.75 157.45 144.5 158.3 144.75 158.3 144.8 158.25 144.8 158.05 145 158.05 145.6 158.1 145.5 158.2 145.35 158.25 145.35 166.7 144.9 167.05 145.1 Z"/>
</g>

<g id="Symbol_31_0_Layer0_0_FILL">
<path fill="#000000" stroke="none" d="
M 1.8 164.25
Q 33.7 160.2 38.4 159.5 45.35 158.5 62.25 155.45 58.7 155.4 51.4 155.65 44.7 155.95 44.2 155.95 43.7 155.95 38.2 156.35 32.65 156.7 32.15 156.7
L 20.8 157.45
Q 10.15 158.2 9.15 158.2 -44.05 163.65 -56.4 166.1 -58.15 166.45 -67.3 168.1 -75.9 169.7 -77.6 170.15 -77.55 170.4 -77 170.55 -76.5 170.7 -76.55 170.75
L -76.35 170.9
Q -75.7 170.65 -72 170.5 -67.1 170.35 -64.4 170.25 -61.25 170.05 -54.65 169.65 -48.05 169.25 -47.3 169.25 -46.9 169.25 -40.5 168.6 -34.3 168 -33.9 168.05
L -32.5 168.1
Q -28.25 168.1 -21.75 167.45 -16 166.75 -15.6 166.75
L -15.6 166.85
Q 1.6 164.9 1.8 164.25
M -58.75 168.65
L -59.1 168.8
Q -59.7 168.95 -60.9 169.05
L -61.85 169 -58.75 168.65 Z"/>
</g>
</defs>

<g transform="matrix( 0.414031982421875, 0, 0, 0.414031982421875, 82.35,112.2) ">
<g transform="matrix( 1, 0, 0, 1, -3.05,12.95) ">
<g transform="matrix( 1, 0, 0, 1, 0,0) ">
<use xlink:href="#Symbol_30_1_Layer0_0_FILL"/>
</g>
</g>

<g transform="matrix( 1, 0, 0, 1, -0.95,0) ">
<g transform="matrix( 1, 0, 0, 1, 0,0) ">
<use xlink:href="#Symbol_32_1_Layer0_0_FILL"/>
</g>
</g>

<g transform="matrix( 1.4168701171875, 0, 0, 1.4168701171875, 310.45,34.7) ">
<g transform="matrix( 1, 0, 0, 1, 0,0) ">
<use xlink:href="#Symbol_24_4_Layer0_0_FILL"/>
</g>
</g>

<g transform="matrix( 1, 0, 0, 1, -0.25,0.15) ">
<g transform="matrix( 1, 0, 0, 1, 0,0) ">
<use xlink:href="#Symbol_28_4_Layer1_0_FILL"/>
</g>

<g transform="matrix( 1, 0, 0, 1, 0,0) ">
<use xlink:href="#Symbol_28_4_Layer0_0_FILL"/>
</g>
</g>

<g transform="matrix( 0.6586761474609375, 0, 0, 0.6586761474609375, -222.6,10.9) ">
<g transform="matrix( 1, 0, 0, 1, 0,0) ">
<use xlink:href="#Symbol_28_2_Layer1_0_FILL"/>
</g>

<g transform="matrix( 1, 0, 0, 1, 0,0) ">
<use xlink:href="#Symbol_28_2_Layer0_0_FILL"/>
</g>
</g>

<g transform="matrix( 0.488861083984375, 0, 0, 0.488861083984375, 30.8,-104.7) ">
<g transform="matrix( 1, 0, 0, 1, 0,0) ">
<use xlink:href="#Symbol_28_0_Layer1_0_FILL"/>
</g>
</g>

<g transform="matrix( 0.9941253662109375, -0.10821533203125, 0.10821533203125, 0.9941253662109375, -10.25,17.4) "/>

<g transform="matrix( -0.96832275390625, -0.2494354248046875, 0.2494354248046875, -0.96832275390625, 94.05,272.55) ">
<g transform="matrix( 1, 0, 0, 1, 0,0) ">
<use xlink:href="#Symbol_31_2_Layer0_0_FILL"/>
</g>
</g>

<g transform="matrix( 0.981719970703125, -0.189697265625, 0.189697265625, 0.981719970703125, -43.05,-103.7) ">
<g transform="matrix( 1, 0, 0, 1, 0,0) ">
<use xlink:href="#Symbol_31_0_Layer0_0_FILL"/>
</g>
</g>
</g>
</svg>
