
<svg xmlns="http://www.w3.org/2000/svg" version="1.1" xmlns:xlink="http://www.w3.org/1999/xlink" preserveAspectRatio="none" x="0px" y="0px" width="200px" height="200px" viewBox="0 0 200 200">
<defs>
<g id="Symbol_29_3_Layer0_0_FILL">
<path fill="#993399" stroke="none" d="
M 12.55 -9.7
Q 4.05 -10.85 -10.45 -6.3 -26.75 -1.2 -33.6 6.85 -40.9 15.35 -43.85 27.15 -45.4 33.5 -45.4 38.8 -45.4 42.6 -43 49 -41.7 52.3 -39.9 56.9 -37.65 64.95 -27.2 71.25 -18.65 76.4 -13.8 76.4 -4.75 75.55 -3.75 75.55 -3.25 75.55 0.3 81.2 4.3 86.7 7 86.15 13.05 83.3 14.4 82.25 16.15 80.95 16.15 78.95 16.15 78.35 15.95 77.7 15.7 77.15 15.65 77 19.6 80.95 19.65 81 21.9 82.8 24.65 82.8 27.05 82.8 29.6 80.4 32.6 77.6 32.6 73.75
L 32.55 71.6 32.8 72.45
Q 34.85 75.1 36.45 76.25 38.3 77.55 40.45 77.55 43 77.55 45.4 76.3 49.5 74.2 49.5 69.35 49.5 67.1 48.7 62.95 47.9 58.8 47.9 58.15 47.9 57.9 50.5 54.7 53.3 51.15 54.05 46.85 54.55 44.2 54.85 39.1 55.05 35.4 55.05 33.7 55.05 28.5 52.3 21.1 49.3 12.85 44.25 6.05 31 -11.8 12.55 -9.7
M 3.9 33
Q 6.75 37.15 6.75 45.8 6.75 48.15 5.15 50.3 3.5 52.55 1.65 52.55 -6.45 52.55 -11.35 48.85 -15.65 45.6 -16.3 40.7 -16.9 36 -13.9 32.55 -10.7 28.85 -5 28.85 1 28.85 3.9 33
M 31.25 45.55
Q 27.85 45.55 22.15 41.8 15.25 37.25 15.25 31.8 15.25 26.3 16.5 24.3 18.85 20.5 26.7 20.5 32.05 20.5 35 25.4 37.75 30 37.75 37.65 37.75 42.35 35.75 44.2 34.3 45.55 31.25 45.55 Z"/>
</g>

<g id="Symbol_29_2_Layer0_0_FILL">
<path fill="#993399" stroke="none" d="
M 12.55 -9.7
Q 4.05 -10.85 -10.45 -6.3 -26.75 -1.2 -33.6 6.85 -40.9 15.35 -43.85 27.15 -45.4 33.5 -45.4 38.8 -45.4 42.6 -43 49 -41.7 52.3 -39.9 56.9 -37.65 64.95 -27.2 71.25 -18.65 76.4 -13.8 76.4 -4.75 75.55 -3.75 75.55 -3.25 75.55 0.3 81.2 4.3 86.7 7 86.15 13.05 83.3 14.4 82.25 16.15 80.95 16.15 78.95 16.15 78.35 15.95 77.7 15.7 77.15 15.65 77 19.6 80.95 19.65 81 21.9 82.8 24.65 82.8 27.05 82.8 29.6 80.4 32.6 77.6 32.6 73.75
L 32.55 71.6 32.8 72.45
Q 34.85 75.1 36.45 76.25 38.3 77.55 40.45 77.55 43 77.55 45.4 76.3 49.5 74.2 49.5 69.35 49.5 67.1 48.7 62.95 47.9 58.8 47.9 58.15 47.9 57.9 50.5 54.7 53.3 51.15 54.05 46.85 54.55 44.2 54.85 39.1 55.05 35.4 55.05 33.7 55.05 28.5 52.3 21.1 49.3 12.85 44.25 6.05 31 -11.8 12.55 -9.7
M 3.9 33
Q 6.75 37.15 6.75 45.8 6.75 48.15 5.15 50.3 3.5 52.55 1.65 52.55 -6.45 52.55 -11.35 48.85 -15.65 45.6 -16.3 40.7 -16.9 36 -13.9 32.55 -10.7 28.85 -5 28.85 1 28.85 3.9 33
M 31.25 45.55
Q 27.85 45.55 22.15 41.8 15.25 37.25 15.25 31.8 15.25 26.3 16.5 24.3 18.85 20.5 26.7 20.5 32.05 20.5 35 25.4 37.75 30 37.75 37.65 37.75 42.35 35.75 44.2 34.3 45.55 31.25 45.55 Z"/>
</g>

<g id="Symbol_30_5_Layer0_0_FILL">
<path fill="#A2358C" stroke="none" d="
M 175.3 14.6
Q 169.7 12.8 167.8 12.8 161.8 12.8 155.95 19.05 149.5 25.95 150.15 34.35
L 154.05 40.8
Q 156.9 41.8 159.2 41.8 161.55 41.8 163.65 41.25 165.9 40.65 168.3 40.55 170.6 40.55 171.55 41.15 172.05 41.45 172.05 41.75 172 41.9 171.35 43.45 170.7 44.9 170.7 45.2 170.7 45.7 171.1 46.4 171.45 47.1 171.45 47.6 171.45 48.1 171.05 48.9 170.65 49.7 170.65 50.2 170.65 53.65 173.5 54.9 174.95 55.55 176.35 55.45 176.95 55.45 179.6 54.45 183.05 53.2 184.9 51.65 185.9 50.85 189.4 48.9 192.4 46.8 192.4 44.2 192.4 40.4 191 35.55 188.5 26.7 182.25 18.3 181.65 16.65 175.3 14.6 Z"/>
</g>

<g id="Symbol_32_5_Layer0_0_FILL">
<path fill="#993399" stroke="none" d="
M 109.2 77.75
L 108.95 75 108.2 74.05 109.2 77.75 Z"/>

<path fill="#A2358C" stroke="none" d="
M 107.85 14.4
Q 104.65 14.4 88.35 18.85 86.45 19.4 83.85 20.45 81.8 21.3 81.35 21.3 80.45 21.3 77.55 18.7 74 15.5 72.1 14.4 67.25 11.85 61.55 9.3 50.25 4.2 44.65 3.4
L 44.65 3.45
Q 39.2 2.5 38.2 2.5 27.05 2.5 13.9 15.65 7.3 22.25 2.9 28.95 2.9 29.5 3.8 31.25 6.05 35.5 8.25 40.1 8.95 41.55 12.9 49.75 16.0619140625 56.4744140625 16.3 57.2 17.4025390625 59.2568359375 19.75 67.7 22.6 77.95 22.95 80.65 12.4 64.4 -0.5 53.9 -11.75 44.7 -18.05 44.7 -20.15 44.7 -25.35 47.25 -28 48.55 -31.05 50.1 -47.3 56.45 -55.8 71.45 -62.75 83.7 -62.75 97.45 -62.75 102.3 -59.25 109.35 -55.45 117.05 -49.1 123.7 -32.85 140.85 -11 140.85 -2.65 140.85 10.8 134.75 26.6 127.55 30.85 118.5 35.75 120.85 46.65 126.3 55.5 130.6 57.2 130.8
L 57.25 129.85
Q 61.85 130.8 62.9 130.8 65.85 130.8 77.3 127.35 88.3 124 91.9 122.25 100.2 118.2 101.55 117.45 105.25 115.4 106.8 113.4 109.4 110.1 109.4 97.8 109.4 81.8 105.6 72.1 104.2 68.6 101.45 63.8 98.1474609375 57.9630859375 97 55.9 101.55 63.05 102.85 64.5 101.05 61.45 97.55 54.9 92.65 45.8 90.25 41.45 96.25 44.5 106.75 67.1 117.5 90.2 115.5 98 115.75 97.95 116.8 97.3 118.05 96.7 119.6 96.7 120.6 96.7 134.35 97.95 140.25 97.95 144.8 87.35 148.9 77.9 148.9 68.85 148.9 49.2 140.55 34.2 129.5 14.4 107.85 14.4 Z"/>
</g>

<g id="Symbol_28_6_Layer1_0_FILL">
<path fill="#000000" stroke="none" d="
M 163.5 124.95
Q 163.5 123.75 162.6 122.9 161.75 122.05 160.55 122.05 159.35 122.05 158.45 122.9 157.6 123.75 157.6 124.95 157.6 126.15 158.45 127 159.35 127.85 160.55 127.85 161.75 127.85 162.6 127 163.5 126.15 163.5 124.95 Z"/>
</g>

<g id="Symbol_28_4_Layer1_0_FILL">
<path fill="#000000" stroke="none" d="
M 169.55 125.75
Q 169.55 121.8 166.75 119 164 116.25 160.1 116.25 156.2 116.25 153.4 119 150.65 121.8 150.65 125.75 150.65 129.7 153.4 132.45 156.2 135.25 160.1 135.25 164 135.25 166.75 132.45 169.55 129.7 169.55 125.75 Z"/>
</g>

<g id="Symbol_28_4_Layer0_0_FILL">
<path fill="#000000" stroke="none" d="
M 163.05 119
L 162.3 118.9
Q 162.3 118.85 161.7 118.8 161.15 118.8 160.85 118.85 163.2 121.2 163.7 122.35 161.6 120 160.55 119.9
L 160.05 120 160.15 120.05
Q 160.3 120.3 161.3 121.35 162.2 122.35 162.35 122.75 162.3 123.45 161.8 122.75 160.75 121.4 160.7 121.35 160.4 121.4 160.9 122.55 160.85 122.5 160.5 122.8 160.35390625 122.8974609375 160.25 122.8 160.377734375 123.0333984375 160.6 123.2 161 123.5 161 124 161 125.65 160.55 126.4 160.15 127 159.05 127.5
L 159.45 127.75
Q 160.1 127.5 160.55 127 160.7 127.3 160.35 128 159.9 128.75 159.8 128.85 160.25 129.15 161.75 128.2
L 161.25 128.7
Q 161.1 128.7 161.05 128.75 161 128.9 161 129.55 161 130.55 161.05 130.05
L 161.2 129.9
Q 161.4 129.75 161.85 129.5 162.35 129.15 162.7 128.35
L 162.95 128.55
Q 162.55 128.95 162.3 129.55 162.1 130.1 162.05 130.1 162.15 130.1 162.2 130.2 162.35 130.05 163.8 129.15 163.65 129.65 163.25 130.25 163 130.65 163 131.2 163 132.2 163.5 131.65
L 165.65 129.7 165.5 130.45
Q 165.3 131.15 165.4 131.45 165.65 131.3 166.45 130.1 167 129.3 167.05 130.05 165.95 131.7 165.65 132.1 165.8 132.35 166.1 132.55 168.1 131.15 169.2 128.7 170 126.95 170 125.6 170 122.75 168.3 120.15 165.85 116.4 161 116.4 160.4 116.4 160.35 116.45
L 160.4 116.45 160.5 116.65
Q 163.2 118.05 163.3 118.15
L 161.9 117.75 163.05 119 Z"/>
</g>
</defs>

<g transform="matrix( 0.414031982421875, 0, 0, 0.414031982421875, 82.35,112.2) ">
<g transform="matrix( 1, 0, 0, 1, 0,0.2) ">
<g transform="matrix( 1, 0, 0, 1, 0,0) ">
<use xlink:href="#Symbol_29_3_Layer0_0_FILL"/>
</g>
</g>

<g transform="matrix( 0.394073486328125, 0.004852294921875, -0.004852294921875, 0.394073486328125, 68.55,32.25) ">
<g transform="matrix( 1, 0, 0, 1, 0,0) ">
<use xlink:href="#Symbol_29_2_Layer0_0_FILL"/>
</g>
</g>

<g transform="matrix( 1, 0, 0, 1, -3.05,12.95) ">
<g transform="matrix( 1, 0, 0, 1, 0,0) ">
<use xlink:href="#Symbol_30_5_Layer0_0_FILL"/>
</g>
</g>

<g transform="matrix( 1, 0, 0, 1, -0.95,0) ">
<g transform="matrix( 1, 0, 0, 1, 0,0) ">
<use xlink:href="#Symbol_32_5_Layer0_0_FILL"/>
</g>
</g>

<g transform="matrix( 1, 0, 0, 1, -0.25,0.15) "/>

<g transform="matrix( 0.6586761474609375, 0, 0, 0.6586761474609375, -222.6,10.9) ">
<g transform="matrix( 1, 0, 0, 1, 0,0) ">
<use xlink:href="#Symbol_28_6_Layer1_0_FILL"/>
</g>
</g>

<g transform="matrix( 0.488861083984375, 0, 0, 0.488861083984375, 30.8,-104.7) ">
<g transform="matrix( 1, 0, 0, 1, 0,0) ">
<use xlink:href="#Symbol_28_4_Layer1_0_FILL"/>
</g>

<g transform="matrix( 1, 0, 0, 1, 0,0) ">
<use xlink:href="#Symbol_28_4_Layer0_0_FILL"/>
</g>
</g>

<g transform="matrix( 0.9941253662109375, -0.10821533203125, 0.10821533203125, 0.9941253662109375, -10.25,17.4) "/>

<g transform="matrix( -0.96832275390625, -0.2494354248046875, 0.2494354248046875, -0.96832275390625, 94.05,272.55) "/>

<g transform="matrix( 0.981719970703125, -0.189697265625, 0.189697265625, 0.981719970703125, -43.05,-103.7) "/>
</g>
</svg>
