
<svg xmlns="http://www.w3.org/2000/svg" version="1.1" xmlns:xlink="http://www.w3.org/1999/xlink" preserveAspectRatio="none" x="0px" y="0px" width="200px" height="200px" viewBox="0 0 200 200">
<defs>
<g id="Symbol_29_9_Layer0_0_FILL">
<path fill="#993399" stroke="none" d="
M -46.95 -22.2
Q -46.95 -23.45 -47.6 -24.35 -48.2 -25.2 -49.1 -25.2 -50 -25.2 -50.65 -24.35 -51.25 -23.45 -51.25 -22.2 -51.25 -20.95 -50.65 -20.1 -50 -19.2 -49.1 -19.2 -48.2 -19.2 -47.6 -20.1 -46.95 -20.95 -46.95 -22.2
M 15.1 -29.65
Q 11.5 -29.65 11.5 -25.2 11.5 -22.55 12.2 -21.55 13.5 -19.7 17.85 -19.7 18.85 -19.7 20.1 -19.95 21.3 -23.3 20.3 -26.2 19.1 -29.65 15.1 -29.65
M 25.5 -118.2
Q 24.75 -118.2 20.45 -116.6 14 -114.2 13.75 -114.1 11.45 -114.05 8.65 -112.75 3.15 -110.2 -2.05 -102.95 -8.25 -94.3 -11.15 -84.7 -13.05 -78.4 -13.05 -74.1 -13.05 -69.35 -11.75 -66.1 -11.1 -64.5 -8.5 -60.4
L -7.1 -58.2
Q -6.85 -57.95 -4.3 -56.45 -3.5 -56 1.75 -54.05 6.65 -52.2 6.95 -51.9 8.35 -50.45 9.25 -46.65 10.15 -42 10.8 -39.7 13.3 -31 21.35 -30.65 21.65 -31.55 21.85 -31.85 22.3 -29.6 24.25 -29.2 24.85 -29.1 28.55 -29.2
L 28.45 -28.95
Q 25.75 -20.5 25.75 -20.35 26.2 -19.3 27 -18.35 28.6 -16.45 30.45 -16.45 33.55 -16.45 34.65 -18.6 38.25 -25.7 38.8 -26.55
L 38.55 -25.7
Q 38.7 -25.45 40.05 -19.55 40.75 -16.45 44.05 -16.45 45 -16.45 46 -17.1 48 -18.5 50.85 -19.9 53.8 -21.3 56.15 -23.6 58.1 -25.4 58.65 -26.7 58.9 -27.2 58.95 -30 58.95 -31.6 61.95 -33.9 62.2 -34.05 67.85 -36.65 73.65 -39.35 74.9 -40.4 80 -44.75 83.6 -56.15 86.7 -65.95 86.7 -73.1 86.7 -76.55 84.45 -84.2 82.65 -90.05 80.95 -94.25 78.1 -101.2 62.5 -107.75 54.4 -110.9 45.8 -115.35 38.6 -118.2 25.5 -118.2
M 44.25 -56.6
Q 44.25 -65.8 47.9 -70.5 51 -74.45 55.9 -74.35 60.35 -74.3 63.9 -71.2 67.55 -68.05 67.55 -64 67.55 -59.6 62.5 -53.85 57.55 -48.2 54 -48.2 48.55 -48.2 46.35 -50.15 44.25 -52.05 44.25 -56.6
M 31.45 -84.05
Q 37.4 -81.2 37.4 -74.7 37.4 -72 33.55 -65.7 28.45 -57.45 22 -57.45 12.5 -57.45 12.5 -65.45 12.5 -71.25 15.4 -77.5 18.1 -83.35 20.55 -84.25 25.95 -86.7 31.45 -84.05
M 3.85 -72.1
Q 6 -70.6 6 -65.75
L 5.95 -64.4
Q 6 -63.95 5 -63.95 2.1 -63.95 1.25 -66.8 0.85 -68.25 1 -69.85
L 1.1 -72.7
Q 2.75 -72.9 3.85 -72.1
M 67.95 -45.1
Q 67.75 -44.95 67.6 -45
L 67.5 -45.05
Q 68.05 -45.35 67.95 -45.1
M 15.5 -64.45
L 16 -63.7
Q 15.973828125 -63.7478515625 15.95 -63.8 15.7 -64.35 15.5 -64.5
L 15.5 -64.45 Z"/>
</g>

<g id="Symbol_29_8_Layer0_0_FILL">
<path fill="#993399" stroke="none" d="
M -46.95 -22.2
Q -46.95 -23.45 -47.6 -24.35 -48.2 -25.2 -49.1 -25.2 -50 -25.2 -50.65 -24.35 -51.25 -23.45 -51.25 -22.2 -51.25 -20.95 -50.65 -20.1 -50 -19.2 -49.1 -19.2 -48.2 -19.2 -47.6 -20.1 -46.95 -20.95 -46.95 -22.2
M 15.1 -29.65
Q 11.5 -29.65 11.5 -25.2 11.5 -22.55 12.2 -21.55 13.5 -19.7 17.85 -19.7 18.85 -19.7 20.1 -19.95 21.3 -23.3 20.3 -26.2 19.1 -29.65 15.1 -29.65
M 25.5 -118.2
Q 24.75 -118.2 20.45 -116.6 14 -114.2 13.75 -114.1 11.45 -114.05 8.65 -112.75 3.15 -110.2 -2.05 -102.95 -8.25 -94.3 -11.15 -84.7 -13.05 -78.4 -13.05 -74.1 -13.05 -69.35 -11.75 -66.1 -11.1 -64.5 -8.5 -60.4
L -7.1 -58.2
Q -6.85 -57.95 -4.3 -56.45 -3.5 -56 1.75 -54.05 6.65 -52.2 6.95 -51.9 8.35 -50.45 9.25 -46.65 10.15 -42 10.8 -39.7 13.3 -31 21.35 -30.65 21.65 -31.55 21.85 -31.85 22.3 -29.6 24.25 -29.2 24.85 -29.1 28.55 -29.2
L 28.45 -28.95
Q 25.75 -20.5 25.75 -20.35 26.2 -19.3 27 -18.35 28.6 -16.45 30.45 -16.45 33.55 -16.45 34.65 -18.6 38.25 -25.7 38.8 -26.55
L 38.55 -25.7
Q 38.7 -25.45 40.05 -19.55 40.75 -16.45 44.05 -16.45 45 -16.45 46 -17.1 48 -18.5 50.85 -19.9 53.8 -21.3 56.15 -23.6 58.1 -25.4 58.65 -26.7 58.9 -27.2 58.95 -30 58.95 -31.6 61.95 -33.9 62.2 -34.05 67.85 -36.65 73.65 -39.35 74.9 -40.4 80 -44.75 83.6 -56.15 86.7 -65.95 86.7 -73.1 86.7 -76.55 84.45 -84.2 82.65 -90.05 80.95 -94.25 78.1 -101.2 62.5 -107.75 54.4 -110.9 45.8 -115.35 38.6 -118.2 25.5 -118.2
M 44.25 -56.6
Q 44.25 -65.8 47.9 -70.5 51 -74.45 55.9 -74.35 60.35 -74.3 63.9 -71.2 67.55 -68.05 67.55 -64 67.55 -59.6 62.5 -53.85 57.55 -48.2 54 -48.2 48.55 -48.2 46.35 -50.15 44.25 -52.05 44.25 -56.6
M 31.45 -84.05
Q 37.4 -81.2 37.4 -74.7 37.4 -72 33.55 -65.7 28.45 -57.45 22 -57.45 12.5 -57.45 12.5 -65.45 12.5 -71.25 15.4 -77.5 18.1 -83.35 20.55 -84.25 25.95 -86.7 31.45 -84.05
M 3.85 -72.1
Q 6 -70.6 6 -65.75
L 5.95 -64.4
Q 6 -63.95 5 -63.95 2.1 -63.95 1.25 -66.8 0.85 -68.25 1 -69.85
L 1.1 -72.7
Q 2.75 -72.9 3.85 -72.1
M 67.95 -45.1
Q 67.75 -44.95 67.6 -45
L 67.5 -45.05
Q 68.05 -45.35 67.95 -45.1
M 15.5 -64.45
L 16 -63.7
Q 15.973828125 -63.7478515625 15.95 -63.8 15.7 -64.35 15.5 -64.5
L 15.5 -64.45 Z"/>
</g>

<g id="Symbol_29_5_Layer0_0_FILL">
<path fill="#993399" stroke="none" d="
M -21 31.6
Q -24 30.2 -25 30.05
L -25.25 32.8
Q -25.25 34.8 -23.45 36.45 -21.5 38.3 -18.5 38.3 -17.45 38.3 -16.8 37.5 -16.15 36.6 -15.75 34.55 -17.7 33.15 -21 31.6
M 20.3 -57.25
Q 11.75 -58.5 8.05 -58.85 0.7 -59.6 -8.25 -59.6 -23.15 -59.6 -36.15 -48.55 -51.4 -35.55 -51.4 -15.15 -51.4 1.45 -39.65 13.15 -34.8 18 -29.45 20.2 -24.1 22.4 -20.25 21.2 -20.3 26.85 -14.05 29.15 -10.5 30.2 -8.8 30.7 -5.8 31.65 -4.45 32.85 -4.25 32.5 -3.25 30.45 -2.25 28.35 -1.95 27.6 -0.4 32 1.65 34 3.6 35.85 6.4 35.85 11.85 35.85 15.75 26.75
L 15.8 27.7
Q 16.95 29 18.4 32.35 20.15 35.05 24.15 35.05 28.3 35.05 30.65 32.4 33.9 28.7 34.6 19.3
L 34.35 17.8
Q 48.3 7.65 48.3 -13.05 48.3 -29.1 39.8 -42.4 31.4 -55.65 20.3 -57.25
M 10.5 -7.4
Q 7.75 -16.05 11.2 -21.05 14 -25.2 19.25 -25.2 23.6 -25.2 27.2 -22.25 31.5 -18.75 31.5 -13.05 31.5 -12.7 30.8 -11.85 30.1 -11 30.1 -10.6 30.1 -10.1 30.55 -7.55 31 -5.05 31 -4.55 31 0.45 29.75 2.55 28.45 4.8 25.15 4.8 17.1 4.8 13.9 1 12.3 -0.9 10.5 -7.4
M -22.5 -11.05
Q -24.2 -16.1 -21.85 -20.1 -19.2 -24.75 -12.35 -24.75 -4.5 -24.75 -1.7 -18.35 0 -14.45 0 -6.5 0 -2.15 -1.5 0.9 -3.55 5.05 -8 5.05 -15.75 5.05 -19.45 0.05 -22.55 -4.1 -22.5 -11.05 Z"/>
</g>

<g id="Symbol_30_11_Layer0_0_FILL">
<path fill="#A2358C" stroke="none" d="
M 176.85 -161.45
Q 174.9 -162.4 174.7 -162.4 173.95 -162.4 169.85 -160.4 165.6 -158.3 165.6 -157.5 165.6 -152.6 165.35 -150.8 165.05 -149.45 164.9 -148.75 166.6 -149.35 170.6 -151.7 173.2 -153.25 175.9 -153.25 176.9 -153.25 177.45 -152.25 177.85 -151.55 177.85 -150.8 177.85 -148.4 170.1 -134.15 170.2 -134.15 170.15 -134.1 174.3 -135.3 174.7 -135.45 177.6 -136.65 178.5 -138.45 178.8 -139 181.05 -143.05 183.15 -147.1 183.15 -148.2 183.15 -148.7 183.45 -150.45 183.7 -152.25 183.7 -152.75 183.7 -153.3 181.8 -156.65 179.9 -160 179.9 -160.1 179.8 -160.25 179.65 -160.2 179.45 -160.15 179.4 -160.2 177.9 -160.95 176.85 -161.45
M 157 -185.1
Q 156.1 -180.95 155 -178.05
L 155.4 -178.1
Q 156.95 -178.5 160.9 -178.65 163.45 -178.8 165.3 -178.8 166.3 -178.8 168.45 -177.95 170.6 -177.1 172 -177.1 172.5 -177.1 173 -176.7 173.45 -176.3 173.95 -176.3 175.1 -176.3 175.1 -173.8 175.1 -172.55 174.6 -170.8 174.05 -169.2 174 -168.95
L 175.2 -168.95
Q 177.1 -169.45 179.55 -171.7 182.55 -174.35 182.4 -176.75
L 175.6 -187.4
Q 173.65 -188.2 172.45 -188.5 170.6 -189 168.7 -189 168.25 -189 162.1 -187.8 158.1 -187.8 157 -185.1 Z"/>
</g>

<g id="Symbol_32_11_Layer0_0_FILL">
<path fill="#993399" stroke="none" d="
M 86.1 75.6
Q 91 75.6 93.55 70.05 95.3 66.25 95.3 62.55 95.3 60.5 93.25 54.95 90.65 47.75 86.6 41.65 74.55 23.35 55.95 23.35 55.15 23.35 52.7 23.75 50.15 24.1 48.2 24.55 48.25 23.9 45.7 20.6 42.85 16.85 39.3 13.35 29.15 3.2 22.1 3.2 20.4 3.2 15 4.7 7.65 6.75 -2.8 10.7
L -3.2 10.65 -3.85 13.8 -3.5 13.8
Q -3.3 13.8 3.1 12.8 8.1 12 12.95 12 14.95 12 17.35 22.45 19.7 32.7 19.7 40.55 19.7 48.15 11.2 52.7 9.1 53.8 5.35 55.65 2.7 57.2 2.7 58.85 2.7 59.85 3.7 63.7 4.7 68.8 4.7 69.9 4.7 76.9 -3.2 82.9 -3.75 83.3 -8.65 86.6 -11.15 88.3 -11.15 89.05 -11.15 90.05 -10.85 94.1 -11 95.55 -11.75 96.15 -12.2 96.5 -13.05 96.85 -14.1 97.55 -15.5 99.2 -17.6 100.45 -23.7 100.45 -48.5 100.45 -55.9 86.9 -58.25 82.65 -60.1 74.35 -62.15 65.05 -63.55 61.8 -68.2 62.65 -70.2 63.55 -74.85 65.6 -76.55 70.25 -78.7 76.1 -80 81.5 -81 85.65 -81 86.95 -81 107 -65.5 116.3 -54.75 122.8 -40.3 122.8 -36.05 122.8 -32.45 121.05 -30.85 120.3 -19.55 113.6 -17.2 111.9 -15.15 109.45 -11 104.6 -11.65 100.6 -11.9 98.9 -11.05 97.15 -10.1 95.6 -10.05 95.4
L -9.45 96.15
Q -9.4 97.2 -8.15 98.9 -7.1 100.35 -6.55 100.6 0.05 103.95 3.3 105.2 5 105.85 6.4 106.25 8.15 106.65 12.05 107.5 15.25 108.1 15.9 107.7 17 107 19.5 101.75 21.75 96.6 21.85 96.45 26.1 89.45 31.85 87.9 34.35 87.25 41.15 87.8 46.15 88.2 48 85.85 50.7 82.5 50.7 71.8 49.7 58.6 49.7 57.6 49.7 53.15 51.4 50.65 54.8 45.75 64.45 45.75 68.9 45.75 74.95 55.55 78.55 61.3 86.1 75.6 Z"/>
</g>
</defs>

<g transform="matrix( 0.414031982421875, 0, 0, 0.414031982421875, 82.35,112.2) ">
<g transform="matrix( 1, 0, 0, 1, 0,0.2) ">
<g transform="matrix( 1, 0, 0, 1, 0,0) ">
<use xlink:href="#Symbol_29_9_Layer0_0_FILL"/>
</g>
</g>

<g transform="matrix( 0.394073486328125, 0.004852294921875, -0.004852294921875, 0.394073486328125, 68.55,32.25) ">
<g transform="matrix( 1, 0, 0, 1, 0,0) ">
<use xlink:href="#Symbol_29_8_Layer0_0_FILL"/>
</g>
</g>

<g transform="matrix( -0.579925537109375, 0.11358642578125, 0.1155242919921875, 0.5898895263671875, -14,23.8) ">
<g transform="matrix( 1, 0, 0, 1, 0,0) ">
<use xlink:href="#Symbol_29_5_Layer0_0_FILL"/>
</g>
</g>

<g transform="matrix( 1, 0, 0, 1, -3.05,12.95) ">
<g transform="matrix( 1, 0, 0, 1, 0,0) ">
<use xlink:href="#Symbol_30_11_Layer0_0_FILL"/>
</g>
</g>

<g transform="matrix( 1, 0, 0, 1, -0.95,0) ">
<g transform="matrix( 1, 0, 0, 1, 0,0) ">
<use xlink:href="#Symbol_32_11_Layer0_0_FILL"/>
</g>
</g>

<g transform="matrix( 1, 0, 0, 1, -0.25,0.15) "/>

<g transform="matrix( 0.6586761474609375, 0, 0, 0.6586761474609375, -222.6,10.9) "/>

<g transform="matrix( 0.488861083984375, 0, 0, 0.488861083984375, 30.8,-104.7) "/>

<g transform="matrix( 0.9941253662109375, -0.10821533203125, 0.10821533203125, 0.9941253662109375, -10.25,17.4) "/>

<g transform="matrix( -0.96832275390625, -0.2494354248046875, 0.2494354248046875, -0.96832275390625, 94.05,272.55) "/>

<g transform="matrix( 0.981719970703125, -0.189697265625, 0.189697265625, 0.981719970703125, -43.05,-103.7) "/>
</g>
</svg>
