
<svg xmlns="http://www.w3.org/2000/svg" version="1.1" xmlns:xlink="http://www.w3.org/1999/xlink" preserveAspectRatio="none" x="0px" y="0px" width="200px" height="200px" viewBox="0 0 200 200">
<defs>
<g id="Symbol_29_23_Layer0_0_FILL">
<path fill="#000000" fill-opacity="0.2" stroke="none" d="
M -55.85 -184.4
Q -55.85 -184.9 -56.35 -185.3 -56.8 -185.65 -57.5 -185.65 -58.2 -185.65 -58.7 -185.3 -59.15 -184.9 -59.15 -184.4 -59.15 -183.9 -58.7 -183.55 -58.2 -183.15 -57.5 -183.15 -56.8 -183.15 -56.35 -183.55 -55.85 -183.9 -55.85 -184.4
M -26.55 -210.6
Q -29.1 -208.3 -29.1 -207 -29.1 -206.3 -28.5 -204.75 -27 -205.9 -25.3 -210.4
L -26.55 -210.6
M 147.05 -147.1
Q 147.05 -147.6 146.55 -147.95 146.1 -148.3 145.4 -148.3 144.7 -148.3 144.2 -147.95 143.75 -147.6 143.75 -147.1 143.75 -146.6 144.2 -146.25 144.7 -145.9 145.4 -145.9 146.1 -145.9 146.55 -146.25 147.05 -146.6 147.05 -147.1
M 82.25 -185.2
L 81 -185.7
Q 80.8 -185.6 78.85 -185.05 77.35 -184.6 78.1 -184.65 78.2 -184.6 78.85 -184.7 79.25 -184.8 79.25 -184.2 79.25 -183.55 78.75 -183.05
L 78.25 -182.7 79.5 -182.45
Q 79.9 -182.75 80.95 -183.8 82.15 -184.95 82.25 -185.2
M 78.75 -211.7
Q 79.2 -214.55 77.6 -215.95 76.5 -216.9 74.75 -216.95 77 -211.65 77.75 -211.2 78.5 -211.7 78.75 -211.7 Z"/>
</g>

<g id="Symbol_29_22_Layer0_0_FILL">
<path fill="#000000" fill-opacity="0.2" stroke="none" d="
M -55.85 -184.4
Q -55.85 -184.9 -56.35 -185.3 -56.8 -185.65 -57.5 -185.65 -58.2 -185.65 -58.7 -185.3 -59.15 -184.9 -59.15 -184.4 -59.15 -183.9 -58.7 -183.55 -58.2 -183.15 -57.5 -183.15 -56.8 -183.15 -56.35 -183.55 -55.85 -183.9 -55.85 -184.4
M -26.55 -210.6
Q -29.1 -208.3 -29.1 -207 -29.1 -206.3 -28.5 -204.75 -27 -205.9 -25.3 -210.4
L -26.55 -210.6
M 147.05 -147.1
Q 147.05 -147.6 146.55 -147.95 146.1 -148.3 145.4 -148.3 144.7 -148.3 144.2 -147.95 143.75 -147.6 143.75 -147.1 143.75 -146.6 144.2 -146.25 144.7 -145.9 145.4 -145.9 146.1 -145.9 146.55 -146.25 147.05 -146.6 147.05 -147.1
M 82.25 -185.2
L 81 -185.7
Q 80.8 -185.6 78.85 -185.05 77.35 -184.6 78.1 -184.65 78.2 -184.6 78.85 -184.7 79.25 -184.8 79.25 -184.2 79.25 -183.55 78.75 -183.05
L 78.25 -182.7 79.5 -182.45
Q 79.9 -182.75 80.95 -183.8 82.15 -184.95 82.25 -185.2
M 78.75 -211.7
Q 79.2 -214.55 77.6 -215.95 76.5 -216.9 74.75 -216.95 77 -211.65 77.75 -211.2 78.5 -211.7 78.75 -211.7 Z"/>
</g>

<g id="Symbol_29_19_Layer0_0_FILL">
<path fill="#000000" fill-opacity="0.6" stroke="none" d="
M -38.25 -163
Q -35.2 -163 -34.2 -167.55 -33.15 -172.1 -37.05 -172.1 -40.3 -172.1 -42.7 -170.25 -44.9 -168.55 -44.9 -166.65 -44.9 -164.5 -43.45 -163.75 -42.05 -163 -38.25 -163
M -21.65 -161.3
Q -20.9 -161.9 -20.9 -162.75 -20.9 -163.6 -21.65 -164.25 -22.4 -164.85 -23.45 -164.85 -24.5 -164.85 -25.25 -164.25 -26 -163.6 -26 -162.75 -26 -161.9 -25.25 -161.3 -24.5 -160.65 -23.45 -160.65 -22.4 -160.65 -21.65 -161.3
M -27.55 -179.5
Q -27.55 -180.3 -28.15 -180.85 -28.7 -181.4 -29.5 -181.4 -30.3 -181.4 -30.9 -180.85 -31.45 -180.3 -31.45 -179.5 -31.45 -178.7 -30.9 -178.15 -30.3 -177.6 -29.5 -177.6 -28.7 -177.6 -28.15 -178.15 -27.55 -178.7 -27.55 -179.5
M 0.6 -193.3
Q 19.45 -212.15 35.8 -216.6 5.7 -209.15 -7.8 -197.65 -17.5 -189.4 -20.1 -177.1
L -19.3 -177.6
Q -10.45 -182.85 -5.65 -187
L 0.6 -193.3
M 60.6 -183.2
Q 62.1 -183.2 63.15 -184.25 64.2 -185.3 64.1 -186.6 63.9 -190 57.55 -190 55 -190 55 -188.45 55 -183.2 60.6 -183.2
M 105.8 -179.65
Q 105.8 -180.15 105.4 -180.5 105.05 -180.85 104.55 -180.85 104.05 -180.85 103.65 -180.5 103.3 -180.15 103.3 -179.65 103.3 -179.15 103.65 -178.8 104.05 -178.45 104.55 -178.45 105.05 -178.45 105.4 -178.8 105.8 -179.15 105.8 -179.65
M 126.5 -168.5
Q 126.5 -169.35 125.85 -170 125.25 -170.6 124.4 -170.6 123.55 -170.6 122.9 -170 122.3 -169.35 122.3 -168.5 122.3 -167.65 122.9 -167.05 123.55 -166.4 124.4 -166.4 125.25 -166.4 125.85 -167.05 126.5 -167.65 126.5 -168.5
M 40.45 -200.4
Q 39.35 -200.4 38.55 -199.6 37.75 -198.8 37.75 -197.65 37.75 -196.5 38.55 -195.7 39.35 -194.9 40.45 -194.9 41.55 -194.9 42.35 -195.7 43.15 -196.5 43.15 -197.65 43.15 -198.8 42.35 -199.6 41.55 -200.4 40.45 -200.4
M 31.75 -209.25
L 31.7 -207.6
Q 31.7 -206.95 31.85 -206.5
L 31.95 -206.25
Q 31.8822265625 -206.31171875 31.5 -206.35 31 -206.35 30.7 -206.25 31 -206.15 32.5 -204.65 33.45 -203.7 37.95 -203.7
L 47.3 -204.5
Q 47.3 -205.95 47.4 -206.45
L 48.3 -206.4
Q 49.2 -205.7 50.65 -205.3 51.85 -204.95 52.7 -204.95 54.4 -204.95 55.05 -205.1 56.75 -205.55 56.75 -207 56.75 -210.35 54.3 -212.65 52.35 -214.45 50.75 -214.45 46.75 -214.45 46.25 -214.25 45.65 -213.7 43.9 -213 37.8 -210.45 35.75 -209.25 35.5 -209.1 34.2 -209.1
L 31.75 -209.25
M 32.5 -206.15
L 32.65 -206.95 33.5 -206.1 32.5 -206.15 Z"/>
</g>
</defs>

<g transform="matrix( 0.414031982421875, 0, 0, 0.414031982421875, 82.35,112.2) ">
<g transform="matrix( 1, 0, 0, 1, 0,0.2) ">
<g transform="matrix( 1, 0, 0, 1, 0,0) ">
<use xlink:href="#Symbol_29_23_Layer0_0_FILL"/>
</g>
</g>

<g transform="matrix( 0.394073486328125, 0.004852294921875, -0.004852294921875, 0.394073486328125, 68.55,32.25) ">
<g transform="matrix( 1, 0, 0, 1, 0,0) ">
<use xlink:href="#Symbol_29_22_Layer0_0_FILL"/>
</g>
</g>

<g transform="matrix( -0.579925537109375, 0.11358642578125, 0.1155242919921875, 0.5898895263671875, -14,23.8) ">
<g transform="matrix( 1, 0, 0, 1, 0,0) ">
<use xlink:href="#Symbol_29_19_Layer0_0_FILL"/>
</g>
</g>

<g transform="matrix( 1, 0, 0, 1, -3.05,12.95) "/>

<g transform="matrix( 1, 0, 0, 1, -0.95,0) "/>

<g transform="matrix( 1, 0, 0, 1, -0.25,0.15) "/>

<g transform="matrix( 0.6586761474609375, 0, 0, 0.6586761474609375, -222.6,10.9) "/>

<g transform="matrix( 0.488861083984375, 0, 0, 0.488861083984375, 30.8,-104.7) "/>

<g transform="matrix( 0.9941253662109375, -0.10821533203125, 0.10821533203125, 0.9941253662109375, -10.25,17.4) "/>

<g transform="matrix( -0.96832275390625, -0.2494354248046875, 0.2494354248046875, -0.96832275390625, 94.05,272.55) "/>

<g transform="matrix( 0.981719970703125, -0.189697265625, 0.189697265625, 0.981719970703125, -43.05,-103.7) "/>
</g>
</svg>
