
<svg xmlns="http://www.w3.org/2000/svg" version="1.1" xmlns:xlink="http://www.w3.org/1999/xlink" preserveAspectRatio="none" x="0px" y="0px" width="200px" height="200px" viewBox="0 0 200 200">
<defs>
<g id="Symbol_29_14_Layer0_0_FILL">
<path fill="#662266" stroke="none" d="
M -5.1 -152.05
Q -5.3 -151.45 -5.15 -151.15
L -5 -150.95
Q -4.75 -151.3 -5.1 -152.05
M 57.4 -137.3
Q 56.4 -138.2 53.6 -138.2 51.45 -138.2 49.25 -136.45 46.75 -134.45 46.75 -131.85 46.75 -130.1 48.55 -128.95 50.25 -127.9 52.5 -128.05 58.25 -128.4 58.25 -134.55 58.25 -136.55 57.4 -137.3
M 32.8 -116.6
Q 32.8 -117.2 32.4 -117.6 32 -118 31.4 -118 30.8 -118 30.4 -117.6 30 -117.2 30 -116.6 30 -116 30.4 -115.6 30.8 -115.2 31.4 -115.2 32 -115.2 32.4 -115.6 32.8 -116 32.8 -116.6
M 2.65 -130.6
Q 9.15 -130.6 14 -132.95 18.45 -135.1 18.45 -137.4 18.45 -139.65 14.25 -142.45 8.05 -146.6 -3.2 -146.6 -5.35 -146.6 -6.7 -144.1 -8.05 -141.65 -7.7 -138.6 -6.85 -130.6 2.65 -130.6
M 23.15 -125.9
Q 22.2 -125.9 21.55 -125.25 20.9 -124.55 20.9 -123.6 20.9 -122.65 21.55 -122 22.2 -121.3 23.15 -121.3 24.1 -121.3 24.75 -122 25.4 -122.65 25.4 -123.6 25.4 -124.55 24.75 -125.25 24.1 -125.9 23.15 -125.9
M 54.5 -183.95
L 54.85 -183.4 55.2 -183.95 54.5 -183.95
M 95.95 -136
Q 94.45 -137.2 91 -137.2 90.8 -137.2 90 -136.2 89.1 -135 88.65 -133.9 87.4 -130.65 91.55 -130.65 93.35 -130.65 97.15 -130.95
L 97.25 -132.9
Q 97.25 -134.95 95.95 -136
M 84.5 -124.65
Q 83.75 -125.2 82.65 -125.2 81.55 -125.2 80.75 -124.65 80 -124.05 80 -123.2 80 -122.35 80.75 -121.8 81.55 -121.2 82.65 -121.2 83.75 -121.2 84.5 -121.8 85.3 -122.35 85.3 -123.2 85.3 -124.05 84.5 -124.65
M 83.7 -152.1
Q 87.25 -155.25 87.25 -160.35 87.25 -164.85 79.35 -173.35 70.65 -182.75 63.25 -182.75 59.25 -182.75 53.85 -175.3 47.9 -167.15 47 -166.8 40.5 -164.2 38.5 -162.9 35.5 -160.95 31.2 -158.9 32 -160.2 40.15 -167.65 48.15 -176.1 49.2 -183.9 43.4 -184.75 34.3 -183.25 25.2 -181.8 16.8 -178.65 9.1 -175.8 2.4 -167.2 -3 -160.25 -3 -157.8 -3 -156 -1.45 -155 -0.4 -154.3 3.05 -153.1 12.4 -149.8 19.25 -144.7 19.55 -149.6 22.2 -151.8 24.85 -153.95 30.5 -153.95 35.4 -153.95 37.9 -152.25 39.55 -151.1 40.75 -148.5 42.05 -145.55 42.8 -144.8 44.45 -143.1 47.95 -143.1 49.1 -143.1 50.95 -144.05 53.15 -145.2 53.35 -146.55 53.5 -147.6 53.35 -150.15 53.2 -152.75 53.25 -153.2 53.5 -154.85 56.7 -158.3 60.3 -162.2 63 -162.2 70.15 -162.2 73.3 -155.8 74.6 -152.65 75.15 -151.45 76 -149.45 77 -149.45 80.7 -149.45 83.7 -152.1
M 26.5 -159.2
Q 26.45 -159 26.4 -158.9 26.25 -158.75 26.3 -159.2
L 26.5 -159.2 Z"/>
</g>

<g id="Symbol_29_13_Layer0_0_FILL">
<path fill="#662266" stroke="none" d="
M 61.1 -101.2
Q 59 -101.2 57.35 -99.3 55.75 -97.45 55.75 -95.2 56 -92.95 56 -92.85
L 59.6 -92.7
Q 63.35 -92.7 63.7 -96.95 64.05 -101.2 61.1 -101.2
M 64.75 -116.85
Q 64.55 -117.1 64.2 -117.95
L 63.4 -116.75 64.75 -116.85
M 37.1 -103
Q 35.85 -103 35.05 -101.95 34.25 -100.85 34.25 -99.1 34.25 -95.65 36.65 -93.6 38.65 -91.95 41 -91.95 41.85 -91.95 42.45 -93.7 43.05 -95.45 42.9 -97.45 42.35 -103 37.1 -103
M 83.25 -101.7
Q 83.25 -103 81.95 -103.65 80.75 -104.25 79.15 -103.95 75 -103.2 75 -98.7 75 -97.6 75.9 -97.15 76.8 -96.7 79 -96.7 80.6 -96.7 82 -98.7 83.25 -100.45 83.25 -101.7
M 101.2 -135.35
Q 100.55 -138.75 99.2 -141.4 94.6 -150.1 91.25 -154.55 84.85 -162.95 79.25 -162.95 75.2 -162.95 64.25 -156.05 54.1 -149.2 54 -149.2 53.35 -149.2 53.15 -149.5 53.05 -149.7 53 -150.45 53.6 -151.4 54.25 -152.85 55.75 -154.8 61.85 -160.3 61.85 -160.75 62.55 -162.65 63.25 -164.55 63.25 -165.2 63.25 -167.55 57.6 -168.05 53.85 -168.4 40.55 -168.05 30.3 -167.75 20.25 -159.8 11.45 -152.8 7.1 -143.95 13.7 -143.25 20.05 -135.65 25.5 -129.2 25.5 -126.1 25.5 -124.25 25.05 -123.5 24.6 -122.7 23.35 -122.7 22.05 -122.7 20.4 -123.05 18.6 -123.5 17.85 -124.05 17.4 -124.4 16.25 -126.8 15.05 -129.3 14.8 -129.55 13.15 -131.15 4.1 -134.4 3.1 -134.4 3 -134.05 2.95 -131.95 2.7 -128.65 2.45 -125.6 2.45 -125.25 2.45 -119.6 5.5 -115.3 8.9 -110.45 14.5 -110.45 17.2 -110.45 23.7 -112.4 27.35 -113.5 34.55 -115.7 32.5 -116.85 31.45 -120.3 30.7 -122.75 30.7 -124.75 30.7 -128.35 34.1 -131.15 37.55 -134 42.1 -134 47.25 -134 50.4 -129.9 52.9 -126.7 52.9 -123.4 52.9 -122.4 52.35 -120.65 51.75 -119.1 51.75 -119.05 51.75 -118.05 53.5 -117.2 55.15 -116.45 56.65 -116.45 60.95 -116.45 62.5 -119.1 63.25 -120.4 63.95 -124.85 64.6 -128.9 66.15 -130.65 68.55 -133.3 74.2 -133.3 80.8 -133.3 83.7 -127.5 85.35 -124.25 85.35 -121.25 85.35 -120.15 84.55 -118.5 83.55 -116.4 81.8 -115.05 85.9 -111.9 87.4 -111 89.5 -109.75 91.35 -109.75 94.45 -109.75 98.35 -114.45 102.15 -119.05 102.15 -122.3 102.15 -130.45 101.2 -135.35 Z"/>
</g>

<g id="Symbol_29_10_Layer0_0_FILL">
<path fill="#993399" stroke="none" d="
M -68.2 -22.1
Q -68.2 -22.9 -68.6 -23.45 -69 -24 -69.6 -24 -70.2 -24 -70.6 -23.45 -71 -22.9 -71 -22.1 -71 -21.3 -70.6 -20.75 -70.2 -20.2 -69.6 -20.2 -69 -20.2 -68.6 -20.75 -68.2 -21.3 -68.2 -22.1
M 30.35 -52.7
Q 32.75 -52.7 33.8 -54.8 34.75 -56.75 34.2 -59.5 33.65 -62.25 31.9 -64.15 30 -66.3 27.35 -66.3 26.05 -66.3 25.25 -64.75 24.5 -63.15 24.5 -60.35 24.5 -55.5 25.35 -54.2 26.4 -52.7 30.35 -52.7
M 53.5 -56.5
Q 53.5 -57.5 53.25 -59.25 50 -59.45 49 -59.45 47 -59.45 45.55 -57.6 43.75 -55.35 43.75 -50.95 43.75 -48.85 45.25 -47.75 46.75 -46.65 48.65 -47.15 53.5 -48.4 53.5 -56.5
M 97.05 -101.25
Q 97.05 -101.5 95.85 -106.2 94.6 -111.15 94.15 -112.2 93.15 -114.5 90.6 -120.45 89.7 -121.8 86.2 -125.1 81.95 -129.05 80.3 -129.05 80.2 -129.05 78.05 -127.75 75.45 -126.2 73 -125.25 72.65 -125.15 70.25 -122.95
L 67.75 -120.7 67.25 -122.2
Q 67.85 -122.7 68.1 -124.15 68.25 -124.95 69.65 -126.2 70.85 -128.75 70.5 -136.35 68.8 -134.25 60.6 -137.1 52.25 -140.5 51.25 -140.75 44.15 -140.95 39.7 -140.85 31.4 -140.75 28.1 -139.35 14.7 -133.6 6.5 -123.25 -2.65 -111.7 -2.65 -97.4 -2.65 -92.15 4.95 -87.65 13.25 -83.8 14.5 -83.2 18.9 -81.1 24.55 -75.1 28.95 -70.45 32.8 -70.45
L 44 -71.2
Q 50.35 -71.2 56.55 -69.15 62.7 -67.1 66.4 -63.75 63.15 -62.7 61.4 -59.25 60.25 -56 60.25 -55.95 60.25 -53 60.75 -51.6 61.3 -50.5 61.5 -49.9
L 61.5 -49.95
Q 61.5 -50.55 61.4 -51.05 62.15 -50.45 63.05 -49.95 63.85 -49.45 64 -49.45 67.95 -49.45 69.9 -53.05 72.3 -57.5 74.3 -58.45 75.55 -59.05 81 -59.85 84.55 -60.35 86.35 -63.45 93.3 -75.5 95.3 -83 97.05 -89.5 97.05 -101.25
M 29.2 -105.5
Q 32.25 -109 36.85 -108.85 41.25 -108.7 44.45 -105.4 47.9 -101.8 47.9 -96.3 47.9 -93 42.85 -88.65 38 -84.45 35 -84.45 30.7 -84.45 28.35 -86.7 25.75 -89.2 25.75 -94.15 25.75 -101.55 29.2 -105.5
M 13.9 -107.15
Q 15.25 -108.3 19 -107.95 19.25 -106.35 19.25 -105.25 19.25 -104.9 18.25 -101.45 17.25 -98 17.25 -97.45 17.25 -96.95 17.75 -96.3 18.25 -95.7 18.25 -95.2 18.25 -94.6 17.65 -93.95 16.8 -93.05 15.25 -92.95 15.05 -94 13.8 -98.5 12.75 -102.15 12.75 -103.1 12.75 -106.1 13.9 -107.15
M 75.45 -97.05
Q 78.85 -93.15 78.85 -85.55 78.85 -84.45 74.6 -81 69.95 -77.2 66.95 -77.2 62.2 -77.2 59.95 -78.25 57.6 -79.35 57.6 -81.85 57.6 -82.85 57.35 -86.35 57.05 -89.8 57.05 -90.85 57.05 -94.65 60.45 -97.5 63.75 -100.2 67.95 -100.3 72.55 -100.4 75.45 -97.05
M 80.3 -71.8
Q 80.8 -72.15 80.7 -71.9 80.5 -71.75 80.4 -71.75
L 80.3 -71.8
M 31.45 -89.35
Q 31.65 -89.45 31.65 -89.65 31.65 -89.85 31.45 -90 31.3 -90.1 31.05 -90.1 30.8 -90.1 30.6 -90 30.45 -89.85 30.45 -89.65 30.45 -89.45 30.6 -89.35 30.8 -89.2 31.05 -89.2 31.3 -89.2 31.45 -89.35 Z"/>
</g>

<g id="Symbol_32_16_Layer0_0_FILL">
<path fill="#301030" stroke="none" d="
M -17.95 104.8
Q -20.45 106.9 -23.3 113.45 -23.3 114.1 -23.05 114.25 -22.85 114.35 -22.4 114.45 -20.3 113.95 -18.9 110.35 -18.7 109.75 -17.5 105.35
L -17.6 104.9 -17.95 104.8
M -35.95 118.55
Q -36.1 118.6 -36.6 118.35 -41.8 120.6 -42.45 120.85 -48.15 123 -51.4 123.15 -51.5 123.15 -55.25 122.8 -57.75 122.55 -59 123.55 -58.85 125.55 -56.25 125.55 -52.9 125.55 -47.65 123.8 -42.1 121.9 -35.95 118.55
M 18.8 69.45
Q 15.15 65.4 14.05 64.85
L 13.95 65.4
Q 17.65 70.6 18.65 74.4 18.9 75.45 19.15 75.6 19.45 75.8 20.95 75.8 21.6 75.8 22.2 75.45 22.65 75.2 22.8 74.9 22.7 73.7 18.8 69.45
M 20.95 64.75
Q 21 64.8 21.2 64.9 22.55 64.3 24.05 61.7 25.25 59.55 25.45 58.55 25.4 57.9 25.2 57.65
L 25 57.55
Q 21.6 63 20.9 63.95 20.9 64.65 20.95 64.75 Z"/>
</g>
</defs>

<g transform="matrix( 0.414031982421875, 0, 0, 0.414031982421875, 82.35,112.2) ">
<g transform="matrix( 1, 0, 0, 1, 0,0.2) ">
<g transform="matrix( 1, 0, 0, 1, 0,0) ">
<use xlink:href="#Symbol_29_14_Layer0_0_FILL"/>
</g>
</g>

<g transform="matrix( 0.394073486328125, 0.004852294921875, -0.004852294921875, 0.394073486328125, 68.55,32.25) ">
<g transform="matrix( 1, 0, 0, 1, 0,0) ">
<use xlink:href="#Symbol_29_13_Layer0_0_FILL"/>
</g>
</g>

<g transform="matrix( -0.579925537109375, 0.11358642578125, 0.1155242919921875, 0.5898895263671875, -14,23.8) ">
<g transform="matrix( 1, 0, 0, 1, 0,0) ">
<use xlink:href="#Symbol_29_10_Layer0_0_FILL"/>
</g>
</g>

<g transform="matrix( 1, 0, 0, 1, -3.05,12.95) "/>

<g transform="matrix( 1, 0, 0, 1, -0.95,0) ">
<g transform="matrix( 1, 0, 0, 1, 0,0) ">
<use xlink:href="#Symbol_32_16_Layer0_0_FILL"/>
</g>
</g>

<g transform="matrix( 1, 0, 0, 1, -0.25,0.15) "/>

<g transform="matrix( 0.6586761474609375, 0, 0, 0.6586761474609375, -222.6,10.9) "/>

<g transform="matrix( 0.488861083984375, 0, 0, 0.488861083984375, 30.8,-104.7) "/>

<g transform="matrix( 0.9941253662109375, -0.10821533203125, 0.10821533203125, 0.9941253662109375, -10.25,17.4) "/>

<g transform="matrix( -0.96832275390625, -0.2494354248046875, 0.2494354248046875, -0.96832275390625, 94.05,272.55) "/>

<g transform="matrix( 0.981719970703125, -0.189697265625, 0.189697265625, 0.981719970703125, -43.05,-103.7) "/>
</g>
</svg>
