
<svg xmlns="http://www.w3.org/2000/svg" version="1.1" xmlns:xlink="http://www.w3.org/1999/xlink" preserveAspectRatio="none" x="0px" y="0px" width="200px" height="200px" viewBox="0 0 200 200">
<defs>
<g id="Symbol_29_20_Layer0_0_FILL">
<path fill="#000000" fill-opacity="0.4" stroke="none" d="
M -44.9 -182.55
Q -44.9 -185.65 -47.95 -184.3 -51.05 -183 -51.05 -180.85 -51.05 -179.25 -49.3 -179.55 -46.8 -179.4 -45.6 -180.8 -44.9 -181.7 -44.9 -182.55
M -18.95 -198.65
L -19 -198.55
Q -13.2 -199.55 -8.45 -205.75 -4.65 -210.7 -4.65 -212.8 -4.65 -213.8 -4.75 -214.05 -13.1 -207.9 -15.95 -204.15 -17.85 -200.5 -18.95 -198.65
M 74.75 -195.45
Q 71.65 -195.95 70.7 -194.65 70.25 -194 70.25 -192.1 70.25 -191.45 70.5 -189.45 73.4 -190.8 75 -193.2 75 -194.2 74.75 -195.45
M 133.25 -160.15
Q 133.25 -160.75 132.8 -161.2 132.35 -161.65 131.75 -161.65 131.15 -161.65 130.7 -161.2 130.25 -160.75 130.25 -160.15 130.25 -159.55 130.7 -159.1 131.15 -158.65 131.75 -158.65 132.35 -158.65 132.8 -159.1 133.25 -159.55 133.25 -160.15
M 58 -215.2
Q 58.7 -218.95 56.05 -220.5 54.35 -221.5 51.5 -221.5 49 -221.5 47.05 -220.35 45.4 -219.4 44.8 -218.1 45.6 -216.95 50.8 -215.8 53.4 -215.2 55.95 -214.85 56.95 -214.85 58 -215.2 Z"/>
</g>

<g id="Symbol_29_19_Layer0_0_FILL">
<path fill="#000000" fill-opacity="0.6" stroke="none" d="
M -38.25 -163
Q -35.2 -163 -34.2 -167.55 -33.15 -172.1 -37.05 -172.1 -40.3 -172.1 -42.7 -170.25 -44.9 -168.55 -44.9 -166.65 -44.9 -164.5 -43.45 -163.75 -42.05 -163 -38.25 -163
M -21.65 -161.3
Q -20.9 -161.9 -20.9 -162.75 -20.9 -163.6 -21.65 -164.25 -22.4 -164.85 -23.45 -164.85 -24.5 -164.85 -25.25 -164.25 -26 -163.6 -26 -162.75 -26 -161.9 -25.25 -161.3 -24.5 -160.65 -23.45 -160.65 -22.4 -160.65 -21.65 -161.3
M -27.55 -179.5
Q -27.55 -180.3 -28.15 -180.85 -28.7 -181.4 -29.5 -181.4 -30.3 -181.4 -30.9 -180.85 -31.45 -180.3 -31.45 -179.5 -31.45 -178.7 -30.9 -178.15 -30.3 -177.6 -29.5 -177.6 -28.7 -177.6 -28.15 -178.15 -27.55 -178.7 -27.55 -179.5
M 0.6 -193.3
Q 19.45 -212.15 35.8 -216.6 5.7 -209.15 -7.8 -197.65 -17.5 -189.4 -20.1 -177.1
L -19.3 -177.6
Q -10.45 -182.85 -5.65 -187
L 0.6 -193.3
M 60.6 -183.2
Q 62.1 -183.2 63.15 -184.25 64.2 -185.3 64.1 -186.6 63.9 -190 57.55 -190 55 -190 55 -188.45 55 -183.2 60.6 -183.2
M 105.8 -179.65
Q 105.8 -180.15 105.4 -180.5 105.05 -180.85 104.55 -180.85 104.05 -180.85 103.65 -180.5 103.3 -180.15 103.3 -179.65 103.3 -179.15 103.65 -178.8 104.05 -178.45 104.55 -178.45 105.05 -178.45 105.4 -178.8 105.8 -179.15 105.8 -179.65
M 126.5 -168.5
Q 126.5 -169.35 125.85 -170 125.25 -170.6 124.4 -170.6 123.55 -170.6 122.9 -170 122.3 -169.35 122.3 -168.5 122.3 -167.65 122.9 -167.05 123.55 -166.4 124.4 -166.4 125.25 -166.4 125.85 -167.05 126.5 -167.65 126.5 -168.5
M 40.45 -200.4
Q 39.35 -200.4 38.55 -199.6 37.75 -198.8 37.75 -197.65 37.75 -196.5 38.55 -195.7 39.35 -194.9 40.45 -194.9 41.55 -194.9 42.35 -195.7 43.15 -196.5 43.15 -197.65 43.15 -198.8 42.35 -199.6 41.55 -200.4 40.45 -200.4
M 31.75 -209.25
L 31.7 -207.6
Q 31.7 -206.95 31.85 -206.5
L 31.95 -206.25
Q 31.8822265625 -206.31171875 31.5 -206.35 31 -206.35 30.7 -206.25 31 -206.15 32.5 -204.65 33.45 -203.7 37.95 -203.7
L 47.3 -204.5
Q 47.3 -205.95 47.4 -206.45
L 48.3 -206.4
Q 49.2 -205.7 50.65 -205.3 51.85 -204.95 52.7 -204.95 54.4 -204.95 55.05 -205.1 56.75 -205.55 56.75 -207 56.75 -210.35 54.3 -212.65 52.35 -214.45 50.75 -214.45 46.75 -214.45 46.25 -214.25 45.65 -213.7 43.9 -213 37.8 -210.45 35.75 -209.25 35.5 -209.1 34.2 -209.1
L 31.75 -209.25
M 32.5 -206.15
L 32.65 -206.95 33.5 -206.1 32.5 -206.15 Z"/>
</g>

<g id="Symbol_29_16_Layer0_0_FILL">
<path fill="#000000" fill-opacity="0.8" stroke="none" d="
M -0.35 -151.5
Q -1.85 -151.5 -2.95 -149.75 -4.05 -148.05 -4.05 -145.7 -4.05 -144.25 -3.15 -143.2 -2.15 -142.05 -0.5 -142.05 3.4 -142.05 3.45 -146.75 3.5 -151.5 -0.35 -151.5
M -9 -152.8
Q -12.15 -158 -15.75 -158 -17.45 -158 -19.4 -156.45 -22.25 -154.25 -22.25 -150.1 -22.25 -144.85 -18.75 -144.2
L -9 -143.7
Q -5.6 -147.25 -9 -152.8
M 15.8 -151.95
Q 15.8 -152.8 15.1 -153.4 14.4 -153.95 13.4 -153.95 12.4 -153.95 11.7 -153.4 11 -152.8 11 -151.95 11 -151.1 11.7 -150.55 12.4 -149.95 13.4 -149.95 14.4 -149.95 15.1 -150.55 15.8 -151.1 15.8 -151.95
M 3.05 -161.05
Q 1.95 -162.95 0.25 -166.15 -1.3 -168.45 -4 -168.45 -5.9 -168.45 -6.9 -166.55 -8 -164.5 -7.7 -160.7
L 1 -160.45
Q 1.6 -160.45 2.2 -160.7 2.55 -160.8 3.05 -161.05
M 58.25 -166.35
Q 52.65 -166.7 50.3 -163.95 48.65 -162.05 48.65 -158.85 48.65 -158 49.15 -157.6 49.95 -156.95 52.15 -156.95 53.95 -156.95 55.75 -158.3 58.5 -160.4 58.5 -164.7 58.5 -165.7 58.25 -166.35
M 80.9 -186.3
Q 78.65 -187.95 73.2 -194.7 67.1 -200.6 58.75 -200.6 54 -200.6 49.85 -195.85 45.95 -190.4 44.45 -189 37.7 -182.75 35.5 -180.3 32.25 -176.7 32.25 -174.7 32.25 -174.05 32.4 -173.6
L 32.5 -173.3
Q 32.8 -173.35 41.75 -174.15 50.7 -174.95 57.25 -176 78.55 -179.45 80.9 -186.3
M 101.05 -146.85
Q 101.05 -147.65 100.5 -148.2 99.95 -148.75 99.15 -148.75 98.35 -148.75 97.8 -148.2 97.25 -147.65 97.25 -146.85 97.25 -146.05 97.8 -145.5 98.35 -144.95 99.15 -144.95 99.95 -144.95 100.5 -145.5 101.05 -146.05 101.05 -146.85
M 121.25 -152.35
Q 121.25 -153.45 120.3 -154.25 119.35 -155 118 -155 116.65 -155 115.7 -154.25 114.75 -153.45 114.75 -152.35 114.75 -151.25 115.7 -150.5 116.65 -149.7 118 -149.7 119.35 -149.7 120.3 -150.5 121.25 -151.25 121.25 -152.35
M 34.75 -198.1
Q 31.2 -199 26.55 -198.1 20.3 -196.95 10.15 -189.6 -2.4 -180.6 -5.15 -171.05 0.6 -169.75 2.9 -167.35 3.45 -166.8 6.5 -161.45 8.45 -162.05 15.2 -165.15 21.3 -168 25.05 -169.95 24.8 -170.5 24.5 -171.85 24.25 -173.2 24.25 -173.95 24.25 -177.05 31.4 -184.85 38.55 -192.65 38.55 -194.65 38.55 -197.15 34.75 -198.1 Z"/>
</g>
</defs>

<g transform="matrix( 0.414031982421875, 0, 0, 0.414031982421875, 82.35,112.2) ">
<g transform="matrix( 1, 0, 0, 1, 0,0.2) ">
<g transform="matrix( 1, 0, 0, 1, 0,0) ">
<use xlink:href="#Symbol_29_20_Layer0_0_FILL"/>
</g>
</g>

<g transform="matrix( 0.394073486328125, 0.004852294921875, -0.004852294921875, 0.394073486328125, 68.55,32.25) ">
<g transform="matrix( 1, 0, 0, 1, 0,0) ">
<use xlink:href="#Symbol_29_19_Layer0_0_FILL"/>
</g>
</g>

<g transform="matrix( -0.579925537109375, 0.11358642578125, 0.1155242919921875, 0.5898895263671875, -14,23.8) ">
<g transform="matrix( 1, 0, 0, 1, 0,0) ">
<use xlink:href="#Symbol_29_16_Layer0_0_FILL"/>
</g>
</g>

<g transform="matrix( 1, 0, 0, 1, -3.05,12.95) "/>

<g transform="matrix( 1, 0, 0, 1, -0.95,0) "/>

<g transform="matrix( 1, 0, 0, 1, -0.25,0.15) "/>

<g transform="matrix( 0.6586761474609375, 0, 0, 0.6586761474609375, -222.6,10.9) "/>

<g transform="matrix( 0.488861083984375, 0, 0, 0.488861083984375, 30.8,-104.7) "/>

<g transform="matrix( 0.9941253662109375, -0.10821533203125, 0.10821533203125, 0.9941253662109375, -10.25,17.4) "/>

<g transform="matrix( -0.96832275390625, -0.2494354248046875, 0.2494354248046875, -0.96832275390625, 94.05,272.55) "/>

<g transform="matrix( 0.981719970703125, -0.189697265625, 0.189697265625, 0.981719970703125, -43.05,-103.7) "/>
</g>
</svg>
