
<svg xmlns="http://www.w3.org/2000/svg" version="1.1" xmlns:xlink="http://www.w3.org/1999/xlink" preserveAspectRatio="none" x="0px" y="0px" width="200px" height="200px" viewBox="0 0 200 200">
<defs>
<g id="Symbol_22_0_Layer0_0_FILL">
<path fill="#52656A" stroke="none" d="
M 14.6 18.5
L 13.9 1.2 13.95 0
Q 10.25 1.6 5.55 5.75 0.25 10.4 0.15 13.15
L 0 18.25
Q 0.8 32.5 0.8 33.5 1.35 37.7 1.5 39.25
L 1.5 39.35
Q 1.5 39.4 1.55 39.45
L 1.55 39.5
Q 1.55 39.55 1.55 39.6
L 1.55 39.65
Q 1.55 39.7 1.55 39.75 1.55 39.8 1.55 39.9
L 1.55 39.95
Q 1.55 40 1.6 40.05
L 1.6 40.1
Q 1.6 40.15 1.65 40.2
L 1.65 40.25
Q 1.65 40.3 1.65 40.35
L 1.65 40.4
Q 1.65 40.45 1.7 40.5
L 1.7 40.55
Q 1.7 40.6 1.75 40.65 1.75 40.7 1.75 40.75 1.75 40.9 1.75 41 1.75 41.15 1.75 41.3 1.75 41.45 1.75 41.6 1.75 41.7 1.75 41.75 1.75 41.8 1.8 41.85
L 1.8 41.9
Q 1.8 41.95 1.85 42
L 1.85 42.05
Q 1.85 42.1 1.85 42.15
L 1.85 42.2
Q 1.85 42.3 1.85 42.35 1.85 42.45 1.85 42.5 1.85 42.6 1.85 42.65 1.85 42.7 1.9 42.75
L 1.9 42.8
Q 1.9 42.9 1.9 42.95 1.9 43.05 1.95 43.2 1.95 43.3 1.95 43.4 1.95 43.45 2 43.5
L 2 43.55
Q 2 43.6 2.05 43.65
L 2.05 43.7
Q 2.1 43.8 2.1 43.85 2.1 43.9 2.15 43.95 2.15 44.15 2.15 44.4 2.15 44.45 2.15 44.55 2.15 44.6 2.2 44.65
L 2.2 44.75
Q 2.2 44.8 2.2 44.85 2.25 44.95 2.25 45 2.25 45.1 2.25 45.15 2.25 45.25 2.25 45.3 2.25 45.35 2.3 45.4
L 2.3 45.45
Q 2.3 45.5 2.35 45.55
L 2.35 45.6
Q 2.35 45.65 2.35 45.7
L 2.35 45.75
Q 2.35 45.85 2.35 45.9 2.4 46 2.4 46.05 2.4 46.1 2.45 46.15 2.45 46.2 2.45 46.25 2.45 46.4 2.45 46.6 2.45 46.8 2.45 47.05 2.45 47.2 2.45 47.4 2.45 47.45 2.5 47.5
L 2.5 47.55
Q 2.5 47.6 2.55 47.65
L 2.55 47.7
Q 2.55 47.75 2.55 47.8
L 2.55 47.85
Q 2.55 47.9 2.55 47.95 2.55 48 2.55 48.1
L 2.55 48.15
Q 2.55 48.2 2.6 48.25
L 2.6 48.3
Q 2.6 48.35 2.65 48.4
L 2.65 48.45
Q 2.65 48.5 2.65 48.55
L 2.65 48.6
Q 2.65 48.65 2.7 48.7
L 2.7 48.75
Q 2.75 48.85 2.8 48.9 2.8 49 2.85 49.05 2.85 49.1 2.9 49.15
L 2.9 49.25
Q 2.9 49.3 2.9 49.35 2.95 49.45 2.95 49.5 3 49.6 3 49.65 3 49.7 3.05 49.75
L 3.05 49.8
Q 3.05 49.85 3.05 49.9 3.1 50 3.1 50.15 3.15 50.5 3.25 50.75 3.35 51.2 3.35 51.6 3.35 51.65 3.35 51.7
L 3.4 51.75
Q 3.4 51.8 3.4 51.85
L 3.4 51.9
Q 3.4 51.95 3.4 52 3.45 52 3.45 52.05 3.45 52.1 3.45 52.15
L 3.45 52.2
Q 3.45 52.25 3.45 52.3 3.5 52.35 3.5 52.4 3.55 52.55 3.6 52.65 3.6 52.75 3.7 52.9
L 3.7 53
Q 3.7 53.05 3.7 53.1 3.75 53.2 3.75 53.25 3.75 53.35 3.75 53.4 3.75 53.5 3.75 53.55 3.75 53.6 3.8 53.65
L 3.8 53.7
Q 3.8 53.75 3.85 53.8 3.8 54.05 3.85 54.3 3.95 54.85 4.1 55.35 4.2 55.75 4.25 56.2 4.3 56.4 4.35 56.6 4.45 57.1 4.55 57.6 4.65 58.05 4.65 58.5 4.7 58.65 4.7 58.8 4.75 59.1 4.85 59.4 4.95 59.75 4.95 60.15 4.95 60.2 4.95 60.25
L 5 60.3
Q 5 60.35 5 60.4
L 5 60.45
Q 5 60.5 5 60.55 5.05 60.55 5.05 60.6 5.05 60.65 5.05 60.7
L 5.05 60.75
Q 5.05 60.8 5.05 60.85 5.1 60.9 5.1 60.95 5.15 61.1 5.15 61.2 5.15 61.3 5.15 61.45
L 5.2 61.5
Q 5.2 61.55 5.2 61.6 5.2 61.65 5.2 61.75 5.2 61.85 5.25 61.95 5.25 62.05 5.25 62.2 5.3 62.25 5.3 62.35 5.3 62.45 5.35 62.6 5.35 62.75 5.35 62.85 5.95 64.9 6.6 67 10.55 79.55 13.35 84.25 18.35 92.5 23.05 96.9 29.9 103.3 40.35 106.5
L 39.5 104.55
Q 39.1 103.2 38.25 98.75 37.45 94.7 37.45 94.45 37.45 94 37.4 93.9 37.1 93.5 35.45 92.05 30.8 88.05 28.75 84.85 27.35 82.05 26.85 81.2 26.55 80.7 25.75 79.8 25.15 79.15 24.7 78.1 24 76.2 23.85 76 23.4 75.45 23.15 74.75
L 22.75 73.9
Q 22.75 73.85 22.35 73.35 22.05 72.9 22.05 72.3 17.85 55.35 17.4 52 15.95 41.45 15.95 41.35 15.4 36.55 15.15 29.3 14.9 22.85 14.6 18.5
M 57.5 22.6
Q 56.05 22.15 54.6 22.05 49.5 16.05 49.35 16.15 49.35 16.35 50.25 20.1 51.15 23.8 51.15 24.35 49.4 28.25 46.45 28.25 41 25.9 40.65 25.9 39.65 25.9 40.05 26.15 40.6 27.1 52.8 36.55 54.2 37.65 55.8 42.45 56.7 45.05 58.05 49.55 61.1 57.75 63.9 65.65 64.65 62.8 64.9 55.5 65 53.65 71.25 48 77.1 42.7 77.55 42.7 77.65 42.7 78 43.1 78.35 42.7 78.35 38.5 78.35 37.6 78.25 35.85 78.1 34 78 33.95 77.2 35.2 77.25 36.95 77.4 38.9 77.45 39.8 77.45 43.05 72.95 44.5 72.6 25.6 70.95 18.5 70.3 19.75 69.65 25.95 62.3 23.95 57.5 22.6
M 57.5 30.65
Q 57.1 29.4 56.1 28.1
L 55.7 27.1
Q 57.95 29.75 59.15 31 60.75 32.6 63.15 35.3
L 63.35 35.6
Q 58.65 33.7 58 32.3 57.8 31.8 57.5 30.65
M 68.55 32.5
L 68.6 32.45
Q 68.05 40.75 68.05 41.75 68.05 45.55 67.5 46.1 66.35 46.4 65.25 47
L 65 46.9
Q 67 39.45 67.1 39.05 68.15 35.1 68.55 32.5 Z"/>

<path fill="#8BA0B0" stroke="none" d="
M 87.65 14.9
Q 86.25 12.85 82.3 13.25 80.35 13.45 76.5 12.9 72.8 12.3 72.3 12.3 72.15 12.3 51.85 9.25 51.85 9.15 37.55 6.1 21.3 2.6 13.95 0
L 13.9 1.2 14.6 18.5
Q 14.9 22.85 15.15 29.3 15.4 36.55 15.95 41.35 15.95 41.45 17.4 52 17.85 55.35 22.05 72.3 22.05 72.9 22.35 73.35 22.75 73.85 22.75 73.9
L 23.15 74.75
Q 23.4 75.45 23.85 76 24 76.2 24.7 78.1 25.15 79.15 25.75 79.8 26.55 80.7 26.85 81.2 27.35 82.05 28.75 84.85 30.8 88.05 35.45 92.05 37.1 93.5 37.4 93.9 37.45 94 37.45 94.45 37.45 94.7 38.25 98.75 39.1 103.2 39.5 104.55
L 40.35 106.5
Q 48.65 103.25 48.75 103.2 50.65 102.15 58.25 95.75 61.85 92.75 67.15 85.3 71.4 79.4 73 76.3 74.75 73 75.15 72.35 75.35 72 79.7 62.2 81.1 59.05 82.4 55.4 83.9 51.2 84.15 50.55
L 84.75 49.05
Q 85 48.3 85.55 45.95
L 87.05 41.45
Q 87.35 40.7 87.8 38.95
L 89.3 34.1
Q 89.45 33.4 89.55 33.15 90.9 30.15 90.9 30.1 91.5 28.15 91.5 24.7 91.5 24.45 90.85 22.8 90.05 20.65 88.85 18.2 88.4 16.05 87.65 14.9
M 54.6 22.05
Q 56.05 22.15 57.5 22.6 62.3 23.95 69.65 25.95 70.3 19.75 70.95 18.5 72.6 25.6 72.95 44.5 77.45 43.05 77.45 39.8 77.4 38.9 77.25 36.95 77.2 35.2 78 33.95 78.1 34 78.25 35.85 78.35 37.6 78.35 38.5 78.35 42.7 78 43.1 77.65 42.7 77.55 42.7 77.1 42.7 71.25 48 65 53.65 64.9 55.5 64.65 62.8 63.9 65.65 61.1 57.75 58.05 49.55 56.7 45.05 55.8 42.45 54.2 37.65 52.8 36.55 40.6 27.1 40.05 26.15 39.65 25.9 40.65 25.9 41 25.9 46.45 28.25 49.4 28.25 51.15 24.35 51.15 23.8 50.25 20.1 49.35 16.35 49.35 16.15 49.5 16.05 54.6 22.05
M 68.6 32.45
L 68.55 32.5
Q 68.15 35.1 67.1 39.05 67 39.45 65 46.9
L 65.25 47
Q 66.35 46.4 67.5 46.1 68.05 45.55 68.05 41.75 68.05 40.75 68.6 32.45
M 56.1 28.1
Q 57.1 29.4 57.5 30.65 57.8 31.8 58 32.3 58.65 33.7 63.35 35.6
L 63.15 35.3
Q 60.75 32.6 59.15 31 57.95 29.75 55.7 27.1
L 56.1 28.1 Z"/>
</g>

<g id="Symbol_9_1_Layer0_0_FILL">
<path fill="#FFCC00" stroke="none" d="
M 336.15 160.45
Q 336.15 160.4 336.1 160.4 336.05 160.4 335.95 160.4
L 335.9 160.4
Q 335.8 160.4 335.7 160.4 335.4 160.4 335.1 160.35 334.5 160.35 333.9 160.35 333.7 160.35 333.55 160.35 333.453125 160.3015625 333.4 160.3 333.6515625 160.299609375 333.9 160.25 333.9 160.15 333.9 160.1 333.7 160.1 333.5 160.1 333.3 160.05 333.1 160 332.7 160 332.25 159.95 332.05 159.9 331.85 159.9 331.45 159.85 331.05 159.85 330.65 159.8 330.25 159.8 330.05 159.8 329.85 159.75 329.65 159.75 329.4 159.7 329.2 159.65 329 159.65 328.6 159.6 328.2 159.6 327.8 159.55 327.4 159.55 327.2 159.55 327 159.5 326.55 159.5 326.15 159.5 325.75 159.45 325.35 159.45 324.95 159.4 324.55 159.4 324.15 159.35 323.75 159.35 323.5 159.3 323.3 159.3 322.9 159.25 322.5 159.25 322.25 159.25 321.95 159.25 321.9 159.2 321.85 159.2 321.75 159.2 321.65 159.2 321.55 159.2 321.45 159.2 321.35 159.2 321.3 159.2 321.1 159.15 320.9 159.15 320.85 159.15 320.8 159.15 320.75 159.15 320.7 159.1 320.6 159.1 320.5 159.05 320.4 159.05 320.3 159.05 320.2 159.05 320.1 159 320.05 159 319.95 159 319.85 158.95 319.75 158.95 319.65 158.95 319.55 158.95 319.45 158.95 319.35 159 319.25 159 319.15 159 319.05 159 318.95 159 318.85 159 318.75 159 318.7 159 318.6 159 318.5 159 318.4 159 318.3 159 318.2 159 318.1 159 318 159
L 317.95 159.05
Q 317.55 159 317.2 159 316.6 158.95 316 158.95 315.65 158.9 315.3 158.9 315 158.85 314.75 158.8 314.55 158.8 314.35 158.75 313.95 158.75 313.55 158.7 312.95 158.7 312.35 158.65 311.7 158.65 311.1 158.65 310.7 158.6 310.3 158.55 310.1 158.55 309.9 158.5 309.7 158.5 309.5 158.5 309.05 158.5 308.65 158.45 308.05 158.45 307.45 158.4 307.05 158.4 306.65 158.4 306.4 158.35 306.2 158.35 305.8 158.35 305.4 158.35 304.8 158.3 304.2 158.3 303.55 158.3 302.95 158.3 302.35 158.3 301.75 158.3 301.15 158.3 300.5 158.3 299.9 158.3 299.3 158.3 298.7 158.3 298.1 158.3 297.45 158.3 296.85 158.3 296.25 158.3 295.65 158.3 295.05 158.3 294.4 158.35 293.8 158.35 293.2 158.35 292.6 158.4 292 158.4 291.35 158.4 290.75 158.4 290.35 158.45 289.95 158.45 289.75 158.5 289.55 158.5 289.15 158.5 288.7 158.5 288.1 158.5 287.5 158.5 286.9 158.55 286.3 158.55 285.85 158.6 285.45 158.6 285.65 158.65 285.85 158.65 286.1 158.65 286.3 158.7
L 286.1 158.7
Q 284.95 158.7 283.85 158.75 283.25 158.75 282.6 158.75 282 158.8 281.4 158.8 281 158.85 280.6 158.85 280.4 158.9 280.2 158.9 279.95 158.95 279.75 158.95 279.35 158.95 278.95 159 278.55 159 278.15 159.05
L 278.1 159.05
Q 277.75 159.1 277.35 159.1 276.7 159.1 276.1 159.15 275.7 159.15 275.3 159.2 275.1 159.2 274.9 159.25 274.7 159.25 274.5 159.25 274.05 159.3 273.65 159.3 273.25 159.3 272.85 159.35 272.65 159.4 272.5 159.4
L 272 159.4
Q 271.6 159.45 271.25 159.45
L 271.1 159.45
Q 270.5 159.45 270 159.45 269.4 159.45 268.8 159.5 268.4 159.5 267.95 159.55 267.75 159.6 267.55 159.6 267.35 159.6 267.15 159.6 266.75 159.6 266.35 159.65 265.95 159.65 265.55 159.7 265.1 159.75 264.7 159.8 264.3 159.8 263.9 159.85 263.7 159.9 263.5 159.9 263.3 159.95 263.1 160 262.9 160 262.7 160 262.5 160.05 262.3 160.05 262.05 160.1 261.85 160.1 261.65 160.15 261.45 160.2 261.25 160.2 261.05 160.2 260.85 160.25 260.65 160.25 260.45 160.3 260.25 160.3 260.05 160.35 259.85 160.4 259.65 160.4 259.45 160.4 259.2 160.45 259 160.45 258.8 160.5 258.6 160.5 258.4 160.6 258.2 160.7 258 160.7 257.8 160.7 257.6 160.75 257.4 160.75 257.2 160.8 257 160.8 256.6 160.85 256.15 160.95 255.75 160.95 255.35 161 255.35 161.05 255.35 161.1 253.9 161.15 252.65 161.25 252.75 161.25 252.9 161.3 253.1 161.3 253.35 161.3 253.35 161.65 253.35 162 252.9 162.05 252.5 162.05 252.1 162.1 251.7 162.1 251.51875 162.1453125 251.35 162.15 251.91875 162.15 252.5 162.15 253.75 162.15 254.95 162.1 256.2 162.1 257.4 162.1 258.6 162.05 259.85 162.05 261.05 162.05 262.3 162 263.5 162 264.7 162 265.95 161.95 267.15 161.95 268.4 161.95 269.6 161.95 270.85 161.95 272.05 161.95 273.25 161.9 274.5 161.9 275.7 161.9 276.95 161.9 278.15 161.9 279.35 161.9 280.6 161.85 281.8 161.85 283.05 161.85 284.25 161.85 285.5 161.85 286.7 161.85 287.9 161.85 289.15 161.85 289.9 161.8 290.75 161.8
L 291.45 161.8
Q 291.5 161.8 291.6 161.8 292.2 161.8 292.8 161.85
L 292.8 161.8
Q 293.2 161.8 293.65 161.8 293.8 161.8 294.05 161.85 294.45 161.85 294.85 161.85 297.3 161.9 299.7 161.9 302.15 161.95 304.6 162 307.05 162.1 309.5 162.15 311.95 162.2 314.35 162.3 315.6 162.35 316.8 162.4 317.45 162.4 318.05 162.4 318.65 162.45 319.25 162.45 319.65 162.45 320.05 162.5 320.5 162.5 320.9 162.55 321.3 162.55 321.7 162.6 321.9 162.6 322.1 162.6 322.3 162.6 322.5 162.65 322.9 162.7 323.35 162.7 323.45 162.7 323.55 162.75 324.45 162.75 325.4 162.75 325.45 162.75 325.5 162.8 325.6 162.8 325.7 162.85 325.8 162.9 325.9 162.9 326 162.9 326.1 162.9 326.2 162.95 326.3 162.95 326.4 162.95 326.5 162.95 326.55 162.95 326.65 162.95 326.75 162.95 326.85 162.95 326.95 162.95 327.05 162.95 327.15 162.95 327.25 162.95 327.35 162.95 327.45 162.95 327.55 162.95 327.65 162.95 327.75 162.95 327.85 162.95 327.9 162.95 328 162.95 328.1 162.95 328.2 162.95 328.3 163 328.4 163.05 328.5 163.05 328.6 163.1 328.7 163.1 328.8 163.1 328.9 163.15 329 163.15 329.1 163.15 329.15 163.15 329.25 163.2 329.35 163.25 329.45 163.25 329.55 163.25 329.6484375 163.25 329.75 163.25 329.696875 163.2515625 329.6 163.3
L 329.6 163.35
Q 329.45 163.3 329.35 163.3 328.9 163.25 328.75 163.5 328.7 163.5 328.65 163.5 328.55 163.5 328.45 163.55 328.35 163.6 328.3 163.6 328.2 163.7 328.1 163.75 328 163.8 327.9 163.8 327.8 163.85 327.7 163.85 327.6 163.85 327.5 163.85 327.4 163.9 327.3 163.95 327.2 163.95 327.1 164 327 164.05 326.95 164.05 326.15 164.05 325.35 164.1 324.95 164.1 324.55 164.15 324.35 164.15 324.15 164.2 323.95 164.2 323.75 164.2 323.35 164.2 322.9 164.2 322.3 164.25 321.7 164.25 321.1 164.3 320.5 164.3 319.85 164.35 319.25 164.35 318.65 164.35 318.05 164.4 317.65 164.4 317.25 164.45 317 164.45 316.8 164.45 316.4 164.45 316 164.45 315.4 164.45 314.8 164.5 314.4 164.5 313.95 164.55 313.55 164.55 313.15 164.6 311.95 164.6 310.7 164.65 309.5 164.65 308.3 164.7 307.05 164.7 305.85 164.75 304.6 164.75 303.4 164.8 302.15 164.8 300.95 164.85 299.1 164.85 297.3 164.9 295.45 164.9 293.65 164.9 292.4 164.9 291.2 164.9 289.95 164.9 288.75 164.9 287.5 164.9 286.3 164.9 285.1 164.9 283.85 164.9 282.65 164.9 281.4 164.9 280.2 164.9 279 164.85 277.75 164.85 276.55 164.85 275.3 164.8 274.1 164.8 271.65 164.75 269.2 164.7 267.55 164.65 265.9 164.6 265.7 164.6 265.55 164.6 264.95 164.6 264.35 164.6 263.7 164.55 263.1 164.55 262.5 164.55 261.9 164.55 261.7 164.55 261.5 164.55 261.3 164.5 261.05 164.45 260.65 164.4 260.25 164.4 259.65 164.35 259.05 164.3 258.45 164.3 257.8 164.3 257.2 164.3 256.6 164.3 256 164.3 255.35 164.3 254.75 164.3 254.15 164.3 253.95 164.4 253.75 164.45 254.15 164.45 254.55 164.45 254.7 164.5 254.85 164.55 254.7 164.55 254.55 164.55 253.95 164.6 253.35 164.6 252.95 164.6 252.55 164.65 252.3 164.65 252.15 164.7
L 252.1 164.7
Q 251.7 164.75 251.3 164.8
L 251.3 164.85
Q 251.7 164.85 252.1 164.9 252.7 164.9 253.3 164.95
L 253.35 164.95
Q 253.55 164.95 253.75 165 253.95 165 254.15 165.05 254.35 165.05 254.55 165.1 254.75 165.1 254.95 165.1 254.55 165.15 254.15 165.2 253.95 165.2 253.75 165.25 253.95 165.25 254.15 165.25 254.35 165.3 254.55 165.3 254.75 165.3 254.95 165.35 255.15 165.35 255.4 165.4 255.6 165.4 255.8 165.45 256 165.5 256.2 165.55 256.4 165.55 256.6 165.6 256.8 165.6 257 165.65 257.2 165.7 257.4 165.75 257.6 165.75 257.8 165.75 258 165.75 258.25 165.8 258.45 165.8 258.65 165.85 258.85 165.85 259.05 165.9 259.25 165.9 259.45 165.9 259.65 165.9 259.85 165.95 260.05 165.95 260.25 166 260.45 166 260.65 166.05 260.85 166.05 261.1 166.05 261.3 166.05 261.5 166.1 261.7 166.1 261.9 166.15 262.1 166.15 262.3 166.2 262.5 166.2 262.7 166.2 262.9 166.2 263.1 166.25 263.3 166.25 263.5 166.3 263.7 166.3 263.9 166.35 264.35 166.35 264.75 166.35 265.15 166.4 265.55 166.45 265.75 166.45 265.95 166.5 266.15 166.5 266.35 166.5 266.55 166.5 266.75 166.55 267 166.55 267.2 166.55 267.4 166.55 267.6 166.6 267.8 166.6 268 166.6 268.4 166.6 268.8 166.65 269.4 166.65 270.05 166.7 270.65 166.7 271.25 166.75 271.65 166.75 272.05 166.75 272.25 166.75 272.45 166.8 272.5 166.8 272.55 166.8 272.65 166.8 272.75 166.85 272.85 166.85 272.95 166.9 273.05 166.9 273.15 166.9 273.25 166.9 273.35 166.9 273.45 166.9 273.55 166.9 273.6 166.9 273.7 166.9 273.8 166.9 273.9 166.9 274 166.9 274.1 166.9 274.2 166.9 274.3 166.9 274.4 166.9 274.5 166.9 274.6 166.9 274.7 166.9 274.8 166.9 274.85 166.9 274.95 166.9 275.05 166.9 275.15 166.9 275.25 166.9 275.35 166.9 275.45 166.9 275.55 166.95 275.65 167.05 275.75 167.05 275.85 167.1 275.95 167.15 276.05 167.15 276.15 167.15 276.2 167.15 276.3 167.15 276.4 167.15 276.5 167.15 276.6 167.15 276.7 167.15 276.8 167.15 276.9 167.15 277 167.15 277.1 167.15 277.2 167.15 277.3 167.15 277.4 167.15 277.45 167.15 277.55 167.15 277.65 167.15 277.75 167.15 277.85 167.15 277.95 167.1 278.05 167.1 278.15 167.1 278.25 167.15 278.35 167.15 278.45 167.2 278.55 167.2 278.65 167.25 278.75 167.3 278.8 167.3 278.9 167.35 279 167.3 279.1 167.3 279.2 167.3 279.3 167.3 279.4 167.25 279.5 167.2 279.6 167.2 279.7 167.15 279.8 167.15 279.9 167.1
L 279.95 167.1
Q 286.15 167.85 304.75 167.85 314.65 167.85 321.2 167.3 322 167.25 322.75 167.15 322.85 167.2 322.95 167.2 323.05 167.2 323.15 167.2 323.25 167.2 323.35 167.2 323.45 167.2 323.55 167.2 323.6 167.2 323.7 167.2 323.8 167.2 323.9 167.2 324 167.2 324.1 167.2 324.2 167.2 324.3 167.2 324.4 167.2 324.5 167.2 324.6 167.2 324.7 167.15 324.8 167.15 324.85 167.15 324.95 167.1 325.05 167.1 325.15 167.1 325.25 167.1 325.35 167.05 325.45 167 325.55 167 325.65 166.95 325.75 166.95 325.85 166.95 325.95 166.95 326.05 166.95 326.15 166.95 326.2 166.95 326.3 166.95 326.4 166.95 326.5 166.95 326.6 166.95 326.7 166.95 326.8 166.95 326.9 166.95 327 166.95 327.1 166.95 327.2 166.95 327.3 166.95 327.4 166.95 327.45 166.95 327.55 166.95 327.65 166.9 327.75 166.9 327.85 166.9 327.95 166.9 328.05 166.9 328.15 166.9 328.25 166.9 328.3 166.9 328.35 166.9 328.45 166.95 328.55 166.95 328.65 166.95 328.75 166.95 328.85 166.95 328.95 166.95 329.05 166.95 329.15 166.9 329.25 166.9 329.35 166.85 329.45 166.8 329.55 166.85 329.6 166.9 329.7 166.9 329.8 166.9 329.9 166.9 330 166.9 330.1 166.9 330.2 166.9 330.3 166.9 330.4 166.9 330.5 166.85 330.6 166.8 330.7 166.8 330.8 166.8 330.9 166.8 330.95 166.75 331.05 166.7 331.15 166.65 331.25 166.65 331.35 166.65 331.45 166.6 331.55 166.55 331.65 166.55 331.75 166.55 331.85 166.55 331.95 166.5 332 166.5 332.05 166.45 332.1 166.45 332.2 166.45 332.3 166.4 332.4 166.35 332.5 166.35 332.6 166.35 332.65 166.35 332.75 166.3 332.85 166.3 332.95 166.25 333.05 166.25 333.15 166.25 333.2 166.25 333.25 166.25
L 333.3 166.25
Q 333.4 166.25 333.5 166.25 333.55 166.25 333.65 166.25 333.75 166.2 333.85 166.2 333.95 166.2 334.05 166.2 334.15 166.2 334.25 166.2 334.35 166.2 334.45 166.2 334.55 166.2 334.65 166.25 334.75 166.2 334.8 166.2 334.9 166.2 335 166.2 335.1 166.2 335.2 166.25 335.3 166.2 335.4 166.2 335.5 166.2 335.6 166.2 335.7 166.15 335.8 166.1 335.9 166.1 336 166.05 336.05 166.05 336.15 166.05 336.25 166.05 336.35 166.05 336.45 166.05 336.55 166.05 336.65 166 336.75 166 336.85 166 336.95 166 337.05 165.95 337.15 165.9 337.25 165.9 337.35 165.85 337.4 165.85 337.5 165.85 337.6 165.85 337.7 165.8 337.8 165.75 337.9 165.75 338 165.7 338.1 165.65 338.2 165.65 338.3 165.6 338.4 165.55 338.5 165.55 338.6 165.5 338.65 165.45 338.75 165.45 338.85 165.45 338.95 165.45 339.05 165.45 339.15 165.45 339.25 165.4 339.35 165.4 339.45 165.4 339.55 165.4 339.65 165.35 339.75 165.35 339.85 165.35 339.95 165.3 340 165.3 340.1 165.25 340.2 165.2 340.3 165.2 340.4 165.15 340.5 165.1 340.6 165 340.7 165 340.8 164.95 340.9 164.95 341 164.9 341.1 164.85 341.2 164.85 341.25 164.8 341.35 164.75 341.45 164.75 341.55 164.7 341.6 164.65 341.65 164.65
L 341.7 164.65
Q 341.8 164.65 341.9 164.65 341.95 164.6 342.05 164.6 342.1 164.6 342.15 164.65 342.25 164.65 342.35 164.65 342.45 164.65 342.5 164.7 342.6 164.65 342.7 164.65 342.8 164.65 342.9 164.65 343 164.55 343.1 164.5 343.2 164.5 343.3 164.45 343.4 164.35 343.5 164.25 343.6 164.1 343.7 164 343.7 163.95 343.75 163.85 344.5 163.4 344.25 162.6 344 162.65 343.75 162.7 343.65 162.7 343.6 162.65 343.5 162.6 343.4 162.6 343.35 162.45 343.25 162.35 343.15 162.25 343.05 162.15 342.95 162.1 342.85 162.05 342.75 162.05 342.65 162 342.55 162 342.45 162 342.35 161.95 342.25 161.95 342.15 161.95 342.05 161.95
L 342 161.9
Q 342.2 161.85 342.45 161.85 342.85 161.8 343.25 161.75
L 343.25 161.7
Q 343.05 161.7 342.85 161.7 342.65 161.65 342.45 161.65 342.05 161.5 341.65 161.35 341.25 161.3 340.8 161.3 340.8 161.05 340.8 160.8 340.6 160.8 340.4 160.75 340 160.75 339.6 160.7 339.2 160.7 338.8 160.65 338.6 160.6 338.4 160.55 338.15 160.5 337.95 160.5 337.75 160.5 337.55 160.5 337.15 160.45 336.75 160.45 336.45 160.45 336.15 160.45
M 307.05 165.1
Q 307.45 165.1 307.85 165.1 307.25 165.15 306.65 165.15 306.4625 165.15 306.25 165.15 306.6625 165.14296875 307.05 165.1 Z"/>
</g>
</defs>

<g transform="matrix( 1, 0, 0, 1, 100,100) ">
<g transform="matrix( 1, 0, 0, 1, -39.05,-49.9) ">
<g transform="matrix( 1, 0, 0, 1, 0,0) ">
<use xlink:href="#Symbol_22_0_Layer0_0_FILL"/>
</g>
</g>

<g transform="matrix( 0.03802490234375, -0.0365447998046875, 0.096343994140625, 0.100250244140625, 51.1,-69.3) ">
<g transform="matrix( 1, 0, 0, 1, 0,0) ">
<use xlink:href="#Symbol_9_1_Layer0_0_FILL"/>
</g>
</g>

<g transform="matrix( 0.0252685546875, -0.0462799072265625, 0.12200927734375, 0.066650390625, 32.6,-66.55) ">
<g transform="matrix( 1, 0, 0, 1, 0,0) ">
<use xlink:href="#Symbol_9_1_Layer0_0_FILL"/>
</g>
</g>

<g transform="matrix( 0.0501861572265625, -0.0161895751953125, 0.042694091796875, 0.1323089599609375, 61.3,-58) ">
<g transform="matrix( 1, 0, 0, 1, 0,0) ">
<use xlink:href="#Symbol_9_1_Layer0_0_FILL"/>
</g>
</g>
</g>
</svg>
