
<svg xmlns="http://www.w3.org/2000/svg" version="1.1" xmlns:xlink="http://www.w3.org/1999/xlink" preserveAspectRatio="none" x="0px" y="0px" width="200px" height="200px" viewBox="0 0 200 200">
<defs>
<filter id="Filter_1" x="-20%" y="-20%" width="140%" height="140%" color-interpolation-filters="sRGB">
<feColorMatrix in="SourceGraphic" type="matrix" values="1 0 0 0 0 0 1 0 0 0 0 0 1 0 0 0 0 0 0.05 0" result="result1"/>
</filter>

<filter id="Filter_2" x="-20%" y="-20%" width="140%" height="140%" color-interpolation-filters="sRGB">
<feColorMatrix in="SourceGraphic" type="matrix" values="0.98 0 0 0 0.023529411764705882 0 0.98 0 0 0.023529411764705882 0 0 0.98 0 0.023529411764705882 0 0 0 0.07 0" result="result1"/>
</filter>

<filter id="Filter_3" x="-20%" y="-20%" width="140%" height="140%" color-interpolation-filters="sRGB">
<feColorMatrix in="SourceGraphic" type="matrix" values="0.32 0 0 0 0.6784313725490196 0 0.32 0 0 0.40784313725490196 0 0 0.32 0 0 0 0 0 1 0" result="result1"/>
</filter>

<g id="Symbol_13_0_Layer0_0_FILL">
<path fill="#FFFFFF" stroke="none" d="
M 32.1 4.2
L 32.3 3.35 20.3 2.35 20.3 25.55 9.95 25.25
Q 4.55 53.35 4.35 54.75
L 4.25 55.3
Q 8.55 52.45 8.55 51.8 10.75 49.95 11.3 49.1 12.1 47.8 13.8 46.35 15.2 45.1 23.95 29.35 23.95 29.3 24 29.25 24 29.2 24.05 29.2 24.05 29.15 24.05 29.1
L 24.05 29.05
Q 24.05 29 24.1 29
L 24.1 28.95
Q 24.1 28.9 24.1 28.85
L 24.15 28.8 24.15 28.75
Q 24.1 28.45 24 28.4
L 24.3 28.5 24.3 28.45
Q 24.35 28.25 24.45 28.05 24.45 28 24.5 28 24.5 27.95 24.55 27.95 24.55 27.9 24.55 27.85
L 24.6 27.8 24.6 27.7
Q 24.6 27.45 24.7 27.25 24.75 27.25 24.75 27.2 24.75 27.15 24.8 27.15 24.8 27.1 24.85 27 24.85 26.85 24.9 26.7 25 26.5 25.1 26.35 25.1 26.3 25.1 26.25
L 25.1 26.2
Q 25.1 26.15 25.15 26.15 25.15 26.1 25.15 26 25.2 26 25.2 25.95 25.2 25.9 25.25 25.9
L 25.25 25.85
Q 25.3 25.8 25.3 25.75
L 25.35 25.7
Q 25.35 25.65 25.35 25.6 25.4 25.5 25.4 25.4 25.45 25.3 25.5 25.2
L 25.5 25.1
Q 25.55 25.05 25.55 25
L 25.55 24.95 25.65 24.85
Q 25.65 24.8 25.65 24.75 25.7 24.7 25.7 24.65 25.75 24.55 25.8 24.45 25.8 24.4 25.85 24.35 25.85 24.3 25.9 24.25
L 25.9 24.2 25.95 24.15 25.95 24.1
Q 25.95 24.05 26 24
L 26 23.85
Q 26 23.8 26.05 23.75
L 26.05 23.7 26.1 23.65
Q 26.1 23.6 26.15 23.6 26.15 23.55 26.15 23.5
L 26.15 23.45 26.2 23.4
Q 26.2 23.35 26.25 23.35 26.25 23.3 26.25 23.25
L 26.25 23.1
Q 26.3 23 26.35 22.95 26.4 22.85 26.45 22.75 26.45 22.7 26.45 22.65 27.05 21.25 28.1 18.3 30.1 12.4 32.1 4.2 Z"/>

<path fill="#999999" stroke="none" d="
M 32.3 3.35
L 32.1 4.2
Q 32.6 3.85 32.7 3.35 17.2 0.25 15.95 0
L 16 0.3
Q 15.85 20 15.6 21.45 12.35 21.25 10.7 21.15 7.7 21 6.4 22.6 6.1 23 6 23.75 5.9 24.2 5.85 25.1 5.6 26.9 4.3 30.85 3.85 32.85 1.8 39.75 0 46.25 0 48.55 0 49.15 1.6 51.4 2.2 52.25 2.55 53.1 2.9 53.8 4.35 54.75 4.55 53.35 9.95 25.25
L 20.3 25.55 20.3 2.35 32.3 3.35 Z"/>
</g>

<g id="Symbol_14_0_Layer0_0_FILL">
<path fill="#FFFFFF" stroke="none" d="
M 0.6 3.05
L 0.25 3.1
Q 4.75 14.85 7.75 21.6 9.2 24.9 9.75 25.95 9.75 27.15 14.45 33.15 20.35 40.8 27.4 45.75 30.25 37.25 30.5 33.75
L 30.3 33.85
Q 25.2 34.3 24.15 34.45 24.95 32.45 28.95 27.45 33.6 21.7 36.15 17.1
L 11.15 13.45 20 1.35
Q 15.15 2.15 0.6 3.05 Z"/>

<path fill="#999999" stroke="none" d="
M 36.75 22.35
Q 37.05 21.45 38.55 18.35 39.75 15.05 40.25 14.45 35 13.55 32.65 13.1 29.45 12.5 18.15 10.1 19.45 7.8 21.05 5.25 23.1 2.05 24.3 0 3.5 1.9 0.75 2.35
L 0.7 2.35
Q 0.65 2.35 0.6 2.35 0.55 2.35 0.5 2.35 0.25 2.4 0.05 2.5 0 2.6 0 2.8
L 0.15 2.9
Q 0.4 3.05 0.6 3.05 15.15 2.15 20 1.35
L 11.15 13.45 36.15 17.1
Q 33.6 21.7 28.95 27.45 24.95 32.45 24.15 34.45 25.2 34.3 30.3 33.85
L 30.5 33.75
Q 30.25 37.25 27.4 45.75 28.25 45.6 33.1 40.75 33.1 39.95 33.4 38.2 33.7 36.35 34.05 35.1 35.1 31.15 35.25 30.45 35 30.5 35 30.45 34.45 30.4 32.65 30.75
L 32.85 30.2
Q 33.85 28.8 34.35 27.75 34.75 26.7 35.1 26.05 35.9 24.55 36.75 22.35 Z"/>
</g>

<g id="Symbol_15_0_Layer0_0_FILL">
<path fill="#999999" stroke="none" d="
M 37.1 3.8
L 37 3.8
Q 36.85 8.1 35.6 12.45 34.55 16.05 33.7 16.95 31.35 15.8 29.65 15 26.5 13.45 22.7 12.25 22.25 20.15 21.95 22.25 21.75 24 20.7 29.95 12.6 29.05 9.85 28.1 6.2 26.5 1.1 24.75
L 1.1 24.85
Q 1.1 24.9 1.1 24.95
L 1.1 25
Q 2.9 26.55 4.4 28.45 4.5 28.55 11.5 31.9 12.65 32.45 17.4 33.85 23.6 35.6 27.15 35.75 26.95 34.05 26.7 17.2
L 27.45 17.9
Q 29.1 19 31.3 20 31.95 20.3 35.85 22 36.25 20.3 36.8 16.15 37.35 11.65 37.35 9.2 37.35 4.7 37.1 3.8 Z"/>

<path fill="#FFFFFF" stroke="none" d="
M 37 3.8
L 37.1 3.2
Q 29.05 2.55 18.9 1.2 10.45 0 10.05 0 9.65 0 8.15 1.4 6.1 3.3 3.45 6.7 1.25 9.6 0.65 11 0 12.45 0 14.8 0 16.6 0.45 20.35 0.85 23.55 1.1 24.75 6.2 26.5 9.85 28.1 12.6 29.05 20.7 29.95 21.75 24 21.95 22.25 22.25 20.15 22.7 12.25 26.5 13.45 29.65 15 31.35 15.8 33.7 16.95 34.55 16.05 35.6 12.45 36.85 8.1 37 3.8 Z"/>
</g>

<g id="Symbol_16_0_Layer0_0_FILL">
<path fill="#999999" stroke="none" d="
M 16.75 30.9
Q 16.25 32.4 14.8 35.5
L 16.9 35.5
Q 23.4 35.75 29.75 33.85 34.75 32.35 36.5 30.75 17.6 30.95 16.75 30.9
M 22.1 19.25
L 24 13.45
Q 17.85 14.5 8.95 17 4.45 18.25 0.2 19.55 1.1 21.2 1.25 21.5 1.6 22.2 1.9 22.9 2.1 23.25 2.5 23.25 6.15 22.95 10.35 22.25 18.7 20.95 22.1 19.25 Z"/>

<path fill="#666666" stroke="none" d="
M 20.7 22.45
Q 21.9 19.75 22.05 19.3 20.6 21.65 20 23.2 19.65 24.1 19.05 25.9 19.45 25.25 20.7 22.45 Z"/>

<path fill="#FFFFFF" stroke="none" d="
M 22.05 19.3
Q 21.9 19.75 20.7 22.45 19.45 25.25 19.05 25.9
L 16.75 30.9
Q 17.6 30.95 36.5 30.75
L 37.15 30.75 37.85 26.4
Q 38.25 23.55 38.4 23.2 39.05 21.6 39.3 20.5 39.7 18.25 39.7 13.7 39.7 10.7 37.7 7.25 36 4.25 32.25 0 10.2 0.8 8.9 0.75 5.25 8.65 3.25 12.9 2.75 13.9 0.2 19.05
L 0.1 19.25 0.2 19.55
Q 4.45 18.25 8.95 17 17.85 14.5 24 13.45
L 22.1 19.25 22.05 19.3 Z"/>
</g>

<g id="Symbol_74_4_Layer0_0_FILL">
<path fill="#FFFFFF" stroke="none" d="
M 0.05 116
L 0.3 115.15
Q 1.25 112.75 -0.7 110.85 -2.45 109.2 -4.65 109.2 -5.35 109.2 -7.3 110
L -6.2 109.8
Q -3.5 109.6 -1.55 112.05 0.05 114.05 0.05 116 Z"/>
</g>
</defs>

<g transform="matrix( 1, 0, 0, 1, 100,100) ">
<g transform="matrix( 1, 0, 0, 1, 41.8,22.9) ">
<g transform="matrix( 1, 0, 0, 1, 0,0) ">
<use filter="url(#Filter_1)" xlink:href="#Symbol_13_0_Layer0_0_FILL"/>
</g>
</g>

<g transform="matrix( 1, 0, 0, 1, -83.15,36.25) ">
<g transform="matrix( 1, 0, 0, 1, 0,0) ">
<use filter="url(#Filter_2)" xlink:href="#Symbol_14_0_Layer0_0_FILL"/>
</g>
</g>

<g transform="matrix( 1, 0, 0, 1, -74.2,-77.1) ">
<g transform="matrix( 1, 0, 0, 1, 0,0) ">
<use filter="url(#Filter_1)" xlink:href="#Symbol_15_0_Layer0_0_FILL"/>
</g>
</g>

<g transform="matrix( 1, 0, 0, 1, 41.15,-73.8) ">
<g transform="matrix( 1, 0, 0, 1, 0,0) ">
<use filter="url(#Filter_2)" xlink:href="#Symbol_16_0_Layer0_0_FILL"/>
</g>
</g>

<g transform="matrix( 0.4244384765625, 0, 0, 0.4244384765625, 5.4,-51.3) ">
<g transform="matrix( 0.866119384765625, -0.49981689453125, 0.49981689453125, 0.866119384765625, -57.35,13) ">
<g transform="matrix( 1, 0, 0, 1, 0,0) ">
<use filter="url(#Filter_3)" xlink:href="#Symbol_74_4_Layer0_0_FILL"/>
</g>
</g>
</g>
</g>
</svg>
