
<svg xmlns="http://www.w3.org/2000/svg" version="1.1" xmlns:xlink="http://www.w3.org/1999/xlink" preserveAspectRatio="none" x="0px" y="0px" width="200px" height="200px" viewBox="0 0 200 200">
<defs>
<g id="Symbol_22_0_Layer0_0_FILL">
<path fill="#52656A" stroke="none" d="
M 14.6 18.5
L 13.9 1.2 13.95 0
Q 10.25 1.6 5.55 5.75 0.25 10.4 0.15 13.15
L 0 18.25
Q 0.8 32.5 0.8 33.5 1.35 37.7 1.5 39.25
L 1.5 39.35
Q 1.5 39.4 1.55 39.45
L 1.55 39.5
Q 1.55 39.55 1.55 39.6
L 1.55 39.65
Q 1.55 39.7 1.55 39.75 1.55 39.8 1.55 39.9
L 1.55 39.95
Q 1.55 40 1.6 40.05
L 1.6 40.1
Q 1.6 40.15 1.65 40.2
L 1.65 40.25
Q 1.65 40.3 1.65 40.35
L 1.65 40.4
Q 1.65 40.45 1.7 40.5
L 1.7 40.55
Q 1.7 40.6 1.75 40.65 1.75 40.7 1.75 40.75 1.75 40.9 1.75 41 1.75 41.15 1.75 41.3 1.75 41.45 1.75 41.6 1.75 41.7 1.75 41.75 1.75 41.8 1.8 41.85
L 1.8 41.9
Q 1.8 41.95 1.85 42
L 1.85 42.05
Q 1.85 42.1 1.85 42.15
L 1.85 42.2
Q 1.85 42.3 1.85 42.35 1.85 42.45 1.85 42.5 1.85 42.6 1.85 42.65 1.85 42.7 1.9 42.75
L 1.9 42.8
Q 1.9 42.9 1.9 42.95 1.9 43.05 1.95 43.2 1.95 43.3 1.95 43.4 1.95 43.45 2 43.5
L 2 43.55
Q 2 43.6 2.05 43.65
L 2.05 43.7
Q 2.1 43.8 2.1 43.85 2.1 43.9 2.15 43.95 2.15 44.15 2.15 44.4 2.15 44.45 2.15 44.55 2.15 44.6 2.2 44.65
L 2.2 44.75
Q 2.2 44.8 2.2 44.85 2.25 44.95 2.25 45 2.25 45.1 2.25 45.15 2.25 45.25 2.25 45.3 2.25 45.35 2.3 45.4
L 2.3 45.45
Q 2.3 45.5 2.35 45.55
L 2.35 45.6
Q 2.35 45.65 2.35 45.7
L 2.35 45.75
Q 2.35 45.85 2.35 45.9 2.4 46 2.4 46.05 2.4 46.1 2.45 46.15 2.45 46.2 2.45 46.25 2.45 46.4 2.45 46.6 2.45 46.8 2.45 47.05 2.45 47.2 2.45 47.4 2.45 47.45 2.5 47.5
L 2.5 47.55
Q 2.5 47.6 2.55 47.65
L 2.55 47.7
Q 2.55 47.75 2.55 47.8
L 2.55 47.85
Q 2.55 47.9 2.55 47.95 2.55 48 2.55 48.1
L 2.55 48.15
Q 2.55 48.2 2.6 48.25
L 2.6 48.3
Q 2.6 48.35 2.65 48.4
L 2.65 48.45
Q 2.65 48.5 2.65 48.55
L 2.65 48.6
Q 2.65 48.65 2.7 48.7
L 2.7 48.75
Q 2.75 48.85 2.8 48.9 2.8 49 2.85 49.05 2.85 49.1 2.9 49.15
L 2.9 49.25
Q 2.9 49.3 2.9 49.35 2.95 49.45 2.95 49.5 3 49.6 3 49.65 3 49.7 3.05 49.75
L 3.05 49.8
Q 3.05 49.85 3.05 49.9 3.1 50 3.1 50.15 3.15 50.5 3.25 50.75 3.35 51.2 3.35 51.6 3.35 51.65 3.35 51.7
L 3.4 51.75
Q 3.4 51.8 3.4 51.85
L 3.4 51.9
Q 3.4 51.95 3.4 52 3.45 52 3.45 52.05 3.45 52.1 3.45 52.15
L 3.45 52.2
Q 3.45 52.25 3.45 52.3 3.5 52.35 3.5 52.4 3.55 52.55 3.6 52.65 3.6 52.75 3.7 52.9
L 3.7 53
Q 3.7 53.05 3.7 53.1 3.75 53.2 3.75 53.25 3.75 53.35 3.75 53.4 3.75 53.5 3.75 53.55 3.75 53.6 3.8 53.65
L 3.8 53.7
Q 3.8 53.75 3.85 53.8 3.8 54.05 3.85 54.3 3.95 54.85 4.1 55.35 4.2 55.75 4.25 56.2 4.3 56.4 4.35 56.6 4.45 57.1 4.55 57.6 4.65 58.05 4.65 58.5 4.7 58.65 4.7 58.8 4.75 59.1 4.85 59.4 4.95 59.75 4.95 60.15 4.95 60.2 4.95 60.25
L 5 60.3
Q 5 60.35 5 60.4
L 5 60.45
Q 5 60.5 5 60.55 5.05 60.55 5.05 60.6 5.05 60.65 5.05 60.7
L 5.05 60.75
Q 5.05 60.8 5.05 60.85 5.1 60.9 5.1 60.95 5.15 61.1 5.15 61.2 5.15 61.3 5.15 61.45
L 5.2 61.5
Q 5.2 61.55 5.2 61.6 5.2 61.65 5.2 61.75 5.2 61.85 5.25 61.95 5.25 62.05 5.25 62.2 5.3 62.25 5.3 62.35 5.3 62.45 5.35 62.6 5.35 62.75 5.35 62.85 5.95 64.9 6.6 67 10.55 79.55 13.35 84.25 18.35 92.5 23.05 96.9 29.9 103.3 40.35 106.5
L 39.5 104.55
Q 39.1 103.2 38.25 98.75 37.45 94.7 37.45 94.45 37.45 94 37.4 93.9 37.1 93.5 35.45 92.05 30.8 88.05 28.75 84.85 27.35 82.05 26.85 81.2 26.55 80.7 25.75 79.8 25.15 79.15 24.7 78.1 24 76.2 23.85 76 23.4 75.45 23.15 74.75
L 22.75 73.9
Q 22.75 73.85 22.35 73.35 22.05 72.9 22.05 72.3 17.85 55.35 17.4 52 15.95 41.45 15.95 41.35 15.4 36.55 15.15 29.3 14.9 22.85 14.6 18.5
M 57.5 22.6
Q 56.05 22.15 54.6 22.05 49.5 16.05 49.35 16.15 49.35 16.35 50.25 20.1 51.15 23.8 51.15 24.35 49.4 28.25 46.45 28.25 41 25.9 40.65 25.9 39.65 25.9 40.05 26.15 40.6 27.1 52.8 36.55 54.2 37.65 55.8 42.45 56.7 45.05 58.05 49.55 61.1 57.75 63.9 65.65 64.65 62.8 64.9 55.5 65 53.65 71.25 48 77.1 42.7 77.55 42.7 77.65 42.7 78 43.1 78.35 42.7 78.35 38.5 78.35 37.6 78.25 35.85 78.1 34 78 33.95 77.2 35.2 77.25 36.95 77.4 38.9 77.45 39.8 77.45 43.05 72.95 44.5 72.6 25.6 70.95 18.5 70.3 19.75 69.65 25.95 62.3 23.95 57.5 22.6
M 57.5 30.65
Q 57.1 29.4 56.1 28.1
L 55.7 27.1
Q 57.95 29.75 59.15 31 60.75 32.6 63.15 35.3
L 63.35 35.6
Q 58.65 33.7 58 32.3 57.8 31.8 57.5 30.65
M 68.55 32.5
L 68.6 32.45
Q 68.05 40.75 68.05 41.75 68.05 45.55 67.5 46.1 66.35 46.4 65.25 47
L 65 46.9
Q 67 39.45 67.1 39.05 68.15 35.1 68.55 32.5 Z"/>

<path fill="#8BA0B0" stroke="none" d="
M 87.65 14.9
Q 86.25 12.85 82.3 13.25 80.35 13.45 76.5 12.9 72.8 12.3 72.3 12.3 72.15 12.3 51.85 9.25 51.85 9.15 37.55 6.1 21.3 2.6 13.95 0
L 13.9 1.2 14.6 18.5
Q 14.9 22.85 15.15 29.3 15.4 36.55 15.95 41.35 15.95 41.45 17.4 52 17.85 55.35 22.05 72.3 22.05 72.9 22.35 73.35 22.75 73.85 22.75 73.9
L 23.15 74.75
Q 23.4 75.45 23.85 76 24 76.2 24.7 78.1 25.15 79.15 25.75 79.8 26.55 80.7 26.85 81.2 27.35 82.05 28.75 84.85 30.8 88.05 35.45 92.05 37.1 93.5 37.4 93.9 37.45 94 37.45 94.45 37.45 94.7 38.25 98.75 39.1 103.2 39.5 104.55
L 40.35 106.5
Q 48.65 103.25 48.75 103.2 50.65 102.15 58.25 95.75 61.85 92.75 67.15 85.3 71.4 79.4 73 76.3 74.75 73 75.15 72.35 75.35 72 79.7 62.2 81.1 59.05 82.4 55.4 83.9 51.2 84.15 50.55
L 84.75 49.05
Q 85 48.3 85.55 45.95
L 87.05 41.45
Q 87.35 40.7 87.8 38.95
L 89.3 34.1
Q 89.45 33.4 89.55 33.15 90.9 30.15 90.9 30.1 91.5 28.15 91.5 24.7 91.5 24.45 90.85 22.8 90.05 20.65 88.85 18.2 88.4 16.05 87.65 14.9
M 54.6 22.05
Q 56.05 22.15 57.5 22.6 62.3 23.95 69.65 25.95 70.3 19.75 70.95 18.5 72.6 25.6 72.95 44.5 77.45 43.05 77.45 39.8 77.4 38.9 77.25 36.95 77.2 35.2 78 33.95 78.1 34 78.25 35.85 78.35 37.6 78.35 38.5 78.35 42.7 78 43.1 77.65 42.7 77.55 42.7 77.1 42.7 71.25 48 65 53.65 64.9 55.5 64.65 62.8 63.9 65.65 61.1 57.75 58.05 49.55 56.7 45.05 55.8 42.45 54.2 37.65 52.8 36.55 40.6 27.1 40.05 26.15 39.65 25.9 40.65 25.9 41 25.9 46.45 28.25 49.4 28.25 51.15 24.35 51.15 23.8 50.25 20.1 49.35 16.35 49.35 16.15 49.5 16.05 54.6 22.05
M 68.6 32.45
L 68.55 32.5
Q 68.15 35.1 67.1 39.05 67 39.45 65 46.9
L 65.25 47
Q 66.35 46.4 67.5 46.1 68.05 45.55 68.05 41.75 68.05 40.75 68.6 32.45
M 56.1 28.1
Q 57.1 29.4 57.5 30.65 57.8 31.8 58 32.3 58.65 33.7 63.35 35.6
L 63.15 35.3
Q 60.75 32.6 59.15 31 57.95 29.75 55.7 27.1
L 56.1 28.1 Z"/>
</g>

<g id="Symbol_9_0_Layer0_0_FILL">
<path fill="#FFCC00" stroke="none" d="
M 37.2 151.35
Q 36.6 151.3 36 151.3 35.4 151.25 34.8 151.25 34.35 151.25 33.95 151.2 33.75 151.2 33.55 151.2 33.35 151.15 33.15 151.15 32.75 151.15 32.35 151.1 31.95 151.1 31.55 151.05 31.3 151.05 31.1 151 30.1 150.95 29.1 150.9 28.7 150.9 28.25 150.85 27.65 150.85 27.05 150.8 26.65 150.8 26.25 150.8 26.05 150.8 25.85 150.75 25.4 150.75 25 150.75 24.6 150.7 24.2 150.7 24 150.7 23.8 150.7 22.55 150.6 21.35 150.55 20.95 150.55 20.55 150.5 20.35 150.5 20.15 150.5 19.7 150.5 19.3 150.45 18.7 150.45 18.1 150.4 17.5 150.4 16.85 150.35 16.45 150.35 16.05 150.3 15.85 150.3 15.65 150.3 15.5650390625 150.27890625 15.45 150.25
L 15.45 150.25
Q 13.7279296875 150.206640625 12 150.15 8.95 150.05 5.9 149.95 2.85 149.85 -0.2 149.8 -3.9 149.7 -7.55 149.55 -11.8 149.4 -16.1 149.3 -19.15 149.25 -22.2 149.15 -24.237890625 149.083203125 -26.3 149
L -29.1 148.9
Q -30.33125 148.916796875 -31.55 148.9 -32.970703125 148.8611328125 -34.4 148.8 -34.7640625 148.7939453125 -35.15 148.75
L -38.35 148.7
Q -38.6115234375 148.7078125 -38.9 148.7
L -39.7 148.65
Q -42.95 148.64453125 -46.2 148.6 -49.85 148.5 -53.55 148.45 -57.2 148.35 -60.85 148.3 -64.5 148.2 -68.2 148.15 -71.85 148.1 -75.5 148 -75.9568359375 147.9966796875 -76.45 148 -76.5875 148 -76.75 148 -77.35 148.05 -77.95 148.05 -78.55 148.05 -79.15 148.05 -80.4 148.05 -81.6 148.1 -82.2 148.1 -82.85 148.1 -83.45 148.15 -84.05 148.15 -84.65 148.15 -85.25 148.15 -86.5 148.2 -87.7 148.2 -88.3 148.25 -88.95 148.25 -89.55 148.25 -90.15 148.3 -90.75 148.3 -91.4 148.35 -92 148.35 -92.6 148.35 -93.2 148.4 -93.8 148.4 -94.45 148.4 -95.05 148.45 -95.45 148.45 -95.85 148.5 -96.25 148.5 -96.65 148.5 -97.3 148.55 -97.9 148.55 -98.5 148.6 -99.1 148.6 -99.7 148.6 -100.35 148.65 -100.95 148.65 -101.55 148.65 -102.15 148.7 -102.75 148.7 -103.4 148.75 -104 148.75 -104.6 148.75 -105.2 148.8 -105.8 148.8 -106.45 148.85 -106.85 148.85 -107.25 148.9 -107.45 148.9 -107.65 148.9 -108.05 148.95 -108.45 148.95 -109.1 148.95 -109.7 149 -110.1 149 -110.5 149.05 -110.7 149.1 -110.9 149.1 -111.1 149.1 -111.3 149.15 -111.7 149.15 -112.15 149.15 -112.75 149.15 -113.35 149.2 -113.75 149.2 -114.15 149.25 -114.55 149.25 -115 149.3 -115.6 149.3 -116.2 149.35 -116.6 149.35 -117 149.4 -117.2 149.4 -117.4 149.4 -117.8 149.45 -118.25 149.45 -118.85 149.45 -119.45 149.5 -119.85 149.5 -120.25 149.55 -120.45 149.55 -120.65 149.55 -121.1 149.55 -121.5 149.6 -122.1 149.6 -122.7 149.65 -123.1 149.65 -123.5 149.7 -123.95 149.7 -124.35 149.75 -124.75 149.75 -125.15 149.8 -125.35 149.8 -125.55 149.8 -125.95 149.85 -126.35 149.85 -127 149.85 -127.6 149.9 -128 149.9 -128.4 149.95 -128.6 149.95 -128.8 149.95 -129.2 150 -129.6 150 -130.25 150 -130.85 150.05 -131.25 150.05 -131.65 150.1 -132.05 150.1 -132.45 150.15 -132.9 150.15 -133.3 150.2 -133.7 150.2 -134.1 150.25 -134.5 150.25 -134.9 150.3 -135.3 150.3 -135.75 150.35 -136.15 150.35 -136.55 150.4 -136.75 150.4 -136.95 150.4 -137.35 150.45 -137.75 150.45 -138.35 150.45 -139 150.5 -139.4 150.5 -139.8 150.55 -140.2 150.55 -140.6 150.6 -141 150.6 -141.4 150.65 -141.85 150.65 -142.25 150.7 -142.65 150.7 -143.05 150.75 -143.25 150.75 -143.45 150.75 -143.85 150.75 -144.25 150.8 -144.7 150.8 -145.1 150.85 -145.5 150.85 -145.9 150.9 -146.3 150.9 -146.7 150.95 -146.9 150.95 -147.1 151 -147.55 151 -147.95 151.05 -148.35 151.05 -148.75 151.1 -148.95 151.1 -149.15 151.1 -149.55 151.1 -149.95 151.15 -150.35 151.15 -150.8 151.2 -151.2 151.2 -151.6 151.25 -152.2 151.25 -152.8 151.3 -153.2291015625 151.31328125 -153.65 151.3
L -153.7 151.3
Q -154.1556640625 151.3384765625 -154.6 151.35 -154.9251953125 151.35 -155.25 151.35 -155.449609375 151.3666015625 -155.65 151.35 -156.082421875 151.3890625 -156.5 151.4 -156.53359375 151.40078125 -156.6 151.4 -156.73359375 151.4083984375 -156.9 151.45 -157.1 151.45 -157.3 151.5 -157.5 151.5 -157.7 151.55 -157.9 151.55 -158.1 151.6 -158.3 151.6 -158.5 151.6 -158.7 151.65 -158.9 151.7 -159.35 151.7 -159.75 151.75 -160.15 151.75 -160.55 151.8 -160.95 151.85 -161.35 151.85 -161.75 151.9 -162.15 151.9 -162.4 151.95 -162.6 151.95 -162.8 151.95 -163 151.95 -163.2 152 -163.4 152 -163.6 152 -163.8 152.05 -164.2 152.1 -164.6 152.1 -165 152.15 -165.45 152.15 -165.65 152.2 -165.85 152.2 -166.05 152.2 -166.25 152.2 -166.65 152.25 -167.05 152.25 -167.45 152.3 -167.85 152.3 -168.05 152.35 -168.3 152.4 -168.5 152.4 -168.7 152.45 -168.9 152.45 -169.1 152.45 -169.3 152.5 -169.5 152.5 -169.7 152.5 -169.9 152.55 -170.3 152.55 -170.7 152.6 -171.1 152.7 -171.55 152.75 -171.95 152.8 -172.35 152.8 -172.75 152.9 -173.15 152.95 -173.55 152.95 -173.95 153 -174.4 153.1 -174.8 153.15 -175.2 153.2 -175.6 153.2 -176 153.25 -176.4 153.3 -176.8 153.3 -177.25 153.35 -177.65 153.35 -178.05 153.4 -178.45 153.45 -178.85 153.45 -179.25 153.5 -179.65 153.55 -180.05 153.6 -180.5 153.6 -180.9 153.65 -181.3 153.7 -181.7 153.7 -182.1 153.75 -182.3 153.75 -182.5 153.8 -182.7 153.85 -182.9 153.9 -183.15 153.9 -183.35 153.9 -183.55 153.95 -183.75 153.95 -183.95 154 -184.15 154.1 -184.55 154.15 -184.95 154.15 -185.0873046875 154.2015625 -185.25 154.25 -157.7767578125 157.4505859375 -107.15 158.9 -86.178515625 159.3064453125 -71.4 159.65 -69.790625 159.6556640625 -68.15 159.7 -66.3 159.7 -64.5 159.75 -62.65 159.8 -60.8 159.8 -59 159.85 -57.15 159.9 -56.1244140625 159.9 -55.1 159.9 -54.8919921875 159.9091796875 -54.7 159.9 -54.0419921875 159.87265625 -53.4 159.85 -53.23984375 159.85 -53.1 159.85 -52.5 159.85 -51.85 159.85 -51.25 159.85 -50.65 159.85 -50.05 159.85 -49.45 159.8 -48.8 159.8 -48.2 159.8 -47.6 159.8 -47 159.75 -46.6 159.75 -46.2 159.7 -45.95 159.7 -45.75 159.7 -45.351171875 159.7 -44.95 159.7 -41.9 159.65 -38.85 159.6 -36.4 159.5 -33.95 159.45 -30.9 159.35 -27.85 159.25 -26.05 159.2 -24.2 159.15 -21.15 159.1 -18.1 159 -13.85 158.85 -9.55 158.7 -5.9 158.6 -2.25 158.45 0.6 158.35 3.45 158.25 3.65 158.25 3.85 158.2 4.5 158.2 5.1 158.15 5.7 158.15 6.3 158.1 7.35 158.05 8.35 158 9.15 158 10 157.95 11.6 157.85 13.25 157.8 15.65 157.65 18.1 157.55 19.95 157.5 21.8 157.45 23 157.4 24.2 157.4 25.85 157.35 27.45 157.25 28.7 157.2 29.9 157.1 31.75 157.05 33.6 156.95 34 156.95 34.4 156.9 34.6 156.9 34.8 156.9 35.2 156.9 35.6 156.85 36.2 156.85 36.85 156.8 37.25 156.8 37.65 156.75 38.05 156.7 38.45 156.7 39.05 156.65 39.7 156.6 40.3 156.55 40.9 156.5 41.5 156.5 42.1 156.45 42.75 156.45 43.35 156.4 43.75 156.4 44.15 156.35 44.35 156.35 44.55 156.35 44.75 156.35 44.95 156.3 45.4 156.3 45.8 156.25 46.2 156.25 46.6 156.2 46.8 156.2 47 156.2 47.2 156.2 47.4 156.15 47.8 156.15 48.2 156.15 48.85 156.1 49.45 156.05 49.85 156.05 50.25 156 50.45 156 50.65 156 51.05 156 51.5 155.95 51.9 155.95 52.3 155.9 52.5 155.9 52.7 155.9 53.1 155.9 53.5 155.85 54.1 155.85 54.75 155.8 55.15 155.8 55.55 155.75 55.95 155.75 56.35 155.7 56.75 155.7 57.2 155.65 57.6 155.65 58 155.6 58.4 155.6 58.8 155.55 59 155.55 59.2 155.55 59.4 155.55 59.6 155.5 59.8 155.5 60 155.5 60.25 155.45 60.45 155.45 60.65 155.4 60.85 155.4 61.05 155.4 61.25 155.35 61.45 155.35 61.65 155.35 61.85 155.3 62.05 155.3 62.45 155.25 62.85 155.2 63.3 155.2 63.7 155.15 63.9 155.15 64.1 155.15 64.3 155.15 64.5 155.1 64.7 155.1 64.9 155.1 65.1 155.05 65.3 155.05 65.5 155 65.7 154.9 66.15 154.9 66.55 154.85 66.95 154.85 67.35 154.8 67.75 154.8 68.15 154.75 68.257421875 154.7232421875 68.35 154.7 68.657421875 154.6865234375 68.95 154.65 69.4 154.65 69.8 154.6 70 154.6 70.2 154.6 70.4 154.6 70.6 154.55 70.8 154.55 71 154.55 71.2 154.5 71.4 154.5 71.6 154.45 71.8 154.4 72.05 154.4 72.25 154.35 72.45 154.35 72.65 154.35 72.85 154.3 73.05 154.25 73.25 154.2 73.45 154.2 73.65 154.15 73.85 154.15 74.05 154.1 74.25 154 74.45 153.95 74.65 153.95 74.85 153.9 75.1 153.9 75.5 153.85 75.9 153.8
L 75.9 153.75
Q 75.7 153.75 75.5 153.75 75.3 153.7 75.1 153.7 74.65 153.65 74.25 153.65 74.05 153.65 73.85 153.6 73.65 153.6 73.45 153.6 73.05 153.55 72.65 153.55 72.474609375 153.55 72.3 153.55 72.4697265625 153.4951171875 72.65 153.45 72.45 153.45 72.25 153.45 72.25 153.4 72.2 153.4 72 153.35 71.8 153.35 71.6 153.35 71.4 153.35 71.2 153.3 71 153.3 70.8 153.25 70.6 153.25 70.4 153.25 70.2 153.25 70 153.2 69.8 153.2 69.6 153.15 69.4 153.15 68.95 153.15 68.55 153.1 68.15 153.1 67.75 153.05 67.35 153.05 66.95 153 66.55 153 66.1 152.95 65.9 152.95 65.7 152.95 65.3 152.9 64.9 152.9 64.3 152.9 63.7 152.85 63.05 152.8 62.45 152.8 62.05 152.75 61.65 152.7 61.45 152.65 61.25 152.65 61.05 152.65 60.85 152.65 60.4 152.6 60 152.6 59.4 152.6 58.8 152.55 58.4 152.55 58 152.5 57.55 152.5 57.15 152.45 56.75 152.45 56.35 152.4 56.15 152.4 55.95 152.4 55.55 152.35 55.15 152.35 54.5 152.3 53.9 152.3 53.3 152.3 52.7 152.25 52.51875 152.25 52.35 152.25
L 52.3 152.25
Q 51.25 152.15 50.25 152.1 49.85 152.1 49.45 152.05 49.05 152.05 48.6 152 48.4 152 48.2 152 48 151.95 47.8 151.95 47.4 151.95 47 151.9 46.6 151.9 46.2 151.85 45.95 151.85 45.75 151.85 45.55 151.8 45.35 151.8 44.95 151.8 44.55 151.75 43.95 151.75 43.35 151.7 42.7 151.7 42.1 151.65 41.7 151.65 41.3 151.6 40.9 151.55 40.5 151.5 39.25 151.5 38.05 151.4 37.65 151.4 37.2 151.35
M -88.55 148.95
Q -89.110546875 148.95 -90.25 148.95 -89.7869140625 148.95 -89.35 148.95 -88.75 148.9 -88.1 148.9 -87.5 148.9 -86.9 148.85 -86.525 148.85 -86.15 148.85 -88.1 148.95 -88.55 148.95 Z"/>
</g>
</defs>

<g transform="matrix( 1, 0, 0, 1, 100,100) ">
<g transform="matrix( 1, 0, 0, 1, -39.05,-49.9) ">
<g transform="matrix( 1, 0, 0, 1, 0,0) ">
<use xlink:href="#Symbol_22_0_Layer0_0_FILL"/>
</g>
</g>

<g transform="matrix( 0.03802490234375, -0.0365447998046875, 0.096343994140625, 0.100250244140625, 51.1,-69.3) ">
<g transform="matrix( 1, 0, 0, 1, 0,0) ">
<use xlink:href="#Symbol_9_0_Layer0_0_FILL"/>
</g>
</g>

<g transform="matrix( 0.0252685546875, -0.0462799072265625, 0.12200927734375, 0.066650390625, 32.6,-66.55) ">
<g transform="matrix( 1, 0, 0, 1, 0,0) ">
<use xlink:href="#Symbol_9_0_Layer0_0_FILL"/>
</g>
</g>

<g transform="matrix( 0.0501861572265625, -0.0161895751953125, 0.042694091796875, 0.1323089599609375, 61.3,-58) ">
<g transform="matrix( 1, 0, 0, 1, 0,0) ">
<use xlink:href="#Symbol_9_0_Layer0_0_FILL"/>
</g>
</g>
</g>
</svg>
