<svg width="522" height="78" viewBox="0 0 522 78" fill="none" xmlns="http://www.w3.org/2000/svg">
<g filter="url(#filter0_i_804_345)">
<path d="M21.4127 13.6377C28.7812 4.9851 39.5742 0 50.9392 0H470.879C482.244 0 493.037 4.9851 500.405 13.6377V13.6377C512.746 28.1293 512.746 49.435 500.405 63.9266V63.9266C493.037 72.5793 482.244 77.5644 470.879 77.5644H50.9392C39.5742 77.5644 28.7812 72.5793 21.4127 63.9266V63.9266C9.07182 49.435 9.07183 28.1294 21.4127 13.6377V13.6377Z" fill="#444444"/>
</g>
<path d="M50.9392 2H470.879C481.658 2 491.894 6.72801 498.883 14.9344C510.587 28.6787 510.587 48.8856 498.883 62.6299C491.894 70.8363 481.658 75.5644 470.879 75.5644H50.9392C40.1603 75.5644 29.9239 70.8363 22.9354 62.6299C11.2309 48.8856 11.2309 28.6787 22.9354 14.9344C29.9239 6.72802 40.1603 2 50.9392 2Z" stroke="url(#paint0_linear_804_345)" stroke-width="4"/>
<defs>
<filter id="filter0_i_804_345" x="12.1571" y="0" width="497.504" height="80.8582" filterUnits="userSpaceOnUse" color-interpolation-filters="sRGB">
<feFlood flood-opacity="0" result="BackgroundImageFix"/>
<feBlend mode="normal" in="SourceGraphic" in2="BackgroundImageFix" result="shape"/>
<feColorMatrix in="SourceAlpha" type="matrix" values="0 0 0 0 0 0 0 0 0 0 0 0 0 0 0 0 0 0 127 0" result="hardAlpha"/>
<feOffset dy="3.29389"/>
<feGaussianBlur stdDeviation="12.3521"/>
<feComposite in2="hardAlpha" operator="arithmetic" k2="-1" k3="1"/>
<feColorMatrix type="matrix" values="0 0 0 0 0 0 0 0 0 0 0 0 0 0 0 0 0 0 0.5 0"/>
<feBlend mode="normal" in2="shape" result="effect1_innerShadow_804_345"/>
</filter>
<linearGradient id="paint0_linear_804_345" x1="260.909" y1="0" x2="260.909" y2="77.5644" gradientUnits="userSpaceOnUse">
<stop offset="0.0338542" stop-color="#30E92D"/>
<stop offset="1" stop-color="#91F1B8"/>
</linearGradient>
</defs>
</svg>
