<svg width="522" height="78" viewBox="0 0 522 78" fill="none" xmlns="http://www.w3.org/2000/svg">
<g filter="url(#filter0_i_1133_1142)">
<path d="M21.5035 13.6377C28.872 4.9851 39.6651 0 51.03 0H470.97C482.335 0 493.128 4.9851 500.496 13.6377V13.6377C512.837 28.1293 512.837 49.435 500.496 63.9266V63.9266C493.128 72.5793 482.335 77.5644 470.97 77.5644H51.03C39.665 77.5644 28.872 72.5793 21.5035 63.9266V63.9266C9.16264 49.435 9.16265 28.1294 21.5035 13.6377V13.6377Z" fill="url(#paint0_linear_1133_1142)"/>
</g>
<path d="M51.03 2.5H470.97C481.602 2.5 491.699 7.16374 498.593 15.2586C510.138 28.8161 510.138 48.7483 498.593 62.3057C491.699 70.4006 481.602 75.0644 470.97 75.0644H51.03C40.3976 75.0644 30.3004 70.4006 23.4069 62.3057C11.8615 48.7483 11.8615 28.8161 23.4069 15.2586C30.3004 7.16375 40.3977 2.5 51.03 2.5Z" stroke="url(#paint1_linear_1133_1142)" stroke-width="5"/>
<defs>
<filter id="filter0_i_1133_1142" x="12.2479" y="0" width="497.504" height="80.8583" filterUnits="userSpaceOnUse" color-interpolation-filters="sRGB">
<feFlood flood-opacity="0" result="BackgroundImageFix"/>
<feBlend mode="normal" in="SourceGraphic" in2="BackgroundImageFix" result="shape"/>
<feColorMatrix in="SourceAlpha" type="matrix" values="0 0 0 0 0 0 0 0 0 0 0 0 0 0 0 0 0 0 127 0" result="hardAlpha"/>
<feOffset dy="3.29389"/>
<feGaussianBlur stdDeviation="12.3521"/>
<feComposite in2="hardAlpha" operator="arithmetic" k2="-1" k3="1"/>
<feColorMatrix type="matrix" values="0 0 0 0 0 0 0 0 0 0 0 0 0 0 0 0 0 0 0.5 0"/>
<feBlend mode="normal" in2="shape" result="effect1_innerShadow_1133_1142"/>
</filter>
<linearGradient id="paint0_linear_1133_1142" x1="261" y1="0" x2="261" y2="77.5644" gradientUnits="userSpaceOnUse">
<stop stop-color="#272753"/>
<stop offset="1" stop-color="#272753"/>
</linearGradient>
<linearGradient id="paint1_linear_1133_1142" x1="261" y1="5.81733" x2="261" y2="77.5644" gradientUnits="userSpaceOnUse">
<stop stop-color="#D9AA50"/>
<stop offset="0.5" stop-color="#FCF4D6"/>
<stop offset="1" stop-color="#C09645"/>
</linearGradient>
</defs>
</svg>
