
<svg xmlns="http://www.w3.org/2000/svg" version="1.1" xmlns:xlink="http://www.w3.org/1999/xlink" preserveAspectRatio="none" x="0px" y="0px" width="200px" height="200px" viewBox="0 0 200 200">
<defs>
<filter id="Filter_1" x="-20%" y="-20%" width="140%" height="140%" color-interpolation-filters="sRGB">
<feColorMatrix in="SourceGraphic" type="matrix" values="0 0 0 0 0.18823529411764706 0 0 0 0 0.1803921568627451 0 0 0 0 0.16862745098039217 0 0 0 1 0" result="result1"/>
</filter>

<g id="Symbol_4_15_Layer0_0_FILL">
<path fill="#000000" stroke="none" d="
M -46.95 127.35
Q -41.8 126.55 -40.95 124.8
L -46.95 126.95 -46.95 127.35
M 6 81.95
Q 7.35 82.85 9.95 84.25 12.35 85.55 12.5 85.55 13.15 85.55 13.4 85.35 13.7 85 13.95 84.7 13.1 84.6 6 81.95 Z"/>
</g>

<g id="Symbol_81_19_Layer0_0_FILL">
<path fill="#52656A" stroke="none" d="
M 88.7 284.3
Q 89.7 284.45 91.45 284.6 85.6 283.4 80.6 281.15 76.95 279.5 71.45 265.3 71.1255859375 264.5123046875 68.9 258.15 69.4125 259.7125 69.9 261.25 73.45 272.15 74.15 273.8 78 282.75 88.7 284.3 Z"/>

<path fill="#7C8E9C" stroke="none" d="
M 69.35 120.05
Q 60.3 129.8 51.2 137.7 48.6 140.3 47.65 142.55 46.65 144.95 46.65 148.95 46.65 149.15 46.65 149.4 46.65 149.5 46.65 149.55 46.65 149.65 46.65 149.7 46.65 149.8 46.65 149.85
L 47.6 162.9
Q 48.35 171.4 49.95 183.6 54.15 215.8 59.6 231.45 65.55 248.6 68.55 257.1 68.730859375 257.631640625 68.9 258.15 71.1255859375 264.5123046875 71.45 265.3 76.95 279.5 80.6 281.15 85.6 283.4 91.45 284.6 95.3 285.35 99.5 285.65 105.2 286.05 113.45 286.2 101.65 269.4 96.45 259.4 87.4 241.9 83.95 222.25 74.25 167.85 71.65 145.7 70.45 129.5 69.35 120.05 Z"/>

<path fill="#8BA0B0" stroke="none" d="
M 233.7 130.85
Q 226.1 120.6 224.35 120.6 220.1 120.6 189.7 122.4 159.35 124.15 144.1 124.15 129.2 124.15 103.25 122.75 77.05 121.3 69.35 120.05 70.45 129.5 71.65 145.7 74.25 167.85 83.95 222.25 87.4 241.9 96.45 259.4 101.65 269.4 113.45 286.2
L 155.6 286.9
Q 174.7 286.9 183.25 286.1 200.05 284.55 206.55 279.45 213.8 273.75 218.1 262.8 218.6 261.5 225.95 237.7 231.25 220.6 236 194.9 241.6 164.5 241.6 145.35 241.6 141.5 233.7 130.85 Z"/>
</g>
</defs>

<g transform="matrix( 0.4813690185546875, 0, 0, 0.4813690185546875, 33.75,43.5) ">
<g transform="matrix( 1, 0, 0, 1, 24.35,-25.7) "/>

<g transform="matrix( -1, 0, 0, 1, 253.4,1.35) "/>

<g transform="matrix( 0.4935760498046875, 0, 0, -0.4935760498046875, 51.35,229.35) ">
<g transform="matrix( 1, 0, 0, 1, 0,0) ">
<use filter="url(#Filter_1)" xlink:href="#Symbol_4_15_Layer0_0_FILL"/>
</g>
</g>

<g transform="matrix( 1, 0, 0, 1, 0,0) ">
<use xlink:href="#Symbol_81_19_Layer0_0_FILL"/>
</g>
</g>
</svg>
