
<svg xmlns="http://www.w3.org/2000/svg" version="1.1" xmlns:xlink="http://www.w3.org/1999/xlink" preserveAspectRatio="none" x="0px" y="0px" width="200px" height="200px" viewBox="0 0 200 200">
<defs>
<g id="Symbol_81_21_Layer0_0_FILL">
<path fill="#8BA0B0" fill-opacity="0.2" stroke="none" d="
M 95.55 259.2
Q 93.15 259.1 81.65 258.15 71.05 257.25 69.35 257.25 67.1 257.25 59.85 265.3 52.7 273.3 52.7 275.55 52.7 279.55 55.95 281.05 58 282 64.55 282.7 66.3 282.9 71.6 283.45 78.35 284.15 89.8 284.95 125.15 286.6 125.8 286.6 128.3 286.65 143 286.4 151.2 286.35 154.45 286.55 152.2703125 286.8890625 151.7 286.9 153.2826171875 286.8990234375 156.35 286.8 156.498828125 286.849609375 156.5 286.9 156.5 286.849609375 156.5 286.8 163.55 286.5 178.5 285.55 201.05 284.15 211.85 283.05 236.7 280.55 236.7 274.45 236.7 270.3 230.3 263.15 227.25 259.75 224.6 257.95 223.9 257.7 223.15 257.55 222.7 257.55 222.25 257.5 221.4 257.45 220.55 257.4 220.05 257.45 219.55 257.55 215.7 258.3 211.85 258.9 211.45 258.85 211.05 258.8 210.5 258.9 209.9 259 208.4 259.2 205.7 259.3 202.2 259.35 199.9 259.4 151.15 261.55 142.7 261.35 141.1 261.4 127.4 260.75 97.6 259.3 95.55 259.2 Z"/>
</g>
</defs>

<g transform="matrix( 0.4813690185546875, 0, 0, 0.4813690185546875, 33.75,43.5) ">
<g transform="matrix( 1, 0, 0, 1, 24.35,-25.7) "/>

<g transform="matrix( -1, 0, 0, 1, 253.4,1.35) "/>

<g transform="matrix( 0.4935760498046875, 0, 0, -0.4935760498046875, 51.35,229.35) "/>

<g transform="matrix( 1, 0, 0, 1, 0,0) ">
<use xlink:href="#Symbol_81_21_Layer0_0_FILL"/>
</g>
</g>
</svg>
