
<svg xmlns="http://www.w3.org/2000/svg" version="1.1" xmlns:xlink="http://www.w3.org/1999/xlink" preserveAspectRatio="none" x="0px" y="0px" width="200px" height="200px" viewBox="0 0 200 200">
<defs>
<g id="Symbol_81_20_Layer0_0_FILL">
<path fill="#8BA0B0" fill-opacity="0.6" stroke="none" d="
M 143.65 223.7
Q 143.55 223.7 143.4 223.7 132.8 223.6 101.35 221.65 70.25 219.6 69.35 219.6 67.3 219.6 56.9 230.9 46.75 242 46.75 243.3 46.75 269.75 49.75 275.85 51.1 278.7 53.95 279.8 55.75 280.55 60.5 281.6 99.45 285.95 101.4 286 105.1 286.2 130.05 286.25 146.55 286.35 149.95 286.7 149.36875 286.89375 149.15 286.9 149.9572265625 286.9 150.85 286.9 174.2 286.7 225.05 281.75 231.65 281.15 234.75 278.7 238.1 276.05 239.3 269.9 240.4 264.55 240.55 263.1 241.6 255.15 241.6 243.3 241.6 240.7 233.7 230.3 225.9 220.05 224.35 220.05 217.9 220.05 204 221.1 186.8 222.35 181.2 222.6 148.85 223.6 144.2 223.7 143.9 223.7 143.65 223.7 Z"/>
</g>
</defs>

<g transform="matrix( 0.4813690185546875, 0, 0, 0.4813690185546875, 33.75,43.5) ">
<g transform="matrix( 1, 0, 0, 1, 24.35,-25.7) "/>

<g transform="matrix( -1, 0, 0, 1, 253.4,1.35) "/>

<g transform="matrix( 0.4935760498046875, 0, 0, -0.4935760498046875, 51.35,229.35) "/>

<g transform="matrix( 1, 0, 0, 1, 0,0) ">
<use xlink:href="#Symbol_81_20_Layer0_0_FILL"/>
</g>
</g>
</svg>
