
<svg xmlns="http://www.w3.org/2000/svg" version="1.1" xmlns:xlink="http://www.w3.org/1999/xlink" preserveAspectRatio="none" x="0px" y="0px" width="200px" height="200px" viewBox="0 0 200 200">
<defs>
<filter id="Filter_1" x="-20%" y="-20%" width="140%" height="140%" color-interpolation-filters="sRGB">
<feColorMatrix in="SourceGraphic" type="matrix" values="0.9 0 0 0 0.10196078431372549 0 0.9 0 0 0.10196078431372549 0 0 0.9 0 0.10196078431372549 0 0 0 0.14 0" result="result1"/>
</filter>

<filter id="Filter_2" x="-20%" y="-20%" width="140%" height="140%" color-interpolation-filters="sRGB">
<feColorMatrix in="SourceGraphic" type="matrix" values="0.32 0 0 0 0.6784313725490196 0 0.32 0 0 0.40784313725490196 0 0 0.32 0 0 0 0 0 1 0" result="result1"/>
</filter>

<g id="Symbol_14_0_Layer0_0_FILL">
<path fill="#FFFFFF" stroke="none" d="
M 0.6 3.05
L 0.25 3.1
Q 4.75 14.85 7.75 21.6 9.2 24.9 9.75 25.95 9.75 27.15 14.45 33.15 20.35 40.8 27.4 45.75 30.25 37.25 30.5 33.75
L 30.3 33.85
Q 25.2 34.3 24.15 34.45 24.95 32.45 28.95 27.45 33.6 21.7 36.15 17.1
L 11.15 13.45 20 1.35
Q 15.15 2.15 0.6 3.05 Z"/>

<path fill="#999999" stroke="none" d="
M 36.75 22.35
Q 37.05 21.45 38.55 18.35 39.75 15.05 40.25 14.45 35 13.55 32.65 13.1 29.45 12.5 18.15 10.1 19.45 7.8 21.05 5.25 23.1 2.05 24.3 0 3.5 1.9 0.75 2.35
L 0.7 2.35
Q 0.65 2.35 0.6 2.35 0.55 2.35 0.5 2.35 0.25 2.4 0.05 2.5 0 2.6 0 2.8
L 0.15 2.9
Q 0.4 3.05 0.6 3.05 15.15 2.15 20 1.35
L 11.15 13.45 36.15 17.1
Q 33.6 21.7 28.95 27.45 24.95 32.45 24.15 34.45 25.2 34.3 30.3 33.85
L 30.5 33.75
Q 30.25 37.25 27.4 45.75 28.25 45.6 33.1 40.75 33.1 39.95 33.4 38.2 33.7 36.35 34.05 35.1 35.1 31.15 35.25 30.45 35 30.5 35 30.45 34.45 30.4 32.65 30.75
L 32.85 30.2
Q 33.85 28.8 34.35 27.75 34.75 26.7 35.1 26.05 35.9 24.55 36.75 22.35 Z"/>
</g>

<g id="Symbol_16_0_Layer0_0_FILL">
<path fill="#999999" stroke="none" d="
M 16.75 30.9
Q 16.25 32.4 14.8 35.5
L 16.9 35.5
Q 23.4 35.75 29.75 33.85 34.75 32.35 36.5 30.75 17.6 30.95 16.75 30.9
M 22.1 19.25
L 24 13.45
Q 17.85 14.5 8.95 17 4.45 18.25 0.2 19.55 1.1 21.2 1.25 21.5 1.6 22.2 1.9 22.9 2.1 23.25 2.5 23.25 6.15 22.95 10.35 22.25 18.7 20.95 22.1 19.25 Z"/>

<path fill="#666666" stroke="none" d="
M 20.7 22.45
Q 21.9 19.75 22.05 19.3 20.6 21.65 20 23.2 19.65 24.1 19.05 25.9 19.45 25.25 20.7 22.45 Z"/>

<path fill="#FFFFFF" stroke="none" d="
M 22.05 19.3
Q 21.9 19.75 20.7 22.45 19.45 25.25 19.05 25.9
L 16.75 30.9
Q 17.6 30.95 36.5 30.75
L 37.15 30.75 37.85 26.4
Q 38.25 23.55 38.4 23.2 39.05 21.6 39.3 20.5 39.7 18.25 39.7 13.7 39.7 10.7 37.7 7.25 36 4.25 32.25 0 10.2 0.8 8.9 0.75 5.25 8.65 3.25 12.9 2.75 13.9 0.2 19.05
L 0.1 19.25 0.2 19.55
Q 4.45 18.25 8.95 17 17.85 14.5 24 13.45
L 22.1 19.25 22.05 19.3 Z"/>
</g>

<g id="Symbol_75_3_Layer1_0_FILL">
<path fill="#FFFF00" stroke="none" d="
M 23.75 107.45
Q 23.75 107.4 23.7 107.35 23.7 107.3 23.65 107.25 23.65 107.15 23.65 107.1
L 23.6 107.05 23.6 107
Q 21.75 99.55 15.9 93.7 7.45 85.25 -4.55 85.25 -14.55 85.25 -22.15 91.15 -23.3 91.9 -24.4 92.9 -26.6 94.9 -28.25 97.1 -28.25 97.15 -28.3 97.2 -28.35 97.3 -28.4 97.35 -28.45 97.4 -28.5 97.45 -28.5 97.5 -28.55 97.55 -28.6 97.65 -28.65 97.7 -28.7 97.75 -28.7 97.8
L -28.7 97.85
Q -28.75 97.9 -28.75 97.95 -28.75 98 -28.8 98.05 -28.85 98.1 -28.85 98.15
L -28.9 98.2
Q -28.9 98.25 -28.95 98.25 -29 98.35 -29.05 98.4
L -29.05 98.5
Q -29.1 98.55 -29.1 98.65 -29.15 98.7 -29.15 98.75 -33.55 105.6 -33.55 114.25 -33.55 126.25 -25.1 134.7 -16.55 143.25 -4.55 143.25 4.4 143.25 11.3 138.5 13.6 137.25 15.5 135.2 15.65 134.95 15.9 134.7 20.95 129.7 23.05 123.5 23.05 123.45 23.1 123.4 23.1 123.35 23.15 123.3 23.2 123.2 23.2 123.15 23.25 123.1 23.3 123.05 23.3 123 23.3 122.95 23.35 122.85 23.4 122.8 23.4 122.75 23.45 122.7 23.5 122.65 23.5 122.6 23.55 122.5 23.55 122.45 23.55 122.4 23.6 122.35 23.6 122.3 23.65 122.2 23.65 122.15 23.65 122.1 23.65 122.05 23.7 122 23.75 121.95 23.8 121.85 23.8 121.8 23.85 121.75 23.85 121.7 23.9 121.65 23.95 121.6 23.95 121.5 23.95 121.45 24 121.4 24 121.35 24 121.3 24.05 121.25 24.05 121.15 24.1 121.1 24.1 121.05 24.1 121 24.15 120.95 24.15 120.9 24.2 120.8 24.2 120.75 24.2 120.7 24.2 120.65 24.2 120.6 24.2 120.5 24.2 120.45 24.25 120.4 24.25 120.35 24.3 120.3 24.3 120.25 24.3 120.15 24.35 120.1 24.35 120.05 24.35 120 24.35 119.95 24.35 119.9 24.35 119.8 24.35 119.75 24.4 119.7 24.4 119.65 24.45 119.6 24.45 119.55 24.45 119.45 24.5 119.4 24.5 119.35 24.55 119.3 24.55 119.25 24.55 119.2 24.55 119.1 24.55 119.05 24.55 119 24.55 118.95 24.6 118.9 24.6 118.85 24.6 118.75 24.6 118.7 24.6 118.65 24.6 118.6 24.6 118.55 24.6 118.45 24.6 118.4 24.6 118.35 24.65 118.3 24.7 118.25 24.7 118.2 24.75 118.1 24.75 118.05 24.75 118 24.75 117.95 24.75 117.9 24.75 117.85 24.75 117.75 24.75 117.7 24.75 117.65 24.8 117.6 24.8 117.55 24.8 117.5 24.8 117.4 24.8 117.35 24.8 117.3 24.8 117.25 24.8 117.2 24.8 117.15 24.8 117.05 24.8 117 24.8 116.95 24.8 116.9 24.85 116.85 24.85 116.8 24.85 116.7 24.85 116.65 24.85 116.6 24.85 116.55 24.85 116.5 24.85 116.4 24.85 116.35 24.85 116.3 24.85 116.25 24.85 116.2 24.85 116.15 24.85 116.05 24.85 116 24.85 115.95 24.85 115.9 24.85 115.85 24.85 115.8 24.85 115.7 24.85 115.65 24.85 115.6 24.85 115.55 24.85 115.5 24.85 115.45 24.85 115.35 24.85 115.3 24.85 115.25 24.85 115.2 24.85 115.15 24.85 115.1 24.85 115 24.85 114.95 24.85 114.9 24.85 114.85 24.85 114.8 24.85 114.75 24.85 114.65 24.85 114.6 24.85 114.55 24.85 114.5 24.8 114.45 24.8 114.35 24.8 114.3 24.8 114.25 24.8 114.2 24.8 114.15 24.8 114.1 24.8 114 24.8 113.95 24.8 113.9 24.8 113.85 24.8 113.8 24.8 113.75 24.75 113.65 24.75 113.6 24.75 113.55 24.75 113.5 24.75 113.45 24.75 113.4 24.75 113.3 24.7 113.25 24.7 113.2 24.7 113.15 24.7 113.1 24.7 113.05 24.7 112.95 24.7 112.9 24.7 112.85 24.7 112.8 24.7 112.75 24.7 112.7 24.7 112.6 24.7 112.55 24.7 112.5 24.7 112.45 24.7 112.4 24.7 112.3 24.7 112.25 24.7 112.2 24.7 112.15 24.7 112.1 24.7 112.05 24.7 111.95 24.7 111.9 24.7 111.85 24.7 111.8 24.7 111.75 24.7 111.7 24.7 111.6 24.7 111.55 24.7 111.5 24.7 111.45 24.7 111.4 24.7 111.35 24.7 111.25 24.7 111.2 24.65 111.15 24.65 111.1 24.65 111.05 24.65 111 24.65 110.9 24.65 110.85 24.65 110.8 24.6 110.75 24.6 110.7 24.55 110.6 24.55 110.55 24.55 110.5 24.5 110.45 24.5 110.4 24.5 110.35 24.5 110.25 24.45 110.2 24.45 110.15 24.45 110.1 24.45 110.05 24.45 110 24.4 109.9 24.4 109.85 24.35 109.8 24.35 109.75 24.35 109.7 24.35 109.65 24.35 109.55 24.3 109.5 24.3 109.45 24.3 109.4 24.3 109.35 24.3 109.3 24.3 109.2 24.3 109.15 24.25 109.1 24.25 109.05 24.25 109 24.25 108.95 24.2 108.85 24.2 108.8 24.2 108.75 24.15 108.7 24.15 108.65 24.1 108.55 24.05 108.5 24.05 108.45 24.05 108.4 24.05 108.35 24 108.3 24 108.2 24 108.15 23.95 108.1 23.95 108.05 23.95 108 23.9 107.95 23.9 107.85 23.85 107.8 23.85 107.75 23.85 107.7 23.8 107.65 23.75 107.6 23.75 107.5 23.75 107.45 Z"/>
</g>

<g id="Symbol_74_2_Layer0_0_FILL">
<path fill="#FFFFFF" stroke="none" d="
M 1.45 108.75
Q 2.75 108.75 5.75 109.4 4.35 106.3 1.35 104.55 -1.45 102.85 -4.6 102.85 -9.4 102.85 -12.65 106.15 -15.95 109.45 -15.95 114.2 -15.95 116.55 -14.9 119.2 -13.8 121.85 -12.65 122.2
L -11.85 122.95
Q -13.1 117.95 -8.85 113.4 -4.55 108.75 1.45 108.75 Z"/>
</g>
</defs>

<g transform="matrix( 1, 0, 0, 1, 100,100) ">
<g transform="matrix( 1, 0, 0, 1, -81.7,34.9) ">
<g transform="matrix( 1, 0, 0, 1, 0,0) ">
<use filter="url(#Filter_1)" xlink:href="#Symbol_14_0_Layer0_0_FILL"/>
</g>
</g>

<g transform="matrix( 1, 0, 0, 1, 39.9,-72.6) ">
<g transform="matrix( 1, 0, 0, 1, 0,0) ">
<use filter="url(#Filter_1)" xlink:href="#Symbol_16_0_Layer0_0_FILL"/>
</g>
</g>

<g transform="matrix( 0.4244384765625, 0, 0, 0.4244384765625, 5.4,-51.3) ">
<g transform="matrix( 1, 0, 0, 1, 0,0) ">
<use xlink:href="#Symbol_75_3_Layer1_0_FILL"/>
</g>

<g transform="matrix( 0.866119384765625, -0.49981689453125, 0.49981689453125, 0.866119384765625, -57.35,13) ">
<g transform="matrix( 1, 0, 0, 1, 0,0) ">
<use filter="url(#Filter_2)" xlink:href="#Symbol_74_2_Layer0_0_FILL"/>
</g>
</g>
</g>
</g>
</svg>
