
<svg xmlns="http://www.w3.org/2000/svg" version="1.1" xmlns:xlink="http://www.w3.org/1999/xlink" preserveAspectRatio="none" x="0px" y="0px" width="200px" height="200px" viewBox="0 0 200 200">
<defs>
<g id="Symbol_23_0_Layer0_0_FILL">
<path fill="#52656A" stroke="none" d="
M 7.85 4.75
Q 7.3 4.8 7.05 5.4 5.95 6.8 5.4 7.65 4.95 8.1 3.8 10.1 2.3 11.95 1.95 12.8 1.55 13.15 0.65 14.95 0.05 15.75 0.05 16.55
L 0.05 16.7 0 16.7 0.05 16.8 0.1 17.1
Q 0 17 0 17.1
L 0.05 17.2 0.05 17.25 0.1 17.25 0.15 17.95 0.25 18.05 0.25 18.3
Q 0.15 18.25 0.25 18.35
L 0.3 18.4 0.3 18.45 0.25 18.5 0.25 18.55
Q 0.1 18.5 0.25 18.6
L 0.25 19.05
Q 0.2 18.95 0.2 19.15
L 0.25 19.15 0.25 19.35
Q 0.25 19.4 0.3 19.5
L 0.4 20.05 0.45 20.1
Q 0.45 20.15 0.45 20.2
L 0.55 20.35 0.6 20.4 0.6 20.85 0.65 21 0.65 21.45 0.7 21.55 0.7 21.75
Q 0.5 21.6 0.7 21.8
L 0.8 22.2 0.8 22.3 0.85 22.35 0.85 22.4
Q 0.7 22.35 0.8 22.5
L 0.9 22.65 0.9 22.95
Q 0.75 22.9 0.9 23
L 0.9 23.1
Q 0.75 23.05 0.9 23.25
L 0.95 23.35
Q 0.856640625 23.2111328125 1 23.45
L 1 23.6
Q 0.9 23.5 1 23.65
L 1 23.75
Q 0.9 23.8 1 23.85
L 1 23.95
Q 0.8 23.85 1 24
L 1.1 24.25
Q 1 24.25 1.1 24.3 0.95 24.3 1.1 24.45
L 1.15 24.75 1.2 24.8 1.25 25.05
Q 1.1 24.95 1.25 25.15
L 1.25 25.35 1.3 25.4 1.3 25.7
Q 1.15 25.6 1.3 25.8 1.25 25.85 1.35 26.1 1.2 26.05 1.45 26.25 1.3 26.25 1.45 26.3
L 1.5 26.35
Q 1.4 26.35 1.5 26.45 1.4 26.6 1.55 26.9 1.4 26.9 1.65 27.3 1.45 27.3 1.65 27.5 1.6 27.65 1.7 27.9 1.6 27.9 1.7 28.1 1.55 28.1 1.75 28.5 1.65 28.6 1.9 28.85 1.7 28.8 1.85 28.95
L 1.9 29
Q 1.8 29.05 1.9 29.45 1.8 29.3 1.9 29.6 1.8 29.6 2 29.95
L 2.05 30.05 2.1 30.05
Q 2.05078125 30.0513671875 2.15 30.2
L 2.15 30.25
Q 2 30.3 2.1 30.6 2.05 30.6 2.2 30.8 2.2 30.85 2.2 30.95
L 2.3 31.05
Q 2.2 31.05 2.35 31.3 2.2 31.25 2.4 31.4
L 2.45 31.55 2.45 31.6 2.5 31.65 2.5 31.75
Q 2.35 31.75 2.45 31.95 2.4 31.95 2.5 32.25 2.45 32.25 2.55 32.5
L 2.55 32.9
Q 2.55 32.95 2.7 33.2
L 2.75 33.3 2.7 33.35
Q 2.7 33.45 2.8 33.7 2.7 33.7 2.85 33.9
L 2.9 34 2.9 34.05
Q 2.85 34.05 2.9 34.2 2.85 34.2 2.95 34.35
L 2.95 34.45 3 34.5
Q 2.8 34.5 3 34.6
L 3.05 34.65
Q 2.85 34.55 3.05 34.75 3 34.8 3.05 34.95
L 3.1 35.05 3.1 35.15
Q 3 35.25 3.1 35.55 3.15 35.55 3.25 35.85
L 3.3 35.95 3.3 36
Q 3.2 35.95 3.3 36.3
L 3.4 36.45
Q 3.35 36.5 3.4 36.6 3.35 36.55 3.45 36.8 3.35 36.8 3.45 36.95 3.4 36.95 3.5 37.05
L 3.6 37.15 3.6 37.45
Q 3.55 37.45 3.6 37.55
L 3.6 37.7 3.7 37.8 3.7 37.85
Q 3.6 37.85 3.7 38 3.65 38.05 3.75 38.2 3.7 38.2 3.85 38.35 3.8 38.35 3.85 38.45 3.8 38.6 4 38.85 3.9 38.9 4.05 39.15 4 39.15 4.15 39.4 4.1 39.55 4.3 39.95
L 4.35 40.05
Q 5 43.45 6.25 47.2 6.85 49.6 8.95 55.55 9.9 58.9 11.65 63.1 13.5 67.65 14.2 69 14.15 69.05 14.25 69.15 14.15 69.15 14.3 69.3
L 14.3 69.35 14.5 69.65
Q 14.65 69.95 14.95 70.45 14.85 70.5 15.05 70.7 14.95 70.75 15.15 70.9 15.05 70.9 15.15 71.05
L 15.3 71.2 15.35 71.3
Q 15.25 71.35 15.35 71.55
L 15.5 71.75 15.5 71.8 15.65 71.95
Q 15.5 71.95 15.7 72.2
L 15.9 72.6
Q 15.95 72.85 16.25 73.2 17.3 75.05 18.55 77.15 18.9 77.65 19.8 78.95 20.4 79.8 21.2 80.65 21.25 80.65 21.55 81.15
L 21.5 81.2
Q 21.65 81.25 21.9 81.5 21.9 81.6 22.05 81.75
L 22.05 81.8 22.2 81.9 22.3 81.95 22.35 82.05
Q 22.55 82.35 22.95 82.6 23.35 83.1 23.95 83.75 23.95 83.8 24.25 84.05 24.3 84.2 24.65 84.45
L 24.75 84.55
Q 24.95 84.65 25.9 85.6 25.95 85.7 27.45 87.4 28.05 87.9 29.6 89.25 31.3 90.55 31.75 90.95 31.85 91.15 33.7 92.4 34.65 92.9 36.95 94.5 38.45 95.2 39.6 95.8 40.1 95.9 41.7 96.7 41.7 96.6 41.85 96.6 41.75 96.4 41.35 95.9 41.05 95.6 41.05 95 41.05 94.65 39.6 90.45 38.15 86.2 38.05 85.95 38.1 85.2 37.7 84.75 37.5 84.5 33.35 80.55 41.95 78.15 48.65 76.75 51.7 76 54.6 73.6
L 53.2 74.05
Q 51 75.35 47.75 76.1 45.1 76.65 42.85 76.65 42.35 76.65 41.35 74.45 40.4 72.4 40.1 70.95 39.55 68.35 39.1 61.95
L 38.9 62.15
Q 38.85 62.4 38.55 65.8 38.35 67.6 38.2 68.1 35.05 65.8 33.6 64.75 31.05 63 29.9 63 29.75 63 25.1 66.45
L 25.1 64.05
Q 25.3 60 25.35 58.75 25.45 56.85 25.3 56.35
L 25.15 56.35
Q 24.05 57.45 23.35 61.5 22.75 65.1 22.95 66.05
L 22.65 65.55
Q 20.55 63 16.4 47.5 12.45 32.65 11.1 23.2 10.75 20.65 10.15 17.85 9.95 16.6 9.3 13.95 8.55 10.1 8.55 9.45 8.55 8.45 7.85 4.75
M 20.85 74.1
Q 20.85 73.1 21.2 66.65
L 21.25 66.65
Q 21.8 69 22.65 73.3 23.4 77.35 23.45 78.1 23.4 78.1 23.35 77.8 23.3 77.4 22.75 77.4 22.15 77.4 21.65 76.85 20.85 76 20.85 74.1
M 31.35 83.8
L 31.1 84 27.45 84
Q 27.4 83.95 27.35 84.15 27.3 84.25 27.3 83.7 27.3 83.15 27.55 82.45 27.9 81.6 27.95 81.45
L 28 81.45
Q 28.55 81.95 31.35 83.8
M 38.8 77.5
Q 38.7 77.5 38.7 77.4
L 38.7 77.35 38.8 77.5
M 67.7 5.2
Q 66.65 5.9 66 9.65 65.4 12.9 65.55 14.7 59.15 14.9 54.1 15.3 50.5 15.6 49.85 15.75 45.2 11.65 45 11.85 45.05 13.5 45.95 16.5 46.8 19.25 46.8 19.45 46.8 20.9 44.85 22.55 43.25 23.9 42.8 23.9 42.3 23.9 40.85 23.55 39.4 23.15 38.9 23.15 38.3 23.15 38.15 23.35 38.2 23.6 38.15 23.6
L 38.15 23.65
Q 47.45 30.9 48.3 31.8 48.95 32.5 51.95 38.65 53.4 41.6 54.65 44.15 55.55 46.15 58.3 52.6
L 58.55 51.9
Q 58.7 51.35 59.05 47.95 59.45 44.4 59.6 43.65 65.4 38.55 74.95 31 76.05 30.15 75.55 27.25 75.45 27.3 76.05 20.45
L 75.75 20.45
Q 75.5 20.9 74.7 24.6 73.9 28.15 73.8 28.25 72.5 29.2 70.5 30.45 68.75 31.6 68.4 31.85 68.95 23.7 68.7 16.05 68.45 9.15 67.7 5.2
M 64.15 23.85
L 64.2 23.85
Q 63.5 25.6 62.4 32.05 61 37.4 58.4 36.4 58.9 35.45 61.35 29.55 63.4 24.5 64.15 23.85
M 49.85 18.2
L 50.35 18.2
Q 50.55 18.2 54.3 22.9 58.25 27.7 58.75 28.85
L 58.85 29
Q 58.75 28.95 57.55 28.3 55.85 27.4 50.05 24.7 50.65 24.4 51.25 24.55 51.75 24.7 53.55 25.1
L 53.9 25.2
Q 52.2 22.5 50.05 18.3 50.1 18.25 49.85 18.2 Z"/>

<path fill="#8BA0B0" stroke="none" d="
M 38.7 77.4
Q 38.7 77.5 38.8 77.5
L 38.7 77.35 38.7 77.4
M 31.1 84
L 31.35 83.8
Q 28.55 81.95 28 81.45
L 27.95 81.45
Q 27.9 81.6 27.55 82.45 27.3 83.15 27.3 83.7 27.3 84.25 27.35 84.15 27.4 83.95 27.45 84
L 31.1 84
M 21.2 66.65
Q 20.85 73.1 20.85 74.1 20.85 76 21.65 76.85 22.15 77.4 22.75 77.4 23.3 77.4 23.35 77.8 23.4 78.1 23.45 78.1 23.4 77.35 22.65 73.3 21.8 69 21.25 66.65
L 21.2 66.65
M 84.2 16.3
Q 84.6 12.25 84.6 11.1 84.6 8.15 76.65 0 73.9 0.6 70.5 1.25 63.8 2.45 60.3 2.45 58.75 2.75 55.55 3.2 49.15 4.05 39.1 4.65 33 4.95 22.4 5.1 12.25 5.2 7.85 4.75 8.55 8.45 8.55 9.45 8.55 10.1 9.3 13.95 9.95 16.6 10.15 17.85 10.75 20.65 11.1 23.2 12.45 32.65 16.4 47.5 20.55 63 22.65 65.55
L 22.95 66.05
Q 22.75 65.1 23.35 61.5 24.05 57.45 25.15 56.35
L 25.3 56.35
Q 25.45 56.85 25.35 58.75 25.3 60 25.1 64.05
L 25.1 66.45
Q 29.75 63 29.9 63 31.05 63 33.6 64.75 35.05 65.8 38.2 68.1 38.35 67.6 38.55 65.8 38.85 62.4 38.9 62.15
L 39.1 61.95
Q 39.55 68.35 40.1 70.95 40.4 72.4 41.35 74.45 42.35 76.65 42.85 76.65 45.1 76.65 47.75 76.1 51 75.35 53.2 74.05
L 54.6 73.6
Q 51.7 76 48.65 76.75 41.95 78.15 33.35 80.55 37.5 84.5 37.7 84.75 38.1 85.2 38.05 85.95 38.15 86.2 39.6 90.45 41.05 94.65 41.05 95 41.05 95.6 41.35 95.9 41.75 96.4 41.85 96.6 50.7 93.75 54.8 90.75 61.45 85.9 70.5 69.45
L 71.25 67.6
Q 72.1 65.8 72.2 65.45 72.85 63.75 73.05 63.15 73.65 61.55 76.8 50.85 79.75 40.7 79.8 40.7 79.85 40.7 79.9 40.7 79.9 40.45 79.9 40.25 79.9 39.85 80.1 39.45
L 80.1 39.35
Q 80.1 39.3 80.15 39.3
L 80.15 39.2
Q 80.15 38.85 80.2 38.45 80.2 38.3 80.25 38.2 80.25 38.15 80.25 38.1 80.25 37.6 80.6 36.25 80.9 34.9 80.9 34.4 80.9 33.9 81.3 32.6 81.65 31.25 81.65 30.75 81.65 30.5 81.6 30.35 81.7 30.35 81.8 30.35 81.8 30.25 81.8 30.1 81.8 29.35 82 28.65 82 28.5 82.05 28.35 82.05 28.1 82.05 27.85 82.1 27.5 82.25 27.15 82.25 27.1 82.25 27.05 82.3 26.95 82.4 26.9 82.45 26.4 82.7 25.45 83 24.25 83 23.75 83 23.1 83.5 21.6 83.8 20.65 84.2 16.3
M 66 9.65
Q 66.65 5.9 67.7 5.2 68.45 9.15 68.7 16.05 68.95 23.7 68.4 31.85 68.75 31.6 70.5 30.45 72.5 29.2 73.8 28.25 73.9 28.15 74.7 24.6 75.5 20.9 75.75 20.45
L 76.05 20.45
Q 75.45 27.3 75.55 27.25 76.05 30.15 74.95 31 65.4 38.55 59.6 43.65 59.45 44.4 59.05 47.95 58.7 51.35 58.55 51.9
L 58.3 52.6
Q 55.55 46.15 54.65 44.15 53.4 41.6 51.95 38.65 48.95 32.5 48.3 31.8 47.45 30.9 38.15 23.65
L 38.15 23.6
Q 38.2 23.6 38.15 23.35 38.3 23.15 38.9 23.15 39.4 23.15 40.85 23.55 42.3 23.9 42.8 23.9 43.25 23.9 44.85 22.55 46.8 20.9 46.8 19.45 46.8 19.25 45.95 16.5 45.05 13.5 45 11.85 45.2 11.65 49.85 15.75 50.5 15.6 54.1 15.3 59.15 14.9 65.55 14.7 65.4 12.9 66 9.65
M 50.35 18.2
L 49.85 18.2
Q 50.1 18.25 50.05 18.3 52.2 22.5 53.9 25.2
L 53.55 25.1
Q 51.75 24.7 51.25 24.55 50.65 24.4 50.05 24.7 55.85 27.4 57.55 28.3 58.75 28.95 58.85 29
L 58.75 28.85
Q 58.25 27.7 54.3 22.9 50.55 18.2 50.35 18.2
M 64.2 23.85
L 64.15 23.85
Q 63.4 24.5 61.35 29.55 58.9 35.45 58.4 36.4 61 37.4 62.4 32.05 63.5 25.6 64.2 23.85 Z"/>
</g>

<g id="Symbol_9_1_Layer0_0_FILL">
<path fill="#FFCC00" stroke="none" d="
M 336.15 160.45
Q 336.15 160.4 336.1 160.4 336.05 160.4 335.95 160.4
L 335.9 160.4
Q 335.8 160.4 335.7 160.4 335.4 160.4 335.1 160.35 334.5 160.35 333.9 160.35 333.7 160.35 333.55 160.35 333.453125 160.3015625 333.4 160.3 333.6515625 160.299609375 333.9 160.25 333.9 160.15 333.9 160.1 333.7 160.1 333.5 160.1 333.3 160.05 333.1 160 332.7 160 332.25 159.95 332.05 159.9 331.85 159.9 331.45 159.85 331.05 159.85 330.65 159.8 330.25 159.8 330.05 159.8 329.85 159.75 329.65 159.75 329.4 159.7 329.2 159.65 329 159.65 328.6 159.6 328.2 159.6 327.8 159.55 327.4 159.55 327.2 159.55 327 159.5 326.55 159.5 326.15 159.5 325.75 159.45 325.35 159.45 324.95 159.4 324.55 159.4 324.15 159.35 323.75 159.35 323.5 159.3 323.3 159.3 322.9 159.25 322.5 159.25 322.25 159.25 321.95 159.25 321.9 159.2 321.85 159.2 321.75 159.2 321.65 159.2 321.55 159.2 321.45 159.2 321.35 159.2 321.3 159.2 321.1 159.15 320.9 159.15 320.85 159.15 320.8 159.15 320.75 159.15 320.7 159.1 320.6 159.1 320.5 159.05 320.4 159.05 320.3 159.05 320.2 159.05 320.1 159 320.05 159 319.95 159 319.85 158.95 319.75 158.95 319.65 158.95 319.55 158.95 319.45 158.95 319.35 159 319.25 159 319.15 159 319.05 159 318.95 159 318.85 159 318.75 159 318.7 159 318.6 159 318.5 159 318.4 159 318.3 159 318.2 159 318.1 159 318 159
L 317.95 159.05
Q 317.55 159 317.2 159 316.6 158.95 316 158.95 315.65 158.9 315.3 158.9 315 158.85 314.75 158.8 314.55 158.8 314.35 158.75 313.95 158.75 313.55 158.7 312.95 158.7 312.35 158.65 311.7 158.65 311.1 158.65 310.7 158.6 310.3 158.55 310.1 158.55 309.9 158.5 309.7 158.5 309.5 158.5 309.05 158.5 308.65 158.45 308.05 158.45 307.45 158.4 307.05 158.4 306.65 158.4 306.4 158.35 306.2 158.35 305.8 158.35 305.4 158.35 304.8 158.3 304.2 158.3 303.55 158.3 302.95 158.3 302.35 158.3 301.75 158.3 301.15 158.3 300.5 158.3 299.9 158.3 299.3 158.3 298.7 158.3 298.1 158.3 297.45 158.3 296.85 158.3 296.25 158.3 295.65 158.3 295.05 158.3 294.4 158.35 293.8 158.35 293.2 158.35 292.6 158.4 292 158.4 291.35 158.4 290.75 158.4 290.35 158.45 289.95 158.45 289.75 158.5 289.55 158.5 289.15 158.5 288.7 158.5 288.1 158.5 287.5 158.5 286.9 158.55 286.3 158.55 285.85 158.6 285.45 158.6 285.65 158.65 285.85 158.65 286.1 158.65 286.3 158.7
L 286.1 158.7
Q 284.95 158.7 283.85 158.75 283.25 158.75 282.6 158.75 282 158.8 281.4 158.8 281 158.85 280.6 158.85 280.4 158.9 280.2 158.9 279.95 158.95 279.75 158.95 279.35 158.95 278.95 159 278.55 159 278.15 159.05
L 278.1 159.05
Q 277.75 159.1 277.35 159.1 276.7 159.1 276.1 159.15 275.7 159.15 275.3 159.2 275.1 159.2 274.9 159.25 274.7 159.25 274.5 159.25 274.05 159.3 273.65 159.3 273.25 159.3 272.85 159.35 272.65 159.4 272.5 159.4
L 272 159.4
Q 271.6 159.45 271.25 159.45
L 271.1 159.45
Q 270.5 159.45 270 159.45 269.4 159.45 268.8 159.5 268.4 159.5 267.95 159.55 267.75 159.6 267.55 159.6 267.35 159.6 267.15 159.6 266.75 159.6 266.35 159.65 265.95 159.65 265.55 159.7 265.1 159.75 264.7 159.8 264.3 159.8 263.9 159.85 263.7 159.9 263.5 159.9 263.3 159.95 263.1 160 262.9 160 262.7 160 262.5 160.05 262.3 160.05 262.05 160.1 261.85 160.1 261.65 160.15 261.45 160.2 261.25 160.2 261.05 160.2 260.85 160.25 260.65 160.25 260.45 160.3 260.25 160.3 260.05 160.35 259.85 160.4 259.65 160.4 259.45 160.4 259.2 160.45 259 160.45 258.8 160.5 258.6 160.5 258.4 160.6 258.2 160.7 258 160.7 257.8 160.7 257.6 160.75 257.4 160.75 257.2 160.8 257 160.8 256.6 160.85 256.15 160.95 255.75 160.95 255.35 161 255.35 161.05 255.35 161.1 253.9 161.15 252.65 161.25 252.75 161.25 252.9 161.3 253.1 161.3 253.35 161.3 253.35 161.65 253.35 162 252.9 162.05 252.5 162.05 252.1 162.1 251.7 162.1 251.51875 162.1453125 251.35 162.15 251.91875 162.15 252.5 162.15 253.75 162.15 254.95 162.1 256.2 162.1 257.4 162.1 258.6 162.05 259.85 162.05 261.05 162.05 262.3 162 263.5 162 264.7 162 265.95 161.95 267.15 161.95 268.4 161.95 269.6 161.95 270.85 161.95 272.05 161.95 273.25 161.9 274.5 161.9 275.7 161.9 276.95 161.9 278.15 161.9 279.35 161.9 280.6 161.85 281.8 161.85 283.05 161.85 284.25 161.85 285.5 161.85 286.7 161.85 287.9 161.85 289.15 161.85 289.9 161.8 290.75 161.8
L 291.45 161.8
Q 291.5 161.8 291.6 161.8 292.2 161.8 292.8 161.85
L 292.8 161.8
Q 293.2 161.8 293.65 161.8 293.8 161.8 294.05 161.85 294.45 161.85 294.85 161.85 297.3 161.9 299.7 161.9 302.15 161.95 304.6 162 307.05 162.1 309.5 162.15 311.95 162.2 314.35 162.3 315.6 162.35 316.8 162.4 317.45 162.4 318.05 162.4 318.65 162.45 319.25 162.45 319.65 162.45 320.05 162.5 320.5 162.5 320.9 162.55 321.3 162.55 321.7 162.6 321.9 162.6 322.1 162.6 322.3 162.6 322.5 162.65 322.9 162.7 323.35 162.7 323.45 162.7 323.55 162.75 324.45 162.75 325.4 162.75 325.45 162.75 325.5 162.8 325.6 162.8 325.7 162.85 325.8 162.9 325.9 162.9 326 162.9 326.1 162.9 326.2 162.95 326.3 162.95 326.4 162.95 326.5 162.95 326.55 162.95 326.65 162.95 326.75 162.95 326.85 162.95 326.95 162.95 327.05 162.95 327.15 162.95 327.25 162.95 327.35 162.95 327.45 162.95 327.55 162.95 327.65 162.95 327.75 162.95 327.85 162.95 327.9 162.95 328 162.95 328.1 162.95 328.2 162.95 328.3 163 328.4 163.05 328.5 163.05 328.6 163.1 328.7 163.1 328.8 163.1 328.9 163.15 329 163.15 329.1 163.15 329.15 163.15 329.25 163.2 329.35 163.25 329.45 163.25 329.55 163.25 329.6484375 163.25 329.75 163.25 329.696875 163.2515625 329.6 163.3
L 329.6 163.35
Q 329.45 163.3 329.35 163.3 328.9 163.25 328.75 163.5 328.7 163.5 328.65 163.5 328.55 163.5 328.45 163.55 328.35 163.6 328.3 163.6 328.2 163.7 328.1 163.75 328 163.8 327.9 163.8 327.8 163.85 327.7 163.85 327.6 163.85 327.5 163.85 327.4 163.9 327.3 163.95 327.2 163.95 327.1 164 327 164.05 326.95 164.05 326.15 164.05 325.35 164.1 324.95 164.1 324.55 164.15 324.35 164.15 324.15 164.2 323.95 164.2 323.75 164.2 323.35 164.2 322.9 164.2 322.3 164.25 321.7 164.25 321.1 164.3 320.5 164.3 319.85 164.35 319.25 164.35 318.65 164.35 318.05 164.4 317.65 164.4 317.25 164.45 317 164.45 316.8 164.45 316.4 164.45 316 164.45 315.4 164.45 314.8 164.5 314.4 164.5 313.95 164.55 313.55 164.55 313.15 164.6 311.95 164.6 310.7 164.65 309.5 164.65 308.3 164.7 307.05 164.7 305.85 164.75 304.6 164.75 303.4 164.8 302.15 164.8 300.95 164.85 299.1 164.85 297.3 164.9 295.45 164.9 293.65 164.9 292.4 164.9 291.2 164.9 289.95 164.9 288.75 164.9 287.5 164.9 286.3 164.9 285.1 164.9 283.85 164.9 282.65 164.9 281.4 164.9 280.2 164.9 279 164.85 277.75 164.85 276.55 164.85 275.3 164.8 274.1 164.8 271.65 164.75 269.2 164.7 267.55 164.65 265.9 164.6 265.7 164.6 265.55 164.6 264.95 164.6 264.35 164.6 263.7 164.55 263.1 164.55 262.5 164.55 261.9 164.55 261.7 164.55 261.5 164.55 261.3 164.5 261.05 164.45 260.65 164.4 260.25 164.4 259.65 164.35 259.05 164.3 258.45 164.3 257.8 164.3 257.2 164.3 256.6 164.3 256 164.3 255.35 164.3 254.75 164.3 254.15 164.3 253.95 164.4 253.75 164.45 254.15 164.45 254.55 164.45 254.7 164.5 254.85 164.55 254.7 164.55 254.55 164.55 253.95 164.6 253.35 164.6 252.95 164.6 252.55 164.65 252.3 164.65 252.15 164.7
L 252.1 164.7
Q 251.7 164.75 251.3 164.8
L 251.3 164.85
Q 251.7 164.85 252.1 164.9 252.7 164.9 253.3 164.95
L 253.35 164.95
Q 253.55 164.95 253.75 165 253.95 165 254.15 165.05 254.35 165.05 254.55 165.1 254.75 165.1 254.95 165.1 254.55 165.15 254.15 165.2 253.95 165.2 253.75 165.25 253.95 165.25 254.15 165.25 254.35 165.3 254.55 165.3 254.75 165.3 254.95 165.35 255.15 165.35 255.4 165.4 255.6 165.4 255.8 165.45 256 165.5 256.2 165.55 256.4 165.55 256.6 165.6 256.8 165.6 257 165.65 257.2 165.7 257.4 165.75 257.6 165.75 257.8 165.75 258 165.75 258.25 165.8 258.45 165.8 258.65 165.85 258.85 165.85 259.05 165.9 259.25 165.9 259.45 165.9 259.65 165.9 259.85 165.95 260.05 165.95 260.25 166 260.45 166 260.65 166.05 260.85 166.05 261.1 166.05 261.3 166.05 261.5 166.1 261.7 166.1 261.9 166.15 262.1 166.15 262.3 166.2 262.5 166.2 262.7 166.2 262.9 166.2 263.1 166.25 263.3 166.25 263.5 166.3 263.7 166.3 263.9 166.35 264.35 166.35 264.75 166.35 265.15 166.4 265.55 166.45 265.75 166.45 265.95 166.5 266.15 166.5 266.35 166.5 266.55 166.5 266.75 166.55 267 166.55 267.2 166.55 267.4 166.55 267.6 166.6 267.8 166.6 268 166.6 268.4 166.6 268.8 166.65 269.4 166.65 270.05 166.7 270.65 166.7 271.25 166.75 271.65 166.75 272.05 166.75 272.25 166.75 272.45 166.8 272.5 166.8 272.55 166.8 272.65 166.8 272.75 166.85 272.85 166.85 272.95 166.9 273.05 166.9 273.15 166.9 273.25 166.9 273.35 166.9 273.45 166.9 273.55 166.9 273.6 166.9 273.7 166.9 273.8 166.9 273.9 166.9 274 166.9 274.1 166.9 274.2 166.9 274.3 166.9 274.4 166.9 274.5 166.9 274.6 166.9 274.7 166.9 274.8 166.9 274.85 166.9 274.95 166.9 275.05 166.9 275.15 166.9 275.25 166.9 275.35 166.9 275.45 166.9 275.55 166.95 275.65 167.05 275.75 167.05 275.85 167.1 275.95 167.15 276.05 167.15 276.15 167.15 276.2 167.15 276.3 167.15 276.4 167.15 276.5 167.15 276.6 167.15 276.7 167.15 276.8 167.15 276.9 167.15 277 167.15 277.1 167.15 277.2 167.15 277.3 167.15 277.4 167.15 277.45 167.15 277.55 167.15 277.65 167.15 277.75 167.15 277.85 167.15 277.95 167.1 278.05 167.1 278.15 167.1 278.25 167.15 278.35 167.15 278.45 167.2 278.55 167.2 278.65 167.25 278.75 167.3 278.8 167.3 278.9 167.35 279 167.3 279.1 167.3 279.2 167.3 279.3 167.3 279.4 167.25 279.5 167.2 279.6 167.2 279.7 167.15 279.8 167.15 279.9 167.1
L 279.95 167.1
Q 286.15 167.85 304.75 167.85 314.65 167.85 321.2 167.3 322 167.25 322.75 167.15 322.85 167.2 322.95 167.2 323.05 167.2 323.15 167.2 323.25 167.2 323.35 167.2 323.45 167.2 323.55 167.2 323.6 167.2 323.7 167.2 323.8 167.2 323.9 167.2 324 167.2 324.1 167.2 324.2 167.2 324.3 167.2 324.4 167.2 324.5 167.2 324.6 167.2 324.7 167.15 324.8 167.15 324.85 167.15 324.95 167.1 325.05 167.1 325.15 167.1 325.25 167.1 325.35 167.05 325.45 167 325.55 167 325.65 166.95 325.75 166.95 325.85 166.95 325.95 166.95 326.05 166.95 326.15 166.95 326.2 166.95 326.3 166.95 326.4 166.95 326.5 166.95 326.6 166.95 326.7 166.95 326.8 166.95 326.9 166.95 327 166.95 327.1 166.95 327.2 166.95 327.3 166.95 327.4 166.95 327.45 166.95 327.55 166.95 327.65 166.9 327.75 166.9 327.85 166.9 327.95 166.9 328.05 166.9 328.15 166.9 328.25 166.9 328.3 166.9 328.35 166.9 328.45 166.95 328.55 166.95 328.65 166.95 328.75 166.95 328.85 166.95 328.95 166.95 329.05 166.95 329.15 166.9 329.25 166.9 329.35 166.85 329.45 166.8 329.55 166.85 329.6 166.9 329.7 166.9 329.8 166.9 329.9 166.9 330 166.9 330.1 166.9 330.2 166.9 330.3 166.9 330.4 166.9 330.5 166.85 330.6 166.8 330.7 166.8 330.8 166.8 330.9 166.8 330.95 166.75 331.05 166.7 331.15 166.65 331.25 166.65 331.35 166.65 331.45 166.6 331.55 166.55 331.65 166.55 331.75 166.55 331.85 166.55 331.95 166.5 332 166.5 332.05 166.45 332.1 166.45 332.2 166.45 332.3 166.4 332.4 166.35 332.5 166.35 332.6 166.35 332.65 166.35 332.75 166.3 332.85 166.3 332.95 166.25 333.05 166.25 333.15 166.25 333.2 166.25 333.25 166.25
L 333.3 166.25
Q 333.4 166.25 333.5 166.25 333.55 166.25 333.65 166.25 333.75 166.2 333.85 166.2 333.95 166.2 334.05 166.2 334.15 166.2 334.25 166.2 334.35 166.2 334.45 166.2 334.55 166.2 334.65 166.25 334.75 166.2 334.8 166.2 334.9 166.2 335 166.2 335.1 166.2 335.2 166.25 335.3 166.2 335.4 166.2 335.5 166.2 335.6 166.2 335.7 166.15 335.8 166.1 335.9 166.1 336 166.05 336.05 166.05 336.15 166.05 336.25 166.05 336.35 166.05 336.45 166.05 336.55 166.05 336.65 166 336.75 166 336.85 166 336.95 166 337.05 165.95 337.15 165.9 337.25 165.9 337.35 165.85 337.4 165.85 337.5 165.85 337.6 165.85 337.7 165.8 337.8 165.75 337.9 165.75 338 165.7 338.1 165.65 338.2 165.65 338.3 165.6 338.4 165.55 338.5 165.55 338.6 165.5 338.65 165.45 338.75 165.45 338.85 165.45 338.95 165.45 339.05 165.45 339.15 165.45 339.25 165.4 339.35 165.4 339.45 165.4 339.55 165.4 339.65 165.35 339.75 165.35 339.85 165.35 339.95 165.3 340 165.3 340.1 165.25 340.2 165.2 340.3 165.2 340.4 165.15 340.5 165.1 340.6 165 340.7 165 340.8 164.95 340.9 164.95 341 164.9 341.1 164.85 341.2 164.85 341.25 164.8 341.35 164.75 341.45 164.75 341.55 164.7 341.6 164.65 341.65 164.65
L 341.7 164.65
Q 341.8 164.65 341.9 164.65 341.95 164.6 342.05 164.6 342.1 164.6 342.15 164.65 342.25 164.65 342.35 164.65 342.45 164.65 342.5 164.7 342.6 164.65 342.7 164.65 342.8 164.65 342.9 164.65 343 164.55 343.1 164.5 343.2 164.5 343.3 164.45 343.4 164.35 343.5 164.25 343.6 164.1 343.7 164 343.7 163.95 343.75 163.85 344.5 163.4 344.25 162.6 344 162.65 343.75 162.7 343.65 162.7 343.6 162.65 343.5 162.6 343.4 162.6 343.35 162.45 343.25 162.35 343.15 162.25 343.05 162.15 342.95 162.1 342.85 162.05 342.75 162.05 342.65 162 342.55 162 342.45 162 342.35 161.95 342.25 161.95 342.15 161.95 342.05 161.95
L 342 161.9
Q 342.2 161.85 342.45 161.85 342.85 161.8 343.25 161.75
L 343.25 161.7
Q 343.05 161.7 342.85 161.7 342.65 161.65 342.45 161.65 342.05 161.5 341.65 161.35 341.25 161.3 340.8 161.3 340.8 161.05 340.8 160.8 340.6 160.8 340.4 160.75 340 160.75 339.6 160.7 339.2 160.7 338.8 160.65 338.6 160.6 338.4 160.55 338.15 160.5 337.95 160.5 337.75 160.5 337.55 160.5 337.15 160.45 336.75 160.45 336.45 160.45 336.15 160.45
M 307.05 165.1
Q 307.45 165.1 307.85 165.1 307.25 165.15 306.65 165.15 306.4625 165.15 306.25 165.15 306.6625 165.14296875 307.05 165.1 Z"/>
</g>
</defs>

<g transform="matrix( 1, 0, 0, 1, 100,100) ">
<g transform="matrix( 1, 0, 0, 1, -39.9,-42.1) ">
<g transform="matrix( 1, 0, 0, 1, 0,0) ">
<use xlink:href="#Symbol_23_0_Layer0_0_FILL"/>
</g>
</g>

<g transform="matrix( -0.03802490234375, 0.0365447998046875, -0.096343994140625, -0.100250244140625, -18.9,75.8) ">
<g transform="matrix( 1, 0, 0, 1, 0,0) ">
<use xlink:href="#Symbol_9_1_Layer0_0_FILL"/>
</g>
</g>

<g transform="matrix( -0.0252685546875, 0.0462799072265625, -0.12200927734375, -0.066650390625, -0.4,73.05) ">
<g transform="matrix( 1, 0, 0, 1, 0,0) ">
<use xlink:href="#Symbol_9_1_Layer0_0_FILL"/>
</g>
</g>

<g transform="matrix( -0.0501861572265625, 0.0161895751953125, -0.042694091796875, -0.1323089599609375, -29.1,64.5) ">
<g transform="matrix( 1, 0, 0, 1, 0,0) ">
<use xlink:href="#Symbol_9_1_Layer0_0_FILL"/>
</g>
</g>
</g>
</svg>
