
<svg xmlns="http://www.w3.org/2000/svg" version="1.1" xmlns:xlink="http://www.w3.org/1999/xlink" preserveAspectRatio="none" x="0px" y="0px" width="200px" height="200px" viewBox="0 0 200 200">
<defs>
<g id="Symbol_21_0_Layer0_0_FILL">
<path fill="#52656A" stroke="none" d="
M 12.8 0
Q 7.05 3.45 3.75 6.85 0.25 10.55 0.2 13.55
L 0 18.6
Q 0.5 18.9 0.05 20.95 0.1 22.65 0.1 23.45 0.1 25.15 0.35 29 0.45 34.25 1 37.35 3.5 52.2 4.8 58.85 7.05 70.25 10.05 77.45 17.7 95.85 38.5 105.35 37.85 104.4 37.4 102 36.25 96.05 35.75 94 35.8 93.1 35.8 92.85 35.75 92.6 34.1 90.9 27.65 84.2 25.8 80.85 25.25 79 25 79 24.85 79 23.8 77.35 23.15 75.9 22.65 74.7 21.85 73.25 21.7 72.95
L 21.25 72.2
Q 20.65 71.6 20.65 70.6 20.65 69.95 19.15 64.8 17.35 58.75 16.6 53.85 14.7 42 14.3 34.65 13.45 19.1 13.45 18.15
L 12.8 0
M 69.45 15.55
Q 68.8 17.4 68.1 23.25
L 53.85 19.85 52.6 19.9
Q 47.35 14.1 47.15 14.2 47.15 14.4 48.1 18.1 49.05 21.8 49.05 22.3 49.05 23.55 47.2 25.05 45.5 26.45 44.3 26.45 38.75 24.3 38.6 24.3 37.6 24.3 37.95 24.55 38.4 25.35 44.65 29.9 51 34.5 51.4 35.1 52.5 36.65 56.5 47.7 58.7 53.7 62.4 64.3 63.15 61.7 63.35 54.6 63.4 53.35 65.25 51.7 66.3 50.75 68.15 49.35 69.85 47.85 73.35 43.65 76 40.45 76.7 40.45
L 77.15 40.85
Q 77.55 40.55 77.55 37.1 77.55 34.4 77.3 31.3
L 77.15 31.3
Q 75.25 32.3 76.15 35.25 77.1 38.35 74.4 40.2 72.7 41.35 72.1 42
L 71.75 42.4
Q 72 37.35 69.45 15.55
M 53.55 25.55
Q 53.65 25.45 53.9 25.4
L 54 25.4
Q 54.45 26.5 57.8 29.15 59.45 30.45 61 31.65 61 32.25 61.3 32.45 61.5 32.55 61.7 32.65
L 62 32.95
Q 58.35 33.1 57.05 30.9 54.25 26.25 53.55 25.55
M 67 31.4
Q 67.1 31.65 67.15 31.85 67.3 32.3 67.3 32.9 66.5 42.6 66.5 43.6 66.5 43.75 65.85 44.1 65.1 44.5 64.15 44.7 64.5 44.25 64.4 44.2
L 64.05 44.6
Q 65.15 38.75 67 31.4
M 64.6 43.25
L 64.45 43.5 64.45 43.75 64.6 43.25
M 66.1 35.4
L 66.05 35.45
Q 66.05 35.9 66.1 35.95 66.15 35.95 66.15 35.9
L 66.1 35.4 Z"/>

<path fill="#8BA0B0" stroke="none" d="
M 91.7 20.95
Q 86.9 10.45 86.05 9.7 71.15 9.1 70.8 9.1 70.65 9.1 49.65 7 49.65 6.95 39.25 5.3 27.55 3.45 22.9 2.35 19.8 1.65 16.9 1.1 15.55 0.85 12.8 0
L 13.45 18.15
Q 13.45 19.1 14.3 34.65 14.7 42 16.6 53.85 17.35 58.75 19.15 64.8 20.65 69.95 20.65 70.6 20.65 71.6 21.25 72.2
L 21.7 72.95
Q 21.85 73.25 22.65 74.7 23.15 75.9 23.8 77.35 24.85 79 25 79 25.25 79 25.8 80.85 27.65 84.2 34.1 90.9 35.75 92.6 35.8 92.85 35.8 93.1 35.75 94 36.25 96.05 37.4 102 37.85 104.4 38.5 105.35 40.5 104.65 44.7 102.65 48.05 101.05 48.6 101.05 48.85 101.05 56.85 94.95 58.95 93.3 65.15 85.7 71.65 77.7 71.65 76.1 71.65 75.5 71.8 75.55 71.9 75.55 72 75.65
L 72.85 74.15
Q 73.55 72.55 74.15 71.55 74.7 70.6 74.75 70.4 74.7 70.65 76.05 67.65 81.95 54.9 84.35 47.15 84.35 46.6 84.65 45.9 85 45 85.05 44.7 85.1 44.5 85.5 43.65 85.8 43.05 85.8 42.45 85.8 41.95 86.15 41.25 86.5 40.55 86.5 40.05 86.5 39.55 86.9 39 87.25 38.4 87.25 37.9 87.25 37.4 87.6 36.75 87.95 36.1 87.95 35.6 87.95 35 88.1 34.65 88.2 34.5 88.4 34.15
L 89.5 30.7
Q 89.55 30.15 90.7 25.85 91.7 21.85 91.7 20.95
M 68.1 23.25
Q 68.8 17.4 69.45 15.55 72 37.35 71.75 42.4
L 72.1 42
Q 72.7 41.35 74.4 40.2 77.1 38.35 76.15 35.25 75.25 32.3 77.15 31.3
L 77.3 31.3
Q 77.55 34.4 77.55 37.1 77.55 40.55 77.15 40.85
L 76.7 40.45
Q 76 40.45 73.35 43.65 69.85 47.85 68.15 49.35 66.3 50.75 65.25 51.7 63.4 53.35 63.35 54.6 63.15 61.7 62.4 64.3 58.7 53.7 56.5 47.7 52.5 36.65 51.4 35.1 51 34.5 44.65 29.9 38.4 25.35 37.95 24.55 37.6 24.3 38.6 24.3 38.75 24.3 44.3 26.45 45.5 26.45 47.2 25.05 49.05 23.55 49.05 22.3 49.05 21.8 48.1 18.1 47.15 14.4 47.15 14.2 47.35 14.1 52.6 19.9
L 53.85 19.85 68.1 23.25
M 67.15 31.85
Q 67.1 31.65 67 31.4 65.15 38.75 64.05 44.6
L 64.4 44.2
Q 64.5 44.25 64.15 44.7 65.1 44.5 65.85 44.1 66.5 43.75 66.5 43.6 66.5 42.6 67.3 32.9 67.3 32.3 67.15 31.85
M 66.05 35.45
L 66.1 35.4 66.15 35.9
Q 66.15 35.95 66.1 35.95 66.05 35.9 66.05 35.45
M 64.45 43.5
L 64.6 43.25 64.45 43.75 64.45 43.5
M 53.9 25.4
Q 53.65 25.45 53.55 25.55 54.25 26.25 57.05 30.9 58.35 33.1 62 32.95
L 61.7 32.65
Q 61.5 32.55 61.3 32.45 61 32.25 61 31.65 59.45 30.45 57.8 29.15 54.45 26.5 54 25.4
L 53.9 25.4 Z"/>
</g>

<g id="Symbol_9_2_Layer0_0_FILL">
<path fill="#FFCC00" stroke="none" d="
M 491.9 166.4
Q 491.55 166.4 491.2 166.35 491 166.3 490.8 166.3 490.35 166.25 489.95 166.25 489.55 166.2 489.15 166.2 488.95 166.2 488.75 166.2 488.35 166.15 487.95 166.15 487.5 166.1 487.1 166.1 486.9 166.1 486.7 166.1 486.35 166.05 486.05 166.05 485.9 166.05 485.75 166
L 483.9 166
Q 483.7 165.95 483.45 165.95 483.35 165.95 483.25 165.95 483.15 165.95 483.05 165.9 482.65 165.85 482.25 165.85 481.85 165.8 481.4 165.8 481.2 165.8 481 165.75 480.8 165.75 480.6 165.75 480.4 165.7 480.2 165.7 479.8 165.65 479.4 165.65 478.75 165.6 478.15 165.6 477.55 165.6 476.95 165.6 476.35 165.6 475.7 165.6 475.45 165.6 475.2 165.6
L 474.9 165.6
Q 474.3 165.55 473.7 165.55 473.1 165.5 472.45 165.5 471.85 165.5 471.25 165.5
L 470.95 165.5
Q 470.5 165.5 470 165.45 469.4 165.45 468.8 165.45 468.2 165.45 467.6 165.45 466.95 165.45 466.35 165.45 463.9 165.45 461.5 165.55 461.05 165.55 460.65 165.6 460.85 165.6 461.05 165.65 461.1625 165.65 461.3 165.65 460.9572265625 165.6560546875 460.65 165.7 460.5 165.7 460.4 165.75 459.9 165.75 459.45 165.75 459.15 165.75 458.85 165.8
L 457.5 165.75 457.5 165.8
Q 455.85 165.85 454.15 165.9 453.55 165.9 452.95 165.95 452.3 165.95 451.7 166 451.3 166 450.9 166.05 450.7 166.05 450.5 166.1 450.3 166.1 450.1 166.1 449.7 166.1 449.25 166.15 448.85 166.15 448.45 166.2 448.25 166.25 448.05 166.3
L 447.95 166.3
Q 447.6 166.3 447.25 166.3 446.9 166.35 446.55 166.4
L 446.4 166.4
Q 446.2 166.45 446 166.5 445.6 166.55 445.2 166.65 444.8 166.65 444.4 166.7 444.4 166.8 444.4 166.9 443.5 167 441.25 167 441.25 167.75 442.4 167.9 441.6 167.95 441.05 168.05 440.7 168.05 440.3 168.1 440.1 168.1 439.95 168.2 439.9 168.2 439.9 168.25 440 168.25 440.15 168.3 439.75 168.45 440.25 168.75 441.25 168.65 442.2 168.65 442.25 168.65 442.35 168.65 442.55 168.7 442.75 168.75 442.95 168.75 443.15 168.8 443.4 168.8 443.6 168.85 443.8 168.85 444 168.9
L 444.05 168.9
Q 444.2 168.9 444.4 168.95 444.6 168.95 444.8 168.95 445 168.95 445.2 169
L 445.25 169
Q 445.4 169 445.6 169.05 445.8 169.05 446 169.1 446.25 169.1 446.45 169.1 446.65 169.1 446.85 169.15 447.05 169.15 447.25 169.2 447.45 169.2 447.65 169.25 447.85 169.25 448.05 169.25 448.25 169.25 448.45 169.3 448.65 169.3 448.85 169.3 449.1 169.3 449.3 169.35 449.5 169.35 449.7 169.4 449.9 169.4 450.1 169.45 450.3 169.45 450.5 169.45 450.7 169.45 450.9 169.5 451.1 169.5 451.3 169.55 451.5 169.55 451.7 169.6 451.95 169.6 452.15 169.6 452.35 169.6 452.55 169.65 452.75 169.65 452.95 169.7 453.15 169.7 453.35 169.75 453.55 169.75 453.75 169.75 453.95 169.75 454.15 169.8 454.35 169.8 454.55 169.85 454.8 169.85 455 169.9 455.2 169.9 455.4 169.9 455.6 169.9 455.8 169.95 456.2 169.95 456.6 169.95 457.2 170 457.85 170 458.45 170.05 459.05 170.05 459.65 170.05 460.25 170.1
L 460.45 170.1
Q 460.8 170.1 461.1 170.15 461.7 170.15 462.3 170.15 462.7 170.2 463.1 170.2 463.35 170.2 463.55 170.25 466.2 170.5 468.5 170.5 481.5 170.5 486.95 170 496.1 169.15 499.25 169 499.25 168.8 499.15 168.7 499.45 168.65 499.75 168.6 500.15 168.55 500.55 168.55 500.95 168.5 501.35 168.5 501.35 168.25 501.35 168 501.15 168 500.95 168
L 500.95 167.95
Q 500.75 167.95 500.55 167.9 500.5 167.9 500.5 167.85 500.7 167.8 500.75 167.75 499.85 167.55 499.05 167.45 498.75 167.3 498.5 167.15 498.1 167.1 497.7 167.05 497.3 166.95 496.9 166.85 496.7 166.8 496.5 166.8 496.3 166.8 496.1 166.8 496.1 166.75 496.05 166.75 495.85 166.7 495.65 166.7 495.45 166.7 495.25 166.7 495.05 166.65 494.85 166.6 494.65 166.55 494.45 166.55 494.25 166.55 494.05 166.55 493.65 166.5 493.2 166.5 492.8 166.45 492.4 166.45 492.2 166.45 492 166.4
L 491.9 166.4 Z"/>
</g>
</defs>

<g transform="matrix( 1, 0, 0, 1, 100,100) ">
<g transform="matrix( 1, 0, 0, 1, -38.35,-48.5) ">
<g transform="matrix( 1, 0, 0, 1, 0,0) ">
<use xlink:href="#Symbol_21_0_Layer0_0_FILL"/>
</g>
</g>

<g transform="matrix( 0.03802490234375, -0.0365447998046875, 0.096343994140625, 0.100250244140625, 51.1,-69.3) ">
<g transform="matrix( 1, 0, 0, 1, 0,0) ">
<use xlink:href="#Symbol_9_2_Layer0_0_FILL"/>
</g>
</g>

<g transform="matrix( 0.0252685546875, -0.0462799072265625, 0.12200927734375, 0.066650390625, 32.6,-66.55) ">
<g transform="matrix( 1, 0, 0, 1, 0,0) ">
<use xlink:href="#Symbol_9_2_Layer0_0_FILL"/>
</g>
</g>

<g transform="matrix( 0.0501861572265625, -0.0161895751953125, 0.042694091796875, 0.1323089599609375, 61.3,-58) ">
<g transform="matrix( 1, 0, 0, 1, 0,0) ">
<use xlink:href="#Symbol_9_2_Layer0_0_FILL"/>
</g>
</g>
</g>
</svg>
