
<svg xmlns="http://www.w3.org/2000/svg" version="1.1" xmlns:xlink="http://www.w3.org/1999/xlink" preserveAspectRatio="none" x="0px" y="0px" width="200px" height="200px" viewBox="0 0 200 200">
<defs>
<filter id="Filter_1" x="-20%" y="-20%" width="140%" height="140%" color-interpolation-filters="sRGB">
<feColorMatrix in="SourceGraphic" type="matrix" values="0.69 0 0 0 0.3137254901960784 0 0.69 0 0 0.3137254901960784 0 0 0.69 0 0.3137254901960784 0 0 0 0.31 0" result="result1"/>
</filter>

<filter id="Filter_2" x="-20%" y="-20%" width="140%" height="140%" color-interpolation-filters="sRGB">
<feColorMatrix in="SourceGraphic" type="matrix" values="0.32 0 0 0 0.6784313725490196 0 0.32 0 0 0.40784313725490196 0 0 0.32 0 0 0 0 0 1 0" result="result1"/>
</filter>

<g id="Symbol_14_0_Layer0_0_FILL">
<path fill="#FFFFFF" stroke="none" d="
M 0.6 3.05
L 0.25 3.1
Q 4.75 14.85 7.75 21.6 9.2 24.9 9.75 25.95 9.75 27.15 14.45 33.15 20.35 40.8 27.4 45.75 30.25 37.25 30.5 33.75
L 30.3 33.85
Q 25.2 34.3 24.15 34.45 24.95 32.45 28.95 27.45 33.6 21.7 36.15 17.1
L 11.15 13.45 20 1.35
Q 15.15 2.15 0.6 3.05 Z"/>

<path fill="#999999" stroke="none" d="
M 36.75 22.35
Q 37.05 21.45 38.55 18.35 39.75 15.05 40.25 14.45 35 13.55 32.65 13.1 29.45 12.5 18.15 10.1 19.45 7.8 21.05 5.25 23.1 2.05 24.3 0 3.5 1.9 0.75 2.35
L 0.7 2.35
Q 0.65 2.35 0.6 2.35 0.55 2.35 0.5 2.35 0.25 2.4 0.05 2.5 0 2.6 0 2.8
L 0.15 2.9
Q 0.4 3.05 0.6 3.05 15.15 2.15 20 1.35
L 11.15 13.45 36.15 17.1
Q 33.6 21.7 28.95 27.45 24.95 32.45 24.15 34.45 25.2 34.3 30.3 33.85
L 30.5 33.75
Q 30.25 37.25 27.4 45.75 28.25 45.6 33.1 40.75 33.1 39.95 33.4 38.2 33.7 36.35 34.05 35.1 35.1 31.15 35.25 30.45 35 30.5 35 30.45 34.45 30.4 32.65 30.75
L 32.85 30.2
Q 33.85 28.8 34.35 27.75 34.75 26.7 35.1 26.05 35.9 24.55 36.75 22.35 Z"/>
</g>

<g id="Symbol_16_0_Layer0_0_FILL">
<path fill="#999999" stroke="none" d="
M 16.75 30.9
Q 16.25 32.4 14.8 35.5
L 16.9 35.5
Q 23.4 35.75 29.75 33.85 34.75 32.35 36.5 30.75 17.6 30.95 16.75 30.9
M 22.1 19.25
L 24 13.45
Q 17.85 14.5 8.95 17 4.45 18.25 0.2 19.55 1.1 21.2 1.25 21.5 1.6 22.2 1.9 22.9 2.1 23.25 2.5 23.25 6.15 22.95 10.35 22.25 18.7 20.95 22.1 19.25 Z"/>

<path fill="#666666" stroke="none" d="
M 20.7 22.45
Q 21.9 19.75 22.05 19.3 20.6 21.65 20 23.2 19.65 24.1 19.05 25.9 19.45 25.25 20.7 22.45 Z"/>

<path fill="#FFFFFF" stroke="none" d="
M 22.05 19.3
Q 21.9 19.75 20.7 22.45 19.45 25.25 19.05 25.9
L 16.75 30.9
Q 17.6 30.95 36.5 30.75
L 37.15 30.75 37.85 26.4
Q 38.25 23.55 38.4 23.2 39.05 21.6 39.3 20.5 39.7 18.25 39.7 13.7 39.7 10.7 37.7 7.25 36 4.25 32.25 0 10.2 0.8 8.9 0.75 5.25 8.65 3.25 12.9 2.75 13.9 0.2 19.05
L 0.1 19.25 0.2 19.55
Q 4.45 18.25 8.95 17 17.85 14.5 24 13.45
L 22.1 19.25 22.05 19.3 Z"/>
</g>

<g id="Symbol_75_1_Layer1_0_FILL">
<path fill="#FFFF00" stroke="none" d="
M 18.5 136.55
Q 28 127.05 28 113.55 28 100.05 18.5 90.5 8.95 81 -4.55 81 -18.05 81 -27.55 90.5 -37.1 100.05 -37.1 113.55 -37.1 127.05 -27.55 136.55 -18.05 146.1 -4.55 146.1 8.95 146.1 18.5 136.55
M 10.9 100.35
Q 16.8 105.95 16.8 113.9 16.8 121.85 10.9 127.45 4.9 133.1 -3.45 133.1 -11.85 133.1 -17.75 127.45 -23.75 121.85 -23.75 113.9 -23.75 105.95 -17.75 100.35 -11.85 94.7 -3.45 94.7 4.9 94.7 10.9 100.35 Z"/>
</g>

<g id="Symbol_74_0_Layer0_0_FILL">
<path fill="#FF9900" stroke="none" d="
M 4.55 120.3
Q 7.2 117.05 6.45 113.55
L 6.2 113.9
Q 5.4 116.2 2.6 118.1 -0.65 120.25 -4.45 120.25 -12.05 120.25 -13 112.9
L -13.1 114.2
Q -12.9 118.5 -10.1 121.3 -7.45 124 -3.85 124 1.5 124 4.55 120.3 Z"/>
</g>
</defs>

<g transform="matrix( 1, 0, 0, 1, 100,100) ">
<g transform="matrix( 1, 0, 0, 1, -77.8,31.35) ">
<g transform="matrix( 1, 0, 0, 1, 0,0) ">
<use filter="url(#Filter_1)" xlink:href="#Symbol_14_0_Layer0_0_FILL"/>
</g>
</g>

<g transform="matrix( 1, 0, 0, 1, 36.5,-69.45) ">
<g transform="matrix( 1, 0, 0, 1, 0,0) ">
<use filter="url(#Filter_1)" xlink:href="#Symbol_16_0_Layer0_0_FILL"/>
</g>
</g>

<g transform="matrix( 0.4244384765625, 0, 0, 0.4244384765625, 5.4,-51.3) ">
<g transform="matrix( 1, 0, 0, 1, 0,0) ">
<use xlink:href="#Symbol_75_1_Layer1_0_FILL"/>
</g>

<g transform="matrix( 0.866119384765625, -0.49981689453125, 0.49981689453125, 0.866119384765625, -57.35,13) ">
<g transform="matrix( 1, 0, 0, 1, 0,0) ">
<use filter="url(#Filter_2)" xlink:href="#Symbol_74_0_Layer0_0_FILL"/>
</g>
</g>
</g>
</g>
</svg>
