
<svg xmlns="http://www.w3.org/2000/svg" version="1.1" xmlns:xlink="http://www.w3.org/1999/xlink" preserveAspectRatio="none" x="0px" y="0px" width="200px" height="200px" viewBox="0 0 200 200">
<defs>
<g id="Symbol_23_0_Layer0_0_FILL">
<path fill="#52656A" stroke="none" d="
M 7.85 4.75
Q 7.3 4.8 7.05 5.4 5.95 6.8 5.4 7.65 4.95 8.1 3.8 10.1 2.3 11.95 1.95 12.8 1.55 13.15 0.65 14.95 0.05 15.75 0.05 16.55
L 0.05 16.7 0 16.7 0.05 16.8 0.1 17.1
Q 0 17 0 17.1
L 0.05 17.2 0.05 17.25 0.1 17.25 0.15 17.95 0.25 18.05 0.25 18.3
Q 0.15 18.25 0.25 18.35
L 0.3 18.4 0.3 18.45 0.25 18.5 0.25 18.55
Q 0.1 18.5 0.25 18.6
L 0.25 19.05
Q 0.2 18.95 0.2 19.15
L 0.25 19.15 0.25 19.35
Q 0.25 19.4 0.3 19.5
L 0.4 20.05 0.45 20.1
Q 0.45 20.15 0.45 20.2
L 0.55 20.35 0.6 20.4 0.6 20.85 0.65 21 0.65 21.45 0.7 21.55 0.7 21.75
Q 0.5 21.6 0.7 21.8
L 0.8 22.2 0.8 22.3 0.85 22.35 0.85 22.4
Q 0.7 22.35 0.8 22.5
L 0.9 22.65 0.9 22.95
Q 0.75 22.9 0.9 23
L 0.9 23.1
Q 0.75 23.05 0.9 23.25
L 0.95 23.35
Q 0.856640625 23.2111328125 1 23.45
L 1 23.6
Q 0.9 23.5 1 23.65
L 1 23.75
Q 0.9 23.8 1 23.85
L 1 23.95
Q 0.8 23.85 1 24
L 1.1 24.25
Q 1 24.25 1.1 24.3 0.95 24.3 1.1 24.45
L 1.15 24.75 1.2 24.8 1.25 25.05
Q 1.1 24.95 1.25 25.15
L 1.25 25.35 1.3 25.4 1.3 25.7
Q 1.15 25.6 1.3 25.8 1.25 25.85 1.35 26.1 1.2 26.05 1.45 26.25 1.3 26.25 1.45 26.3
L 1.5 26.35
Q 1.4 26.35 1.5 26.45 1.4 26.6 1.55 26.9 1.4 26.9 1.65 27.3 1.45 27.3 1.65 27.5 1.6 27.65 1.7 27.9 1.6 27.9 1.7 28.1 1.55 28.1 1.75 28.5 1.65 28.6 1.9 28.85 1.7 28.8 1.85 28.95
L 1.9 29
Q 1.8 29.05 1.9 29.45 1.8 29.3 1.9 29.6 1.8 29.6 2 29.95
L 2.05 30.05 2.1 30.05
Q 2.05078125 30.0513671875 2.15 30.2
L 2.15 30.25
Q 2 30.3 2.1 30.6 2.05 30.6 2.2 30.8 2.2 30.85 2.2 30.95
L 2.3 31.05
Q 2.2 31.05 2.35 31.3 2.2 31.25 2.4 31.4
L 2.45 31.55 2.45 31.6 2.5 31.65 2.5 31.75
Q 2.35 31.75 2.45 31.95 2.4 31.95 2.5 32.25 2.45 32.25 2.55 32.5
L 2.55 32.9
Q 2.55 32.95 2.7 33.2
L 2.75 33.3 2.7 33.35
Q 2.7 33.45 2.8 33.7 2.7 33.7 2.85 33.9
L 2.9 34 2.9 34.05
Q 2.85 34.05 2.9 34.2 2.85 34.2 2.95 34.35
L 2.95 34.45 3 34.5
Q 2.8 34.5 3 34.6
L 3.05 34.65
Q 2.85 34.55 3.05 34.75 3 34.8 3.05 34.95
L 3.1 35.05 3.1 35.15
Q 3 35.25 3.1 35.55 3.15 35.55 3.25 35.85
L 3.3 35.95 3.3 36
Q 3.2 35.95 3.3 36.3
L 3.4 36.45
Q 3.35 36.5 3.4 36.6 3.35 36.55 3.45 36.8 3.35 36.8 3.45 36.95 3.4 36.95 3.5 37.05
L 3.6 37.15 3.6 37.45
Q 3.55 37.45 3.6 37.55
L 3.6 37.7 3.7 37.8 3.7 37.85
Q 3.6 37.85 3.7 38 3.65 38.05 3.75 38.2 3.7 38.2 3.85 38.35 3.8 38.35 3.85 38.45 3.8 38.6 4 38.85 3.9 38.9 4.05 39.15 4 39.15 4.15 39.4 4.1 39.55 4.3 39.95
L 4.35 40.05
Q 5 43.45 6.25 47.2 6.85 49.6 8.95 55.55 9.9 58.9 11.65 63.1 13.5 67.65 14.2 69 14.15 69.05 14.25 69.15 14.15 69.15 14.3 69.3
L 14.3 69.35 14.5 69.65
Q 14.65 69.95 14.95 70.45 14.85 70.5 15.05 70.7 14.95 70.75 15.15 70.9 15.05 70.9 15.15 71.05
L 15.3 71.2 15.35 71.3
Q 15.25 71.35 15.35 71.55
L 15.5 71.75 15.5 71.8 15.65 71.95
Q 15.5 71.95 15.7 72.2
L 15.9 72.6
Q 15.95 72.85 16.25 73.2 17.3 75.05 18.55 77.15 18.9 77.65 19.8 78.95 20.4 79.8 21.2 80.65 21.25 80.65 21.55 81.15
L 21.5 81.2
Q 21.65 81.25 21.9 81.5 21.9 81.6 22.05 81.75
L 22.05 81.8 22.2 81.9 22.3 81.95 22.35 82.05
Q 22.55 82.35 22.95 82.6 23.35 83.1 23.95 83.75 23.95 83.8 24.25 84.05 24.3 84.2 24.65 84.45
L 24.75 84.55
Q 24.95 84.65 25.9 85.6 25.95 85.7 27.45 87.4 28.05 87.9 29.6 89.25 31.3 90.55 31.75 90.95 31.85 91.15 33.7 92.4 34.65 92.9 36.95 94.5 38.45 95.2 39.6 95.8 40.1 95.9 41.7 96.7 41.7 96.6 41.85 96.6 41.75 96.4 41.35 95.9 41.05 95.6 41.05 95 41.05 94.65 39.6 90.45 38.15 86.2 38.05 85.95 38.1 85.2 37.7 84.75 37.5 84.5 33.35 80.55 41.95 78.15 48.65 76.75 51.7 76 54.6 73.6
L 53.2 74.05
Q 51 75.35 47.75 76.1 45.1 76.65 42.85 76.65 42.35 76.65 41.35 74.45 40.4 72.4 40.1 70.95 39.55 68.35 39.1 61.95
L 38.9 62.15
Q 38.85 62.4 38.55 65.8 38.35 67.6 38.2 68.1 35.05 65.8 33.6 64.75 31.05 63 29.9 63 29.75 63 25.1 66.45
L 25.1 64.05
Q 25.3 60 25.35 58.75 25.45 56.85 25.3 56.35
L 25.15 56.35
Q 24.05 57.45 23.35 61.5 22.75 65.1 22.95 66.05
L 22.65 65.55
Q 20.55 63 16.4 47.5 12.45 32.65 11.1 23.2 10.75 20.65 10.15 17.85 9.95 16.6 9.3 13.95 8.55 10.1 8.55 9.45 8.55 8.45 7.85 4.75
M 20.85 74.1
Q 20.85 73.1 21.2 66.65
L 21.25 66.65
Q 21.8 69 22.65 73.3 23.4 77.35 23.45 78.1 23.4 78.1 23.35 77.8 23.3 77.4 22.75 77.4 22.15 77.4 21.65 76.85 20.85 76 20.85 74.1
M 31.35 83.8
L 31.1 84 27.45 84
Q 27.4 83.95 27.35 84.15 27.3 84.25 27.3 83.7 27.3 83.15 27.55 82.45 27.9 81.6 27.95 81.45
L 28 81.45
Q 28.55 81.95 31.35 83.8
M 38.8 77.5
Q 38.7 77.5 38.7 77.4
L 38.7 77.35 38.8 77.5
M 67.7 5.2
Q 66.65 5.9 66 9.65 65.4 12.9 65.55 14.7 59.15 14.9 54.1 15.3 50.5 15.6 49.85 15.75 45.2 11.65 45 11.85 45.05 13.5 45.95 16.5 46.8 19.25 46.8 19.45 46.8 20.9 44.85 22.55 43.25 23.9 42.8 23.9 42.3 23.9 40.85 23.55 39.4 23.15 38.9 23.15 38.3 23.15 38.15 23.35 38.2 23.6 38.15 23.6
L 38.15 23.65
Q 47.45 30.9 48.3 31.8 48.95 32.5 51.95 38.65 53.4 41.6 54.65 44.15 55.55 46.15 58.3 52.6
L 58.55 51.9
Q 58.7 51.35 59.05 47.95 59.45 44.4 59.6 43.65 65.4 38.55 74.95 31 76.05 30.15 75.55 27.25 75.45 27.3 76.05 20.45
L 75.75 20.45
Q 75.5 20.9 74.7 24.6 73.9 28.15 73.8 28.25 72.5 29.2 70.5 30.45 68.75 31.6 68.4 31.85 68.95 23.7 68.7 16.05 68.45 9.15 67.7 5.2
M 64.15 23.85
L 64.2 23.85
Q 63.5 25.6 62.4 32.05 61 37.4 58.4 36.4 58.9 35.45 61.35 29.55 63.4 24.5 64.15 23.85
M 49.85 18.2
L 50.35 18.2
Q 50.55 18.2 54.3 22.9 58.25 27.7 58.75 28.85
L 58.85 29
Q 58.75 28.95 57.55 28.3 55.85 27.4 50.05 24.7 50.65 24.4 51.25 24.55 51.75 24.7 53.55 25.1
L 53.9 25.2
Q 52.2 22.5 50.05 18.3 50.1 18.25 49.85 18.2 Z"/>

<path fill="#8BA0B0" stroke="none" d="
M 38.7 77.4
Q 38.7 77.5 38.8 77.5
L 38.7 77.35 38.7 77.4
M 31.1 84
L 31.35 83.8
Q 28.55 81.95 28 81.45
L 27.95 81.45
Q 27.9 81.6 27.55 82.45 27.3 83.15 27.3 83.7 27.3 84.25 27.35 84.15 27.4 83.95 27.45 84
L 31.1 84
M 21.2 66.65
Q 20.85 73.1 20.85 74.1 20.85 76 21.65 76.85 22.15 77.4 22.75 77.4 23.3 77.4 23.35 77.8 23.4 78.1 23.45 78.1 23.4 77.35 22.65 73.3 21.8 69 21.25 66.65
L 21.2 66.65
M 84.2 16.3
Q 84.6 12.25 84.6 11.1 84.6 8.15 76.65 0 73.9 0.6 70.5 1.25 63.8 2.45 60.3 2.45 58.75 2.75 55.55 3.2 49.15 4.05 39.1 4.65 33 4.95 22.4 5.1 12.25 5.2 7.85 4.75 8.55 8.45 8.55 9.45 8.55 10.1 9.3 13.95 9.95 16.6 10.15 17.85 10.75 20.65 11.1 23.2 12.45 32.65 16.4 47.5 20.55 63 22.65 65.55
L 22.95 66.05
Q 22.75 65.1 23.35 61.5 24.05 57.45 25.15 56.35
L 25.3 56.35
Q 25.45 56.85 25.35 58.75 25.3 60 25.1 64.05
L 25.1 66.45
Q 29.75 63 29.9 63 31.05 63 33.6 64.75 35.05 65.8 38.2 68.1 38.35 67.6 38.55 65.8 38.85 62.4 38.9 62.15
L 39.1 61.95
Q 39.55 68.35 40.1 70.95 40.4 72.4 41.35 74.45 42.35 76.65 42.85 76.65 45.1 76.65 47.75 76.1 51 75.35 53.2 74.05
L 54.6 73.6
Q 51.7 76 48.65 76.75 41.95 78.15 33.35 80.55 37.5 84.5 37.7 84.75 38.1 85.2 38.05 85.95 38.15 86.2 39.6 90.45 41.05 94.65 41.05 95 41.05 95.6 41.35 95.9 41.75 96.4 41.85 96.6 50.7 93.75 54.8 90.75 61.45 85.9 70.5 69.45
L 71.25 67.6
Q 72.1 65.8 72.2 65.45 72.85 63.75 73.05 63.15 73.65 61.55 76.8 50.85 79.75 40.7 79.8 40.7 79.85 40.7 79.9 40.7 79.9 40.45 79.9 40.25 79.9 39.85 80.1 39.45
L 80.1 39.35
Q 80.1 39.3 80.15 39.3
L 80.15 39.2
Q 80.15 38.85 80.2 38.45 80.2 38.3 80.25 38.2 80.25 38.15 80.25 38.1 80.25 37.6 80.6 36.25 80.9 34.9 80.9 34.4 80.9 33.9 81.3 32.6 81.65 31.25 81.65 30.75 81.65 30.5 81.6 30.35 81.7 30.35 81.8 30.35 81.8 30.25 81.8 30.1 81.8 29.35 82 28.65 82 28.5 82.05 28.35 82.05 28.1 82.05 27.85 82.1 27.5 82.25 27.15 82.25 27.1 82.25 27.05 82.3 26.95 82.4 26.9 82.45 26.4 82.7 25.45 83 24.25 83 23.75 83 23.1 83.5 21.6 83.8 20.65 84.2 16.3
M 66 9.65
Q 66.65 5.9 67.7 5.2 68.45 9.15 68.7 16.05 68.95 23.7 68.4 31.85 68.75 31.6 70.5 30.45 72.5 29.2 73.8 28.25 73.9 28.15 74.7 24.6 75.5 20.9 75.75 20.45
L 76.05 20.45
Q 75.45 27.3 75.55 27.25 76.05 30.15 74.95 31 65.4 38.55 59.6 43.65 59.45 44.4 59.05 47.95 58.7 51.35 58.55 51.9
L 58.3 52.6
Q 55.55 46.15 54.65 44.15 53.4 41.6 51.95 38.65 48.95 32.5 48.3 31.8 47.45 30.9 38.15 23.65
L 38.15 23.6
Q 38.2 23.6 38.15 23.35 38.3 23.15 38.9 23.15 39.4 23.15 40.85 23.55 42.3 23.9 42.8 23.9 43.25 23.9 44.85 22.55 46.8 20.9 46.8 19.45 46.8 19.25 45.95 16.5 45.05 13.5 45 11.85 45.2 11.65 49.85 15.75 50.5 15.6 54.1 15.3 59.15 14.9 65.55 14.7 65.4 12.9 66 9.65
M 50.35 18.2
L 49.85 18.2
Q 50.1 18.25 50.05 18.3 52.2 22.5 53.9 25.2
L 53.55 25.1
Q 51.75 24.7 51.25 24.55 50.65 24.4 50.05 24.7 55.85 27.4 57.55 28.3 58.75 28.95 58.85 29
L 58.75 28.85
Q 58.25 27.7 54.3 22.9 50.55 18.2 50.35 18.2
M 64.2 23.85
L 64.15 23.85
Q 63.4 24.5 61.35 29.55 58.9 35.45 58.4 36.4 61 37.4 62.4 32.05 63.5 25.6 64.2 23.85 Z"/>
</g>

<g id="Symbol_9_0_Layer0_0_FILL">
<path fill="#FFCC00" stroke="none" d="
M 37.2 151.35
Q 36.6 151.3 36 151.3 35.4 151.25 34.8 151.25 34.35 151.25 33.95 151.2 33.75 151.2 33.55 151.2 33.35 151.15 33.15 151.15 32.75 151.15 32.35 151.1 31.95 151.1 31.55 151.05 31.3 151.05 31.1 151 30.1 150.95 29.1 150.9 28.7 150.9 28.25 150.85 27.65 150.85 27.05 150.8 26.65 150.8 26.25 150.8 26.05 150.8 25.85 150.75 25.4 150.75 25 150.75 24.6 150.7 24.2 150.7 24 150.7 23.8 150.7 22.55 150.6 21.35 150.55 20.95 150.55 20.55 150.5 20.35 150.5 20.15 150.5 19.7 150.5 19.3 150.45 18.7 150.45 18.1 150.4 17.5 150.4 16.85 150.35 16.45 150.35 16.05 150.3 15.85 150.3 15.65 150.3 15.5650390625 150.27890625 15.45 150.25
L 15.45 150.25
Q 13.7279296875 150.206640625 12 150.15 8.95 150.05 5.9 149.95 2.85 149.85 -0.2 149.8 -3.9 149.7 -7.55 149.55 -11.8 149.4 -16.1 149.3 -19.15 149.25 -22.2 149.15 -24.237890625 149.083203125 -26.3 149
L -29.1 148.9
Q -30.33125 148.916796875 -31.55 148.9 -32.970703125 148.8611328125 -34.4 148.8 -34.7640625 148.7939453125 -35.15 148.75
L -38.35 148.7
Q -38.6115234375 148.7078125 -38.9 148.7
L -39.7 148.65
Q -42.95 148.64453125 -46.2 148.6 -49.85 148.5 -53.55 148.45 -57.2 148.35 -60.85 148.3 -64.5 148.2 -68.2 148.15 -71.85 148.1 -75.5 148 -75.9568359375 147.9966796875 -76.45 148 -76.5875 148 -76.75 148 -77.35 148.05 -77.95 148.05 -78.55 148.05 -79.15 148.05 -80.4 148.05 -81.6 148.1 -82.2 148.1 -82.85 148.1 -83.45 148.15 -84.05 148.15 -84.65 148.15 -85.25 148.15 -86.5 148.2 -87.7 148.2 -88.3 148.25 -88.95 148.25 -89.55 148.25 -90.15 148.3 -90.75 148.3 -91.4 148.35 -92 148.35 -92.6 148.35 -93.2 148.4 -93.8 148.4 -94.45 148.4 -95.05 148.45 -95.45 148.45 -95.85 148.5 -96.25 148.5 -96.65 148.5 -97.3 148.55 -97.9 148.55 -98.5 148.6 -99.1 148.6 -99.7 148.6 -100.35 148.65 -100.95 148.65 -101.55 148.65 -102.15 148.7 -102.75 148.7 -103.4 148.75 -104 148.75 -104.6 148.75 -105.2 148.8 -105.8 148.8 -106.45 148.85 -106.85 148.85 -107.25 148.9 -107.45 148.9 -107.65 148.9 -108.05 148.95 -108.45 148.95 -109.1 148.95 -109.7 149 -110.1 149 -110.5 149.05 -110.7 149.1 -110.9 149.1 -111.1 149.1 -111.3 149.15 -111.7 149.15 -112.15 149.15 -112.75 149.15 -113.35 149.2 -113.75 149.2 -114.15 149.25 -114.55 149.25 -115 149.3 -115.6 149.3 -116.2 149.35 -116.6 149.35 -117 149.4 -117.2 149.4 -117.4 149.4 -117.8 149.45 -118.25 149.45 -118.85 149.45 -119.45 149.5 -119.85 149.5 -120.25 149.55 -120.45 149.55 -120.65 149.55 -121.1 149.55 -121.5 149.6 -122.1 149.6 -122.7 149.65 -123.1 149.65 -123.5 149.7 -123.95 149.7 -124.35 149.75 -124.75 149.75 -125.15 149.8 -125.35 149.8 -125.55 149.8 -125.95 149.85 -126.35 149.85 -127 149.85 -127.6 149.9 -128 149.9 -128.4 149.95 -128.6 149.95 -128.8 149.95 -129.2 150 -129.6 150 -130.25 150 -130.85 150.05 -131.25 150.05 -131.65 150.1 -132.05 150.1 -132.45 150.15 -132.9 150.15 -133.3 150.2 -133.7 150.2 -134.1 150.25 -134.5 150.25 -134.9 150.3 -135.3 150.3 -135.75 150.35 -136.15 150.35 -136.55 150.4 -136.75 150.4 -136.95 150.4 -137.35 150.45 -137.75 150.45 -138.35 150.45 -139 150.5 -139.4 150.5 -139.8 150.55 -140.2 150.55 -140.6 150.6 -141 150.6 -141.4 150.65 -141.85 150.65 -142.25 150.7 -142.65 150.7 -143.05 150.75 -143.25 150.75 -143.45 150.75 -143.85 150.75 -144.25 150.8 -144.7 150.8 -145.1 150.85 -145.5 150.85 -145.9 150.9 -146.3 150.9 -146.7 150.95 -146.9 150.95 -147.1 151 -147.55 151 -147.95 151.05 -148.35 151.05 -148.75 151.1 -148.95 151.1 -149.15 151.1 -149.55 151.1 -149.95 151.15 -150.35 151.15 -150.8 151.2 -151.2 151.2 -151.6 151.25 -152.2 151.25 -152.8 151.3 -153.2291015625 151.31328125 -153.65 151.3
L -153.7 151.3
Q -154.1556640625 151.3384765625 -154.6 151.35 -154.9251953125 151.35 -155.25 151.35 -155.449609375 151.3666015625 -155.65 151.35 -156.082421875 151.3890625 -156.5 151.4 -156.53359375 151.40078125 -156.6 151.4 -156.73359375 151.4083984375 -156.9 151.45 -157.1 151.45 -157.3 151.5 -157.5 151.5 -157.7 151.55 -157.9 151.55 -158.1 151.6 -158.3 151.6 -158.5 151.6 -158.7 151.65 -158.9 151.7 -159.35 151.7 -159.75 151.75 -160.15 151.75 -160.55 151.8 -160.95 151.85 -161.35 151.85 -161.75 151.9 -162.15 151.9 -162.4 151.95 -162.6 151.95 -162.8 151.95 -163 151.95 -163.2 152 -163.4 152 -163.6 152 -163.8 152.05 -164.2 152.1 -164.6 152.1 -165 152.15 -165.45 152.15 -165.65 152.2 -165.85 152.2 -166.05 152.2 -166.25 152.2 -166.65 152.25 -167.05 152.25 -167.45 152.3 -167.85 152.3 -168.05 152.35 -168.3 152.4 -168.5 152.4 -168.7 152.45 -168.9 152.45 -169.1 152.45 -169.3 152.5 -169.5 152.5 -169.7 152.5 -169.9 152.55 -170.3 152.55 -170.7 152.6 -171.1 152.7 -171.55 152.75 -171.95 152.8 -172.35 152.8 -172.75 152.9 -173.15 152.95 -173.55 152.95 -173.95 153 -174.4 153.1 -174.8 153.15 -175.2 153.2 -175.6 153.2 -176 153.25 -176.4 153.3 -176.8 153.3 -177.25 153.35 -177.65 153.35 -178.05 153.4 -178.45 153.45 -178.85 153.45 -179.25 153.5 -179.65 153.55 -180.05 153.6 -180.5 153.6 -180.9 153.65 -181.3 153.7 -181.7 153.7 -182.1 153.75 -182.3 153.75 -182.5 153.8 -182.7 153.85 -182.9 153.9 -183.15 153.9 -183.35 153.9 -183.55 153.95 -183.75 153.95 -183.95 154 -184.15 154.1 -184.55 154.15 -184.95 154.15 -185.0873046875 154.2015625 -185.25 154.25 -157.7767578125 157.4505859375 -107.15 158.9 -86.178515625 159.3064453125 -71.4 159.65 -69.790625 159.6556640625 -68.15 159.7 -66.3 159.7 -64.5 159.75 -62.65 159.8 -60.8 159.8 -59 159.85 -57.15 159.9 -56.1244140625 159.9 -55.1 159.9 -54.8919921875 159.9091796875 -54.7 159.9 -54.0419921875 159.87265625 -53.4 159.85 -53.23984375 159.85 -53.1 159.85 -52.5 159.85 -51.85 159.85 -51.25 159.85 -50.65 159.85 -50.05 159.85 -49.45 159.8 -48.8 159.8 -48.2 159.8 -47.6 159.8 -47 159.75 -46.6 159.75 -46.2 159.7 -45.95 159.7 -45.75 159.7 -45.351171875 159.7 -44.95 159.7 -41.9 159.65 -38.85 159.6 -36.4 159.5 -33.95 159.45 -30.9 159.35 -27.85 159.25 -26.05 159.2 -24.2 159.15 -21.15 159.1 -18.1 159 -13.85 158.85 -9.55 158.7 -5.9 158.6 -2.25 158.45 0.6 158.35 3.45 158.25 3.65 158.25 3.85 158.2 4.5 158.2 5.1 158.15 5.7 158.15 6.3 158.1 7.35 158.05 8.35 158 9.15 158 10 157.95 11.6 157.85 13.25 157.8 15.65 157.65 18.1 157.55 19.95 157.5 21.8 157.45 23 157.4 24.2 157.4 25.85 157.35 27.45 157.25 28.7 157.2 29.9 157.1 31.75 157.05 33.6 156.95 34 156.95 34.4 156.9 34.6 156.9 34.8 156.9 35.2 156.9 35.6 156.85 36.2 156.85 36.85 156.8 37.25 156.8 37.65 156.75 38.05 156.7 38.45 156.7 39.05 156.65 39.7 156.6 40.3 156.55 40.9 156.5 41.5 156.5 42.1 156.45 42.75 156.45 43.35 156.4 43.75 156.4 44.15 156.35 44.35 156.35 44.55 156.35 44.75 156.35 44.95 156.3 45.4 156.3 45.8 156.25 46.2 156.25 46.6 156.2 46.8 156.2 47 156.2 47.2 156.2 47.4 156.15 47.8 156.15 48.2 156.15 48.85 156.1 49.45 156.05 49.85 156.05 50.25 156 50.45 156 50.65 156 51.05 156 51.5 155.95 51.9 155.95 52.3 155.9 52.5 155.9 52.7 155.9 53.1 155.9 53.5 155.85 54.1 155.85 54.75 155.8 55.15 155.8 55.55 155.75 55.95 155.75 56.35 155.7 56.75 155.7 57.2 155.65 57.6 155.65 58 155.6 58.4 155.6 58.8 155.55 59 155.55 59.2 155.55 59.4 155.55 59.6 155.5 59.8 155.5 60 155.5 60.25 155.45 60.45 155.45 60.65 155.4 60.85 155.4 61.05 155.4 61.25 155.35 61.45 155.35 61.65 155.35 61.85 155.3 62.05 155.3 62.45 155.25 62.85 155.2 63.3 155.2 63.7 155.15 63.9 155.15 64.1 155.15 64.3 155.15 64.5 155.1 64.7 155.1 64.9 155.1 65.1 155.05 65.3 155.05 65.5 155 65.7 154.9 66.15 154.9 66.55 154.85 66.95 154.85 67.35 154.8 67.75 154.8 68.15 154.75 68.257421875 154.7232421875 68.35 154.7 68.657421875 154.6865234375 68.95 154.65 69.4 154.65 69.8 154.6 70 154.6 70.2 154.6 70.4 154.6 70.6 154.55 70.8 154.55 71 154.55 71.2 154.5 71.4 154.5 71.6 154.45 71.8 154.4 72.05 154.4 72.25 154.35 72.45 154.35 72.65 154.35 72.85 154.3 73.05 154.25 73.25 154.2 73.45 154.2 73.65 154.15 73.85 154.15 74.05 154.1 74.25 154 74.45 153.95 74.65 153.95 74.85 153.9 75.1 153.9 75.5 153.85 75.9 153.8
L 75.9 153.75
Q 75.7 153.75 75.5 153.75 75.3 153.7 75.1 153.7 74.65 153.65 74.25 153.65 74.05 153.65 73.85 153.6 73.65 153.6 73.45 153.6 73.05 153.55 72.65 153.55 72.474609375 153.55 72.3 153.55 72.4697265625 153.4951171875 72.65 153.45 72.45 153.45 72.25 153.45 72.25 153.4 72.2 153.4 72 153.35 71.8 153.35 71.6 153.35 71.4 153.35 71.2 153.3 71 153.3 70.8 153.25 70.6 153.25 70.4 153.25 70.2 153.25 70 153.2 69.8 153.2 69.6 153.15 69.4 153.15 68.95 153.15 68.55 153.1 68.15 153.1 67.75 153.05 67.35 153.05 66.95 153 66.55 153 66.1 152.95 65.9 152.95 65.7 152.95 65.3 152.9 64.9 152.9 64.3 152.9 63.7 152.85 63.05 152.8 62.45 152.8 62.05 152.75 61.65 152.7 61.45 152.65 61.25 152.65 61.05 152.65 60.85 152.65 60.4 152.6 60 152.6 59.4 152.6 58.8 152.55 58.4 152.55 58 152.5 57.55 152.5 57.15 152.45 56.75 152.45 56.35 152.4 56.15 152.4 55.95 152.4 55.55 152.35 55.15 152.35 54.5 152.3 53.9 152.3 53.3 152.3 52.7 152.25 52.51875 152.25 52.35 152.25
L 52.3 152.25
Q 51.25 152.15 50.25 152.1 49.85 152.1 49.45 152.05 49.05 152.05 48.6 152 48.4 152 48.2 152 48 151.95 47.8 151.95 47.4 151.95 47 151.9 46.6 151.9 46.2 151.85 45.95 151.85 45.75 151.85 45.55 151.8 45.35 151.8 44.95 151.8 44.55 151.75 43.95 151.75 43.35 151.7 42.7 151.7 42.1 151.65 41.7 151.65 41.3 151.6 40.9 151.55 40.5 151.5 39.25 151.5 38.05 151.4 37.65 151.4 37.2 151.35
M -88.55 148.95
Q -89.110546875 148.95 -90.25 148.95 -89.7869140625 148.95 -89.35 148.95 -88.75 148.9 -88.1 148.9 -87.5 148.9 -86.9 148.85 -86.525 148.85 -86.15 148.85 -88.1 148.95 -88.55 148.95 Z"/>
</g>
</defs>

<g transform="matrix( 1, 0, 0, 1, 100,100) ">
<g transform="matrix( 1, 0, 0, 1, -39.9,-42.1) ">
<g transform="matrix( 1, 0, 0, 1, 0,0) ">
<use xlink:href="#Symbol_23_0_Layer0_0_FILL"/>
</g>
</g>

<g transform="matrix( -0.03802490234375, 0.0365447998046875, -0.096343994140625, -0.100250244140625, -18.9,75.8) ">
<g transform="matrix( 1, 0, 0, 1, 0,0) ">
<use xlink:href="#Symbol_9_0_Layer0_0_FILL"/>
</g>
</g>

<g transform="matrix( -0.0252685546875, 0.0462799072265625, -0.12200927734375, -0.066650390625, -0.4,73.05) ">
<g transform="matrix( 1, 0, 0, 1, 0,0) ">
<use xlink:href="#Symbol_9_0_Layer0_0_FILL"/>
</g>
</g>

<g transform="matrix( -0.0501861572265625, 0.0161895751953125, -0.042694091796875, -0.1323089599609375, -29.1,64.5) ">
<g transform="matrix( 1, 0, 0, 1, 0,0) ">
<use xlink:href="#Symbol_9_0_Layer0_0_FILL"/>
</g>
</g>
</g>
</svg>
