
<svg xmlns="http://www.w3.org/2000/svg" version="1.1" xmlns:xlink="http://www.w3.org/1999/xlink" preserveAspectRatio="none" x="0px" y="0px" width="200px" height="200px" viewBox="0 0 200 200">
<defs>
<g id="Symbol_21_0_Layer0_0_FILL">
<path fill="#52656A" stroke="none" d="
M 12.8 0
Q 7.05 3.45 3.75 6.85 0.25 10.55 0.2 13.55
L 0 18.6
Q 0.5 18.9 0.05 20.95 0.1 22.65 0.1 23.45 0.1 25.15 0.35 29 0.45 34.25 1 37.35 3.5 52.2 4.8 58.85 7.05 70.25 10.05 77.45 17.7 95.85 38.5 105.35 37.85 104.4 37.4 102 36.25 96.05 35.75 94 35.8 93.1 35.8 92.85 35.75 92.6 34.1 90.9 27.65 84.2 25.8 80.85 25.25 79 25 79 24.85 79 23.8 77.35 23.15 75.9 22.65 74.7 21.85 73.25 21.7 72.95
L 21.25 72.2
Q 20.65 71.6 20.65 70.6 20.65 69.95 19.15 64.8 17.35 58.75 16.6 53.85 14.7 42 14.3 34.65 13.45 19.1 13.45 18.15
L 12.8 0
M 69.45 15.55
Q 68.8 17.4 68.1 23.25
L 53.85 19.85 52.6 19.9
Q 47.35 14.1 47.15 14.2 47.15 14.4 48.1 18.1 49.05 21.8 49.05 22.3 49.05 23.55 47.2 25.05 45.5 26.45 44.3 26.45 38.75 24.3 38.6 24.3 37.6 24.3 37.95 24.55 38.4 25.35 44.65 29.9 51 34.5 51.4 35.1 52.5 36.65 56.5 47.7 58.7 53.7 62.4 64.3 63.15 61.7 63.35 54.6 63.4 53.35 65.25 51.7 66.3 50.75 68.15 49.35 69.85 47.85 73.35 43.65 76 40.45 76.7 40.45
L 77.15 40.85
Q 77.55 40.55 77.55 37.1 77.55 34.4 77.3 31.3
L 77.15 31.3
Q 75.25 32.3 76.15 35.25 77.1 38.35 74.4 40.2 72.7 41.35 72.1 42
L 71.75 42.4
Q 72 37.35 69.45 15.55
M 53.55 25.55
Q 53.65 25.45 53.9 25.4
L 54 25.4
Q 54.45 26.5 57.8 29.15 59.45 30.45 61 31.65 61 32.25 61.3 32.45 61.5 32.55 61.7 32.65
L 62 32.95
Q 58.35 33.1 57.05 30.9 54.25 26.25 53.55 25.55
M 67 31.4
Q 67.1 31.65 67.15 31.85 67.3 32.3 67.3 32.9 66.5 42.6 66.5 43.6 66.5 43.75 65.85 44.1 65.1 44.5 64.15 44.7 64.5 44.25 64.4 44.2
L 64.05 44.6
Q 65.15 38.75 67 31.4
M 64.6 43.25
L 64.45 43.5 64.45 43.75 64.6 43.25
M 66.1 35.4
L 66.05 35.45
Q 66.05 35.9 66.1 35.95 66.15 35.95 66.15 35.9
L 66.1 35.4 Z"/>

<path fill="#8BA0B0" stroke="none" d="
M 91.7 20.95
Q 86.9 10.45 86.05 9.7 71.15 9.1 70.8 9.1 70.65 9.1 49.65 7 49.65 6.95 39.25 5.3 27.55 3.45 22.9 2.35 19.8 1.65 16.9 1.1 15.55 0.85 12.8 0
L 13.45 18.15
Q 13.45 19.1 14.3 34.65 14.7 42 16.6 53.85 17.35 58.75 19.15 64.8 20.65 69.95 20.65 70.6 20.65 71.6 21.25 72.2
L 21.7 72.95
Q 21.85 73.25 22.65 74.7 23.15 75.9 23.8 77.35 24.85 79 25 79 25.25 79 25.8 80.85 27.65 84.2 34.1 90.9 35.75 92.6 35.8 92.85 35.8 93.1 35.75 94 36.25 96.05 37.4 102 37.85 104.4 38.5 105.35 40.5 104.65 44.7 102.65 48.05 101.05 48.6 101.05 48.85 101.05 56.85 94.95 58.95 93.3 65.15 85.7 71.65 77.7 71.65 76.1 71.65 75.5 71.8 75.55 71.9 75.55 72 75.65
L 72.85 74.15
Q 73.55 72.55 74.15 71.55 74.7 70.6 74.75 70.4 74.7 70.65 76.05 67.65 81.95 54.9 84.35 47.15 84.35 46.6 84.65 45.9 85 45 85.05 44.7 85.1 44.5 85.5 43.65 85.8 43.05 85.8 42.45 85.8 41.95 86.15 41.25 86.5 40.55 86.5 40.05 86.5 39.55 86.9 39 87.25 38.4 87.25 37.9 87.25 37.4 87.6 36.75 87.95 36.1 87.95 35.6 87.95 35 88.1 34.65 88.2 34.5 88.4 34.15
L 89.5 30.7
Q 89.55 30.15 90.7 25.85 91.7 21.85 91.7 20.95
M 68.1 23.25
Q 68.8 17.4 69.45 15.55 72 37.35 71.75 42.4
L 72.1 42
Q 72.7 41.35 74.4 40.2 77.1 38.35 76.15 35.25 75.25 32.3 77.15 31.3
L 77.3 31.3
Q 77.55 34.4 77.55 37.1 77.55 40.55 77.15 40.85
L 76.7 40.45
Q 76 40.45 73.35 43.65 69.85 47.85 68.15 49.35 66.3 50.75 65.25 51.7 63.4 53.35 63.35 54.6 63.15 61.7 62.4 64.3 58.7 53.7 56.5 47.7 52.5 36.65 51.4 35.1 51 34.5 44.65 29.9 38.4 25.35 37.95 24.55 37.6 24.3 38.6 24.3 38.75 24.3 44.3 26.45 45.5 26.45 47.2 25.05 49.05 23.55 49.05 22.3 49.05 21.8 48.1 18.1 47.15 14.4 47.15 14.2 47.35 14.1 52.6 19.9
L 53.85 19.85 68.1 23.25
M 67.15 31.85
Q 67.1 31.65 67 31.4 65.15 38.75 64.05 44.6
L 64.4 44.2
Q 64.5 44.25 64.15 44.7 65.1 44.5 65.85 44.1 66.5 43.75 66.5 43.6 66.5 42.6 67.3 32.9 67.3 32.3 67.15 31.85
M 66.05 35.45
L 66.1 35.4 66.15 35.9
Q 66.15 35.95 66.1 35.95 66.05 35.9 66.05 35.45
M 64.45 43.5
L 64.6 43.25 64.45 43.75 64.45 43.5
M 53.9 25.4
Q 53.65 25.45 53.55 25.55 54.25 26.25 57.05 30.9 58.35 33.1 62 32.95
L 61.7 32.65
Q 61.5 32.55 61.3 32.45 61 32.25 61 31.65 59.45 30.45 57.8 29.15 54.45 26.5 54 25.4
L 53.9 25.4 Z"/>
</g>
</defs>

<g transform="matrix( 1, 0, 0, 1, 100,100) ">
<g transform="matrix( 1, 0, 0, 1, -38.35,-48.5) ">
<g transform="matrix( 1, 0, 0, 1, 0,0) ">
<use xlink:href="#Symbol_21_0_Layer0_0_FILL"/>
</g>
</g>
</g>
</svg>
