
<svg xmlns="http://www.w3.org/2000/svg" version="1.1" xmlns:xlink="http://www.w3.org/1999/xlink" preserveAspectRatio="none" x="0px" y="0px" width="200px" height="200px" viewBox="0 0 200 200">
<defs>
<g id="Symbol_18_0_Layer0_0_FILL">
<path fill="#FFFF00" stroke="none" d="
M 92.7 36.4
Q 92.721484375 36.3294921875 92.75 36.25
L 92.75 36.05
Q 92.715625 36.3421875 92.7 36.4
M 95.75 15.9
Q 95.75 12.8 88.3 3.65 69.75 4.5 68.75 4.5 51.45 4.5 43.95 3.85 22.65 1.95 22.3 1.95 21.45 1.9 16.9 0.95 12.55 0 11 0 9.15 0 4.4 6.7 0.2923828125 12.5544921875 0.05 13.4 0.1 13.464453125 0.1 13.55
L 0.1 13.6
Q 0.15 13.7 0.15 13.75 0.2 13.85 0.2 13.9 0.25 14 0.3 14.15 0.2658203125 14.25234375 0.25 14.35 0.79140625 14.40546875 0.7 15 0.607421875 15.5095703125 0.3 15.85 0.3 15.8986328125 0.3 15.95
L 0.45 16.05
Q 0.45 16.175 0.35 16.15 0.3931640625 16.2646484375 0.45 16.35 0.55 16.7 0.6 17.05 0.75 17.5 0.9 17.95 0.9 18 0.95 18.05
L 0.95 18.15
Q 0.95 18.2 0.95 18.25 1 18.3 1 18.35
L 1 18.4
Q 1 18.5 1 18.55 1 18.6 1 18.65 1.05 18.7 1.05 18.8 1.05 18.85 1.05 18.95 1.05 19.05 1.1 19.15 1.2 19.35 1.2 19.5 1.2 19.65 1.2 19.75 1.2 19.8 1.25 19.85
L 1.25 19.9
Q 1.25 19.95 1.3 20
L 1.3 20.05
Q 1.3 20.1 1.3 20.15
L 1.3 20.2
Q 1.3 20.25 1.3 20.3
L 1.35 20.35
Q 1.35 20.4 1.35 20.45
L 1.35 20.5
Q 1.4 20.6 1.4 20.65 1.45 20.75 1.45 20.8 1.45 20.85 1.5 20.9
L 1.5 20.95
Q 1.5 21 1.5 21.05
L 1.5 21.1
Q 1.5 21.15 1.5 21.2
L 1.5 21.25
Q 1.5 21.35 1.5 21.4 1.5 21.45 1.5 21.5 1.55 21.55 1.55 21.65 1.55 21.7 1.55 21.8 1.55 21.9 1.6 22 1.6 22.15 1.6 22.3 1.6 22.4 1.6 22.45 1.65 22.55 1.65 22.65 1.7 22.85 1.75 22.95 1.8 23.2 1.9 23.45 1.95 23.6 2 23.75
L 2 23.8
Q 2 23.85 2 23.9 2 23.95 2 24.05 2.05 24.1 2.05 24.15 2.05 24.3 2.1 24.4 2.15 24.55 2.2 24.7 2.25 24.8 2.3 24.95
L 2.3 25
Q 2.3 25.05 2.3 25.1
L 2.3 25.15
Q 2.3 25.2 2.3 25.25 2.3 25.3 2.35 25.35 2.35 25.45 2.4 25.55
L 2.4 25.6
Q 2.4 25.65 2.4 25.7
L 2.4 25.75
Q 2.4 25.8 2.4 25.85
L 2.4 25.9
Q 2.4 25.95 2.4 26
L 2.4 26.05
Q 2.45 26.15 2.45 26.2 2.45 26.3 2.45 26.35 2.5 26.45 2.5 26.5 2.5 26.6 2.5 26.75 2.5 26.8 2.5 26.9 2.5 27 2.55 27.1 2.6 27.2 2.65 27.35 2.65 27.5 2.7 27.7 2.7 27.9 2.7 28.1 2.75 28.2 2.75 28.3 2.8 28.4 2.8 28.5 2.8 28.7 2.8 28.9 2.8 29.15 2.8 29.35 2.85 29.45 2.85 29.5 2.85 29.6 2.85 29.65 2.85 29.75 2.9 29.9 2.9 30.05 2.9 30.2 2.9 30.3 2.9 30.4 2.9 30.45 2.95 30.5
L 2.95 30.55
Q 2.95 30.6 3 30.65
L 3 30.7
Q 3 30.75 3.05 30.8
L 3.05 30.85
Q 3.05 30.9 3.1 30.95
L 3.1 31
Q 3.1 31.05 3.1 31.1
L 3.1 31.15
Q 3.1 31.2 3.15 31.25
L 3.15 31.3
Q 3.15 31.35 3.15 31.4 3.2 31.4 3.2 31.45 3.2 31.5 3.25 31.55
L 3.25 31.65
Q 3.25 31.7 3.25 31.75 3.3 31.8 3.3 31.85
L 3.3 31.9
Q 3.3 32 3.35 32.05 3.35 32.15 3.4 32.2 3.4 32.3 3.4 32.35 3.45 32.45 3.45 32.6 3.5 32.65 3.5 32.75
L 3.5 32.8
Q 3.5 32.85 3.55 32.9
L 3.55 32.95
Q 3.55 33 3.6 33.05 3.6 33.1 3.6 33.2
L 3.6 33.25
Q 3.6 33.35 3.6 33.4 3.6 33.5 3.6 33.55 3.6 33.65 3.6 33.8 3.65 33.9 3.65 34 3.7 34.15 3.7 34.3 3.75 34.55 3.8 34.75 3.9 34.95 3.9 35.15 3.95 35.4 4.1 35.65 4.35 36.1 4.45 36.6 4.5 37.15 4.5 37.7 4.55 37.75 4.55 37.85 4.55 37.9 4.55 38 4.6 38.05 4.6 38.1 4.6 38.25 4.6 38.35 4.6 38.3908203125 4.6 38.45 4.72890625 38.539453125 4.65 38.75 4.71484375 38.92421875 4.75 39.1 4.8478515625 39.5888671875 4.9 40.1 4.9951171875 40.1873046875 4.95 40.3 4.929296875 40.3619140625 4.9 40.4 4.9 40.75625 4.9 41.1 4.925 41.13125 4.95 41.15 5.05 41.25 5.05 41.9 5.05 45.95 12.35 64.05 15.95 73.1 19.6 81.45 19.6 82.5 19.95 83.1 20.6 84.2 24.2 88.9 27.2 92.75 27.75 93.2 29.05 94.2 30.35 95.55 34.15 99.5 37.7 101.95 43.05 105.6 50.85 108.4
L 50.8 108.35
Q 60.4 104.45 60.4 103.4 60.4 102.85 60.7 103 61.15 103.15 61.35 103 62.9 102 63.85 101.35 65.6 100.2 65.6 99.5 67.8 97.65 68.35 96.8 68.4 96.75 70.85 94.05 73.7 90.5 73.95 90.1 75.7 87.75 78.25 83.35 81.0634765625 78.3908203125 81.2 76.85 81.2 76.803125 81.2 76.75
L 81.2 76.7
Q 81.2 76.65078125 81.2 76.6 81.1859375 76.16796875 81.05 76.1
L 81.25 76.15
Q 81.2783203125 76.0931640625 81.3 76.05 81.3 75.95 81.35 75.85
L 81.4 75.8
Q 81.4 75.75 81.45 75.75 81.5 75.65 81.55 75.6 81.6 75.5 81.65 75.45 81.65 75.3 81.7 75.2 81.75 75.05 81.8 74.9 81.95 74.65 82.05 74.35 82.1 74.25 82.15 74.1 82.2 74.05 82.2 74 82.25 73.95 82.25 73.9
L 82.3 73.85
Q 82.3 73.8 82.35 73.8 82.39375 73.75625 82.45 73.7 82.46875 73.509765625 82.5 73.4 83 72.2 83.2 71.75 83.5 70.95 83.5 70.35 85.65 65.4 87.55 58 89.8 50.15 90.8 46.3 90.8 46.25 90.65 45.05 90.55 44.25 91.15 44.25 91.1740234375 44.055078125 91.2 43.85 91.2 43.7580078125 91.2 43.6 91.2 43.51640625 91.2 43.45 91.26640625 43.45 91.35 43.45
L 91.35 43.4
Q 91.35 43.35 91.4 43.35 91.4 43.25 91.45 43.15 91.5 43.1 91.5 43.05 91.55 42.9 91.6 42.8 91.65 42.65 91.7 42.5
L 91.7 42.45
Q 91.7 42.15 91.7 41.9 91.7 41.45 91.8 41 91.83203125 40.8556640625 91.85 40.7 91.8884765625 40.5392578125 91.9 40.4 92.274609375 37.684375 92.7 36.4 92.65 36.55625 92.65 35.9
L 92.65 35.5 92.7 35.9 92.8 35.95
Q 93.3 33.75 93.3 32.75 93.3 32.2 93.5 31.35 93.75 30.4 93.8 29.85 93.7 28.7 93.7 28.15 93.70390625 28.0783203125 93.7 28
L 93.7 27.95
Q 93.7 27.9 93.7 27.85
L 93.75 27.8
Q 93.75 27.75 93.75 27.7 93.75 27.65 93.75 27.6
L 93.75 27.55
Q 93.75 27.5 93.8 27.5 93.8 27.4 93.85 27.3
L 93.9 27.25
Q 93.9 27.2 93.95 27.2 94 27.1 94.05 27.05 94.1 26.95 94.2 26.9 94.25 26.75 94.3 26.65 94.3 26.55 94.35 26.45 94.45 26.3 94.5 26.1 94.540625 26.01875 94.6 25.95 94.6345703125 25.8994140625 94.65 25.85 94.65 25.8 94.65 25.75 94.65 25.7119140625 94.65 25.7 94.6876953125 25.651171875 94.7 25.6
L 94.7 25.55
Q 94.7291015625 25.49765625 94.75 25.4
L 94.75 25.4
Q 94.75 25.35 94.75 25.3 94.75 25.25 94.8 25.25 94.8 25.2 94.8 25.15 94.8 25.1 94.85 25.1 94.85 25.05 94.85 25
L 94.85 24.95
Q 94.85 24.85 94.9 24.8 94.9 24.75 94.9 24.7 94.9 24.65 94.95 24.65 94.95 24.55 95 24.45 95.05 24.4 95.05 24.35 95.084375 24.2814453125 95.1 24.2 95.75 21.6796875 95.75 15.9 Z"/>
</g>
</defs>

<g transform="matrix( 1, 0, 0, 1, 100,100) ">
<g transform="matrix( 1, 0, 0, 1, -49.65,-46.6) ">
<g transform="matrix( 1, 0, 0, 1, 0,0) ">
<use xlink:href="#Symbol_18_0_Layer0_0_FILL"/>
</g>
</g>
</g>
</svg>
