
<svg xmlns="http://www.w3.org/2000/svg" version="1.1" xmlns:xlink="http://www.w3.org/1999/xlink" preserveAspectRatio="none" x="0px" y="0px" width="200px" height="200px" viewBox="0 0 200 200">
<defs>
<filter id="Filter_1" x="-20%" y="-20%" width="140%" height="140%" color-interpolation-filters="sRGB">
<feColorMatrix in="SourceGraphic" type="matrix" values="1 0 0 0 0 0 1 0 0 0 0 0 1 0 0 0 0 0 0.73 0" result="result1"/>
</filter>

<g id="Symbol_10_0_Layer0_0_FILL">
<path fill="#52656A" stroke="none" d="
M 11.05 0
Q 3.05 6.5 0.8 10.4 0 11.85 0 14.05 0 15.05 0.35 20.65 0.35 21.1 0.95 27.05
L 1.55 32.45
Q 1.7 33.65 3.65 42.75 5.6 51.7 6 53.15 8.25 61.35 9.1 64.05 11 70.1 13.3 74.7 19.1 86.35 26.1 93.15 33.85 100.65 46.95 106.3 45.95 104.4 45.85 104.15 45.75 103.6 45.15 101.85 44 98.45 42.9 94.25 42 90.8 42 90.5 39.6 88.15 36.7 85.05 30.85 78.85 28.35 74.75 24.85 69.25 24.65 68.95 21.25 63.25 18 47.65 16.5 40.1 12.85 17.75 12.7 16.55 12.15 11.65 11.85 9.3 11.8 8.3 11.2 2.25 11.05 0 Z"/>

<path fill="#8BA0B0" stroke="none" d="
M 91 5.25
Q 87.3 0.25 86.3 0.25 86.15 0.25 47.05 2 40.55 2 31.55 1.65 18 1.1 11.05 0 11.2 2.25 11.8 8.3 11.85 9.3 12.15 11.65 12.7 16.55 12.85 17.75 16.5 40.1 18 47.65 21.25 63.25 24.65 68.95 24.85 69.25 28.35 74.75 30.85 78.85 36.7 85.05 39.6 88.15 42 90.5 42 90.8 42.9 94.25 44 98.45 45.15 101.85 45.75 103.6 45.85 104.15 45.95 104.4 46.95 106.3 58.85 102.6 67.95 93.45 77.75 83.6 83.4 68.25 84.55 65.55 84.95 64.25 85.5 62.65 88.2 53.05 88.85 50.75 90.2 45 91.8 38.2 91.65 37.5
L 92.25 33.7
Q 92.8 30.65 93.1 28.55
L 93.75 23.8
Q 94.2 21.4 94.25 20.55 94.8 13.45 94.8 12.45 94.8 10.4 91 5.25 Z"/>
</g>
</defs>

<g transform="matrix( 1, 0, 0, 1, 100,100) ">
<g transform="matrix( 0.8552093505859375, 0, 0, 0.8552093505859375, -36.1,-35.55) ">
<g transform="matrix( 1, 0, 0, 1, 0,0) ">
<use filter="url(#Filter_1)" xlink:href="#Symbol_10_0_Layer0_0_FILL"/>
</g>
</g>
</g>
</svg>
