
<svg xmlns="http://www.w3.org/2000/svg" version="1.1" xmlns:xlink="http://www.w3.org/1999/xlink" preserveAspectRatio="none" x="0px" y="0px" width="200px" height="200px" viewBox="0 0 200 200">
<defs>
<filter id="Filter_1" x="-20%" y="-20%" width="140%" height="140%" color-interpolation-filters="sRGB">
<feColorMatrix in="SourceGraphic" type="matrix" values="0.85 0 0 0 0.15294117647058825 0 0.85 0 0 0.15294117647058825 0 0 0.85 0 0.15294117647058825 0 0 0 0.18 0" result="result1"/>
</filter>

<filter id="Filter_2" x="-20%" y="-20%" width="140%" height="140%" color-interpolation-filters="sRGB">
<feColorMatrix in="SourceGraphic" type="matrix" values="0 0 0 0 1 0 0 0 0 1 0 0 0 0 1 0 0 0 1 0" result="result1"/>
</filter>

<g id="Symbol_13_0_Layer0_0_FILL">
<path fill="#FFFFFF" stroke="none" d="
M 32.1 4.2
L 32.3 3.35 20.3 2.35 20.3 25.55 9.95 25.25
Q 4.55 53.35 4.35 54.75
L 4.25 55.3
Q 8.55 52.45 8.55 51.8 10.75 49.95 11.3 49.1 12.1 47.8 13.8 46.35 15.2 45.1 23.95 29.35 23.95 29.3 24 29.25 24 29.2 24.05 29.2 24.05 29.15 24.05 29.1
L 24.05 29.05
Q 24.05 29 24.1 29
L 24.1 28.95
Q 24.1 28.9 24.1 28.85
L 24.15 28.8 24.15 28.75
Q 24.1 28.45 24 28.4
L 24.3 28.5 24.3 28.45
Q 24.35 28.25 24.45 28.05 24.45 28 24.5 28 24.5 27.95 24.55 27.95 24.55 27.9 24.55 27.85
L 24.6 27.8 24.6 27.7
Q 24.6 27.45 24.7 27.25 24.75 27.25 24.75 27.2 24.75 27.15 24.8 27.15 24.8 27.1 24.85 27 24.85 26.85 24.9 26.7 25 26.5 25.1 26.35 25.1 26.3 25.1 26.25
L 25.1 26.2
Q 25.1 26.15 25.15 26.15 25.15 26.1 25.15 26 25.2 26 25.2 25.95 25.2 25.9 25.25 25.9
L 25.25 25.85
Q 25.3 25.8 25.3 25.75
L 25.35 25.7
Q 25.35 25.65 25.35 25.6 25.4 25.5 25.4 25.4 25.45 25.3 25.5 25.2
L 25.5 25.1
Q 25.55 25.05 25.55 25
L 25.55 24.95 25.65 24.85
Q 25.65 24.8 25.65 24.75 25.7 24.7 25.7 24.65 25.75 24.55 25.8 24.45 25.8 24.4 25.85 24.35 25.85 24.3 25.9 24.25
L 25.9 24.2 25.95 24.15 25.95 24.1
Q 25.95 24.05 26 24
L 26 23.85
Q 26 23.8 26.05 23.75
L 26.05 23.7 26.1 23.65
Q 26.1 23.6 26.15 23.6 26.15 23.55 26.15 23.5
L 26.15 23.45 26.2 23.4
Q 26.2 23.35 26.25 23.35 26.25 23.3 26.25 23.25
L 26.25 23.1
Q 26.3 23 26.35 22.95 26.4 22.85 26.45 22.75 26.45 22.7 26.45 22.65 27.05 21.25 28.1 18.3 30.1 12.4 32.1 4.2 Z"/>

<path fill="#999999" stroke="none" d="
M 32.3 3.35
L 32.1 4.2
Q 32.6 3.85 32.7 3.35 17.2 0.25 15.95 0
L 16 0.3
Q 15.85 20 15.6 21.45 12.35 21.25 10.7 21.15 7.7 21 6.4 22.6 6.1 23 6 23.75 5.9 24.2 5.85 25.1 5.6 26.9 4.3 30.85 3.85 32.85 1.8 39.75 0 46.25 0 48.55 0 49.15 1.6 51.4 2.2 52.25 2.55 53.1 2.9 53.8 4.35 54.75 4.55 53.35 9.95 25.25
L 20.3 25.55 20.3 2.35 32.3 3.35 Z"/>
</g>

<g id="Symbol_15_0_Layer0_0_FILL">
<path fill="#999999" stroke="none" d="
M 37.1 3.8
L 37 3.8
Q 36.85 8.1 35.6 12.45 34.55 16.05 33.7 16.95 31.35 15.8 29.65 15 26.5 13.45 22.7 12.25 22.25 20.15 21.95 22.25 21.75 24 20.7 29.95 12.6 29.05 9.85 28.1 6.2 26.5 1.1 24.75
L 1.1 24.85
Q 1.1 24.9 1.1 24.95
L 1.1 25
Q 2.9 26.55 4.4 28.45 4.5 28.55 11.5 31.9 12.65 32.45 17.4 33.85 23.6 35.6 27.15 35.75 26.95 34.05 26.7 17.2
L 27.45 17.9
Q 29.1 19 31.3 20 31.95 20.3 35.85 22 36.25 20.3 36.8 16.15 37.35 11.65 37.35 9.2 37.35 4.7 37.1 3.8 Z"/>

<path fill="#FFFFFF" stroke="none" d="
M 37 3.8
L 37.1 3.2
Q 29.05 2.55 18.9 1.2 10.45 0 10.05 0 9.65 0 8.15 1.4 6.1 3.3 3.45 6.7 1.25 9.6 0.65 11 0 12.45 0 14.8 0 16.6 0.45 20.35 0.85 23.55 1.1 24.75 6.2 26.5 9.85 28.1 12.6 29.05 20.7 29.95 21.75 24 21.95 22.25 22.25 20.15 22.7 12.25 26.5 13.45 29.65 15 31.35 15.8 33.7 16.95 34.55 16.05 35.6 12.45 36.85 8.1 37 3.8 Z"/>
</g>

<g id="Symbol_75_2_Layer1_0_FILL">
<path fill="#FFFFFF" stroke="none" d="
M 6.75 114.2
Q 6.75 109.5 3.4 106.15 0.1 102.85 -4.6 102.85 -9.3 102.85 -12.65 106.15 -15.95 109.5 -15.95 114.2 -15.95 118.9 -12.65 122.2 -9.3 125.55 -4.6 125.55 -1.1 125.55 1.6 123.7 2.5 123.2 3.25 122.4 3.3 122.3 3.4 122.2 6.75 118.9 6.75 114.2 Z"/>
</g>

<g id="Symbol_74_1_Layer0_0_FILL">
<path fill="#FFFF00" stroke="none" d="
M 5.1 83.25
Q 6.1 83.25 7.2 83.05
L -4.55 81
Q -9.55 79.4 -19.7 85 -29.75 90.45 -31.7 95.55 -35.1 99.55 -36.35 108.3 -37.5 116.65 -35.95 122.65 -33.1 133.3 -22.6 140.1 -12.9 146.4 -1.9 146.4 -1.15 146.4 0.45 146.1 2 145.75 2.5 145.5
L 2.05 145.4
Q -13.9 140.6 -21.35 129.85 -26.9 121.85 -26.9 112.5 -26.9 107.4 -24.65 101.5 -22.35 95.45 -19.4 93.2 -16.55 90.85 -15 89.7 -12.25 87.7 -9.55 86.7 -6.8 85.7 -3.55 84.8 2.1 83.25 5.1 83.25 Z"/>
</g>

<g id="Symbol_38_0_Layer0_0_FILL">
<path fill="#FFFF00" stroke="none" d="
M 0.4 74.9
Q 5.95 72.05 20.6 62.6 25.55 59.5 28.85 57.45 35.1 53.55 38.35 51.25 38.1 50.9 38.1 50.55 27.35 57.9 19.8 62.55 5.35 71.45 0 74.85
L 0.4 74.9
M 34.55 12.1
Q 34.6 12 34.65 11.8 29.15 9.2 10.75 0 10.65 -0.05 10.65 0.3 10.65 0.5 10.7 0.6
L 10.75 0.65
Q 19.1 4.85 24.05 7.15 25.7 7.9 26.4 8.35 27.25 8.8 28.4 9.7 28.95 10.1 31 11.1 33.45 12.35 34.25 12.35 34.45 12.35 34.55 12.1
M 102.8 37.9
Q 102.75 37.95 102.85 38 103 38.05 103.15 38.05
L 102.8 37.9
M 136.85 49.45
Q 132.1 47.85 129.95 47 127.8 46.2 125.2 45.25 122.75 44.35 121.9 44.05 120.7 43.55 119.65 43.2 118.25 42.7 117.4 42.4 116.9 42.3 115.15 41.55 114.3 41.2 113.75 41.8 114 41.85 115.65 42.65 117.1 43.4 117.45 43.4 117.8 43.4 117.8 43.2
L 117.45 42.95
Q 124 45.6 144.9 53.3 145.25 53.3 145.45 53 141.45 51.05 136.85 49.45 Z"/>
</g>
</defs>

<g transform="matrix( 1, 0, 0, 1, 100,100) ">
<g transform="matrix( 1, 0, 0, 1, 40.05,21.3) ">
<g transform="matrix( 1, 0, 0, 1, 0,0) ">
<use filter="url(#Filter_1)" xlink:href="#Symbol_13_0_Layer0_0_FILL"/>
</g>
</g>

<g transform="matrix( 1, 0, 0, 1, -72.8,-75.5) ">
<g transform="matrix( 1, 0, 0, 1, 0,0) ">
<use filter="url(#Filter_1)" xlink:href="#Symbol_15_0_Layer0_0_FILL"/>
</g>
</g>

<g transform="matrix( 0.4244384765625, 0, 0, 0.4244384765625, 5.4,-51.3) ">
<g transform="matrix( 1, 0, 0, 1, 0,0) ">
<use filter="url(#Filter_2)" xlink:href="#Symbol_75_2_Layer1_0_FILL"/>
</g>

<g transform="matrix( 0.866119384765625, -0.49981689453125, 0.49981689453125, 0.866119384765625, -57.35,13) ">
<g transform="matrix( 1, 0, 0, 1, 0,0) ">
<use filter="url(#Filter_2)" xlink:href="#Symbol_74_1_Layer0_0_FILL"/>
</g>
</g>
</g>

<g transform="matrix( 1, 0, 0, 1, -69.05,-41.3) ">
<g transform="matrix( 1, 0, 0, 1, 0,0) ">
<use xlink:href="#Symbol_38_0_Layer0_0_FILL"/>
</g>
</g>
</g>
</svg>
