
<svg xmlns="http://www.w3.org/2000/svg" version="1.1" xmlns:xlink="http://www.w3.org/1999/xlink" preserveAspectRatio="none" x="0px" y="0px" width="200px" height="200px" viewBox="0 0 200 200">
<defs>
<g id="Symbol_34_0_Layer0_0_FILL">
<path fill="#52656A" stroke="none" d="
M 7.5 2.2
Q 6.35 3.6 5.8 4.45 5.2 4.8 4.05 6.9 2.35 8.65 2.1 9.55 1.65 9.85 0.6 11.7 -0.05 12.45 0.05 13.4
L 0.05 13.55 0 13.55 0.15 13.95
Q -0.05 13.75 0.05 13.95
L 0.1 14 0.1 14.05 0.15 14.1 0.2 14.85 0.3 14.95 0.3 15.25
Q 0.1 15.1 0.3 15.3
L 0.35 15.3 0.35 15.35 0.3 15.4 0.3 15.45
Q 0.05 15.3 0.25 15.55
L 0.3 15.95
Q 0.15 15.8 0.25 16
L 0.3 16.05 0.3 16.3
Q 0.2 16.35 0.35 16.45
L 0.4 17.1 0.45 17.15
Q 0.35 17.15 0.45 17.2
L 0.5 17.35 0.55 17.4 0.55 17.85 0.65 17.95 0.65 18.5 0.7 18.55 0.7 18.8
Q 0.35 18.55 0.7 18.85
L 0.8 19.2 0.8 19.3 0.85 19.35 0.85 19.4
Q 0.65 19.3 0.8 19.5
L 0.9 19.75 0.9 20
Q 0.65 19.8 0.95 20.1
L 0.95 20.25
Q 0.65 20 0.95 20.4
L 1 20.45
Q 0.75 20.25 1 20.6
L 1 20.75
Q 0.8 20.5 1 20.85
L 1 20.95
Q 0.8 20.9 1 21.05
L 1 21.1 1.05 21.4 1.05 21.5
Q 0.95 21.35 1.05 21.6
L 1.1 21.85 1.15 21.9 1.25 22.2
Q 1.05 22.05 1.25 22.3
L 1.25 22.45 1.3 22.5 1.3 22.8 1.35 22.95
Q 1.05 22.8 1.35 23 1.2 22.95 1.4 23.3 1.15 23.15 1.5 23.5 1.3 23.35 1.5 23.55
L 1.55 23.6
Q 1.4 23.55 1.55 23.7 1.4 23.75 1.65 24.15 1.4 24.05 1.7 24.6 1.45 24.4 1.65 24.85 1.6 24.8 1.7 25.15 1.65 25.2 1.7 25.35 1.65 25.3 1.8 25.8 1.7 25.85 2 26.2 1.75 26.1 1.95 26.3
L 2 26.35
Q 1.85 26.3 2.05 26.8 1.85 26.55 2 26.9 1.85 26.9 2.15 27.25 2 27.15 2.2 27.4
L 2.25 27.4
Q 2.1525390625 27.4017578125 2.3 27.5
L 2.3 27.55
Q 2.1 27.6 2.2 27.95
L 2.3 28.15
Q 2.3 28.2 2.3 28.35
L 2.4 28.45
Q 2.3 28.45 2.45 28.7 2.3 28.65 2.5 28.85
L 2.55 29 2.55 29.05 2.6 29.1 2.6 29.2
Q 2.45 29.1 2.55 29.4 2.5 29.35 2.6 29.8
L 2.7 30 2.75 30.35
Q 2.6 30.45 2.9 30.65
L 2.9 30.8
Q 2.8 30.9 3 31.15 2.85 31.2 3 31.35
L 3.05 31.5 3.05 31.55
Q 2.95 31.5 3.05 31.7
L 3.1 31.9 3.1 31.95 3.15 32.05
Q 2.9 32 3.15 32.15 3 32.1 3.25 32.35 3.1 32.4 3.25 32.55
L 3.3 32.6 3.3 32.7
Q 3.1 32.85 3.3 33.15 3.3 33.05 3.5 33.5
L 3.55 33.6 3.55 33.65
Q 3.35 33.55 3.55 33.9
L 3.65 34.25
Q 3.5 34.2 3.7 34.45 3.5 34.4 3.7 34.55 3.5 34.45 3.7 34.6
L 3.8 34.75 3.75 35.05
Q 3.6 35 3.75 35.15
L 3.75 35.4 3.85 35.5 3.85 35.55
Q 3.7 35.45 3.85 35.7 3.75 35.65 3.9 35.85
L 4 36.05
Q 3.9 36 4.05 36.15 3.9 36.3 4.2 36.5 4.05 36.5 4.25 36.85 4.15 36.85 4.35 37.05 4.25 37.2 4.5 37.65
L 4.55 37.75
Q 5.25 41.25 6.55 45.25 7.2 47.7 9.45 53.85 10.5 57.3 12.35 61.65 14.25 66.15 15.05 67.7
L 15.1 68 15.1 68.05 15.3 68.25 15.35 68.35
Q 15.45 68.6 15.75 69.1 15.7 69.15 15.85 69.4 15.8 69.4 15.95 69.6
L 15.95 69.75 16.15 69.9 16.2 70
Q 16.1 70.05 16.3 70.25
L 16.4 70.4 16.4 70.45 16.55 70.65
Q 16.35 70.65 16.6 70.9
L 16.75 71.35
Q 16.8 71.5 17.1 71.95 18.25 73.8 19.6 75.95 19.9 76.4 20.8 77.7 21.45 78.5 22.35 79.45
L 22.7 79.95 22.65 80.05
Q 22.7 80 23.05 80.3 23 80.35 23.3 80.5
L 23.3 80.55 23.5 80.7
Q 23.35 80.75 23.55 80.8 23.75 81.05 24.1 81.45 24.55 81.9 25.2 82.5
L 25.45 82.85
Q 25.45 82.95 25.9 83.25
L 25.95 83.35
Q 26.15 83.4 27.2 84.4 27.2 84.45 28.75 86.15 29.3 86.55 31.05 87.9 32.65 89.1 33.15 89.6 33.25 89.75 35.15 90.95 36.1 91.3 38.45 92.95 39.95 93.55 41.1 94.1 41.5 94.25 43.3 95.05 43.15 94.8 43.45 94.9 42.55 93.55 42.45 93.3 42.1 92.05 40.5 87.5 39.55 83.75 39.15 83.1 39.05 82.9 34.9 78.95 43.3 76.35 50.05 74.65 53.25 73.75 55.95 71.4
L 55.25 71.65
Q 49.95 73.6 49.2 73.85 46.2 74.8 44.45 74.8 43.85 74.8 42.9 72.75 41.95 70.8 41.6 69.1 41.05 66.55 40.6 60.1
L 40.35 60.25
Q 40.05 62.85 39.75 66.3 37.5 64.4 36 63.3 33.25 61.25 31.35 61.25
L 26.4 64.85
Q 26.6 59.55 26.65 57.85 26.75 55.3 26.6 54.55
L 26.45 54.55
Q 25.3 55.7 24.55 59.8 23.9 63.35 24.05 64.5
L 23.95 64.25
Q 16.6 44.3 14.45 35.3 14.3 34.9 11.2 17.45
L 10.5 13.95
Q 10.45 13.5 10.15 12.35 9.9 11.5 9.9 10.95 9.9 10.45 9.55 8.65 9.2 6.85 9.2 6.35 9.2 5.85 9.25 4 9.15 2.35 8.5 2.35 7.9 2.35 8.1 2.15 8.2 2.05 8.4 1.85
L 8.45 1.55
Q 7.75 1.55 7.5 2.2
M 22 72.8
Q 21.95 71.65 22.4 65.15
L 22.45 65.15
Q 23 67.5 23.9 71.9 24.6 76 24.7 76.75 24.65 76.75 24.65 76.45 24.5 76 23.95 76.1 23.3 76.1 22.8 75.55 22 74.7 22 72.8
M 32.85 82.4
L 32.55 82.55 28.8 82.65
Q 28.7 82.6 28.65 82.8 28.6 82.9 28.6 82.4 28.6 81.8 28.95 81.1 29.2 80.15 29.3 80.1
L 29.35 80.1
Q 29.9 80.5 32.85 82.4
M 40.3 75.75
Q 40.2 75.7 40.2 75.65
L 40.2 75.6 40.3 75.75
M 68.1 4.6
Q 67.55 5.9 66.85 9 66.1 12.35 66.15 13.55 52.25 13.9 51.1 14.2 46.5 10.1 46.35 10.2 46.4 11.85 47.3 14.85 48.2 17.8 48.2 17.85 48.2 19.2 46.4 20.8 44.85 22.1 44.45 22.1 43.95 22.1 42.3 21.7 40.6 21.25 40.1 21.25 39.5 21.25 39.45 21.3 39.6 21.4 39.55 21.45 39.9 22.1 42.8 24.1 46.45 26.6 49.25 29.35 49.65 29.75 50.75 31.95 52.6 35.65 53.3 36.95 55.7 41.4 55.85 41.75 56.95 44.55 59.4 50.6
L 59.6 49.9
Q 60.05 47.1 60.55 41.75 70.75 33.65 72.5 32.1 73.7 31.05 75 29.75 75.2 29.55 75.2 27.75 75.15 26.1 75.7 26.1 76.3 26.1 76.2 23.45 76.15 22.05 76.05 19.6
L 75.75 19.55
Q 75.65 19.75 74.7 23.65 73.9 27.1 72.9 27.8 72.4 28.15 70.75 29.35 69.85 30.05 69 30.4 69.8 14.4 68.1 4.6
M 64.9 22.55
L 64.95 22.6
Q 64.3 24.25 63.25 30.55 61.9 35.65 59.45 34.75 59.9 33.8 62.3 28.05 64.15 23.15 64.9 22.55
M 52.55 22.95
Q 52.9 23 54.7 23.55
L 55.1 23.6
Q 53.4 20.9 51.35 16.75 51.35 16.65 51.15 16.65
L 51.6 16.6
Q 51.85 16.6 55.5 21.4 59.25 26.15 59.8 27.4
L 59.9 27.5
Q 59.75 27.4 58.6 26.8 57 25.75 51.35 23.1 51.95 22.8 52.55 22.95 Z"/>

<path fill="#8BA0B0" stroke="none" d="
M 40.2 75.65
Q 40.2 75.7 40.3 75.75
L 40.2 75.6 40.2 75.65
M 32.55 82.55
L 32.85 82.4
Q 29.9 80.5 29.35 80.1
L 29.3 80.1
Q 29.2 80.15 28.95 81.1 28.6 81.8 28.6 82.4 28.6 82.9 28.65 82.8 28.7 82.6 28.8 82.65
L 32.55 82.55
M 22.4 65.15
Q 21.95 71.65 22 72.8 22 74.7 22.8 75.55 23.3 76.1 23.95 76.1 24.5 76 24.65 76.45 24.65 76.75 24.7 76.75 24.6 76 23.9 71.9 23 67.5 22.45 65.15
L 22.4 65.15
M 82.8 21.5
Q 83.95 21.5 83.95 10.9 83.95 8 76.5 0 66.65 1.55 61.15 1.55 60.65 1.55 60.05 1.7 59.5 1.8 59.05 1.8
L 59.05 1.9
Q 55 2.2 47.5 2.55 40.85 2.85 39.8 2.85 28.55 2.85 17.9 2.25 10.5 1.85 8.45 1.55
L 8.4 1.85
Q 8.2 2.05 8.1 2.15 7.9 2.35 8.5 2.35 9.15 2.35 9.25 4 9.2 5.85 9.2 6.35 9.2 6.85 9.55 8.65 9.9 10.45 9.9 10.95 9.9 11.5 10.15 12.35 10.45 13.5 10.5 13.95
L 11.2 17.45
Q 14.3 34.9 14.45 35.3 16.6 44.3 23.95 64.25
L 24.05 64.5
Q 23.9 63.35 24.55 59.8 25.3 55.7 26.45 54.55
L 26.6 54.55
Q 26.75 55.3 26.65 57.85 26.6 59.55 26.4 64.85
L 31.35 61.25
Q 33.25 61.25 36 63.3 37.5 64.4 39.75 66.3 40.05 62.85 40.35 60.25
L 40.6 60.1
Q 41.05 66.55 41.6 69.1 41.95 70.8 42.9 72.75 43.85 74.8 44.45 74.8 46.2 74.8 49.2 73.85 49.95 73.6 55.25 71.65
L 55.95 71.4
Q 53.25 73.75 50.05 74.65 43.3 76.35 34.9 78.95 39.05 82.9 39.15 83.1 39.55 83.75 40.5 87.5 42.1 92.05 42.45 93.3 42.55 93.55 43.45 94.9 49.5 92.55 50.1 92.2 52.3 90.95 52.6 90.7 53.35 90.15 55.95 88.25 56.15 88.1 58.35 86.05 60.6 83.9 61.15 83.35 62.95 81.45 66.8 75.25 70.85 68.75 70.85 67.4 70.85 66.85 71.1 66.55 71.5 66.05 71.7 65.55 71.9 64.85 72.65 63.1 73 62.1 73.1 61.65 73.35 61.1 73.7 60.15 73.75 60.1 76.7 49 79.6 38.1 79.7 38.1 80.2 38.1 79.85 37.75
L 79.8 37.7
Q 79.85 37.6 79.85 37.35 79.85 37.3 79.85 37.2 79.85 36.6 80.1 35.5 80.55 33.6 80.55 33.55 80.6 33.25 80.95 31.65 81.25 30.1 81.25 29.5 81.25 28.95 81.55 27.9 81.95 26.55 82 26.1 82 26 82.4 23.95 82.7 22.2 82.7 21.6 82.7 21.55 82.7 21.5 82.75 21.5 82.8 21.5
M 66.85 9
Q 67.55 5.9 68.1 4.6 69.8 14.4 69 30.4 69.85 30.05 70.75 29.35 72.4 28.15 72.9 27.8 73.9 27.1 74.7 23.65 75.65 19.75 75.75 19.55
L 76.05 19.6
Q 76.15 22.05 76.2 23.45 76.3 26.1 75.7 26.1 75.15 26.1 75.2 27.75 75.2 29.55 75 29.75 73.7 31.05 72.5 32.1 70.75 33.65 60.55 41.75 60.05 47.1 59.6 49.9
L 59.4 50.6
Q 56.95 44.55 55.85 41.75 55.7 41.4 53.3 36.95 52.6 35.65 50.75 31.95 49.65 29.75 49.25 29.35 46.45 26.6 42.8 24.1 39.9 22.1 39.55 21.45 39.6 21.4 39.45 21.3 39.5 21.25 40.1 21.25 40.6 21.25 42.3 21.7 43.95 22.1 44.45 22.1 44.85 22.1 46.4 20.8 48.2 19.2 48.2 17.85 48.2 17.8 47.3 14.85 46.4 11.85 46.35 10.2 46.5 10.1 51.1 14.2 52.25 13.9 66.15 13.55 66.1 12.35 66.85 9
M 54.7 23.55
Q 52.9 23 52.55 22.95 51.95 22.8 51.35 23.1 57 25.75 58.6 26.8 59.75 27.4 59.9 27.5
L 59.8 27.4
Q 59.25 26.15 55.5 21.4 51.85 16.6 51.6 16.6
L 51.15 16.65
Q 51.35 16.65 51.35 16.75 53.4 20.9 55.1 23.6
L 54.7 23.55
M 64.95 22.6
L 64.9 22.55
Q 64.15 23.15 62.3 28.05 59.9 33.8 59.45 34.75 61.9 35.65 63.25 30.55 64.3 24.25 64.95 22.6 Z"/>
</g>
</defs>

<g transform="matrix( 1, 0, 0, 1, 100,100) ">
<g transform="matrix( 1, 0, 0, 1, -40.9,-40.15) ">
<g transform="matrix( 1, 0, 0, 1, 0,0) ">
<use xlink:href="#Symbol_34_0_Layer0_0_FILL"/>
</g>
</g>
</g>
</svg>
