
<svg xmlns="http://www.w3.org/2000/svg" version="1.1" xmlns:xlink="http://www.w3.org/1999/xlink" preserveAspectRatio="none" x="0px" y="0px" width="200px" height="200px" viewBox="0 0 200 200">
<defs>
<g id="Symbol_17_0_Layer0_0_FILL">
<path fill="#52656A" stroke="none" d="
M 10.15 8.45
Q 10.15 8.2 10.45 7.4 10.55 7.05 9.95 7.05 9.35 7.05 9.35 6.05 9.45 4.8 9.45 4.3 9.45 3.15 9.2 2.55 9.35 2.55 9.3 2.4 9.3 2.25 9.1 2.15 9.3 1.65 9.4 1.35 9.55 0.8 8.95 0.8 8.837109375 0.8337890625 8.75 0.85 8.85 0.716015625 8.85 0.35 8.85 0.25390625 8.85 0.15 6.4818359375 2.9318359375 2.75 7.1 0.05 10.25 0.05 11.05 0.05 11.4 0.15 12.05 0.2 12.45 0.1 13
L 0.35 13.15
Q 0.35 13.35 0.15 13.2 0.15 13.25 -0.2 13.45 -0.4 13.65 0.2 13.65 0.85 13.65 0.8 14.8 0.75 15.2 0.5 16.5 0.7 16.65 0.75 16.95 0.85 17.25 0.7 17.25 0.85 17.45 0.85 18
L 0.75 17.95
Q 0.95 18.25 0.95 18.55
L 0.9 18.5
Q 1.05 18.8 0.9 18.7 1 18.8 1.05 19.05 1.15 19.3 1.05 19.25
L 1 19.2
Q 1 19.3 0.95 19.25 1.35 20.15 1.25 20.7
L 1.15 20.65
Q 1.2474609375 20.7015625 0.95 20.9 0.75 21.05 1.3 21.05 2.3 21.05 1.4 21.3
L 1.35 21.25
Q 1.65 22.15 1.65 22.4
L 1.55 22.35
Q 1.55 22.4 1.25 22.55 1.05 22.65 1.65 22.65 2.25 22.65 2.15 23.35 2.1 23.75 1.95 24.5
L 1.9 24.45
Q 2 24.8 2.25 25.55 2.45 26.35 2.45 26.95 2.45 27.45 2.75 28.55 3.05 29.55 3 29.8 3.25 30.25 3.55 32.2
L 3.65 32.2 3.65 32.8
Q 3.65 33.7169921875 3.7 33.3 3.815625 33.4984375 4.05 33.85 4.35 34.4 4.35 35 4.35 40.7 16 66.65 16.4484375 66.65 16.5 66.6 16.3 66.7669921875 16.3 67.3 16.3 67.65 17.9 70.15 19.95 73.4 22.35 75.85 22.6 76.1 23.2 76.85 23.9 77.7 25.05 78.6 26.9 80.05 31.45 83.6 36.05 86.85 41.6 88.7
L 41.8 88.7 41.75 88.6
Q 41.7 88.5 41.2 88 40.9 87.75 40.9 87.15 38.9 80.9 38.4 79 38.2 78.25 37.3 77.5 35.5 75.95 34.05 74.45 37.95 73.05 48.1 69.9 51.15 68.95 53.4 66.75
L 52.7 66.95
Q 50.7 68.05 47.5 69.1 44.25 70.2 43 70.2 41.25 70.2 40.3 63.75 39.7 59.6 39.7 56.75 39.35 58.2 38.8 62.45 36.6 60.75 35.25 59.8 32.75 58 30.95 58 30.75 58 28.65 59.55 26.65 61 26.15 61.45 26.5 53.35 26.45 51.75
L 26.25 51.75
Q 25.15 52.85 24.35 56.75 23.55 60.4 23.95 61.2
L 23.8 60.95 23.4 60.1
Q 20.55 54.85 17 41.2 13.6 28.35 12.05 17.95 11.9 16.95 11.55 15.85 11.2 14.75 11.15 14.3 11.2 13.15 11.2 12.45 11.2 11.2 10.6 11.2 10 11.2 10 10.2 10.15 8.95 10.15 8.45
M 24.2 72.3
Q 23.2 71.95 22.7 71.6 21.75 70.95 21.75 69.1
L 22.3 61.9 22.6 63.15
Q 24.3 71.35 24.3 72.45
L 24.2 72.3
M 28.8 75.7
L 32 77.65
Q 28.1 78.3 28.05 78.2 28.4 76.25 28.8 75.7
M 65.05 6.65
L 64.7 6.9
Q 63.55 12.15 63.35 14.6
L 49.85 14.6 45.8 10.45
Q 45.75 10.35 45.7 10.4 45.6 10.45 45.6 11.05 45.6 11.2 46.45 13.4 47.25 15.6 47.25 17.7 47.25 19.75 43.8 21.55 43.3 21.55 41.7 21.1 40.1 20.65 39.6 20.65 39 20.65 39.05 20.7 39.1 20.7 39.2 20.8 40.15 23.2 43.4 25.05 47.25 27.25 48.35 28.6 48.9 29.25 48.95 29.7 49.05 30.35 49.5 31.2 51.6 35.05 51.6 35.5 51.6 36.6 52.35 38.1 52.75 38.85 53.25 39.75 53.6 40.8 54.55 42.8 55.8 45.55 56.75 47.9
L 57.05 46.75
Q 57.85 40.5 58 39.9 60.5 36.95 63.75 34.7 65.55 33.5 68.45 31.6 72.55 28.45 71.55 20.45
L 71.3 20.4
Q 70.75 21.2 70.1 24.45 69.6 27.15 68 28.3 66.4 29.5 65.45 29.9 66.1 21.1 65.7 13.95 65.1 8 65.05 6.65
M 50 22.8
Q 51.35 22.75 53.4 23.3
L 50.05 16.8
Q 52.15 18.5 54.15 21.7 56.95 26.15 57.5 26.85
L 57.6 27
Q 54.4 25 50 22.8
M 57.1 33.6
Q 57.2 33.4 59.25 28.55 61.15 23.95 62.05 22.7 61.75 23.9 60.9 28.35 59.8 32.5 57.6 33.8
L 57.1 33.6 Z"/>

<path fill="#8BA0B0" stroke="none" d="
M 32 77.65
L 28.8 75.7
Q 28.4 76.25 28.05 78.2 28.1 78.3 32 77.65
M 22.7 71.6
Q 23.2 71.95 24.2 72.3
L 24.3 72.45
Q 24.3 71.35 22.6 63.15
L 22.3 61.9 21.75 69.1
Q 21.75 70.95 22.7 71.6
M 72.5 3.1
Q 72.45 3.05 71.75 3.15 70.45 3.3 68.3 3.4
L 55.3 3.65
Q 25.8 3.65 9 0 8.9263671875 0.0859375 8.85 0.15 8.85 0.25390625 8.85 0.35 8.85 0.716015625 8.75 0.85 8.837109375 0.8337890625 8.95 0.8 9.55 0.8 9.4 1.35 9.3 1.65 9.1 2.15 9.3 2.25 9.3 2.4 9.35 2.55 9.2 2.55 9.45 3.15 9.45 4.3 9.45 4.8 9.35 6.05 9.35 7.05 9.95 7.05 10.55 7.05 10.45 7.4 10.15 8.2 10.15 8.45 10.15 8.95 10 10.2 10 11.2 10.6 11.2 11.2 11.2 11.2 12.45 11.2 13.15 11.15 14.3 11.2 14.75 11.55 15.85 11.9 16.95 12.05 17.95 13.6 28.35 17 41.2 20.55 54.85 23.4 60.1
L 23.8 60.95 23.95 61.2
Q 23.55 60.4 24.35 56.75 25.15 52.85 26.25 51.75
L 26.45 51.75
Q 26.5 53.35 26.15 61.45 26.65 61 28.65 59.55 30.75 58 30.95 58 32.75 58 35.25 59.8 36.6 60.75 38.8 62.45 39.35 58.2 39.7 56.75 39.7 59.6 40.3 63.75 41.25 70.2 43 70.2 44.25 70.2 47.5 69.1 50.7 68.05 52.7 66.95
L 53.4 66.75
Q 51.15 68.95 48.1 69.9 37.95 73.05 34.05 74.45 35.5 75.95 37.3 77.5 38.2 78.25 38.4 79 38.9 80.9 40.9 87.15 40.9 87.75 41.2 88 41.7 88.5 41.75 88.6 42.5 88.4 49.8 84.65 49.8 84.45 51.1 83.45 52.9 82.2 53.75 81.5 54.25 81.15 54.95 80.3 55.7 79.4 56.3 78.95 58.7 77.15 62.7 70.25 66.4 63.9 66.4 62.8 66.4 62.25 66.65 62 67 61.55 67.15 61.15 67.5 60.5 67.95 59.3 68.5 57.45 68.95 56.35 69.4 55.2 74 38.7 74.5 36.95 74.5 36.1 74.5 35.6 74.85 34.3 75.2 33 75.2 32.5 75.2 30.95 75.9 29.45 75.9 29.3013671875 75.9 29 75.9 28.45 76.2 27.35 76.6 26 76.65 25.65 76.7 25.2 77.35 22.05 77.3 21.85 77.3 21.15 77.55 21.1 77.85 20.35 78.35 18.9 78.35 13.1 75.75 5.6 72.5 3.1
M 64.7 6.9
L 65.05 6.65
Q 65.1 8 65.7 13.95 66.1 21.1 65.45 29.9 66.4 29.5 68 28.3 69.6 27.15 70.1 24.45 70.75 21.2 71.3 20.4
L 71.55 20.45
Q 72.55 28.45 68.45 31.6 65.55 33.5 63.75 34.7 60.5 36.95 58 39.9 57.85 40.5 57.05 46.75
L 56.75 47.9
Q 55.8 45.55 54.55 42.8 53.6 40.8 53.25 39.75 52.75 38.85 52.35 38.1 51.6 36.6 51.6 35.5 51.6 35.05 49.5 31.2 49.05 30.35 48.95 29.7 48.9 29.25 48.35 28.6 47.25 27.25 43.4 25.05 40.15 23.2 39.2 20.8 39.1 20.7 39.05 20.7 39 20.65 39.6 20.65 40.1 20.65 41.7 21.1 43.3 21.55 43.8 21.55 47.25 19.75 47.25 17.7 47.25 15.6 46.45 13.4 45.6 11.2 45.6 11.05 45.6 10.45 45.7 10.4 45.75 10.35 45.8 10.45
L 49.85 14.6 63.35 14.6
Q 63.55 12.15 64.7 6.9
M 59.25 28.55
Q 57.2 33.4 57.1 33.6
L 57.6 33.8
Q 59.8 32.5 60.9 28.35 61.75 23.9 62.05 22.7 61.15 23.95 59.25 28.55
M 53.4 23.3
Q 51.35 22.75 50 22.8 54.4 25 57.6 27
L 57.5 26.85
Q 56.95 26.15 54.15 21.7 52.15 18.5 50.05 16.8
L 53.4 23.3 Z"/>
</g>
</defs>

<g transform="matrix( 1, 0, 0, 1, 100,100) ">
<g transform="matrix( 1, 0, 0, 1, -40.95,-36.8) ">
<g transform="matrix( 1, 0, 0, 1, 0,0) ">
<use xlink:href="#Symbol_17_0_Layer0_0_FILL"/>
</g>
</g>
</g>
</svg>
